<svg viewBox="0 0 400 240" xmlns="http://www.w3.org/2000/svg" fill-rule="evenodd" clip-rule="evenodd" stroke-linejoin="round" stroke-miterlimit="1.414"><clipPath id="a"><path d="M19.388 72.267h361.224v95.466H19.388z"/></clipPath><g clip-path="url(#a)"><path d="M215.171 126.554c-3.199 2.038-13.365 7.585-28.898 7.585-13.7 0-20.202-6.269-22.163-8.643-8.67 5.134-19.945 8.953-29.982 8.953-11.482 0-16.952-3.509-19.222-5.702l-1.058 3.07H46.48c-8.102 0-29.956-4.593-26.783-28.666 2.89-21.776 22.396-27.969 35.684-29.052h43.321c7.199-.413 15.12.567 20.693 5.495a25.953 25.953 0 0 1 2.426 2.452 294.888 294.888 0 0 1 12.101-5.677c14.345-6.321 34.393-3.096 40.87 6.605 3.354-2.709 13.159-9.056 24.615-9.056h62.775s1.703.026 3.767.284c4.387.542 6.864 1.548 9.857 4.773l.412.465c3.458-3.69 8.205-5.728 13.34-5.341h57.202c8.025-.387 16.875 3.354 20.332 11.12 3.38 7.56 2.038 15.533-3.896 21.003.8 2.012.981 4.257.464 6.347-.645 2.632-6.14 19.274-6.14 19.274H227.917c-4.85.232-9.52-.619-12.462-4.851l-.284-.438z" fill="#fff" fill-rule="nonzero"/><path d="M133.251 111.666c3.948 3.354 11.507 2.296 16.874-2.374 5.367-4.67 6.502-11.198 2.555-14.552-3.948-3.354-11.508-2.296-16.875 2.374-5.367 4.67-6.502 11.172-2.554 14.552m-11.998 10.398c-8.85-7.508-6.27-22.086 5.728-32.536 11.998-10.45 28.898-12.823 37.748-5.315 8.85 7.508 6.27 22.086-5.728 32.536-11.998 10.45-28.898 12.823-37.748 5.315"/><path d="M186.996 111.666c3.948 3.354 11.507 2.296 16.874-2.374 5.367-4.67 6.528-11.198 2.555-14.552-3.948-3.354-11.508-2.296-16.875 2.374-5.366 4.67-6.528 11.172-2.554 14.552m-12.024 10.398c-8.85-7.508-6.27-22.086 5.728-32.536 11.998-10.45 28.898-12.823 37.748-5.315 8.824 7.508 6.27 22.086-5.728 32.536-11.998 10.45-28.898 12.823-37.748 5.315"/><path d="M308.909 123.715l13.004-41.876h23.686s14.527-1.419 15.714 10.811c.799 8.205-8.205 11.972-8.205 11.972s3.792 3.251 2.735 6.941c-1.058 3.638-3.793 12.152-3.793 12.152h-15.043s3.019-9.52 3.329-10.733c.696-2.761-1.729-3.096-1.729-3.096h-8.773l-4.283 13.804h-16.642v.025zm23.815-23.299h9.057s3.328-.361 3.921-3.715c.646-3.586-2.554-3.896-2.554-3.896h-8.05l-2.374 7.611zm-63.653 23.299s7.792-25.466 8.695-28.381c3.148-10.27 7.173-13.495 16.281-13.495h24.744l-3.431 11.018h-19.481s-2.554-.258-3.354 2.683c-.8 2.916 1.78 2.683 1.78 2.683h12.05l-2.967 9.728h-12.179s-2.167-.258-2.941 2.451c-.877 3.044 2.064 3.044 2.064 3.044h18.603l-3.199 10.269h-36.665zm-39.089 0s-5.238.155-6.735-3.096c-2.709-5.883 2.374-9.495 2.374-9.495l24.305-18.319H226.06c-.568-3.819-2.348-7.276-5.444-9.908-.387-.335-.8-.645-1.239-.955h45.127s3.587.258 5.238 3.329c2.993 5.625-2.554 9.34-2.554 9.34l-24.357 18.913h25.956l-3.122 10.217h-35.683v-.026zM70.475 92.908s-7.74-.077-13.752.748c-4.928.697-11.559 3.896-12.72 10.141-1.497 8.127 6.115 8.514 9.701 8.798 1.729.129 10.579 0 10.579 0L60.8 123.741s-11.018.026-13.701-.026c-4.877-.077-11.456-1.625-14.527-4.747-2.812-2.864-6.476-8.437-3.534-18.139 4.36-14.474 18.938-17.493 25.801-18.422 5.754-.774 19.068-.542 19.068-.542l-3.432 11.043zm17.365 7.508h9.03s3.329-.361 3.922-3.715c.645-3.586-2.554-3.896-2.554-3.896h-8.05l-2.348 7.611zm-23.893 23.299l13.082-41.876h23.634s14.552-1.419 15.739 10.811c.8 8.205-8.385 11.972-8.385 11.972s3.973 3.251 2.915 6.941c-1.058 3.638-3.818 12.152-3.818 12.152H92.071s3.019-9.52 3.329-10.733c.696-2.761-1.729-3.096-1.729-3.096h-8.773l-4.283 13.804H63.947v.025z" fill-rule="nonzero"/><path d="M215.171 126.554c-3.199 2.038-13.365 7.585-28.898 7.585-13.7 0-20.202-6.269-22.163-8.643-8.67 5.134-19.945 8.953-29.982 8.953-11.482 0-16.952-3.509-19.222-5.702l-1.058 3.07H46.48c-8.102 0-29.956-4.593-26.783-28.666 2.89-21.776 22.396-27.969 35.684-29.052h43.321c7.199-.413 15.12.567 20.693 5.47a25.845 25.845 0 0 1 2.426 2.451 286.068 286.068 0 0 1 12.127-5.677c14.319-6.295 34.367-3.07 40.844 6.631 3.354-2.709 13.159-9.056 24.615-9.056h62.775s1.677.026 3.767.284c4.387.542 6.864 1.548 9.857 4.773l.412.465c3.458-3.69 8.205-5.728 13.34-5.341h57.202c8.025-.387 16.875 3.354 20.332 11.12 3.38 7.56 2.038 15.533-3.896 21.003.8 2.012.981 4.257.464 6.373-.645 2.657-6.14 19.274-6.14 19.274H227.917c-4.85.232-9.52-.619-12.462-4.851l-.284-.464zm-15.764-50.417c-7.044 0-19.997 4.18-25.08 10.63-6.966-13.313-28.382-13.262-39.528-8.334-7.612 3.355-13.649 6.451-13.649 6.451s-.8-1.11-1.239-1.6c-4.876-5.599-10.295-6.683-17.467-6.941-2.219-.077-3.69 0-3.69 0H55.459c-13.03 1.058-30.885 7.019-33.543 27.144-2.864 21.751 16.591 26.111 24.564 26.111h65.742l1.961-5.676s1.29 2.141 1.394 2.245c3.612 4.954 13.417 6.063 18.551 6.063 10.295 0 21.957-4.18 30.601-9.753 0 0 .929 1.445 1.626 2.193 4.979 5.341 12.875 7.25 19.918 7.25 10.141 0 21.545-2.554 29.801-8.772 0 0 .594 1.496.671 1.677 2.142 4.257 6.786 5.031 11.147 4.799h128.002c1.058-3.199 5.032-15.3 5.599-17.571.594-2.4.078-4.335-1.109-6.425 0 0 .903-.696 1.135-.877 5.393-4.747 6.554-11.894 3.561-18.603-3.045-6.837-11.147-10.192-18.216-9.805h-57.358s-.903-.077-2.244.078c-5.548.593-7.767 2.554-11.121 6.657 0 0-1.239-1.806-1.935-2.555-3.354-3.638-7.173-4.283-11.998-4.334h-62.801v-.052z" fill-rule="nonzero"/><clipPath id="b"><path d="M116.119 142.293H361.39v25.157H116.119z"/></clipPath><g clip-path="url(#b)"><path d="M361.39 147.969c-.645-.181-1.239-.284-1.78-.284-.749 0-1.368.181-1.858.516-.49.336-.903.8-1.239 1.445h-.103l-.413-1.677h-1.548v13.675h2.193v-9.572a2.782 2.782 0 0 1 .852-1.626c.464-.439 1.084-.645 1.858-.645.49 0 1.006.077 1.548.258l.49-2.09zm-13.314 2.425c.516.568.8 1.523.8 2.916h-6.786c.129-1.367.516-2.348 1.161-2.89.645-.567 1.497-.851 2.58-.851.981 0 1.729.258 2.245.825m1.652 8.567c-.31.283-.774.541-1.394.774a5.24 5.24 0 0 1-1.857.335c-.8 0-1.471-.103-2.039-.335-.542-.233-1.006-.568-1.341-.981-.362-.438-.594-.954-.775-1.574a8.886 8.886 0 0 1-.258-2.141h8.773c.103-.723.155-1.394.155-1.987 0-1.161-.155-2.064-.465-2.761-.309-.696-.696-1.238-1.212-1.625a4.004 4.004 0 0 0-1.677-.774 9.118 9.118 0 0 0-1.858-.207c-1.935 0-3.432.62-4.464 1.832-1.032 1.239-1.548 2.993-1.548 5.341 0 1.084.129 2.09.361 2.967.233.878.594 1.626 1.084 2.245a4.978 4.978 0 0 0 1.884 1.445c.774.335 1.677.516 2.709.516.929 0 1.806-.129 2.631-.387.826-.258 1.523-.593 2.065-1.032l-.774-1.651zm-20.487.696a2.963 2.963 0 0 1-1.058-1.058c-.284-.464-.464-1.006-.593-1.651-.129-.645-.181-1.342-.181-2.116 0-1.78.361-3.096 1.058-3.947.722-.852 1.677-1.265 2.916-1.265 1.135 0 2.064.181 2.786.516v7.019c-.206.98-.593 1.702-1.109 2.167-.542.464-1.265.697-2.194.697-.645.025-1.186-.104-1.625-.362m7.121-11.12a15.337 15.337 0 0 0-1.986-.568 13.05 13.05 0 0 0-2.658-.258c-2.167 0-3.819.594-4.928 1.832-1.11 1.213-1.677 2.993-1.677 5.315 0 2.426.438 4.206 1.29 5.367.877 1.135 2.219 1.729 4.076 1.729.904 0 1.652-.155 2.219-.439a3.727 3.727 0 0 0 1.394-1.213h.103v1.316c0 .697-.052 1.29-.155 1.781a2.78 2.78 0 0 1-.593 1.238c-.284.31-.671.542-1.161.697-.491.129-1.11.206-1.884.206-.826 0-1.496-.077-1.987-.232-.516-.155-.98-.31-1.393-.465l-.568 1.858c.465.207 1.032.387 1.703.542.671.129 1.548.206 2.632.206 1.832 0 3.225-.412 4.18-1.264.929-.851 1.419-2.141 1.419-3.922v-13.726h-.026zm-14.475 13.107v-8.257c0-1.135-.103-2.064-.283-2.812-.181-.748-.465-1.316-.852-1.754a3.095 3.095 0 0 0-1.419-.929c-.568-.181-1.213-.258-1.961-.258-1.032 0-1.909.18-2.632.567a4.652 4.652 0 0 0-1.754 1.445h-.103l-.413-1.677h-1.522v13.675h2.193v-9.34c.258-.8.696-1.445 1.316-1.961.619-.516 1.419-.774 2.399-.774 1.084 0 1.858.361 2.271 1.083.413.723.619 1.781.619 3.226v7.792h2.141v-.026zm-18.164-16.9c.258.258.568.387.981.387.412 0 .748-.129 1.006-.387s.361-.568.361-.955c0-.413-.129-.748-.361-1.006-.232-.258-.568-.387-1.006-.387-.413 0-.723.129-.981.387-.232.258-.361.593-.361 1.006 0 .387.129.697.361.955m-5.238 0c.258.258.568.387.981.387.413 0 .722-.129.98-.387s.361-.568.361-.955c0-.413-.129-.748-.361-1.006-.258-.258-.567-.387-.98-.387-.387 0-.723.129-.981.387s-.361.593-.361 1.006c-.026.387.103.697.361.955m.774 14.604c-.464-.413-.696-.929-.696-1.574 0-.465.129-.826.361-1.136.258-.309.568-.541.98-.722.413-.181.878-.284 1.419-.361a17.073 17.073 0 0 1 1.652-.103c.258 0 .516 0 .774.025.258 0 .516.026.774.052v2.271c-.103.232-.232.49-.439.748-.18.258-.438.49-.722.696a3.848 3.848 0 0 1-1.032.516 4.33 4.33 0 0 1-1.368.207c-.671-.026-1.238-.207-1.703-.619m-1.445-8.696a5.62 5.62 0 0 1 .878-.412 7.057 7.057 0 0 1 1.058-.31c.361-.077.748-.155 1.083-.206a7.095 7.095 0 0 1 1.007-.078c1.057 0 1.78.207 2.193.594.387.412.593 1.109.593 2.115 0 .439-.026.929-.077 1.471-.258-.026-.516-.052-.749-.052h-.748c-1.006 0-1.909.078-2.761.207-.825.129-1.548.361-2.141.697a3.302 3.302 0 0 0-1.368 1.29c-.335.541-.49 1.212-.49 2.012 0 .594.103 1.135.31 1.626.206.464.49.877.877 1.212.361.336.8.594 1.29.774.49.181 1.032.284 1.626.284.593 0 1.109-.077 1.548-.18a6.577 6.577 0 0 0 1.212-.465 3.29 3.29 0 0 0 .878-.671c.258-.258.464-.49.619-.748h.129l.568 1.909h1.625a8.078 8.078 0 0 1-.31-1.677 22.48 22.48 0 0 1-.077-1.909c0-.929.026-1.909.077-2.941.052-1.032.078-2.116.078-3.2 0-.49-.052-.98-.155-1.471a3.817 3.817 0 0 0-.593-1.367c-.31-.413-.749-.748-1.316-1.006-.568-.258-1.342-.387-2.297-.387a13.24 13.24 0 0 0-2.889.309c-.929.207-1.729.516-2.426.929l.748 1.651zm-4.463 10.992v-8.257c0-1.135-.078-2.064-.258-2.812-.181-.748-.439-1.316-.826-1.754-.361-.439-.851-.749-1.419-.929-.568-.181-1.239-.258-2.013-.258-.98 0-1.806.18-2.477.516-.67.335-1.238.8-1.702 1.341h-.104v-6.992h-2.193v19.145h2.193v-9.108c.207-.877.645-1.6 1.342-2.142.697-.541 1.471-.825 2.322-.825.594 0 1.084.103 1.471.284.361.18.671.438.877.799.232.362.361.8.465 1.342.077.542.129 1.161.129 1.884v7.792h2.193v-.026zm-14.965 0v-8.257c0-1.135-.103-2.064-.284-2.812-.181-.748-.465-1.316-.852-1.754-.361-.439-.851-.749-1.419-.929-.567-.181-1.212-.258-1.961-.258-1.032 0-1.909.18-2.631.567a4.655 4.655 0 0 0-1.755 1.445h-.103l-.413-1.677h-1.522v13.675h2.193v-9.34c.258-.8.697-1.445 1.316-1.961.619-.516 1.419-.774 2.399-.774 1.084 0 1.832.361 2.245 1.083.413.723.619 1.781.619 3.226v7.792h2.168v-.026zm-22.628-2.296c-.465-.413-.697-.929-.697-1.574 0-.465.129-.826.361-1.136a2.57 2.57 0 0 1 .981-.722c.412-.181.877-.284 1.419-.361a17.052 17.052 0 0 1 1.651-.103c.258 0 .516 0 .774.025.258 0 .516.026.774.052v2.271c-.077.232-.232.49-.413.748-.18.258-.438.49-.722.696a3.848 3.848 0 0 1-1.032.516c-.413.13-.852.207-1.368.207-.696-.026-1.264-.207-1.728-.619m-1.445-8.696c.258-.154.542-.283.903-.412a7.057 7.057 0 0 1 1.058-.31c.361-.077.748-.155 1.083-.206a7.106 7.106 0 0 1 1.007-.078c1.057 0 1.78.207 2.193.594.387.412.593 1.109.593 2.115 0 .439-.026.929-.077 1.471-.258-.026-.49-.052-.749-.052h-.748c-1.006 0-1.909.078-2.761.207-.825.129-1.548.361-2.141.697a3.528 3.528 0 0 0-1.393 1.29c-.336.541-.491 1.212-.491 2.012 0 .594.104 1.135.31 1.626.206.464.49.877.851 1.212.362.336.8.594 1.291.774a4.66 4.66 0 0 0 1.625.284c.593 0 1.11-.077 1.548-.18a6.56 6.56 0 0 0 1.213-.465c.335-.18.645-.413.903-.671.258-.258.439-.49.619-.748h.129l.568 1.909h1.625a8.014 8.014 0 0 1-.309-1.677 22.058 22.058 0 0 1-.078-1.909c0-.929.026-1.909.078-2.941.051-1.032.077-2.116.077-3.2 0-.49-.052-.98-.155-1.471a3.8 3.8 0 0 0-.593-1.367c-.31-.413-.748-.748-1.316-1.006-.568-.258-1.342-.387-2.296-.387a13.25 13.25 0 0 0-2.89.309c-.929.207-1.729.516-2.426.929l.749 1.651zm-11.843 9.005a3.113 3.113 0 0 1-1.084-1.083c-.284-.465-.464-1.007-.593-1.652a10.684 10.684 0 0 1-.181-2.09c0-1.832.361-3.147 1.058-3.973.722-.826 1.703-1.239 2.941-1.239.697 0 1.239.052 1.677.155.413.103.8.284 1.136.542v6.786c-.207.98-.568 1.729-1.136 2.193-.541.49-1.29.723-2.219.723a2.588 2.588 0 0 1-1.599-.362m7.173-17.158h-2.194v5.702a7.384 7.384 0 0 0-1.264-.361c-.387-.077-.929-.103-1.6-.103-1.935 0-3.457.593-4.541 1.832-1.109 1.212-1.651 2.993-1.651 5.315 0 2.451.439 4.231 1.316 5.393.877 1.161 2.245 1.728 4.051 1.728.929 0 1.728-.206 2.425-.619a4.248 4.248 0 0 0 1.574-1.6h.103l.542 1.935h1.471a12.698 12.698 0 0 1-.258-2.219c-.026-.748-.026-1.599-.026-2.528v-14.475h.052zm-22.164 16.849c-.465-.413-.697-.929-.697-1.574 0-.465.129-.826.361-1.136.233-.309.568-.541.981-.722.413-.181.877-.284 1.419-.361a17.072 17.072 0 0 1 1.651-.103c.258 0 .516 0 .774.025.258 0 .516.026.774.052v2.271c-.077.232-.232.49-.412.748-.181.258-.439.49-.723.696a3.848 3.848 0 0 1-1.032.516c-.413.13-.851.207-1.367.207-.697-.026-1.265-.207-1.729-.619m-1.445-8.696c.258-.154.542-.283.903-.412a7.092 7.092 0 0 1 1.058-.31c.387-.077.748-.155 1.084-.206a7.082 7.082 0 0 1 1.006-.078c1.058 0 1.78.207 2.193.594.413.412.593 1.109.593 2.115 0 .439-.025.929-.077 1.471-.258-.026-.516-.052-.748-.052h-.748c-1.007 0-1.91.078-2.761.207-.826.129-1.548.361-2.142.697a3.534 3.534 0 0 0-1.393 1.29c-.336.541-.49 1.212-.49 2.012 0 .594.103 1.135.309 1.626.207.464.491.877.852 1.212.361.336.8.594 1.29.774a4.66 4.66 0 0 0 1.625.284c.594 0 1.11-.077 1.548-.18a6.56 6.56 0 0 0 1.213-.465 3.27 3.27 0 0 0 .877-.671c.258-.258.465-.49.62-.748h.129l.567 1.909h1.626a8.078 8.078 0 0 1-.31-1.677 22.48 22.48 0 0 1-.077-1.909c0-.929.026-1.909.077-2.941.052-1.032.078-2.116.078-3.2 0-.49-.052-.98-.155-1.471a3.802 3.802 0 0 0-.594-1.367c-.309-.413-.748-.748-1.316-1.006-.567-.258-1.341-.387-2.296-.387-1.006 0-1.961.103-2.89.309-.929.207-1.728.516-2.425.929l.774 1.651zm-2.838-2.683c-.671-.181-1.239-.284-1.781-.284-.748 0-1.367.181-1.857.516-.491.336-.903.8-1.239 1.445h-.103l-.413-1.677h-1.548v13.675h2.193v-9.572a2.776 2.776 0 0 1 .852-1.626c.464-.439 1.083-.645 1.857-.645.491 0 1.007.077 1.549.258l.49-2.09zm-9.315 0c-.645-.181-1.238-.284-1.78-.284-.748 0-1.367.181-1.858.516-.49.336-.903.8-1.238 1.445h-.103l-.413-1.677h-1.523v13.675h2.194v-9.572a2.78 2.78 0 0 1 .851-1.626c.465-.439 1.084-.645 1.858-.645.49 0 1.006.077 1.548.258l.464-2.09zm-10.914 13.675v-8.257c0-1.135-.077-2.064-.258-2.812-.18-.748-.438-1.316-.825-1.754-.362-.439-.852-.749-1.42-.929-.567-.181-1.238-.258-1.986-.258-.981 0-1.806.18-2.477.516-.671.335-1.239.8-1.703 1.341h-.103v-6.992h-2.194v19.145h2.194v-9.108c.206-.877.645-1.6 1.341-2.142.697-.541 1.471-.825 2.322-.825.594 0 1.084.103 1.471.284.361.18.671.438.903.799.207.362.361.8.439 1.342.077.542.129 1.161.129 1.884v7.792h2.167v-.026zm-22.628-2.296c-.464-.413-.697-.929-.697-1.574 0-.465.129-.826.362-1.136.258-.309.567-.541.98-.722.413-.181.877-.284 1.419-.361a17.073 17.073 0 0 1 1.652-.103c.258 0 .516 0 .774.025.258 0 .516.026.774.052v2.271c-.078.232-.233.49-.413.748-.181.258-.439.49-.723.696a3.833 3.833 0 0 1-1.032.516c-.413.13-.851.207-1.367.207-.697-.026-1.265-.207-1.729-.619m-1.445-8.696c.258-.154.542-.283.903-.412a7.127 7.127 0 0 1 1.058-.31c.361-.077.748-.155 1.084-.206a7.082 7.082 0 0 1 1.006-.078c1.058 0 1.78.207 2.193.594.413.412.594 1.109.594 2.115 0 .439-.026.929-.078 1.471-.258-.026-.516-.052-.748-.052h-.748c-1.007 0-1.91.078-2.761.207-.826.129-1.548.361-2.142.697a3.541 3.541 0 0 0-1.393 1.29c-.335.541-.49 1.212-.49 2.012 0 .594.103 1.135.309 1.626.207.464.491.877.852 1.212.361.336.8.594 1.29.774.49.181 1.032.284 1.626.284.593 0 1.109-.077 1.548-.18a6.577 6.577 0 0 0 1.212-.465 3.29 3.29 0 0 0 .878-.671c.258-.258.464-.49.619-.748h.129l.567 1.909h1.626a8.078 8.078 0 0 1-.31-1.677 22.48 22.48 0 0 1-.077-1.909c0-.929.026-1.909.077-2.941.052-1.032.078-2.116.078-3.2 0-.49-.052-.98-.155-1.471a3.817 3.817 0 0 0-.593-1.367c-.31-.413-.749-.748-1.316-1.006-.568-.258-1.342-.387-2.297-.387-1.006 0-1.961.103-2.89.309-.928.207-1.728.516-2.425.929l.774 1.651zm-14.397 10.992h2.27v-8.566h7.612v-2.013h-7.612v-6.553h8.154v-2.013h-10.424v19.145zm-9.908-13.675c-.645-.181-1.239-.284-1.78-.284-.749 0-1.368.181-1.858.516-.49.336-.903.8-1.239 1.445h-.103l-.413-1.677h-1.522v13.675h2.193v-9.572a2.776 2.776 0 0 1 .852-1.626c.464-.439 1.083-.645 1.857-.645.491 0 1.007.077 1.548.258l.465-2.09zm-13.288 2.425c.516.568.8 1.523.8 2.916h-6.786c.129-1.367.516-2.348 1.161-2.89.645-.567 1.522-.851 2.58-.851.981 0 1.729.258 2.245.825m1.651 8.567c-.309.283-.774.541-1.393.774a5.241 5.241 0 0 1-1.858.335c-.8 0-1.47-.103-2.038-.335a3.312 3.312 0 0 1-1.342-.981 4.727 4.727 0 0 1-.774-1.574 8.836 8.836 0 0 1-.258-2.141h8.773c.103-.723.155-1.394.155-1.987 0-1.161-.155-2.064-.465-2.761-.309-.696-.722-1.238-1.212-1.625a4.002 4.002 0 0 0-1.678-.774 9.101 9.101 0 0 0-1.857-.207c-1.935 0-3.432.62-4.464 1.832-1.032 1.239-1.548 2.993-1.548 5.341 0 1.084.129 2.09.361 2.967.232.878.594 1.626 1.084 2.245a4.79 4.79 0 0 0 1.883 1.445c.774.335 1.677.516 2.709.516.929 0 1.807-.129 2.632-.387.826-.258 1.523-.593 2.064-1.032l-.774-1.651zm-18.525-13.959c.825.464 1.496 1.058 1.986 1.78a6.679 6.679 0 0 1 1.032 2.451c.207.903.31 1.807.31 2.71 0 1.006-.103 2.012-.335 2.967a7.139 7.139 0 0 1-1.11 2.554c-.516.748-1.212 1.316-2.09 1.755-.877.438-1.935.645-3.225.645-.077 0-.258 0-.516-.026-.258 0-.516-.026-.8-.026-.284 0-.542-.026-.8-.026s-.438-.026-.516-.051v-15.327c.129-.025.31-.025.542-.051.232-.026.49-.026.748-.052.284-.026.542-.026.826-.026h.774c1.29.026 2.322.258 3.174.723m-8.308 16.668c.18.026.49.077.903.077.412.026.877.052 1.367.078.49.025.981.051 1.445.051h1.135c1.652 0 3.071-.284 4.232-.825 1.161-.568 2.115-1.291 2.838-2.219a9.224 9.224 0 0 0 1.6-3.174c.335-1.187.49-2.451.49-3.741 0-1.419-.181-2.735-.542-3.922-.361-1.187-.903-2.193-1.625-3.045-.723-.851-1.652-1.522-2.787-1.986-1.11-.465-2.451-.697-3.974-.697h-1.238c-.439 0-.903.026-1.368.026-.464 0-.928.026-1.341.051-.439.026-.826.078-1.161.129v19.197h.026z" fill-rule="nonzero"/></g><path d="M376.097 77.892c.955-.104 1.703-.62 1.703-1.755 0-1.264-.748-1.858-2.167-1.858h-2.452v6.322h.955v-2.632h1.032l1.755 2.658h.954l-1.78-2.735zm-1.909-.8v-1.91h1.316c.67 0 1.367.104 1.367.929 0 .955-.774.981-1.651.981h-1.032z" fill-rule="nonzero"/><path d="M375.426 82.639a5.186 5.186 0 1 1 0-10.372 5.186 5.186 0 0 1 0 10.372zm0-9.856c-2.58 0-4.67 2.09-4.67 4.67s2.09 4.67 4.67 4.67 4.67-2.09 4.67-4.67-2.09-4.67-4.67-4.67z" fill-rule="nonzero"/></g></svg>