<svg viewBox="0 0 400 240" xmlns="http://www.w3.org/2000/svg" fill-rule="evenodd" clip-rule="evenodd" stroke-linejoin="round" stroke-miterlimit="1.414"><clipPath id="a"><path d="M35 97.02h330v47.96H35z"/></clipPath><g clip-path="url(#a)"><path d="M324.3 120.78c-.22 6.6-.22 14.08-.22 18.26 0 3.52.88 4.18 2.2 4.18 2.2 0 4.84-3.08 5.72-6.6.44 0 1.54 0 1.1 1.32-1.32 4.18-4.62 7.04-8.8 7.04-3.74 0-8.14-1.1-8.14-8.58 0-4.84.22-14.3.22-20.46h-15.62l-.22 5.06c-.22 6.6-.22 14.08-.22 18.26 0 3.52.88 4.18 2.2 4.18 2.2 0 4.84-3.08 5.72-6.6.44 0 1.54 0 1.1 1.32-1.32 4.18-4.62 7.04-8.8 7.04-3.74 0-8.14-1.1-8.14-8.58 0-4.84.22-14.3.22-20.46h-4.18v-1.98h4.18v-9.02h7.92l-.22 9.02h15.84v-9.02h7.92l-.22 9.02h8.58v1.54h-8.58l.44 5.06zm-96.8 4.4c0-2.86 3.96-9.24 8.36-9.24 3.52 0 4.18 2.42 4.18 6.82 0 6.82-.22 12.54-.44 19.36l-2.86.44v1.32h14.74v-1.32l-4.18-.44c.22-7.04.44-12.1.44-19.14 0-6.82-3.74-9.46-9.9-9.46-4.18 0-8.36 2.2-10.56 6.38h-.66l.22-6.16-12.1.88v1.32l5.06.22v26.18l-3.96.44v1.32h16.5v-1.32l-4.62-.44v-17.16h-.22zm-32.12-10.12c-5.72 0-7.48 5.5-7.48 14.08 0 8.14 1.76 14.08 7.48 14.08 5.72 0 7.48-6.16 7.48-14.08 0-8.58-1.54-14.08-7.48-14.08m0 29.7c-10.12 0-16.06-6.82-16.06-15.62 0-8.8 5.94-15.62 16.06-15.62 10.12 0 16.06 6.82 16.06 15.62 0 8.8-5.94 15.62-16.06 15.62M171.4 103.4c0-2.42-1.98-4.62-4.62-4.62s-4.62 2.2-4.62 4.62c.22 2.64 2.2 4.62 4.84 4.62 2.42 0 4.4-1.98 4.4-4.62m3.74 40.7v-1.32l-3.96-.44v-28.38l-13.2.88v1.32l5.28.22v26.18l-3.96.44v1.32h15.84v-.22zm-51.26-44l-5.28-.22v-1.32l13.2-1.54v13.64c0 2.42 0 6.82-.44 9.46h.44c2.2-4.18 6.16-6.38 10.56-6.38 6.16 0 9.9 2.64 9.9 9.46 0 7.04-.22 12.1-.44 19.14l4.18.44v1.32h-14.74v-1.32l2.86-.44c.22-6.82.44-12.54.44-19.36 0-4.62-.88-6.82-4.18-6.82-4.4 0-8.36 6.38-8.36 9.24v17.16l4.62.44v1.32h-16.5V143l3.96-.44V100.1h-.22zm-19.36 43.12c-2.86 0-6.16-1.32-6.6-7.48-2.86 0-4.62 1.76-4.62 3.96 0 3.96 5.72 5.06 10.78 5.06 7.26 0 12.32-3.3 12.32-8.8 0-10.56-15.4-7.04-15.4-15.18 0-3.3 1.32-5.72 5.06-5.72 2.86 0 3.96 2.2 3.96 4.62 0 .88-.22 1.98-.44 2.86.66.44 1.54.66 2.2.66 1.98 0 3.96-1.54 3.96-3.96 0-3.52-3.96-5.72-8.8-5.72-8.58 0-12.32 3.74-12.32 9.02 0 9.46 15.4 7.7 15.4 14.74-.22 4.62-2.86 5.94-5.5 5.94m-57.42-30.8v1.76h9.24v1.54H47.1v26.4l6.82.44v1.32h-18.7v-1.32l3.96-.44v-26.4H35v-1.54h4.18v-.88c0-11 5.06-16.28 14.08-16.28 5.06 0 9.46 1.54 9.46 5.72 0 2.64-1.98 4.18-4.18 4.18-.88 0-1.54-.22-2.2-.66 0-.66.22-1.54.22-2.64 0-2.42-.88-5.06-3.52-5.06-5.5.22-5.94 7.92-5.94 13.86m31.02 22.66c-.22 4.4-3.52 7.26-6.16 7.26S68 140.36 68 137.5c0-6.16 4.84-7.7 10.12-7.7v5.28zm12.54 9.02v-1.32l-5.06-.44v-18.26c0-6.6-2.42-10.56-12.54-10.56-3.74 0-11 1.54-11 7.26 0 2.64 1.76 3.74 3.52 3.74.88 0 1.98-.22 2.86-.88-.22-.88-.22-1.76-.22-2.42 0-3.96 1.98-6.16 5.28-6.16 3.74 0 4.84 3.52 4.84 8.14v5.06c-11 0-17.82 3.08-17.82 9.9 0 4.62 3.96 6.82 8.14 6.82 4.4 0 8.14-1.32 9.9-5.5l.66 5.5 11.44-.88zm180.62-28.82c-3.96 0-5.94 3.96-6.6 9.46h11.66c0-.66.22-1.32.22-1.98 0-4.4-1.54-7.48-5.28-7.48m12.76 11.66h-19.36v2.2c0 8.8 1.98 13.86 7.26 13.86 4.18 0 8.14-1.98 10.34-5.5.66.22 1.32.44 1.32 1.32 0 1.54-3.52 5.94-12.76 5.94-8.8 0-14.74-6.16-14.74-15.62 0-9.46 6.38-15.62 15.4-15.62 8.58 0 12.76 3.96 12.76 10.56 0 .88-.22 1.76-.22 2.86m73.26-4.18c0 .66 0 1.54-.22 1.98h-11.66c.66-5.5 2.64-9.46 6.6-9.46 3.96 0 5.28 3.08 5.28 7.48m7.7 1.32c0-6.6-4.18-10.56-12.76-10.56-9.02 0-15.4 6.16-15.4 15.62 0 9.24 5.94 15.62 14.74 15.62 9.24 0 12.76-4.4 12.76-5.94 0-.88-.66-1.1-1.32-1.32-2.2 3.52-6.38 5.5-10.34 5.5-5.28 0-7.26-5.06-7.26-13.86v-2.2h19.36c0-1.1.22-1.98.22-2.86" fill="#5c525a" fill-rule="nonzero"/></g></svg>