<svg height="445" viewBox="-.84 -.84 68.267502 29.68" width="1024" xmlns="http://www.w3.org/2000/svg"><path d="m25.1125 9.45c0-2.45-1.6625-4.2875-4.025-4.2875s-4.025 1.8375-4.025 4.2875 1.6625 4.2875 4.025 4.2875 4.025-1.8375 4.025-4.2875zm5.425 0c0 5.2108-4.23929 9.45-9.45 9.45-5.2108 0-9.45-4.2392-9.45-9.45 0-5.21071 4.2392-9.45 9.45-9.45 5.21071 0 9.45 4.23929 9.45 9.45zm-30.5375-8.925v5.1625h4.6375v14.175c0 1.575-.875 2.975-2.625 2.975h-2.0125v5.1625h2.0125c4.725 0 8.05-3.71875 8.05-8.26875v-19.20625zm60.4625-.525c-1.57316 0-3.3019.44161-4.55 1.98958v-1.46458h-5.425v17.85h5.425v-10.15c0-1.6625.875-3.0625 2.61651-3.0625 1.75849 0 2.63349 1.4 2.63349 2.975v10.2375h5.425v-11.375c0-4.4625-2.45-7-6.125-7zm-17.675.525h5.425v19.20625c0 4.55-3.325 8.26875-8.05 8.26875-4.6375 0-8.05-3.675-8.05-7.7h5.425c.0875 1.4 1.1375 2.5375 2.625 2.5375 1.75 0 2.625-1.4 2.625-2.975v-2.95207c-1.2481 1.54796-2.97684 1.98957-4.55 1.98957-3.675 0-6.125-2.5375-6.125-7v-11.375h5.425v10.2375c0 1.575.875 2.975 2.63349 2.975 1.74151 0 2.61651-1.4 2.61651-3.0625v-10.15z"/></svg>