<svg xmlns="http://www.w3.org/2000/svg" xmlns:xlink="http://www.w3.org/1999/xlink" width="1024" height="522" viewBox="-1.33278 -1.33278 92.44656 47.09156"><defs><linearGradient x2=".957" id="a" gradientUnits="userSpaceOnUse" gradientTransform="rotate(-90 70.205 .302) scale(37.1015)"><stop offset="0" stop-color="#00b8f1"/><stop offset=".22" stop-color="#06a5e5"/><stop offset=".22" stop-color="#06a5e5"/><stop offset=".794" stop-color="#1870c5"/><stop offset="1" stop-color="#1d61bc"/></linearGradient><linearGradient x2=".957" id="b" xlink:href="#a" gradientUnits="userSpaceOnUse" gradientTransform="matrix(0 46.377 46.377 0 44.86 .024)"/></defs><path d="M0 0v44.415h45.37L89.78.005H0z" fill="url(#b)"/><path d="M57.47 39.875v3.313h.5V41.75h.56l.907 1.438H60l-.97-1.438c.485-.06.876-.342.876-.938 0-.652-.4-.937-1.187-.937h-1.25zm.5.438h.686c.338 0 .72.054.72.468 0 .518-.386.564-.813.564h-.594v-1.03zm.624-1.657c-1.586 0-2.938 1.222-2.938 2.875 0 1.666 1.352 2.907 2.938 2.907a2.867 2.867 0 0 0 2.875-2.906c0-1.652-1.312-2.874-2.876-2.874zm0 .47c1.294 0 2.312 1.044 2.312 2.405 0 1.385-1.018 2.407-2.312 2.407-1.316 0-2.375-1.022-2.375-2.406 0-1.36 1.058-2.405 2.374-2.405z" fill="#1870c5"/><path d="M53.797 21.252H51.85v-7.117h1.947c2.598 0 4.666.856 4.666 3.513 0 2.744-2.068 3.604-4.666 3.604M32.852 26.34a8.073 8.073 0 0 1-2.83-.502l2.802-8.84h.06l2.745 8.864a8.266 8.266 0 0 1-2.775.478M53.28 8.353h-8.836v21.013l-7.72-21.013h-7.652L22.476 25.92c-.697-4.427-5.284-5.96-8.89-7.103-2.377-.765-4.907-1.89-4.884-3.134.02-1.018 1.36-1.962 4-1.82 1.78.09 3.35.233 6.467 1.74l3.07-5.348c-2.845-1.453-6.786-2.365-10.01-2.372h-.02c-3.76 0-6.895 1.226-8.84 3.233-1.35 1.404-2.08 3.18-2.114 5.157-.05 2.708.947 4.63 3.034 6.167 1.766 1.294 4.02 2.127 6.01 2.75 2.454.758 4.458 1.42 4.435 2.828-.02.513-.21.994-.582 1.374-.61.635-1.55.87-2.85.9-2.503.05-4.36-.34-7.318-2.09l-2.73 5.424c2.95 1.68 6.44 2.66 10.004 2.66h.46c3.1-.06 5.604-.944 7.605-2.552l.324-.283-.885 2.377h8.025l1.348-4.1c1.41.478 3.016.746 4.716.746 1.66 0 3.224-.25 4.61-.706l1.295 4.06h13.093v-8.49h2.857c6.9 0 10.986-3.512 10.986-9.406 0-6.56-3.968-9.568-12.416-9.568" fill="#fff" fill-rule="evenodd"/></svg>