<svg xmlns="http://www.w3.org/2000/svg" viewBox="-47.5 -47.5 1119.0 1119.0" width="1024" height="1024">
  <g id="skeleton-paths" stroke-width="45.0">
    <path id="path-0-0" d="M10.777 72.263L10.811 75.115L10.825 78.464L10.841 83.146L10.841 87.815L10.841 92.485L10.841 97.154L10.841 101.824L10.842 106.493L10.842 111.163L10.842 115.832L10.842 120.502L10.842 125.171L10.842 129.841L10.842 134.511L10.842 139.180L10.842 143.850L10.842 148.519L10.842 153.189L10.842 157.858L10.842 162.528L10.843 167.197L10.843 171.867L10.843 176.536L10.843 181.206L10.843 185.876L10.843 190.545L10.843 195.215L10.843 199.884L10.843 204.554L10.843 209.223L10.843 213.893L10.843 218.562L10.844 223.232L10.844 227.902L10.844 232.571L10.844 237.241L10.844 241.910L10.844 246.580L10.844 251.249L10.844 255.919L10.844 260.588L10.844 265.258L10.844 269.927L10.844 274.597L10.844 279.267L10.845 283.936L10.845 288.606L10.845 293.275L10.845 297.945L10.845 302.614L10.845 307.284L10.845 311.953L10.845 316.623L10.845 321.292L10.845 325.962L10.845 330.632L10.845 335.301L10.846 339.971L10.846 344.640L10.846 349.310L10.846 353.979L10.846 358.649L10.846 363.318L10.846 367.988L10.846 372.658L10.846 377.327L10.846 381.997L10.846 386.666L10.846 391.336L10.846 396.005L10.847 400.675L10.847 405.344L10.847 410.014L10.847 414.683L10.847 419.353L10.847 424.023L10.847 428.692L10.847 433.362L10.847 438.031L10.847 442.701L10.847 447.370L10.847 452.040L10.848 456.709L10.848 461.379L10.848 466.048L10.848 470.718L10.848 475.388L10.848 480.057L10.848 484.727L10.848 489.396L10.848 494.066L10.848 498.735L10.848 503.405L10.848 508.074L10.848 512.744L10.849 517.413L10.849 522.083L10.849 526.753L10.849 531.422L10.849 536.092L10.849 540.761L10.849 545.431L10.849 550.100L10.849 554.770L10.849 559.439L10.849 564.109L10.849 568.779L10.850 573.448L10.850 578.118L10.850 582.787L10.850 587.457L10.850 592.126L10.850 596.796L10.850 601.465L10.850 606.135L10.850 610.804L10.850 615.474L10.850 620.144L10.850 624.813L10.850 629.483L10.851 634.152L10.851 638.822L10.851 643.491L10.851 648.161L10.851 652.830L10.851 657.500L10.851 662.169L10.851 666.839L10.851 671.509L10.851 676.178L10.851 680.848L10.851 685.517L10.852 690.187L10.852 694.856L10.852 699.526L10.852 704.195L10.852 708.865L10.852 713.534L10.852 718.204L10.852 722.874L10.851 727.543L10.850 732.213L10.849 736.882L10.847 741.552L10.845 746.221L10.843 750.891L10.841 755.560L10.839 760.230L10.837 764.900L10.835 769.569L10.833 774.239L10.831 778.908L10.829 783.578L10.827 788.247L10.825 792.917L10.823 797.586L10.821 802.256L10.819 806.925L10.817 811.595L10.815 816.265L10.813 820.934L10.811 825.604L10.809 830.273L10.807 834.943L10.805 839.612L10.803 844.282L10.801 848.951L10.799 853.621L10.797 858.290L10.795 862.960L10.793 867.630L10.791 872.299L10.789 876.969L10.787 881.638L10.785 886.308L10.783 890.977L10.781 895.647L10.779 900.316L10.777 904.986L10.775 909.656L10.773 914.325L10.771 918.995L10.769 923.664L10.767 928.334L10.765 933.003L10.763 937.673L10.762 942.321L10.760 947L10.759 951.792L10.785 957.009L10.807 960.898L10.864 964.560" stroke="#ffffff" stroke-width="45" fill="none" stroke-linecap="round" stroke-linejoin="round"/>
    <path id="path-1-0" d="M26.002 976.535L29.201 976.541L32.800 976.544L37.699 976.547L42.431 976.548L47.100 976.548L51.769 976.548L56.439 976.548L61.109 976.549L65.778 976.549L70.448 976.549L75.117 976.550L79.787 976.550L84.456 976.550L89.126 976.550L93.795 976.551L98.465 976.551L103.135 976.551L107.804 976.552L112.474 976.552L117.143 976.552L121.813 976.553L126.482 976.553L131.152 976.553L135.821 976.553L140.491 976.554L145.160 976.554L149.830 976.554L154.500 976.555L159.169 976.555L163.839 976.555L168.508 976.555L173.178 976.556L177.847 976.556L182.517 976.556L187.186 976.557L191.856 976.557L196.525 976.557L201.195 976.558L205.865 976.558L210.534 976.558L215.204 976.558L219.873 976.559L224.543 976.559L229.212 976.559L233.882 976.560L238.551 976.560L243.221 976.560L247.890 976.560L252.560 976.561L257.230 976.561L261.899 976.561L266.569 976.562L271.238 976.562L275.908 976.562L280.577 976.563L285.247 976.563L289.916 976.563L294.586 976.563L299.256 976.564L303.925 976.564L308.595 976.564L313.264 976.565L317.934 976.565L322.603 976.565L327.273 976.565L331.942 976.566L336.612 976.566L341.281 976.566L345.951 976.567L350.621 976.567L355.290 976.567L359.960 976.567L364.629 976.568L369.299 976.568L373.968 976.568L378.638 976.569L383.307 976.569L387.977 976.569L392.646 976.570L397.316 976.570L401.986 976.570L406.655 976.570L411.325 976.571L415.994 976.571L420.664 976.571L425.333 976.572L430.003 976.572L434.672 976.572L439.342 976.572L444.012 976.573L448.681 976.573L453.351 976.573L458.020 976.574L462.690 976.574L467.359 976.574L472.029 976.575L476.698 976.575L481.368 976.575L486.037 976.575L490.707 976.576L495.377 976.576L500.046 976.576L504.716 976.577L509.385 976.577L514.055 976.577L518.724 976.577L523.394 976.578L528.063 976.578L532.733 976.578L537.402 976.579L542.072 976.579L546.742 976.579L551.411 976.580L556.081 976.580L560.750 976.580L565.420 976.580L570.089 976.581L574.759 976.581L579.428 976.581L584.098 976.582L588.767 976.582L593.437 976.582L598.107 976.582L602.776 976.583L607.446 976.583L612.115 976.583L616.785 976.584L621.454 976.584L626.124 976.584L630.793 976.585L635.463 976.585L640.133 976.585L644.802 976.585L649.472 976.586L654.141 976.586L658.811 976.586L663.480 976.587L668.150 976.587L672.819 976.587L677.489 976.587L682.158 976.588L686.828 976.588L691.498 976.588L696.167 976.589L700.837 976.589L705.506 976.589L710.176 976.590L714.845 976.590L719.515 976.590L724.184 976.590L728.854 976.591L733.523 976.591L738.193 976.591L742.863 976.592L747.532 976.592L752.202 976.592L756.871 976.592L761.541 976.593L766.210 976.593L770.880 976.593L775.549 976.594L780.219 976.594L784.888 976.594L789.558 976.595L794.228 976.595L798.897 976.595L803.567 976.595L808.236 976.596L812.906 976.596L817.575 976.596L822.245 976.597L826.914 976.597L831.584 976.597L836.254 976.597L840.923 976.598L845.593 976.598L850.262 976.598L854.932 976.599L859.601 976.599L864.271 976.599L868.940 976.600L873.610 976.600L878.279 976.600L882.949 976.600L887.619 976.601L892.288 976.601L896.958 976.601L901.627 976.602L906.297 976.602L910.966 976.602L915.636 976.602L920.305 976.603L924.975 976.603L929.644 976.603L934.314 976.604L938.984 976.604L943.653 976.604L948.323 976.605L952.992 976.605L957.662 976.605L962.331 976.605L967 976.606L971.670 976.606L976.340 976.606L981.010 976.607L985.679 976.607L990.349 976.607L995.018 976.607L999.688 976.608L1004.357 976.593L1009.027 976.555L1012.365 976.509L1015.191 976.456" stroke="#ffffff" stroke-width="45" fill="none" stroke-linecap="round" stroke-linejoin="round"/>
    <path id="path-extension-1" d="M10.864 964.560L11.050 976.504" stroke="#ffffff" stroke-width="45" fill="none" stroke-linecap="round" stroke-linejoin="round"/>
    <path id="path-extension-2" d="M26.002 976.535L11.050 976.504" stroke="#ffffff" stroke-width="45" fill="none" stroke-linecap="round" stroke-linejoin="round"/>
    <path id="path-connection-1" d="M11.050 976.504L11.050 976.504" stroke="#ffffff" stroke-width="45" fill="none" stroke-linecap="round" stroke-linejoin="round"/>
  </g>
  <g id="skeleton-paths" stroke-width="45.0">
    <path id="path-0-0" d="M352.793 480.176L352.218 477.587L351.739 474.919L351.220 471.533L350.983 468.889L350.939 466.336L351.023 464.166L351.244 461.682L351.522 459.598L351.935 457.177L352.434 455.068L353.055 452.727L353.735 450.638L354.481 448.397L355.337 446.214L356.429 443.735L357.651 441.360L359.128 438.853L360.626 436.643L362.453 434.294L364.318 432.163L366.521 429.903L368.602 428.003L370.981 426.088L373.664 424.322L377.108 422.356L380.815 420.587L384.356 419.118L387.035 418.207L389.171 417.561L391.043 417.124L393.015 416.733L395.375 416.397L397.586 416.149L400.131 415.977L402.291 415.953L404.872 416.070L407.432 416.337L410.447 416.765L413.462 417.351L416.459 418.146L419.405 419.111L422.539 420.414L425.846 421.988L429.299 423.940L432.513 426.068L435.183 428.120L437.483 430.212L439.370 432.155L441.299 434.346L442.960 436.473L444.629 438.933L445.986 441.208L447.303 443.791L448.265 445.965L449.244 448.559L449.988 450.710L450.803 453.383L451.383 455.959L451.896 459.055L452.121 462.218L452.217 464.431L452.145 466.382" stroke="#ffffff" stroke-width="45" fill="none" stroke-linecap="round" stroke-linejoin="round"/>
    <path id="path-1-0" d="M372.480 507.675L373.960 508.758L375.600 509.703L378.285 511.208L381.237 512.498L384.795 513.880L388.344 514.997L391.741 515.868L394.390 516.386L396.963 516.725L399.158 516.908L401.746 516.975L404.484 516.832L408.057 516.404L412.223 515.604L416.899 514.315L421.642 512.545L426.040 510.477L429.824 508.312L432.709 506.353L435.232 504.290L437.371 502.277L439.716 499.802L441.737 497.397L443.816 494.511L445.065 492.606L446.221 490.589" stroke="#ffffff" stroke-width="45" fill="none" stroke-linecap="round" stroke-linejoin="round"/>
    <path id="path-2-0" d="M923.921 260.315L923.065 258.685L922.237 256.951L921.094 254.370L920.184 252.039L919.375 249.637L918.731 247.465L918.178 245.139L917.735 242.972L917.370 240.604L917.125 238.435L916.997 236.004L917.008 233.807L917.167 231.302L917.443 229.074L917.876 226.482L918.472 223.917L919.156 221.138L920.008 218.386L920.807 215.990L921.872 213.430L922.952 211.151L924.357 208.596L925.772 206.367L927.529 203.952L929.335 201.743L931.570 199.304L933.747 197.205L936.288 195.019L938.850 193.137L941.712 191.200L944.742 189.491L947.953 187.954L951.348 186.642L954.564 185.565L957.490 184.761L960.295 184.186L963.145 183.784L966.202 183.529L968.838 183.438L971.429 183.537L973.534 183.732L975.991 184.054L978.149 184.455L980.639 184.988L982.811 185.579L985.259 186.302L987.469 187.110L990.058 188.234L992.954 189.765L996.559 192.019L1000.227 194.624L1003.597 197.410L1006.136 199.793L1008.263 202.129L1009.964 204.261L1011.676 206.713L1013.075 208.983L1014.499 211.640L1015.721 214.406L1016.974 217.619L1018.013 220.845L1018.772 223.530L1019.303 226.179L1019.603 228.308L1019.856 230.870L1019.968 232.977L1020 235.423L1019.890 237.566L1019.649 240.161L1019.179 242.974L1018.397 246.505L1017.343 250.216L1016.087 253.851L1014.845 256.857L1013.465 259.603L1012.094 261.955L1010.298 264.554L1008.106 267.199L1005.536 270.024L1002.709 272.714L1000.257 274.821L997.556 276.789L995.294 278.242L992.760 279.721L990.588 280.800L987.963 281.904L985.016 282.908L981.300 283.943L977.573 284.793L973.980 285.341L971.279 285.566L968.609 285.572L966.010 285.472L962.993 285.324L959.874 284.989L956.760 284.416L953.230 283.439L950.580 282.574L948.079 281.671" stroke="#ffffff" stroke-width="45" fill="none" stroke-linecap="round" stroke-linejoin="round"/>
    <path id="path-3-0" d="M471.970 485.752L473.692 486.675L475.898 487.856L478.979 489.490L482.050 491.111L485.134 492.730L488.139 494.308L490.862 495.738L493.596 497.173L496.321 498.603L499.329 500.181L502.415 501.801L505.483 503.411L508.568 505.030L511.654 506.650L514.803 508.302L517.875 509.915L520.924 511.514L523.490 512.862L526.159 514.263L528.342 515.409L530.802 516.699L532.883 517.791L535.479 519.155L538.166 520.565L541.242 522.180L544.249 523.759L546.972 525.190L549.622 526.581L551.839 527.743L554.226 528.995L556.307 530.087L558.823 531.408L561.012 532.557L563.475 533.849L565.556 534.941L568.152 536.305L570.838 537.715L573.914 539.330L576.920 540.909L579.643 542.339L582.292 543.729L584.511 544.892L586.899 546.145L588.980 547.237L591.496 548.558L593.685 549.707L596.148 551L598.229 552.092L600.823 553.454L603.587 554.905L606.646 556.510L609.694 558.110L612.262 559.458L614.932 560.860L617.114 562.005L619.571 563.294L621.652 564.387L624.250 565.750L626.939 567.162L630.015 568.777L633.102 570.397L636.178 572.009L639.272 573.618L642.219 575.127L644.829 576.430L647.325 577.609L649.479 578.580L651.961 579.563L654.054 580.320L656.657 581.060L658.777 581.547L661.440 582.048L663.617 582.402L666.245 582.731L668.403 582.858L670.994 582.788L673.133 582.613L675.757 582.351L677.817 582.115L680.337 581.726L682.412 581.287L685.013 580.612L687.322 579.867L690.062 578.852L692.530 577.753L695.220 576.389L697.601 574.984L700.207 573.219L702.583 571.414L705.165 569.213L707.571 566.896L710.084 564.252L712.598 561.334L715.095 558.274L717.619 555.045L719.993 551.948L722.051 549.256L724.058 546.637L726.101 543.987L728.460 540.943L730.829 537.879L732.889 535.206L734.898 532.586L736.933 529.928L739.275 526.868L741.635 523.785L743.699 521.089L745.605 518.599L747.238 516.466L749.105 514.027L751.125 511.388L753.461 508.337L755.816 505.261L757.869 502.579L759.875 499.958L761.910 497.300L764.252 494.241L766.606 491.166L768.658 488.485L770.664 485.864L772.700 483.205L775.042 480.145L777.402 477.063L779.465 474.367L781.370 471.878L783.003 469.745L784.870 467.306L786.892 464.666L789.228 461.614L791.583 458.538L793.635 455.856L795.641 453.236L797.676 450.577L800.018 447.518L802.372 444.443L804.424 441.763L806.430 439.142L808.466 436.482L810.809 433.423L813.168 430.340L815.230 427.646L817.135 425.157L818.768 423.024L820.636 420.584L822.658 417.943L824.995 414.891L827.349 411.815L829.401 409.134L831.408 406.513L833.443 403.855L835.785 400.795L838.139 397.720L840.190 395.040L842.196 392.419L844.233 389.760L846.575 386.700L848.934 383.618L850.996 380.924L852.900 378.436L854.533 376.303L856.402 373.862L858.424 371.221L860.761 368.168L863.116 365.093L865.167 362.412L867.174 359.791L869.209 357.132L871.552 354.072L873.905 350.998L875.956 348.318L877.963 345.697L880 343.037L882.342 339.977L884.695 336.903L886.745 334.224L888.752 331.603L890.789 328.942L893.132 325.881L895.485 322.808L897.534 320.130L899.541 317.509L901.579 314.847L903.923 311.786L906.279 308.707L908.336 306.019L910.236 303.537L911.864 301.410L913.686 299.031L915.423 296.778L917.478 294.147L919.411 291.730L920.978 289.786L922.099 288.427" stroke="#ffffff" stroke-width="45" fill="none" stroke-linecap="round" stroke-linejoin="round"/>
    <path id="path-4-0" d="M109.926 753.430L111.160 752.184L112.905 750.406L115.084 748.192L117.535 745.697L119.714 743.482L122.166 740.989L124.345 738.775L126.798 736.282L128.981 734.064L131.491 731.511L134.007 728.954L136.804 726.110L139.590 723.279L142.073 720.757L144.561 718.229L146.732 716.022L149.183 713.528L151.360 711.311L153.809 708.815L155.984 706.596L158.432 704.099L160.607 701.880L163.055 699.383L165.230 697.164L167.684 694.660L169.879 692.421L172.277 689.975L174.306 687.904L176.493 685.676L178.449 683.687L180.789 681.312L182.954 679.120L185.430 676.619L187.620 674.415L190.086 671.935L192.278 669.734L194.746 667.256L196.938 665.055L199.406 662.577L201.598 660.376L204.066 657.898L206.258 655.696L208.725 653.219L210.918 651.017L213.385 648.539L215.578 646.338L218.045 643.860L220.237 641.659L222.723 639.163L224.900 636.976L227.259 634.606L229.231 632.625L231.434 630.413L233.475 628.364L235.886 625.944L238.095 623.727L240.566 621.242L242.755 619.038L245.215 616.552L247.402 614.337L249.916 611.785L252.433 609.223L255.226 606.374L258.002 603.534L260.472 601.005L262.950 598.469L265.112 596.255L267.556 593.754L269.727 591.531L272.171 589.030L274.342 586.807L276.786 584.306L278.957 582.083L281.401 579.582L283.573 577.360L286.019 574.860L288.192 572.639L290.638 570.140L292.811 567.920L295.258 565.421L297.431 563.201L299.879 560.704L302.057 558.488L304.513 555.998L306.700 553.791L309.164 551.310L311.354 549.106L313.819 546.626L316.008 544.422L318.473 541.941L320.663 539.737L323.128 537.257L325.318 535.053L327.783 532.572L329.973 530.369L332.437 527.888L334.627 525.684L337.092 523.204L339.282 521L341.747 518.519L343.937 516.315L345.693 514.548L346.928 513.305" stroke="#ffffff" stroke-width="45" fill="none" stroke-linecap="round" stroke-linejoin="round"/>
    <path id="path-extension-1" d="M923.921 260.315L932.112 275.907" stroke="#ffffff" stroke-width="45" fill="none" stroke-linecap="round" stroke-linejoin="round"/>
    <path id="path-extension-2" d="M948.079 281.671L932.361 275.997" stroke="#ffffff" stroke-width="45" fill="none" stroke-linecap="round" stroke-linejoin="round"/>
    <path id="path-extension-3" d="M922.099 288.427L932.238 276.146" stroke="#ffffff" stroke-width="45" fill="none" stroke-linecap="round" stroke-linejoin="round"/>
    <path id="path-connection-1" d="M352.793 480.176L358.310 499.151" stroke="#ffffff" stroke-width="45" fill="none" stroke-linecap="round" stroke-linejoin="round"/>
    <path id="path-connection-2" d="M372.480 507.675L358.310 499.151" stroke="#ffffff" stroke-width="45" fill="none" stroke-linecap="round" stroke-linejoin="round"/>
    <path id="path-connection-3" d="M346.928 513.305L358.310 499.151" stroke="#ffffff" stroke-width="45" fill="none" stroke-linecap="round" stroke-linejoin="round"/>
    <path id="path-connection-4" d="M452.145 466.382L452.608 477.496" stroke="#ffffff" stroke-width="45" fill="none" stroke-linecap="round" stroke-linejoin="round"/>
    <path id="path-connection-5" d="M446.221 490.589L452.608 477.496" stroke="#ffffff" stroke-width="45" fill="none" stroke-linecap="round" stroke-linejoin="round"/>
    <path id="path-connection-6" d="M471.970 485.752L452.608 477.496" stroke="#ffffff" stroke-width="45" fill="none" stroke-linecap="round" stroke-linejoin="round"/>
    <path id="path-connection-7" d="M932.112 275.907L932.112 275.907" stroke="#ffffff" stroke-width="45" fill="none" stroke-linecap="round" stroke-linejoin="round"/>
  </g>
</svg>
