<svg xmlns="http://www.w3.org/2000/svg" viewBox="-47.5 -47.5 1119.0 1119.0" width="1024" height="1024">
  <g id="skeleton-paths" stroke-width="45.0">
    <path id="path-0-0" d="M545.970 341.648L548.834 342.781L551.775 344.006L555.688 345.661L558.875 347.060L561.883 348.410L564.480 349.575L567.155 350.771L569.610 351.848L572.411 353.069L575.553 354.435L579.452 356.134L583.514 357.905L587.580 359.673L591.388 361.315L595.558 363.094L600.082 365L604.604 366.892L608.635 368.553L611.806 369.846L614.666 370.986L617.176 371.977L619.873 373.028L622.393 374.003L625.076 375.030L627.586 375.979L630.436 377.043L633.664 378.222L637.761 379.694L642.407 381.328L647.029 382.923L651.215 384.337L654.443 385.400L657.513 386.399L660.528 387.351L664.509 388.590L669.156 389.991L674.262 391.495L678.972 392.844L683.057 393.977L686.189 394.821L689.114 395.586L691.590 396.216L694.546 396.962L697.740 397.737L701.841 398.711L706.437 399.756L710.973 400.757L715.043 401.616L718.139 402.242L721.148 402.816L723.612 403.268L726.538 403.777L728.930 404.180L731.872 404.650L734.739 405.089L738.172 405.596L741.610 406.080L744.637 406.488L747.646 406.864L750.111 407.156L752.999 407.481L755.400 407.737L758.246 408.016L760.682 408.235L763.644 408.476L766.587 408.686L770.029 408.908L773.435 409.095L776.467 409.237L779.385 409.336L781.882 409.392L784.694 409.427L787.192 409.434L790.004 409.412L792.502 409.367L795.313 409.285L797.811 409.182L800.692 409.048L803.228 408.926L806.098 408.795L808.527 408.680L811.419 408.513L814.404 408.300L817.841 408.024L821.261 407.707L824.264 407.393L827.302 407.035L830.417 406.621L833.878 406.141L837.491 405.597L840.984 405.041L844.539 404.444L848.089 403.815L851.531 403.164L855.070 402.458L858.447 401.741L861.560 401.065L864.497 400.389L867.121 399.760L869.940 399.053L872.557 398.371L875.418 397.584L878.013 396.829L880.924 395.942L883.950 394.983L887.861 393.703L892.329 392.156L897.255 390.283L901.806 388.397L904.996 386.957L907.122 385.960" stroke="#ffffff" stroke-width="45" fill="none" stroke-linecap="round" stroke-linejoin="round"/>
    <path id="path-1-0" d="M931.450 638.478L931.409 636.839L931.504 634.634L931.546 631.923L931.611 629.017L931.610 626.490L931.608 623.678L931.607 621.180L931.605 618.368L931.603 615.870L931.602 613.059L931.600 610.561L931.598 607.749L931.597 605.251L931.595 602.440L931.594 599.942L931.592 597.130L931.591 594.632L931.589 591.820L931.587 589.322L931.586 586.511L931.584 584.013L931.582 581.230L931.580 578.843L931.576 576.115L931.574 573.743L931.572 570.845L931.571 568.334L931.571 565.368L931.571 562.837L931.571 559.963L931.573 557.465L931.579 554.653L931.585 552.155L931.594 549.344L931.601 546.846L931.610 544.034L931.617 541.536L931.626 538.725L931.634 536.227L931.642 533.415L931.650 530.917L931.658 528.105L931.666 525.607L931.674 522.796L931.682 520.298L931.690 517.486L931.698 514.988L931.706 512.177L931.714 509.679L931.722 506.867L931.730 504.369L931.738 501.557L931.746 499.060L931.754 496.248L931.762 493.750L931.769 490.938L931.776 488.440L931.784 485.629L931.790 483.131L931.798 480.319L931.804 477.821L931.812 475.009L931.819 472.512L931.826 469.700L931.833 467.202L931.840 464.390L931.847 461.892L931.854 459.081L931.861 456.583L931.869 453.771L931.875 451.273L931.883 448.462L931.889 445.964L931.897 443.152L931.904 440.654L931.911 437.842L931.918 435.344L931.925 432.533L931.932 430.035L931.939 427.223L931.946 424.725L931.954 421.914L931.960 419.416L931.967 416.604L931.970 414.105L931.973 411.219L931.974 408.560L931.977 405.301L931.977 403.146L931.979 400.799" stroke="#ffffff" stroke-width="45" fill="none" stroke-linecap="round" stroke-linejoin="round"/>
    <path id="path-2-0" d="M534.652 633.365L537.120 634.570L539.687 635.816L543.396 637.611L546.979 639.325L550.540 641.013L554.127 642.699L557.719 644.379L561.298 646.038L564.904 647.688L568.519 649.309L572.213 650.930L576.362 652.708L580.867 654.600L585.400 656.474L589.434 658.109L592.624 659.379L595.642 660.557L598.821 661.776L602.880 663.307L607.566 665.043L612.724 666.913L617.991 668.776L623.284 670.596L628.474 672.332L633.087 673.840L637.065 675.108L640.092 676.053L643.018 676.943L645.587 677.712L648.428 678.546L650.991 679.285L653.874 680.097L656.922 680.933L660.251 681.831L663.635 682.721L666.544 683.470L669.618 684.237L672.792 685L676.811 685.939L680.858 686.855L684.787 687.718L687.871 688.371L690.968 689L694.058 689.599L697.510 690.251L700.925 690.872L703.833 691.384L706.873 691.894L709.892 692.366L713.309 692.878L716.836 693.379L720.306 693.849L723.880 694.316L727.339 694.744L730.339 695.101L733.306 695.425L735.816 695.673L738.781 695.915L741.813 696.100L745.218 696.258L748.663 696.380L751.609 696.460L754.565 696.520L757.064 696.554L759.916 696.585L762.414 696.605L765.226 696.621L767.724 696.632L770.535 696.642L773.033 696.650L775.845 696.659L778.343 696.660L781.154 696.644L783.652 696.602L786.544 696.514L789.601 696.346L793.040 696.108L796.677 695.780L800.109 695.437L803.630 695.052L807.095 694.654L810.646 694.232L814.212 693.792L817.674 693.348L820.649 692.952L823.624 692.524L826.625 692.048L830.075 691.475L833.691 690.826L837.218 690.156L841.405 689.295L845.923 688.304L850.593 687.237L854.803 686.206L858.559 685.227L862.139 684.238L865.552 683.227L868.479 682.338L871.545 681.333L874.771 680.239L878.924 678.721L883.572 676.905L888.529 674.814L893.090 672.754L897.080 670.815L900.273 669.166L903.268 667.526L905.936 666.011L908.936 664.245L911.777 662.527L914.922 660.527L917.705 658.611L920.581 656.442L922.411 654.946L924.124 653.506" stroke="#ffffff" stroke-width="45" fill="none" stroke-linecap="round" stroke-linejoin="round"/>
    <path id="path-3-0" d="M518.694 362.359L518.694 364.711L518.694 366.654L518.695 369.777L518.695 372.296L518.695 375.169L518.695 377.667L518.695 380.479L518.695 382.977L518.695 385.788L518.695 388.286L518.695 391.098L518.696 393.596L518.696 396.407L518.696 398.905L518.696 401.717L518.696 404.215L518.696 407.027L518.696 409.525L518.696 412.336L518.696 414.834L518.696 417.646L518.697 420.144L518.697 422.955L518.697 425.453L518.697 428.265L518.697 430.763L518.697 433.575L518.697 436.073L518.697 438.884L518.697 441.382L518.697 444.194L518.697 446.692L518.698 449.503L518.698 452.001L518.698 454.813L518.698 457.311L518.698 460.123L518.698 462.620L518.698 465.432L518.698 467.930L518.698 470.742L518.698 473.240L518.699 476.051L518.699 478.549L518.699 481.361L518.699 483.859L518.699 486.670L518.699 489.168L518.699 491.980L518.699 494.478L518.699 497.290L518.699 499.788L518.700 502.599L518.700 505.097L518.700 507.909L518.700 510.407L518.700 513.218L518.700 515.716L518.700 518.528L518.700 521.026L518.700 523.838L518.700 526.336L518.700 529.147L518.701 531.645L518.701 534.457L518.701 536.955L518.701 539.766L518.701 542.264L518.701 545.076L518.701 547.574L518.701 550.386L518.701 552.883L518.701 555.695L518.702 558.193L518.702 561.005L518.702 563.503L518.702 566.314L518.702 568.812L518.702 571.624L518.702 574.122L518.702 576.933L518.702 579.431L518.702 582.262L518.702 584.790L518.703 587.745L518.703 590.480L518.703 592.767L518.703 594.438" stroke="#ffffff" stroke-width="45" fill="none" stroke-linecap="round" stroke-linejoin="round"/>
    <path id="path-4-0" d="M126.851 360.159L130.083 358.472L133.968 356.497L139.403 353.782L144.754 351.182L150.078 348.658L155.330 346.226L160.621 343.840L165.935 341.498L171.177 339.241L176.482 336.999L181.770 334.821L187.170 332.649L192.475 330.581L197.765 328.579L203 326.657L208.273 324.778L213.563 322.950L218.870 321.172L224.195 319.446L229.536 317.773L234.872 316.166L240.168 314.628L245.427 313.162L250.689 311.751L256.001 310.386L261.325 309.080L266.656 307.835L271.959 306.662L277.271 305.547L282.544 304.504L287.805 303.526L293.057 302.616L298.369 301.763L303.677 300.974L309 300.251L314.297 299.600L319.603 299.019L324.924 298.505L330.222 298.063L335.525 297.697L340.584 297.422L345.103 297.241L348.969 297.156L352.571 297.149L356.492 297.208L360.571 297.297L364.498 297.414L367.630 297.534L370.546 297.688L373.044 297.844L375.905 298.046L378.414 298.239L381.382 298.491L384.392 298.770L387.865 299.111L391.456 299.492L394.928 299.893L398.453 300.327L401.799 300.771L404.822 301.184L407.844 301.627L410.953 302.114L414.405 302.674L417.865 303.259L420.752 303.762L423.660 304.290L426.142 304.760L429.124 305.340L432.067 305.945L435.484 306.662L438.857 307.398L441.926 308.095L444.903 308.812L447.479 309.492L450.435 310.282L453.485 311.148L457.505 312.286L462.164 313.658L467.410 315.230L472.752 316.878L477.937 318.508L482.597 320L486.830 321.360L489.431 322.210L491.835 322.970" stroke="#ffffff" stroke-width="45" fill="none" stroke-linecap="round" stroke-linejoin="round"/>
    <path id="path-5-0" d="M128.659 638.724L130.126 637.783L132.188 636.475L135.126 634.638L138.420 632.622L141.748 630.640L144.774 628.878L147.823 627.150L150.874 625.475L154.278 623.654L157.799 621.832L161.322 620.060L164.880 618.313L168.449 616.592L172.011 614.904L175.603 613.227L179.207 611.587L182.773 610.010L186.226 608.520L189.494 607.155L192.303 605.986L195.287 604.777L198.454 603.505L202.573 601.903L207.257 600.142L212.261 598.338L216.811 596.756L220.872 595.397L224.439 594.252L228.079 593.109L231.604 592.058L234.708 591.142L237.654 590.338L240.129 589.676L243.049 588.938L245.616 588.302L248.646 587.570L251.609 586.890L254.969 586.131L258.405 585.400L261.384 584.779L264.431 584.184L266.819 583.732L269.626 583.227L272.011 582.817L274.913 582.344L277.415 581.954L280.240 581.537L282.647 581.200L285.498 580.820L288.026 580.497L290.938 580.144L293.429 579.859L296.329 579.552L298.798 579.308L301.690 579.037L304.092 578.826L306.894 578.598L309.325 578.422L312.141 578.233L314.639 578.078L317.485 577.920L319.977 577.796L322.813 577.688L325.253 577.620L328.083 577.562L330.566 577.529L333.462 577.508L335.987 577.517L338.888 577.557L341.290 577.615L344.071 577.701L346.437 577.790L349.275 577.916L351.769 578.046L354.618 578.212L357.115 578.372L359.927 578.570L362.425 578.764L365.295 579.016L367.817 579.256L370.695 579.551L373.067 579.808L375.904 580.136L378.317 580.433L381.254 580.815L383.701 581.148L386.639 581.569L389.765 582.046L393.779 582.693L397.878 583.386L401.792 584.091L404.815 584.663L407.768 585.256L410.276 585.768L413.292 586.394L416.363 587.067L420.461 588.004L425.193 589.155L430.516 590.509L435.789 591.930L440.454 593.238L444.488 594.431L447.547 595.362L450.611 596.337L453.656 597.326L457.553 598.628L461.594 600.016L465.569 601.423L468.792 602.602L471.822 603.751L474.955 604.985L478.855 606.578L483.493 608.554L487.076 610.106L490.525 611.640" stroke="#ffffff" stroke-width="45" fill="none" stroke-linecap="round" stroke-linejoin="round"/>
    <path id="path-6-0" d="M92.013 625.121L92.013 621.727L92.014 617.876L92.016 612.578L92.019 607.333L92.023 602.076L92.026 596.766L92.030 591.456L92.034 586.147L92.038 580.837L92.042 575.528L92.045 570.218L92.049 564.908L92.053 559.599L92.057 554.289L92.061 548.980L92.064 543.670L92.068 538.361L92.072 533.051L92.076 527.741L92.080 522.432L92.083 517.122L92.087 511.813L92.091 506.503L92.095 501.193L92.098 495.884L92.102 490.574L92.106 485.265L92.110 479.955L92.114 474.645L92.117 469.336L92.121 464.026L92.125 458.717L92.129 453.407L92.133 448.098L92.136 442.788L92.140 437.478L92.144 432.169L92.148 426.859L92.152 421.550L92.155 416.240L92.159 410.930L92.163 405.676L92.165 400.440L92.167 395.141L92.168 391.289L92.168 387.871" stroke="#ffffff" stroke-width="45" fill="none" stroke-linecap="round" stroke-linejoin="round"/>
    <path id="path-7-0" d="M552.593 52.307L553.955 52.977L555.928 53.954L558.260 55.111L561.153 56.545L563.649 57.784L566.539 59.217L568.894 60.389L571.788 61.823L574.283 63.062L577.174 64.496L579.529 65.667L582.423 67.101L584.918 68.339L587.810 69.772L590.164 70.943L593.055 72.382L595.547 73.626L598.432 75.070L600.782 76.251L603.669 77.699L606.160 78.945L609.076 80.380L611.456 81.531L614.256 82.863L616.738 84.030L619.602 85.359L622.091 86.504L624.892 87.771L627.301 88.848L630.126 90.086L632.644 91.164L635.503 92.361L638.016 93.390L640.918 94.554L643.996 95.762L648.075 97.321L652.648 99.025L657.306 100.718L661.483 102.196L664.732 103.311L667.810 104.348L670.839 105.331L674.784 106.578L679.415 107.985L684.654 109.522L689.998 111.021L694.817 112.323L699.037 113.415L702.135 114.190L705.137 114.907L708.081 115.577L711.538 116.344L715.030 117.089L718.025 117.712L720.978 118.298L723.443 118.768L726.303 119.289L728.704 119.709L731.517 120.178L733.901 120.562L736.811 121.009L739.818 121.441L743.331 121.923L746.889 122.380L749.911 122.752L752.835 123.082L755.306 123.339L758.133 123.610L760.644 123.833L763.502 124.059L765.988 124.237L768.861 124.409L771.282 124.538L774.148 124.663L776.526 124.767L779.494 124.853L782.443 124.905L785.997 124.903L789.410 124.854L792.442 124.768L795.313 124.646L797.811 124.513L800.623 124.345L803.121 124.183L805.932 123.991L808.452 123.816L811.291 123.608L813.787 123.412L816.731 123.134L819.876 122.774L823.964 122.248L828.041 121.681L832.126 121.068L835.679 120.484L839.226 119.861L842.760 119.196L846.262 118.501L849.787 117.759L853.335 116.972L856.977 116.115L861.131 115.078L865.187 114.006L869.160 112.925L872.334 112.018L875.363 111.131L878.044 110.312L880.837 109.434L883.378 108.599L886.105 107.678L888.665 106.786L891.569 105.741L894.640 104.590L898.443 103.071L902.280 101.464L905.213 100.173L907.214 99.277" stroke="#ffffff" stroke-width="45" fill="none" stroke-linecap="round" stroke-linejoin="round"/>
    <path id="path-8-0" d="M931.979 369.618L931.979 367.647L931.980 364.915L931.980 361.774L931.980 358.357L931.980 355.730L931.981 352.817L931.981 350.392L931.981 347.579L931.981 345.081L931.981 342.270L931.981 339.772L931.981 336.960L931.981 334.462L931.982 331.651L931.982 329.153L931.982 326.341L931.982 323.843L931.982 321.031L931.982 318.534L931.982 315.722L931.982 313.224L931.982 310.412L931.983 307.914L931.983 305.103L931.983 302.605L931.983 299.793L931.983 297.295L931.983 294.484L931.983 291.986L931.983 289.174L931.983 286.676L931.984 283.864L931.984 281.366L931.984 278.555L931.984 276.057L931.984 273.245L931.984 270.747L931.984 267.936L931.984 265.438L931.985 262.626L931.985 260.128L931.985 257.316L931.985 254.818L931.985 252.007L931.985 249.509L931.985 246.697L931.985 244.199L931.985 241.388L931.986 238.890L931.986 236.078L931.986 233.580L931.986 230.768L931.986 228.271L931.986 225.459L931.986 222.961L931.986 220.149L931.986 217.651L931.987 214.840L931.987 212.342L931.987 209.530L931.987 207.032L931.987 204.221L931.987 201.723L931.987 198.911L931.987 196.413L931.988 193.601L931.988 191.103L931.988 188.292L931.988 185.794L931.988 182.982L931.988 180.484L931.988 177.673L931.988 175.175L931.988 172.363L931.989 169.865L931.989 167.053L931.989 164.555L931.989 161.744L931.989 159.246L931.989 156.434L931.989 153.936L931.989 151.125L931.989 148.627L931.990 145.815L931.990 143.317L931.990 140.505L931.990 138.008L931.990 135.196L931.990 132.698L931.990 129.886L931.990 127.388L931.991 124.573L931.991 121.997L931.991 118.837L931.991 115.772L931.992 113.138L931.992 111.305" stroke="#ffffff" stroke-width="45" fill="none" stroke-linecap="round" stroke-linejoin="round"/>
    <path id="path-9-0" d="M518.695 65.686L518.696 67.756L518.696 69.710L518.697 72.557L518.698 74.958L518.699 77.750L518.699 80.269L518.700 83.142L518.701 85.640L518.701 88.451L518.702 90.949L518.702 93.761L518.703 96.259L518.703 99.071L518.704 101.568L518.705 104.380L518.705 106.878L518.706 109.690L518.706 112.188L518.707 115L518.707 117.497L518.708 120.309L518.709 122.807L518.709 125.619L518.710 128.116L518.710 130.928L518.711 133.426L518.711 136.238L518.712 138.736L518.713 141.547L518.713 144.045L518.714 146.857L518.714 149.355L518.715 152.166L518.715 154.664L518.716 157.476L518.716 159.974L518.717 162.786L518.718 165.284L518.718 168.095L518.719 170.593L518.719 173.405L518.720 175.903L518.720 178.714L518.721 181.212L518.722 184.024L518.722 186.522L518.723 189.334L518.723 191.831L518.724 194.643L518.724 197.141L518.725 199.953L518.725 202.451L518.726 205.262L518.727 207.760L518.727 210.572L518.728 213.070L518.728 215.881L518.729 218.379L518.729 221.191L518.730 223.689L518.731 226.501L518.731 228.999L518.732 231.810L518.732 234.308L518.733 237.120L518.733 239.618L518.734 242.429L518.734 244.927L518.735 247.739L518.736 250.237L518.736 253.049L518.737 255.547L518.737 258.358L518.738 260.856L518.738 263.668L518.739 266.166L518.740 268.977L518.740 271.475L518.741 274.287L518.741 276.785L518.742 279.597L518.742 282.094L518.743 284.906L518.743 287.404L518.744 290.216L518.745 292.714L518.745 295.545L518.746 298.610L518.746 301.131L518.746 303.734" stroke="#ffffff" stroke-width="45" fill="none" stroke-linecap="round" stroke-linejoin="round"/>
    <path id="path-10-0" d="M132.982 75L134.909 73.757L136.687 72.635L139.564 70.813L142.132 69.243L145.081 67.482L148.066 65.786L151.426 63.905L154.836 62.027L157.940 60.319L161.019 58.646L164.042 57.020L167.407 55.221L170.886 53.375L174.377 51.534L177.893 49.696L181.419 47.882L184.946 46.121L188.511 44.394L192.086 42.717L195.735 41.034L199.745 39.218L203.787 37.409L207.855 35.631L211.658 34.026L215.827 32.345L220.340 30.591L224.942 28.858L229.068 27.354L232.297 26.223L235.235 25.227L238.204 24.259L242.131 23.010L246.667 21.623L251.177 20.281L255.121 19.163L258.019 18.367L260.867 17.619L263.247 17.006L266.136 16.284L268.660 15.671L271.672 14.963L274.327 14.360L277.248 13.714L279.622 13.207L282.343 12.646L284.733 12.169L287.777 11.583L290.804 11.025L294.233 10.412L297.586 9.843L300.445 9.371L303.371 8.914L305.782 8.553L308.678 8.140L311.108 7.812L313.940 7.446L316.397 7.141L319.230 6.798L321.670 6.510L324.484 6.194L326.904 5.936L329.824 5.645L332.275 5.416L335.001 5.181L337.148 5.011L339.629 4.835L342.269 4.672L345.434 4.497L348.758 4.341L351.708 4.222L354.618 4.129L357.115 4.067L359.927 4.020L362.425 4.001L365.237 4L367.735 4.014L370.546 4.050L373.044 4.103L375.856 4.187L378.354 4.280L381.164 4.408L383.605 4.539L386.415 4.720L388.848 4.888L391.790 5.107L394.249 5.297L397.185 5.548L399.582 5.775L402.438 6.067L404.848 6.327L407.690 6.654L410.161 6.954L413.050 7.341L415.513 7.686L418.420 8.119L420.825 8.486L423.722 8.951L426.126 9.352L429.043 9.865L431.437 10.300L434.336 10.854L437.268 11.448L440.724 12.170L444.292 12.943L447.273 13.603L450.282 14.299L453.214 15.013L457.180 16.014L461.279 17.074L465.412 18.174L468.499 19.016L471.466 19.859L474.353 20.713L478.256 21.901L482.707 23.305L487.283 24.784L491.548 26.213L495.568 27.618L498.540 28.678L501.393 29.723" stroke="#ffffff" stroke-width="45" fill="none" stroke-linecap="round" stroke-linejoin="round"/>
    <path id="path-11-0" d="M92.007 352.082L92.008 350.240L92.008 347.831L92.008 345.042L92.008 342.050L92.008 339.577L92.009 336.822L92.010 334.410L92.012 331.651L92.014 329.153L92.016 326.341L92.018 323.843L92.020 321.031L92.022 318.534L92.025 315.722L92.027 313.224L92.029 310.412L92.031 307.914L92.033 305.103L92.035 302.605L92.037 299.793L92.039 297.295L92.041 294.484L92.043 291.986L92.046 289.174L92.048 286.676L92.050 283.864L92.052 281.366L92.054 278.555L92.056 276.057L92.058 273.245L92.060 270.747L92.063 267.936L92.065 265.438L92.067 262.626L92.069 260.128L92.071 257.316L92.073 254.818L92.075 252.007L92.077 249.509L92.080 246.697L92.082 244.199L92.084 241.388L92.086 238.890L92.088 236.078L92.090 233.580L92.092 230.768L92.094 228.271L92.097 225.459L92.099 222.961L92.101 220.149L92.103 217.651L92.105 214.840L92.107 212.342L92.109 209.530L92.111 207.032L92.114 204.221L92.116 201.723L92.118 198.911L92.120 196.413L92.122 193.601L92.124 191.103L92.126 188.292L92.128 185.794L92.131 182.982L92.133 180.484L92.135 177.673L92.137 175.175L92.139 172.363L92.141 169.865L92.143 167.053L92.145 164.555L92.148 161.744L92.150 159.246L92.152 156.434L92.154 153.936L92.156 151.125L92.158 148.627L92.160 145.815L92.162 143.317L92.165 140.505L92.167 138.008L92.169 135.196L92.171 132.698L92.173 129.886L92.175 127.388L92.177 124.540L92.178 121.982L92.179 118.925L92.179 115.814L92.180 112.365L92.181 108.815L92.181 106.505L92.182 104.178" stroke="#ffffff" stroke-width="45" fill="none" stroke-linecap="round" stroke-linejoin="round"/>
    <path id="path-12-0" d="M92.152 7.327L92.160 8.800L92.160 10.953L92.161 13.374L92.157 16.038L92.150 18.265L92.146 20.943L92.146 23.506L92.158 26.439L92.176 29.018L92.201 31.833L92.223 34.308L92.246 37.125L92.265 39.623L92.286 42.435L92.306 44.933L92.323 47.781L92.336 50.282L92.345 53.210L92.351 55.671L92.357 58.758L92.365 61.491L92.380 65.289L92.391 67.755L92.405 70.665" stroke="#ffffff" stroke-width="45" fill="none" stroke-linecap="round" stroke-linejoin="round"/>
    <path id="path-13-0" d="M92.124 662.885L92.124 664.732L92.124 667.622L92.125 671.413L92.125 675.474L92.125 679.033L92.125 682.051L92.125 684.895L92.126 687.393L92.126 690.205L92.126 692.703L92.126 695.514L92.127 698.012L92.127 700.824L92.127 703.322L92.127 706.133L92.128 708.631L92.128 711.443L92.128 713.941L92.128 716.753L92.129 719.251L92.129 722.062L92.129 724.560L92.129 727.372L92.130 729.870L92.130 732.681L92.130 735.179L92.130 737.991L92.131 740.489L92.131 743.301L92.131 745.798L92.131 748.610L92.132 751.108L92.132 753.920L92.132 756.418L92.132 759.229L92.132 761.727L92.133 764.539L92.133 767.037L92.133 769.848L92.133 772.346L92.134 775.158L92.134 777.656L92.134 780.468L92.134 782.966L92.135 785.777L92.135 788.275L92.135 791.087L92.135 793.585L92.136 796.396L92.136 798.894L92.136 801.706L92.136 804.204L92.137 807.016L92.137 809.514L92.137 812.325L92.137 814.823L92.138 817.635L92.138 820.133L92.138 822.944L92.138 825.442L92.139 828.254L92.139 830.752L92.139 833.564L92.139 836.061L92.140 838.873L92.140 841.371L92.140 844.183L92.140 846.681L92.141 849.492L92.141 851.990L92.141 854.802L92.141 857.300L92.142 860.111L92.142 862.609L92.142 865.421L92.142 867.919L92.143 870.731L92.143 873.229L92.143 876.040L92.143 878.538L92.144 881.350L92.144 883.848L92.144 886.659L92.144 889.157L92.145 891.969L92.145 894.467L92.145 897.279L92.145 899.777L92.146 902.588L92.146 905.086L92.146 907.898L92.146 910.396L92.147 913.207L92.147 915.705L92.147 918.517L92.147 921.015L92.148 923.827L92.148 926.324L92.148 929.136L92.148 931.634L92.149 934.446L92.149 936.944L92.149 939.755L92.149 942.253L92.150 945.065L92.150 947.563L92.150 950.374L92.150 952.872L92.151 955.684L92.151 958.182L92.151 960.994L92.151 963.492L92.152 966.303L92.152 968.801L92.152 971.613L92.152 974.111L92.153 976.922L92.153 979.420L92.153 982.232L92.153 984.730L92.154 987.542L92.154 990.040L92.154 992.851L92.154 995.349L92.155 998.161L92.155 1000.659L92.155 1003.470L92.155 1005.968L92.156 1008.780L92.156 1011.278L92.156 1014.090L92.156 1016.587L92.157 1018.590L92.157 1020" stroke="#ffffff" stroke-width="45" fill="none" stroke-linecap="round" stroke-linejoin="round"/>
    <path id="path-extension-1" d="M907.122 385.960L931.979 374.305" stroke="#ffffff" stroke-width="45" fill="none" stroke-linecap="round" stroke-linejoin="round"/>
    <path id="path-extension-2" d="M931.450 638.478L931.665 647.171" stroke="#ffffff" stroke-width="45" fill="none" stroke-linecap="round" stroke-linejoin="round"/>
    <path id="path-extension-3" d="M924.124 653.506L931.665 647.171" stroke="#ffffff" stroke-width="45" fill="none" stroke-linecap="round" stroke-linejoin="round"/>
    <path id="path-extension-4" d="M126.851 360.159L92.125 378.277" stroke="#ffffff" stroke-width="45" fill="none" stroke-linecap="round" stroke-linejoin="round"/>
    <path id="path-extension-5" d="M128.659 638.724L92.122 662.176" stroke="#ffffff" stroke-width="45" fill="none" stroke-linecap="round" stroke-linejoin="round"/>
    <path id="path-extension-6" d="M907.214 99.277L931.993 88.177" stroke="#ffffff" stroke-width="45" fill="none" stroke-linecap="round" stroke-linejoin="round"/>
    <path id="path-extension-7" d="M931.992 111.305L931.993 88.177" stroke="#ffffff" stroke-width="45" fill="none" stroke-linecap="round" stroke-linejoin="round"/>
    <path id="path-extension-8" d="M132.982 75L92.201 101.299" stroke="#ffffff" stroke-width="45" fill="none" stroke-linecap="round" stroke-linejoin="round"/>
    <path id="path-connection-1" d="M931.979 400.799L931.979 369.618" stroke="#ffffff" stroke-width="45" fill="none" stroke-linecap="round" stroke-linejoin="round"/>
    <path id="path-connection-2" d="M92.013 625.121L92.124 662.885" stroke="#ffffff" stroke-width="45" fill="none" stroke-linecap="round" stroke-linejoin="round"/>
    <path id="path-connection-3" d="M92.168 387.871L92.007 352.082" stroke="#ffffff" stroke-width="45" fill="none" stroke-linecap="round" stroke-linejoin="round"/>
    <path id="path-connection-4" d="M92.182 104.178L92.405 70.665" stroke="#ffffff" stroke-width="45" fill="none" stroke-linecap="round" stroke-linejoin="round"/>
    <path id="path-connection-5" d="M931.665 647.171L931.665 647.171" stroke="#ffffff" stroke-width="45" fill="none" stroke-linecap="round" stroke-linejoin="round"/>
    <path id="path-connection-6" d="M931.993 88.177L931.993 88.177" stroke="#ffffff" stroke-width="45" fill="none" stroke-linecap="round" stroke-linejoin="round"/>
    <path id="path-connection-7" d="M545.970 341.648L518.717 331.208" stroke="#ffffff" stroke-width="45" fill="none" stroke-linecap="round" stroke-linejoin="round"/>
    <path id="path-connection-8" d="M518.746 303.734L518.717 331.208" stroke="#ffffff" stroke-width="45" fill="none" stroke-linecap="round" stroke-linejoin="round"/>
    <path id="path-connection-9" d="M518.694 362.359L518.717 331.208" stroke="#ffffff" stroke-width="45" fill="none" stroke-linecap="round" stroke-linejoin="round"/>
    <path id="path-connection-10" d="M491.835 322.970L518.717 331.208" stroke="#ffffff" stroke-width="45" fill="none" stroke-linecap="round" stroke-linejoin="round"/>
    <path id="path-connection-11" d="M534.652 633.365L518.703 624.730" stroke="#ffffff" stroke-width="45" fill="none" stroke-linecap="round" stroke-linejoin="round"/>
    <path id="path-connection-12" d="M518.703 594.438L518.703 624.730" stroke="#ffffff" stroke-width="45" fill="none" stroke-linecap="round" stroke-linejoin="round"/>
    <path id="path-connection-13" d="M490.525 611.640L518.703 624.730" stroke="#ffffff" stroke-width="45" fill="none" stroke-linecap="round" stroke-linejoin="round"/>
    <path id="path-connection-14" d="M518.695 65.686L518.689 35.952" stroke="#ffffff" stroke-width="45" fill="none" stroke-linecap="round" stroke-linejoin="round"/>
    <path id="path-connection-15" d="M501.393 29.723L518.689 35.952" stroke="#ffffff" stroke-width="45" fill="none" stroke-linecap="round" stroke-linejoin="round"/>
    <path id="path-connection-16" d="M552.593 52.307L518.689 35.952" stroke="#ffffff" stroke-width="45" fill="none" stroke-linecap="round" stroke-linejoin="round"/>
  </g>
</svg>
