<svg xmlns="http://www.w3.org/2000/svg" viewBox="-47.5 -47.5 1119.0 1119.0" width="1024" height="1024"><g id="skeleton-paths" stroke-width="45.0">
    <path id="path-0-0" d="M703.407 451.930L705.618 454.399L708.158 457.235L711.690 461.178L715.148 465.039L718.614 468.907L722.079 472.775L725.539 476.637L729.005 480.505L732.470 484.373L735.930 488.235L739.396 492.103L742.861 495.971L746.321 499.833L749.787 503.701L753.252 507.569L756.717 511.436L760.253 515.383L763.766 519.303L767.298 523.246L770.756 527.107L774.222 530.975L777.681 534.841L781.071 538.625L784.493 542.436L787.901 546.214L791.455 550.144L794.965 554.066L798.355 557.993L801.376 561.764L804.009 565.545L806.155 569.322L807.855 573.252L808.991 577.188L809.609 581.158L809.706 585.071L809.465 588.975L809.018 592.844L808.502 596.728L807.965 600.629L807.431 604.510L806.898 608.390L806.369 612.235L805.837 616.105L805.304 619.973L804.772 623.841L804.239 627.714L803.702 631.610L803.168 635.491L802.634 639.375L802.102 643.229L801.565 647.097L801.027 650.965L800.489 654.832L799.949 658.695L799.405 662.585L798.863 666.464L798.317 670.378L797.776 674.256L797.230 678.171L796.698 682.049L796.160 686.008L795.617 690.159L795.211 693.237L794.855 696.073" stroke="black" stroke-width="45" fill="none" stroke-linecap="round" stroke-linejoin="round"/>
    <path id="path-1-0" d="M657.481 651.066L658.835 651.676L660.053 652.224L662.182 653.184L664.436 654.203L667.309 655.503L670.257 656.836L673.209 658.170L675.969 659.418L678.914 660.750L681.862 662.083L684.814 663.417L687.573 664.665L690.519 665.997L693.467 667.330L696.419 668.664L699.178 669.911L702.124 671.244L705.072 672.577L708.023 673.910L710.783 675.158L713.729 676.491L716.677 677.823L719.628 679.157L722.387 680.405L725.335 681.737L728.283 683.068L731.235 684.397L733.998 685.637L736.949 686.961L739.901 688.284L742.855 689.608L745.619 690.847L748.573 692.173L751.527 693.497L754.354 694.764L756.634 695.786L758.794 696.754L761.010 697.748L763.527 698.876L766.045 700.005L768.258 700.996L770.417 701.965L772.807 703.040L774.803 703.937L776.877 704.872" stroke="black" stroke-width="45" fill="none" stroke-linecap="round" stroke-linejoin="round"/>
    <path id="path-2-0" d="M647.023 629.893L647.469 627.948L647.945 625.870L648.465 623.591L648.960 621.382L649.430 619.259L649.983 616.743L650.545 614.178L651.022 611.996L651.495 609.818L651.882 608.046L652.341 605.922L652.722 604.168L653.173 602.053L653.625 599.927L654.158 597.410L654.699 594.843L655.159 592.658L655.618 590.457L656.068 588.293L656.593 585.761L657.127 583.172L657.575 580.984L658.028 578.779L658.472 576.617L658.994 574.085L659.532 571.498L659.984 569.312L660.438 567.127L660.794 565.352L661.223 563.221L661.567 561.464L661.982 559.362L662.319 557.613L662.727 555.488L663.056 553.740L663.454 551.622L663.847 549.471L664.308 546.936L664.773 544.308L665.158 542.112L665.538 539.899L665.835 538.146L666.193 536.009L666.482 534.257L666.827 532.139L667.109 530.383L667.443 528.270L667.716 526.514L668.034 524.443L668.302 522.680L668.617 520.591L668.880 518.811L669.190 516.690L669.442 514.928L669.742 512.804L669.987 511.039L670.278 508.916L670.517 507.145L670.795 505.061L671.026 503.292L671.294 501.201L671.519 499.420L671.784 497.293L672.001 495.525L672.258 493.393L672.468 491.621L672.718 489.495L672.922 487.729L673.157 485.665L673.355 483.876L673.580 481.812L673.776 479.987L673.993 477.935L674.178 476.154L674.383 474.108L674.558 472.337L674.765 470.215L674.937 468.434L675.138 466.294L675.304 464.512L675.496 462.392L675.682 460.299L675.835 458.549L675.983 456.836" stroke="black" stroke-width="45" fill="none" stroke-linecap="round" stroke-linejoin="round"/>
    <path id="path-3-0" d="M348.033 456.040L348.184 457.910L348.348 459.991L348.529 462.288L348.702 464.481L348.848 466.280L349.025 468.358L349.184 470.154L349.374 472.230L349.537 474.015L349.728 476.127L349.887 477.912L350.081 480.029L350.254 481.820L350.468 483.927L350.653 485.685L350.878 487.792L351.068 489.563L351.303 491.696L351.502 493.473L351.743 495.567L351.949 497.333L352.194 499.381L352.415 501.187L352.675 503.264L352.906 505.074L353.179 507.174L353.468 509.345L353.810 511.877L354.166 514.451L354.476 516.653L354.785 518.805L355.048 520.597L355.360 522.709L355.631 524.508L355.953 526.611L356.230 528.375L356.559 530.449L356.840 532.210L357.176 534.309L357.528 536.465L357.945 538.980L358.387 541.586L358.765 543.797L359.148 545.993L359.458 547.751L359.831 549.850L360.148 551.607L360.530 553.711L360.860 555.493L361.257 557.631L361.590 559.392L361.994 561.519L362.406 563.653L362.897 566.181L363.404 568.759L363.839 570.950L364.281 573.156L364.725 575.329L365.247 577.869L365.792 580.489L366.246 582.667L366.715 584.881L367.172 587.006L367.718 589.528L368.280 592.096L368.758 594.278L369.246 596.484L369.721 598.633L370.281 601.160L370.853 603.737L371.338 605.918L371.830 608.123L372.309 610.271L372.873 612.798L373.448 615.374L373.935 617.554L374.427 619.758L374.906 621.907L375.470 624.433L376.045 627.010L376.532 629.190L376.880 630.745L377.087 631.679" stroke="black" stroke-width="45" fill="none" stroke-linecap="round" stroke-linejoin="round"/>
    <path id="path-4-0" d="M246.906 705.485L249.224 704.422L251.953 703.173L255.881 701.376L259.779 699.594L263.708 697.798L267.569 696.033L271.424 694.270L275.349 692.475L279.247 690.694L283.174 688.898L287.033 687.135L290.891 685.371L294.818 683.576L298.716 681.796L302.643 680.004L306.500 678.244L310.361 676.481L314.226 674.717L318.088 672.955L321.947 671.193L325.876 669.400L329.774 667.621L333.701 665.829L337.557 664.070L341.419 662.308L345.284 660.544L349.145 658.781L353.005 657.019L355.794 655.746L358.126 654.681" stroke="black" stroke-width="45" fill="none" stroke-linecap="round" stroke-linejoin="round"/>
    <path id="path-5-0" d="M228.954 691.255L228.640 689.017L228.324 686.768L227.903 683.775L227.544 681.217L227.175 678.591L226.825 676.104L226.511 673.875L226.204 671.696L225.895 669.508L225.544 667.017L225.176 664.406L224.813 661.828L224.443 659.202L224.077 656.600L223.718 654.052L223.349 651.427L223 648.942L222.685 646.712L222.378 644.532L222.069 642.344L221.719 639.853L221.351 637.241L220.988 634.663L220.618 632.037L220.251 629.434L219.893 626.888L219.529 624.298L219.183 621.835L218.877 619.657L218.563 617.434L218.251 615.228L217.889 612.666L217.523 610.063L217.164 607.514L216.795 604.887L216.445 602.399L216.131 600.171L215.824 597.992L215.514 595.833L215.156 593.339L214.799 590.850L214.507 588.675L214.333 586.662L214.294 585.056L214.365 583.111L214.550 580.804L214.945 577.728L215.563 574.570L216.495 571.612L217.669 569.118L219.118 566.667L220.682 564.333L222.155 562.226L223.728 560.202L225.143 558.454L226.822 556.471L228.243 554.812L230.011 552.782L231.613 550.961L233.588 548.747L235.251 546.898L237.105 544.841L238.588 543.196L240.401 541.182L242.010 539.395L243.965 537.224L245.697 535.303L247.603 533.189L249.232 531.381L250.982 529.439L252.567 527.679L254.412 525.630L256.134 523.719L258.026 521.619L259.658 519.810L261.407 517.868L262.991 516.109L264.822 514.076L266.524 512.186L268.465 510.032L270.211 508.095L272.115 505.983L273.744 504.176L275.493 502.234L277.080 500.473L278.926 498.423L280.647 496.512L282.539 494.414L284.169 492.605L285.918 490.664L287.503 488.903L289.336 486.868L291.050 484.965L293.020 482.778L294.699 480.917L296.553 478.860L298.035 477.215L299.849 475.201L301.459 473.413L303.415 471.242L305.146 469.320L307.051 467.208L308.680 465.400L310.429 463.459L312.016 461.697L313.850 459.660L315.564 457.757L317.535 455.570L319.211 453.711L320.561 452.214L321.327 451.364" stroke="black" stroke-width="45" fill="none" stroke-linecap="round" stroke-linejoin="round"/>
    <path id="path-6-0" d="M344.889 412.959L344.780 410.598L344.664 407.783L344.521 403.868L344.403 399.962L344.301 396.128L344.203 392.284L344.104 388.440L344.003 384.561L343.902 380.660L343.798 376.721L343.695 372.788L343.594 368.883L343.499 365.067L343.412 361.239L343.334 357.405L343.266 353.526L343.202 349.646L343.147 345.767L343.103 341.888L343.076 338.008L343.067 334.129L343.076 330.250L343.103 326.370L343.149 322.491L343.211 318.611L343.305 314.779L343.435 310.955L343.623 307.142L343.859 303.238L344.143 299.346L344.467 295.458L344.829 291.653L345.234 287.796L345.675 283.938L346.161 280.012L346.685 276.104L347.245 272.201L347.842 268.320L348.463 264.499L349.129 260.647L349.827 256.820L350.575 252.937L351.351 249.097L352.158 245.269L353.004 241.443L353.843 237.762L354.656 234.377L355.388 231.412L356.129 228.596L356.949 225.509L357.908 222.042L358.962 218.300L360.094 214.459L361.265 210.623L362.518 206.692L363.821 202.767L365.194 198.788L366.568 194.931L367.961 191.138L369.373 187.435L370.866 183.678L372.427 179.914L374.116 176.006L375.856 172.131L377.700 168.149L379.535 164.275L381.431 160.318L383.310 156.429L385.211 152.529L387.090 148.725L389.004 144.923L390.967 141.088L393.004 137.177L395.073 133.280L397.218 129.328L399.401 125.402L401.644 121.467L403.887 117.633L406.196 113.799L408.586 109.942L411.075 106.035L413.630 102.134L416.231 98.265L418.876 94.425L421.547 90.631L424.307 86.795L427.126 82.958L430.125 78.968L433.157 75.025L436.269 71.071L439.366 67.239L442.491 63.471L445.730 59.673L449.051 55.888L452.569 51.993L456.216 48.087L460.001 44.147L463.853 40.239L467.735 36.362L471.638 32.507L475.560 28.670L479.495 24.880L483.375 21.229L487.167 17.783L490.835 14.609L494.513 11.664L498.073 9.079L501.688 6.943L505.094 5.446L508.371 4.497L511.222 4.078L513.534 4L515.749 4.263L517.952 4.829L520.509 5.693L523.016 6.875L525.240 8.135L527.267 9.590L529.010 10.980L530.931 12.599L532.749 14.157L534.854 15.982L536.790 17.679L538.960 19.602L540.880 21.321L542.950 23.193L544.722 24.813L546.640 26.588L548.393 28.229L550.420 30.147L552.283 31.924L554.373 33.938L556.224 35.737L558.296 37.773L560.129 39.590L562.183 41.646L564 43.479L566.034 45.553L567.834 47.403L569.846 49.494L571.618 51.360L573.521 53.399L575.143 55.169L576.891 57.111L578.484 58.908L580.361 61.057L582.291 63.303L584.433 65.830L586.554 68.374L588.436 70.662L590.227 72.876L591.719 74.748L593.269 76.718L594.636 78.480L596.104 80.400L597.450 82.184L598.951 84.205L600.364 86.133L601.975 88.360L603.539 90.559L605.206 92.929L606.848 95.313L608.365 97.543L609.891 99.827L611.206 101.821L612.576 103.927L613.770 105.793L615.095 107.890L616.512 110.173L618.226 112.973L620 115.909L621.716 118.796L623.239 121.413L624.675 123.933L626.055 126.397L627.285 128.624L628.507 130.872L629.712 133.120L631.035 135.621L632.376 138.193L633.692 140.757L635.002 143.341L636.298 145.935L637.607 148.588L639.023 151.500L640.424 154.415L641.810 157.331L643.069 159.998L644.299 162.617L645.529 165.243L646.778 167.926L648.131 170.870L649.466 173.817L650.774 176.773L651.967 179.560L653.232 182.634L654.592 186.047L656.041 189.794L657.474 193.625L658.860 197.464L660.179 201.248L661.343 204.701L662.347 207.772L663.096 210.146L663.797 212.406L664.460 214.625L665.323 217.544L666.291 220.954L667.336 224.745L668.255 228.210L669.048 231.273L669.715 233.941L670.451 236.971L671.253 240.414L672.121 244.244L672.890 247.725L673.556 250.819L674.097 253.398L674.620 255.972L675.122 258.514L675.613 261.106L676.085 263.689L676.538 266.276L676.978 268.905L677.396 271.507L677.781 274.042L678.088 276.160L678.376 278.257L678.618 280.064L678.890 282.177L679.121 284.031L679.358 286.101L679.551 287.857L679.764 289.879L679.954 291.691L680.165 293.764L680.346 295.605L680.530 297.698L680.678 299.537L680.826 301.609L680.940 303.366L681.068 305.475L681.186 307.669L681.311 310.202L681.417 312.726L681.494 314.919L681.551 317.052L681.586 318.877L681.614 320.932L681.628 322.757L681.632 324.811L681.627 326.636L681.612 328.690L681.592 330.515L681.565 332.570L681.539 334.395L681.507 336.449L681.476 338.274L681.439 340.329L681.405 342.154L681.364 344.208L681.326 346.033L681.282 348.087L681.243 349.912L681.197 351.967L681.156 353.792L681.109 355.846L681.067 357.671L681.018 359.726L680.972 361.551L680.917 363.650L680.868 365.490L680.812 367.568L680.764 369.332L680.704 371.447L680.637 373.642L680.558 376.170L680.477 378.685L680.405 380.871L680.334 383.002L680.273 384.827L680.203 386.933L680.141 388.789L680.070 390.893L680.010 392.678L679.939 394.800L679.867 396.984L679.784 399.489L679.701 401.980L679.627 404.153L679.550 406.278L679.476 408.103L679.387 410.158L679.305 411.983L679.208 414.035L679.094 416.240L678.997 418.038L678.892 419.899" stroke="black" stroke-width="45" fill="none" stroke-linecap="round" stroke-linejoin="round"/>
    <path id="path-7-0" d="M394.336 660.883L396.742 661.050L399.529 661.146L403.430 661.226L407.303 661.227L411.183 661.212L415.062 661.206L418.941 661.203L422.821 661.200L426.700 661.195L430.580 661.190L434.459 661.185L438.338 661.180L442.218 661.175L446.097 661.169L449.977 661.164L453.856 661.159L457.735 661.154L461.615 661.149L465.494 661.143L469.374 661.138L473.253 661.133L477.132 661.128L481.012 661.123L484.891 661.118L488.771 661.112L492.650 661.107L496.529 661.102L500.409 661.097L504.288 661.092L508.168 661.086L512.047 661.081L515.926 661.076L519.806 661.071L523.685 661.066L527.565 661.061L531.444 661.055L535.323 661.050L539.203 661.045L543.082 661.040L546.962 661.035L550.841 661.029L554.720 661.024L558.600 661.019L562.479 661.014L566.359 661.009L570.238 661.004L574.117 660.998L577.997 660.993L581.876 660.988L585.756 660.983L589.635 660.978L593.514 660.972L597.394 660.967L601.273 660.962L605.153 660.957L609.032 660.952L612.911 660.947L616.791 660.941L620.628 660.895L624.558 660.705L627.339 660.502L629.885 660.180" stroke="black" stroke-width="45" fill="none" stroke-linecap="round" stroke-linejoin="round"/>
    <path id="path-extension-1" d="M794.855 696.073L792.850 712.071" stroke="black" stroke-width="45" fill="none" stroke-linecap="round" stroke-linejoin="round"/>
    <path id="path-extension-2" d="M657.481 651.066L643.602 644.815" stroke="black" stroke-width="45" fill="none" stroke-linecap="round" stroke-linejoin="round"/>
    <path id="path-extension-3" d="M776.877 704.872L792.850 712.071" stroke="black" stroke-width="45" fill="none" stroke-linecap="round" stroke-linejoin="round"/>
    <path id="path-extension-4" d="M647.023 629.893L643.602 644.815" stroke="black" stroke-width="45" fill="none" stroke-linecap="round" stroke-linejoin="round"/>
    <path id="path-extension-5" d="M348.033 456.040L345.446 423.815" stroke="black" stroke-width="45" fill="none" stroke-linecap="round" stroke-linejoin="round"/>
    <path id="path-extension-6" d="M377.087 631.679L379.983 644.700" stroke="black" stroke-width="45" fill="none" stroke-linecap="round" stroke-linejoin="round"/>
    <path id="path-extension-7" d="M246.906 705.485L231.918 712.356" stroke="black" stroke-width="45" fill="none" stroke-linecap="round" stroke-linejoin="round"/>
    <path id="path-extension-8" d="M358.126 654.681L379.983 644.700" stroke="black" stroke-width="45" fill="none" stroke-linecap="round" stroke-linejoin="round"/>
    <path id="path-extension-9" d="M228.954 691.255L231.918 712.356" stroke="black" stroke-width="45" fill="none" stroke-linecap="round" stroke-linejoin="round"/>
    <path id="path-extension-10" d="M321.327 451.364L342.982 427.360" stroke="black" stroke-width="45" fill="none" stroke-linecap="round" stroke-linejoin="round"/>
    <path id="path-extension-11" d="M344.889 412.959L346.370 445.253" stroke="black" stroke-width="45" fill="none" stroke-linecap="round" stroke-linejoin="round"/>
    <path id="path-extension-12" d="M394.336 660.883L383.413 660.123" stroke="black" stroke-width="45" fill="none" stroke-linecap="round" stroke-linejoin="round"/>
    <path id="path-extension-13" d="M629.885 660.180L640.383 658.853" stroke="black" stroke-width="45" fill="none" stroke-linecap="round" stroke-linejoin="round"/>
    <path id="path-connection-1" d="M792.850 712.071L792.850 712.071" stroke="black" stroke-width="45" fill="none" stroke-linecap="round" stroke-linejoin="round"/>
    <path id="path-connection-2" d="M643.602 644.815L643.602 644.815" stroke="black" stroke-width="45" fill="none" stroke-linecap="round" stroke-linejoin="round"/>
    <path id="path-connection-3" d="M379.983 644.700L379.983 644.700" stroke="black" stroke-width="45" fill="none" stroke-linecap="round" stroke-linejoin="round"/>
    <path id="path-connection-4" d="M231.918 712.356L231.918 712.356" stroke="black" stroke-width="45" fill="none" stroke-linecap="round" stroke-linejoin="round"/>
    <path id="path-connection-5" d="M703.407 451.930L679.254 428.566" stroke="black" stroke-width="45" fill="none" stroke-linecap="round" stroke-linejoin="round"/>
    <path id="path-connection-6" d="M675.983 456.836L679.254 428.566" stroke="black" stroke-width="45" fill="none" stroke-linecap="round" stroke-linejoin="round"/>
    <path id="path-connection-7" d="M678.892 419.899L679.254 428.566" stroke="black" stroke-width="45" fill="none" stroke-linecap="round" stroke-linejoin="round"/>
  </g>
<g id="skeleton-paths" stroke-width="45.0">
    <path id="path-0-0" d="M569.483 368.398L567.024 370.470L564.122 372.738L560.136 375.667L556.190 378.229L552.310 380.445L548.430 382.378L544.545 384.060L540.599 385.536L536.694 386.792L532.793 387.852L528.923 388.708L524.998 389.384L521.089 389.879L517.175 390.203L513.334 390.355L509.471 390.330L505.634 390.128L501.732 389.754L497.836 389.203L493.928 388.466L490.071 387.541L486.270 386.440L482.448 385.135L478.634 383.621L474.735 381.849L470.884 379.848L467.012 377.576L463.144 374.998L459.319 372.140L455.572 369.014L452.028 365.695L448.667 362.188L445.501 358.467L442.556 354.580L439.872 350.611L437.448 346.567L435.351 342.643L433.524 338.759L432.095 335.329L430.966 332.284L430.084 329.575L429.248 326.651L428.425 323.306L427.669 319.652L427.060 315.888L426.631 312.103L426.372 308.266L426.285 304.387L426.379 300.507L426.647 296.672L427.083 292.887L427.686 289.152L428.470 285.384L429.456 281.552L430.640 277.713L432.052 273.859L433.666 270.074L435.525 266.249L437.582 262.503L439.948 258.665L442.582 254.853L445.595 250.938L448.864 247.142L452.391 243.463L456.041 240.065L459.751 236.975L463.524 234.194L467.313 231.715L471.181 229.479L475.020 227.515L478.917 225.776L482.734 224.314L486.562 223.082L490.346 222.095L494.143 221.279L497.972 220.633L501.682 220.141L505.023 219.812L507.804 219.630L510.218 219.563L512.848 219.584L516.059 219.701L519.730 219.942L523.567 220.334L527.361 220.883L531.189 221.593L535.075 222.484L538.972 223.570L542.885 224.892L546.808 226.473L550.821 228.355L554.841 230.521L558.808 232.955L562.708 235.691L566.410 238.602L570.033 241.812L573.338 245.094L576.618 248.767L579.601 252.493L582.460 256.441L584.957 260.286L587.233 264.200L589.239 268.090L591.012 271.969L592.553 275.831L593.879 279.696L595.020 283.615L595.975 287.549L596.741 291.461L597.315 295.354L597.691 299.213L597.876 303.106L597.874 306.963L597.684 310.881L597.308 314.758L596.740 318.679L595.986 322.565L595.037 326.484L593.896 330.380L592.527 334.325L590.922 338.296L589.081 342.289L587.023 346.229L584.695 350.148L582.068 354.071L580.027 356.931L578.210 359.303" stroke="black" stroke-width="45" fill="none" stroke-linecap="round" stroke-linejoin="round"/>
    <path id="path-extension-1" d="M569.483 368.398L574.451 364.210" stroke="black" stroke-width="45" fill="none" stroke-linecap="round" stroke-linejoin="round"/>
    <path id="path-extension-2" d="M578.210 359.303L574.451 364.210" stroke="black" stroke-width="45" fill="none" stroke-linecap="round" stroke-linejoin="round"/>
    <path id="path-connection-1" d="M574.451 364.210L574.451 364.210" stroke="black" stroke-width="45" fill="none" stroke-linecap="round" stroke-linejoin="round"/>
  </g>
<g id="skeleton-paths" stroke-width="45.0">
    <path id="path-0-0" d="M524.675 986.569L525.834 983.904L527.258 980.657L529.189 976.376L531.151 972.211L533.145 968.207L535.170 964.332L537.276 960.482L539.427 956.719L541.706 952.879L544.089 949.007L546.578 945.094L549.120 941.185L551.685 937.291L554.244 933.394L556.796 929.491L559.339 925.583L561.877 921.672L564.394 917.746L566.887 913.797L569.308 909.885L571.675 906.013L573.975 902.201L576.248 898.389L578.504 894.561L580.728 890.724L582.932 886.874L585.124 882.988L587.256 879.166L589.380 875.328L591.445 871.505L593.500 867.579L595.461 863.601L597.278 859.702L598.973 855.825L600.572 851.993L602.150 848.044L603.656 844.105L605.076 840.167L606.377 836.273L607.571 832.346L608.659 828.410L609.636 824.457L610.496 820.567L611.249 816.666L611.888 812.777L612.412 808.867L612.792 804.944L613.028 801.020L613.110 797.068L613.059 793.135L612.862 789.249L612.516 785.360L612.016 781.479L611.361 777.553L610.553 773.645L609.576 769.715L608.424 765.814L607.091 761.938L605.550 758.060L603.787 754.156L601.802 750.232L599.560 746.283L597.095 742.389L594.254 738.388L591.125 734.460L587.692 730.543L585.162 727.827L583.021 725.613" stroke="black" stroke-width="45" fill="none" stroke-linecap="round" stroke-linejoin="round"/>
    <path id="path-1-0" d="M439.087 727.643L438.074 728.681L436.616 730.217L434.634 732.396L432.477 734.879L430.471 737.350L428.786 739.538L427.262 741.682L425.826 743.887L424.266 746.415L422.736 749.059L421.505 751.275L420.408 753.397L419.575 755.136L418.626 757.252L417.826 759.170L416.983 761.289L416.196 763.471L415.405 765.762L414.618 768.292L414.022 770.380L413.437 772.701L413.028 774.530L412.581 776.652L412.271 778.310L411.942 780.248L411.690 781.915L411.420 783.914L411.209 785.699L411.001 787.752L410.850 789.578L410.717 791.632L410.631 793.457L410.571 795.511L410.549 797.336L410.562 799.391L410.608 801.216L410.700 803.284L410.820 805.108L410.988 807.144L411.169 808.920L411.409 810.971L411.657 812.815L411.966 814.889L412.259 816.665L412.614 818.651L412.968 820.465L413.411 822.572L413.843 824.476L414.338 826.532L414.769 828.230L415.304 830.232L415.800 832.030L416.459 834.310L417.018 836.177L417.689 838.307L418.241 839.987L418.904 841.937L419.502 843.638L420.248 845.684L420.946 847.547L421.802 849.767L422.518 851.576L423.358 853.633L424.069 855.308L424.928 857.285L425.713 859.046L426.614 861.032L427.474 862.892L428.514 865.089L429.653 867.431L430.902 869.948L432.215 872.522L433.485 874.962L434.862 877.559L436.227 880.099L437.456 882.367L438.698 884.618L439.876 886.712L441.297 889.206L442.705 891.637L444.032 893.903L445.304 896.039L446.456 897.952L447.717 900.027L448.888 901.937L450.167 904.002L451.352 905.902L452.675 908.005L453.821 909.816L455.151 911.907L456.470 913.961L458.131 916.536L459.845 919.167L461.653 921.921L463.543 924.772L465.444 927.622L467.338 930.454L469.092 933.071L470.820 935.653L472.545 938.238L474.340 940.950L476.303 943.950L478.257 946.974L480.068 949.821L481.505 952.122L482.842 954.319L484.145 956.516L485.563 958.951L487.007 961.504L488.266 963.772L489.542 966.142L490.504 967.960L491.605 970.089L492.433 971.731L493.465 973.827L494.294 975.559L495.338 977.789L496.208 979.704L497.255 982.067L498.156 984.174L499.153 986.605L499.783 988.195L500.383 989.775" stroke="black" stroke-width="45" fill="none" stroke-linecap="round" stroke-linejoin="round"/>
    <path id="path-extension-1" d="M524.675 986.569L511.789 1016.218" stroke="black" stroke-width="45" fill="none" stroke-linecap="round" stroke-linejoin="round"/>
    <path id="path-extension-2" d="M500.383 989.775L511.855 1020" stroke="black" stroke-width="45" fill="none" stroke-linecap="round" stroke-linejoin="round"/>
  </g>
</svg>