<svg xmlns="http://www.w3.org/2000/svg" width="1024" height="1024" viewBox="-47.5 -47.5 1119.0 1119.0">
  
  
  <g id="main-icon-clipped" stroke="#000000" stroke-width="45" fill="none" stroke-linecap="round" stroke-linejoin="round">
    <path d="M 477.85,61.19 L 479.36,58.92 480.76,56.92 482.91,53.94 484.87,51.40 487.26,48.48 489.42,45.95 491.93,43.18 493.98,41.03 496.45,38.56 498.49,36.60 501.09,34.26 503.83,31.94 507.21,29.24 510.61,26.65 513.62,24.45 516.46,22.48 519.25,20.67 522.43,18.69 525.73,16.76 528.76,15.07 531.80,13.48 534.89,11.99 538.77,10.25 543.23,8.44 548.06,6.67 552.46,5.21 556.41,4.06 559.88,3.18 563.40,2.38 566.88,1.70 569.92,1.18 573.03,0.81 575.96,0.58 579.24,0.39 582.51,0.31 585.36,0.29 588.30,0.33 590.69,0.40 593.51,0.52 595.92,0.69 598.79,0.97 601.21,1.27 604.08,1.67 606.44,2.03 609.29,2.49 611.64,2.89 614.51,3.41 616.85,3.85 619.70,4.44 622.57,5.09 625.95,5.89 629.39,6.79 632.23,7.58 634.96,8.40 637.18,9.13 640.01,10.08 643.14,11.23 647.10,12.76 651.14,14.43 654.96,16.10 657.99,17.50 660.72,18.84 663.19,20.11 666.00,21.61 668.57,23.01 671.46,24.66 674.35,26.40 677.76,28.53 681.21,30.77 684.30,32.84 687.31,34.97 690.31,37.23 693.71,39.88 697.14,42.72 700.16,45.32 703.10,48.02 705.58,50.44 708.37,53.30 711.06,56.26 713.98,59.63 716.72,62.98 719.03,65.95 721.08,68.76 722.78,71.24 724.57,73.97 726.15,76.53 727.81,79.34 729.27,81.96 730.76,84.75 732.03,87.26 733.29,89.89 734.38,92.30 735.49,94.89 736.49,97.34 737.55,100.15 738.66,103.33 739.94,107.32 741.16,111.39 742.24,115.40 743.08,119.00 743.84,123.04 744.37,126.14 744.80,129.11 M 622.08,316.56 L 624.68,313.78 628.08,310.11 632.89,304.91 637.80,299.57 642.64,294.29 647.26,289.22 651.89,284.10 656.36,279.11 660.92,273.97 665.41,268.85 669.98,263.57 674.44,258.33 678.80,253.13 682.99,248.04 687.22,242.80 691.36,237.57 695.58,232.12 699.63,226.78 703.67,221.33 707.49,216.03 711.13,210.86 714.64,205.71 717.97,200.65 721.28,195.41 724.39,190.24 727.44,184.89 730.34,179.57 733.17,174.17 735.10,170.39 736.70,167.14 M 764.76,153.58 L 766.94,154.59 768.98,155.55 772.12,157.06 774.70,158.33 777.49,159.77 779.76,161.01 782.46,162.53 784.90,163.97 787.72,165.68 790.26,167.26 793.00,169.01 795.50,170.66 798.37,172.61 801.51,174.82 805.41,177.69 809.40,180.72 813.29,183.81 816.42,186.39 819.33,188.90 821.73,191.06 824.30,193.44 826.62,195.65 829.17,198.15 831.42,200.42 833.85,202.95 836.05,205.31 838.63,208.16 841.30,211.23 844.50,215.06 847.66,218.96 850.65,222.77 852.95,225.84 855.08,228.85 857.12,231.87 859.37,235.31 861.53,238.74 863.33,241.65 864.96,244.42 866.23,246.67 867.73,249.47 868.98,251.90 870.40,254.76 871.50,257.10 872.75,259.87 873.81,262.34 875.01,265.26 876.23,268.41 877.69,272.43 879.23,276.95 880.67,281.35 881.92,285.36 882.96,288.95 883.97,292.53 884.88,296.05 885.62,299.03 886.30,302.12 886.89,305.08 887.54,308.51 888.12,311.89 888.57,314.73 888.96,317.55 889.25,319.89 889.56,322.74 889.81,325.23 890.06,328.06 890.24,330.51 890.41,333.27 890.53,335.73 890.62,338.49 890.67,340.94 890.70,343.70 890.68,346.16 890.62,348.92 890.53,351.37 890.39,354.14 890.23,356.59 890.01,359.35 889.78,361.81 889.52,364.63 889.31,367.12 889.04,370.09 888.71,373.02 888.26,376.39 887.71,379.69 887.20,382.57 886.60,385.40 886.04,387.86 885.31,390.81 884.45,394.01 883.21,398.12 881.69,402.75 880.07,407.32 878.51,411.41 877.28,414.42 876.09,417.20 874.91,419.84 873.91,422.08 872.92,424.30 M 902.04,482.03 L 901.01,479.88 898.90,475.77 896.81,471.88 895.03,468.71 893.27,465.75 891.35,462.68 888.89,458.87 886.23,454.84 883.56,450.92 881.36,447.76 879.34,444.95 878.08,443.21 876.86,441.56 M 460.06,682.73 L 460.06,680.99 460.06,678.23 460.06,675.77 460.06,673.01 460.06,670.56 460.05,667.79 460.05,665.34 460.05,662.58 460.05,660.12 460.05,657.36 460.05,654.91 460.05,652.15 460.05,649.69 460.05,646.93 460.05,644.48 460.05,641.71 460.04,639.26 460.04,636.50 460.04,634.05 460.04,631.28 460.04,628.83 460.04,626.07 460.04,623.61 460.04,620.85 460.04,618.40 460.04,615.64 460.04,613.18 460.04,610.42 460.03,607.97 460.03,605.20 460.03,602.75 460.03,599.99 460.03,597.54 460.03,594.77 460.03,592.32 460.03,589.56 460.03,587.10 460.03,584.34 460.03,581.89 460.02,579.13 460.02,576.67 460.02,573.91 460.02,571.46 460.02,568.70 460.02,566.24 460.02,563.48 460.02,561.03 460.02,558.26 460.02,555.81 460.02,553.05 460.01,550.59 460.01,547.83 460.01,545.38 460.01,542.62 460.01,540.16 460.01,537.40 460.01,534.95 460.01,532.18 460.01,529.73 460.01,526.97 460.01,524.52 460.00,521.75 460.00,519.30 460.00,516.54 460.00,514.08 460.00,511.32 460.00,508.87 460.00,506.11 460.00,503.65 460.00,500.89 460.00,498.44 460.00,495.67 460.00,493.22 459.99,490.46 459.99,488.01 459.99,485.24 459.99,482.79 459.99,480.03 459.99,477.57 459.99,474.81 459.99,472.36 459.99,469.60 459.99,467.14 459.99,464.38 459.98,461.93 459.98,459.17 459.98,456.71 459.98,453.95 459.98,451.56 459.98,448.70 459.98,445.80 459.98,442.31 459.98,438.92 459.98,435.92 459.97,433.09 459.97,430.63 459.97,427.87 459.97,425.42 459.97,422.66 459.97,420.20 459.97,417.44 459.97,414.99 459.97,412.22 459.97,409.77 459.97,407.01 459.96,404.55 459.96,401.79 459.96,399.34 459.96,396.58 459.96,394.12 459.96,391.36 459.96,388.91 459.96,386.14 459.96,383.69 459.96,380.93 459.96,378.48 459.95,375.71 459.95,373.26 459.95,370.50 459.95,368.04 459.95,365.28 459.95,362.83 459.95,360.07 459.95,357.61 459.95,354.85 459.95,352.40 459.95,349.64 459.95,347.18 459.94,344.42 459.94,341.97 459.94,339.20 459.94,336.75 459.94,333.99 459.94,331.53 459.94,328.77 459.94,326.32 459.94,323.56 459.94,321.10 459.94,318.34 459.93,315.89 459.93,313.13 459.93,310.67 459.93,307.91 459.93,305.46 459.93,302.69 459.93,300.24 459.93,297.48 459.93,295.02 459.93,292.26 459.93,289.81 459.92,287.05 459.92,284.59 459.92,281.83 459.92,279.38 459.92,276.62 459.92,274.16 459.92,271.40 459.92,268.95 459.92,266.18 459.92,263.73 459.92,260.97 459.91,258.51 459.91,255.75 459.91,253.30 459.91,250.54 459.91,248.08 459.91,245.32 459.91,242.87 459.91,240.11 459.91,237.65 459.91,234.89 459.91,232.44 459.90,229.67 459.90,227.22 459.90,224.46 459.90,222.00 459.90,219.24 459.90,216.79 459.90,214.03 459.90,211.57 459.90,208.81 459.90,206.36 459.90,203.60 459.90,201.14 459.89,198.38 459.89,195.93 459.89,193.16 459.89,190.71 459.89,187.95 459.89,185.49 459.89,182.73 459.89,180.28 459.89,177.52 459.89,175.06 459.89,172.30 459.88,169.85 459.88,167.09 459.88,164.63 459.88,161.87 459.88,159.42 459.88,156.65 459.88,154.20 459.88,151.44 459.88,148.98 459.88,146.22 459.88,143.77 459.87,141.01 459.87,138.55 459.87,135.79 459.87,133.34 459.87,130.58 459.87,128.12 459.87,125.36 459.87,122.91 459.87,120.14 459.88,117.69 459.94,114.93 460.03,112.48 460.12,110.51 460.19,109.12 M 174.95,128.03 L 175.44,125.71 176.00,123.22 176.69,120.26 177.44,117.31 178.14,114.71 178.97,111.79 179.90,108.83 181.10,105.18 182.43,101.42 183.86,97.62 185.07,94.60 186.40,91.53 187.76,88.63 189.39,85.35 191.06,82.21 192.63,79.37 194.41,76.38 196.42,73.22 198.82,69.61 201.44,65.92 204.16,62.35 207.01,58.84 209.92,55.50 212.58,52.59 215.36,49.77 217.85,47.38 220.72,44.76 223.32,42.52 226.14,40.16 228.61,38.20 231.24,36.20 233.63,34.45 236.27,32.59 238.77,30.91 241.50,29.14 244.02,27.57 246.85,25.87 249.76,24.21 253.04,22.41 256.47,20.62 259.96,18.88 263.45,17.24 266.89,15.69 270.30,14.24 274.19,12.69 278.67,11.07 283.61,9.40 288.16,7.97 292.07,6.85 295.09,6.04 298.07,5.31 300.67,4.71 303.55,4.08 305.87,3.61 308.48,3.11 310.67,2.73 313.44,2.28 315.82,1.92 318.73,1.53 321.10,1.23 323.78,0.94 325.96,0.73 328.45,0.51 330.85,0.34 333.46,0.18 336.13,0.06 338.63,0.00 341.36,0.01 343.77,0.07 346.61,0.23 349.52,0.47 352.90,0.82 356.41,1.28 359.80,1.82 363.19,2.47 366.44,3.18 369.35,3.88 372.29,4.68 374.81,5.44 377.56,6.32 379.92,7.15 382.69,8.19 385.17,9.17 387.99,10.39 390.32,11.48 393.08,12.89 395.57,14.25 398.52,15.99 401.24,17.70 404.25,19.71 406.88,21.57 409.57,23.60 411.90,25.48 414.49,27.68 416.92,29.83 419.67,32.42 422.13,34.86 424.82,37.68 427.15,40.25 429.63,43.08 431.70,45.55 433.82,48.18 435.64,50.56 437.62,53.32 439.48,55.98 441.62,59.23 443.03,61.39 444.49,63.73 M 167.72,799.89 L 168.79,802.78 169.96,805.84 171.55,809.88 173.08,813.50 174.67,817.01 176.32,820.39 177.85,823.38 179.45,826.29 180.95,828.85 182.66,831.64 184.29,834.17 186.10,836.85 187.82,839.29 189.82,841.97 191.79,844.49 194.15,847.36 196.40,849.98 199.07,852.93 201.73,855.69 204.68,858.65 207.58,861.41 210.32,863.91 213.09,866.31 215.56,868.37 218.37,870.61 221.34,872.85 224.65,875.27 227.96,877.58 230.75,879.47 233.57,881.28 236.08,882.81 238.95,884.49 241.56,885.95 244.49,887.53 247.60,889.12 251.48,891.00 255.83,893.01 260.22,894.94 264.22,896.61 267.33,897.83 270.30,898.94 273.23,899.95 277.02,901.21 281.01,902.44 285.09,903.64 288.78,904.61 292.21,905.45 295.61,906.18 298.49,906.75 301.49,907.24 303.86,907.56 306.63,907.86 308.94,908.06 311.74,908.24 314.20,908.35 317.01,908.43 319.46,908.45 322.27,908.44 324.74,908.39 327.56,908.31 329.90,908.22 332.63,908.09 334.97,907.93 337.86,907.67 340.35,907.38 343.23,906.99 345.55,906.64 348.31,906.17 350.66,905.73 353.64,905.11 356.65,904.39 360.51,903.35 364.34,902.22 368.23,900.94 371.73,899.67 375.32,898.24 378.82,896.72 381.99,895.26 385.07,893.72 388.07,892.09 391.37,890.21 394.72,888.16 397.81,886.18 400.87,884.08 403.48,882.20 406.29,880.05 408.81,878.00 411.70,875.53 414.29,873.20 417.15,870.49 419.64,868.03 422.29,865.29 424.51,862.89 426.85,860.24 428.92,857.77 431.21,854.94 433.21,852.37 435.25,849.63 436.98,847.17 438.84,844.38 440.56,841.67 442.54,838.34 443.86,836.10 445.19,833.68 M 172.91,764.98 L 173.79,763.48 175.01,761.47 176.55,758.95 178.30,756.17 179.88,753.73 181.81,750.81 183.90,747.75 186.42,744.12 188.99,740.51 191.17,737.49 193.22,734.73 194.87,732.55 196.97,729.84 198.96,727.31 201.39,724.27 203.59,721.57 206.01,718.65 208.12,716.15 210.34,713.55 212.31,711.29 214.52,708.79 216.63,706.44 219.12,703.71 221.46,701.19 224.14,698.37 226.56,695.87 229.30,693.10 231.77,690.65 234.56,687.94 237.05,685.57 239.76,683.04 242.11,680.88 244.73,678.53 247.16,676.38 250.09,673.85 253.13,671.28 256.56,668.45 260.09,665.60 263.61,662.82 267.17,660.07 270.62,657.47 274.12,654.91 277.95,652.18 281.92,649.42 285.88,646.73 289.40,644.39 292.71,642.25 295.90,640.23 298.83,638.41 300.92,637.13 302.43,636.21 M 37.12,452.80 L 34.85,456.16 32.35,459.96 28.92,465.27 25.74,470.43 22.75,475.60 20.04,480.69 17.55,485.85 15.35,490.86 13.45,495.48 11.94,499.49 10.62,503.13 9.33,507.08 7.92,511.68 6.51,516.77 5.19,522.01 4.06,527.15 3.08,532.23 2.23,537.33 1.53,542.43 0.97,547.64 0.56,552.86 0.27,558.11 0.09,563.25 0.00,568.34 0.00,573.44 0.10,578.58 0.30,583.83 0.61,589.06 1.04,594.29 1.59,599.42 2.30,604.61 3.13,609.77 4.09,614.96 5.18,620.09 6.42,625.23 7.84,630.42 9.43,635.63 11.19,640.80 13.12,645.99 15.21,651.12 17.54,656.40 20.01,661.57 22.69,666.80 25.49,671.91 28.52,677.10 31.75,682.26 35.27,687.54 38.98,692.79 43.03,698.16 47.19,703.38 51.64,708.60 56.11,713.52 60.86,718.39 65.66,723.00 70.77,727.58 75.88,731.89 81.16,736.08 86.34,739.95 91.57,743.62 96.78,747.06 101.99,750.32 107.21,753.38 112.34,756.22 117.57,758.92 122.75,761.44 128.12,763.90 133.41,766.21 137.30,767.85 140.49,769.16 M 63.09,441.42 L 64.62,441.54 66.67,441.69 69.15,441.87 71.93,442.07 74.35,442.25 77.14,442.46 79.48,442.63 82.22,442.83 84.58,443.01 87.43,443.21 89.91,443.40 92.76,443.61 95.22,443.79 97.98,443.99 100.39,444.17 103.12,444.37 105.55,444.55 108.31,444.75 110.74,444.93 113.53,445.13 116.01,445.32 118.84,445.53 121.30,445.71 124.08,445.91 126.43,446.09 129.16,446.29 131.53,446.46 134.37,446.67 136.85,446.85 139.67,447.06 142.13,447.24 144.92,447.44 147.36,447.62 150.14,447.83 152.48,448.00 155.21,448.20 157.59,448.38 160.44,448.59 162.93,448.77 165.75,448.98 168.20,449.16 170.99,449.36 173.43,449.54 176.31,449.76 179.20,449.97 182.59,450.22 185.97,450.47 188.96,450.69 191.85,450.90 194.31,451.08 197.06,451.28 199.46,451.46 202.22,451.66 204.71,451.85 207.53,452.05 209.98,452.22 212.75,452.42 215.17,452.58 217.96,452.81 220.30,453.02 223.04,453.30 225.41,453.57 227.44,453.81 228.84,453.98 M 45.17,423.45 L 44.35,421.48 43.64,419.70 42.50,416.70 41.43,413.74 40.25,410.35 39.09,406.86 37.99,403.33 36.86,399.42 35.82,395.53 34.86,391.70 34.15,388.64 33.51,385.59 32.95,382.62 32.35,379.27 31.82,376.01 31.40,373.21 31.01,370.44 30.72,368.01 30.42,365.14 30.20,362.54 29.97,359.62 29.81,357.22 29.67,354.57 29.58,352.35 29.51,349.64 29.49,347.22 29.50,344.42 29.54,341.97 29.63,339.17 29.73,336.76 29.87,334.07 30.02,331.85 30.22,329.22 30.42,326.81 30.70,323.89 30.98,321.32 31.34,318.40 31.75,315.48 32.27,312.14 32.85,308.69 33.51,305.18 34.35,301.19 35.27,297.17 36.24,293.18 37.19,289.62 38.33,285.68 39.75,281.20 41.45,276.17 43.29,271.16 45.01,266.73 46.64,262.79 47.94,259.80 49.31,256.82 50.42,254.51 51.83,251.67 53.06,249.27 54.66,246.23 56.28,243.32 58.18,239.97 60.10,236.75 61.86,233.87 63.68,231.02 65.34,228.51 67.20,225.79 68.91,223.38 70.87,220.71 72.79,218.18 75.01,215.35 77.03,212.84 79.27,210.16 81.35,207.75 83.80,204.99 86.12,202.47 88.79,199.66 91.21,197.20 94.02,194.43 96.88,191.75 100.13,188.77 103.34,185.94 106.21,183.48 109.01,181.18 111.57,179.15 114.62,176.81 117.38,174.75 120.44,172.55 123.24,170.62 126.34,168.54 129.53,166.52 132.91,164.47 136.32,162.49 139.71,160.64 142.60,159.10 145.63,157.60 147.53,156.68 149.56,155.73 M 178.49,164.81 L 179.70,167.52 180.92,170.07 182.40,173.14 183.86,175.97 185.47,179.01 187.38,182.53 189.35,186.04 191.14,189.11 192.88,191.97 194.48,194.50 196.38,197.38 198.43,200.37 200.78,203.72 203.21,207.03 205.46,210.02 207.83,213.02 210.01,215.69 212.45,218.55 214.58,220.97 217.01,223.61 219.59,226.29 222.61,229.34 225.78,232.44 228.65,235.19 231.57,237.90 234.15,240.21 237.00,242.68 239.49,244.75 242.13,246.88 244.49,248.72 247.25,250.80 250.36,253.04 254.40,255.86 258.92,258.93 263.40,261.88 267.30,264.37 270.38,266.29 273.23,268.04 275.80,269.59 278.70,271.31 281.67,273.05 284.95,274.94 287.37,276.32 289.25,277.40 M 872.92,424.30 L 869.61,431.70 M 876.86,441.56 L 869.61,431.70 869.61,431.70 M 477.85,61.19 L 460.74,88.35 M 460.19,109.12 L 460.74,88.35 M 444.49,63.73 L 460.74,88.35 M 744.80,129.11 L 747.22,145.57 M 736.70,167.14 L 747.22,145.57 M 764.76,153.58 L 747.22,145.57 M 445.19,833.68 L 452.17,821.15 M 149.56,155.73 L 170.72,146.40 M 178.49,164.81 L 170.72,146.40 M 174.95,128.03 L 170.72,146.40 M 167.72,799.89 L 161.82,779.91 M 172.91,764.98 L 161.82,779.91 M 140.49,769.16 L 161.82,779.91 M 37.12,452.80 L 49.24,438.31 M 63.09,441.42 L 49.24,438.31 M 45.17,423.45 L 49.24,438.31 M 477.85,61.19 L 479.36,58.92 480.76,56.92 482.91,53.94 484.87,51.40 487.26,48.48 489.42,45.95 491.93,43.18 493.98,41.03 496.45,38.56 498.49,36.60 501.09,34.26 503.83,31.94 507.21,29.24 510.61,26.65 513.62,24.45 516.46,22.48 519.25,20.67 522.43,18.69 525.73,16.76 528.76,15.07 531.80,13.48 534.89,11.99 538.77,10.25 543.23,8.44 548.06,6.67 552.46,5.21 556.41,4.06 559.88,3.18 563.40,2.38 566.88,1.70 569.92,1.18 573.03,0.81 575.96,0.58 579.24,0.39 582.51,0.31 585.36,0.29 588.30,0.33 590.69,0.40 593.51,0.52 595.92,0.69 598.79,0.97 601.21,1.27 604.08,1.67 606.44,2.03 609.29,2.49 611.64,2.89 614.51,3.41 616.85,3.85 619.70,4.44 622.57,5.09 625.95,5.89 629.39,6.79 632.23,7.58 634.96,8.40 637.18,9.13 640.01,10.08 643.14,11.23 647.10,12.76 651.14,14.43 654.96,16.10 657.99,17.50 660.72,18.84 663.19,20.11 666.00,21.61 668.57,23.01 671.46,24.66 674.35,26.40 677.76,28.53 681.21,30.77 684.30,32.84 687.31,34.97 690.31,37.23 693.71,39.88 697.14,42.72 700.16,45.32 703.10,48.02 705.58,50.44 708.37,53.30 711.06,56.26 713.98,59.63 716.72,62.98 719.03,65.95 721.08,68.76 722.78,71.24 724.57,73.97 726.15,76.53 727.81,79.34 729.27,81.96 730.76,84.75 732.03,87.26 733.29,89.89 734.38,92.30 735.49,94.89 736.49,97.34 737.55,100.15 738.66,103.33 739.94,107.32 741.16,111.39 742.24,115.40 743.08,119.00 743.84,123.04 744.37,126.14 744.80,129.11 M 622.08,316.56 L 624.68,313.78 628.08,310.11 632.89,304.91 637.80,299.57 642.64,294.29 647.26,289.22 651.89,284.10 656.36,279.11 660.92,273.97 665.41,268.85 669.98,263.57 674.44,258.33 678.80,253.13 682.99,248.04 687.22,242.80 691.36,237.57 695.58,232.12 699.63,226.78 703.67,221.33 707.49,216.03 711.13,210.86 714.64,205.71 717.97,200.65 721.28,195.41 724.39,190.24 727.44,184.89 730.34,179.57 733.17,174.17 735.10,170.39 736.70,167.14 M 764.76,153.58 L 766.94,154.59 768.98,155.55 772.12,157.06 774.70,158.33 777.49,159.77 779.76,161.01 782.46,162.53 784.90,163.97 787.72,165.68 790.26,167.26 793.00,169.01 795.50,170.66 798.37,172.61 801.51,174.82 805.41,177.69 809.40,180.72 813.29,183.81 816.42,186.39 819.33,188.90 821.73,191.06 824.30,193.44 826.62,195.65 829.17,198.15 831.42,200.42 833.85,202.95 836.05,205.31 838.63,208.16 841.30,211.23 844.50,215.06 847.66,218.96 850.65,222.77 852.95,225.84 855.08,228.85 857.12,231.87 859.37,235.31 861.53,238.74 863.33,241.65 864.96,244.42 866.23,246.67 867.73,249.47 868.98,251.90 870.40,254.76 871.50,257.10 872.75,259.87 873.81,262.34 875.01,265.26 876.23,268.41 877.69,272.43 879.23,276.95 880.67,281.35 881.92,285.36 882.96,288.95 883.97,292.53 884.88,296.05 885.62,299.03 886.30,302.12 886.89,305.08 887.54,308.51 888.12,311.89 888.57,314.73 888.96,317.55 889.25,319.89 889.56,322.74 889.81,325.23 890.06,328.06 890.24,330.51 890.41,333.27 890.53,335.73 890.62,338.49 890.67,340.94 890.70,343.70 890.68,346.16 890.62,348.92 890.53,351.37 890.39,354.14 890.23,356.59 890.01,359.35 889.78,361.81 889.52,364.63 889.31,367.12 889.04,370.09 888.71,373.02 888.26,376.39 887.71,379.69 887.20,382.57 886.60,385.40 886.04,387.86 885.31,390.81 884.45,394.01 883.21,398.12 881.69,402.75 880.07,407.32 878.51,411.41 877.28,414.42 876.09,417.20 874.91,419.84 873.91,422.08 872.92,424.30 M 902.04,482.03 L 901.01,479.88 898.90,475.77 896.81,471.88 895.03,468.71 893.27,465.75 891.35,462.68 888.89,458.87 886.23,454.84 883.56,450.92 881.36,447.76 879.34,444.95 878.08,443.21 876.86,441.56 M 460.06,682.73 L 460.06,680.99 460.06,678.23 460.06,675.77 460.06,673.01 460.06,670.56 460.05,667.79 460.05,665.34 460.05,662.58 460.05,660.12 460.05,657.36 460.05,654.91 460.05,652.15 460.05,649.69 460.05,646.93 460.05,644.48 460.05,641.71 460.04,639.26 460.04,636.50 460.04,634.05 460.04,631.28 460.04,628.83 460.04,626.07 460.04,623.61 460.04,620.85 460.04,618.40 460.04,615.64 460.04,613.18 460.04,610.42 460.03,607.97 460.03,605.20 460.03,602.75 460.03,599.99 460.03,597.54 460.03,594.77 460.03,592.32 460.03,589.56 460.03,587.10 460.03,584.34 460.03,581.89 460.02,579.13 460.02,576.67 460.02,573.91 460.02,571.46 460.02,568.70 460.02,566.24 460.02,563.48 460.02,561.03 460.02,558.26 460.02,555.81 460.02,553.05 460.01,550.59 460.01,547.83 460.01,545.38 460.01,542.62 460.01,540.16 460.01,537.40 460.01,534.95 460.01,532.18 460.01,529.73 460.01,526.97 460.01,524.52 460.00,521.75 460.00,519.30 460.00,516.54 460.00,514.08 460.00,511.32 460.00,508.87 460.00,506.11 460.00,503.65 460.00,500.89 460.00,498.44 460.00,495.67 460.00,493.22 459.99,490.46 459.99,488.01 459.99,485.24 459.99,482.79 459.99,480.03 459.99,477.57 459.99,474.81 459.99,472.36 459.99,469.60 459.99,467.14 459.99,464.38 459.98,461.93 459.98,459.17 459.98,456.71 459.98,453.95 459.98,451.56 459.98,448.70 459.98,445.80 459.98,442.31 459.98,438.92 459.98,435.92 459.97,433.09 459.97,430.63 459.97,427.87 459.97,425.42 459.97,422.66 459.97,420.20 459.97,417.44 459.97,414.99 459.97,412.22 459.97,409.77 459.97,407.01 459.96,404.55 459.96,401.79 459.96,399.34 459.96,396.58 459.96,394.12 459.96,391.36 459.96,388.91 459.96,386.14 459.96,383.69 459.96,380.93 459.96,378.48 459.95,375.71 459.95,373.26 459.95,370.50 459.95,368.04 459.95,365.28 459.95,362.83 459.95,360.07 459.95,357.61 459.95,354.85 459.95,352.40 459.95,349.64 459.95,347.18 459.94,344.42 459.94,341.97 459.94,339.20 459.94,336.75 459.94,333.99 459.94,331.53 459.94,328.77 459.94,326.32 459.94,323.56 459.94,321.10 459.94,318.34 459.93,315.89 459.93,313.13 459.93,310.67 459.93,307.91 459.93,305.46 459.93,302.69 459.93,300.24 459.93,297.48 459.93,295.02 459.93,292.26 459.93,289.81 459.92,287.05 459.92,284.59 459.92,281.83 459.92,279.38 459.92,276.62 459.92,274.16 459.92,271.40 459.92,268.95 459.92,266.18 459.92,263.73 459.92,260.97 459.91,258.51 459.91,255.75 459.91,253.30 459.91,250.54 459.91,248.08 459.91,245.32 459.91,242.87 459.91,240.11 459.91,237.65 459.91,234.89 459.91,232.44 459.90,229.67 459.90,227.22 459.90,224.46 459.90,222.00 459.90,219.24 459.90,216.79 459.90,214.03 459.90,211.57 459.90,208.81 459.90,206.36 459.90,203.60 459.90,201.14 459.89,198.38 459.89,195.93 459.89,193.16 459.89,190.71 459.89,187.95 459.89,185.49 459.89,182.73 459.89,180.28 459.89,177.52 459.89,175.06 459.89,172.30 459.88,169.85 459.88,167.09 459.88,164.63 459.88,161.87 459.88,159.42 459.88,156.65 459.88,154.20 459.88,151.44 459.88,148.98 459.88,146.22 459.88,143.77 459.87,141.01 459.87,138.55 459.87,135.79 459.87,133.34 459.87,130.58 459.87,128.12 459.87,125.36 459.87,122.91 459.87,120.14 459.88,117.69 459.94,114.93 460.03,112.48 460.12,110.51 460.19,109.12 M 174.95,128.03 L 175.44,125.71 176.00,123.22 176.69,120.26 177.44,117.31 178.14,114.71 178.97,111.79 179.90,108.83 181.10,105.18 182.43,101.42 183.86,97.62 185.07,94.60 186.40,91.53 187.76,88.63 189.39,85.35 191.06,82.21 192.63,79.37 194.41,76.38 196.42,73.22 198.82,69.61 201.44,65.92 204.16,62.35 207.01,58.84 209.92,55.50 212.58,52.59 215.36,49.77 217.85,47.38 220.72,44.76 223.32,42.52 226.14,40.16 228.61,38.20 231.24,36.20 233.63,34.45 236.27,32.59 238.77,30.91 241.50,29.14 244.02,27.57 246.85,25.87 249.76,24.21 253.04,22.41 256.47,20.62 259.96,18.88 263.45,17.24 266.89,15.69 270.30,14.24 274.19,12.69 278.67,11.07 283.61,9.40 288.16,7.97 292.07,6.85 295.09,6.04 298.07,5.31 300.67,4.71 303.55,4.08 305.87,3.61 308.48,3.11 310.67,2.73 313.44,2.28 315.82,1.92 318.73,1.53 321.10,1.23 323.78,0.94 325.96,0.73 328.45,0.51 330.85,0.34 333.46,0.18 336.13,0.06 338.63,0.00 341.36,0.01 343.77,0.07 346.61,0.23 349.52,0.47 352.90,0.82 356.41,1.28 359.80,1.82 363.19,2.47 366.44,3.18 369.35,3.88 372.29,4.68 374.81,5.44 377.56,6.32 379.92,7.15 382.69,8.19 385.17,9.17 387.99,10.39 390.32,11.48 393.08,12.89 395.57,14.25 398.52,15.99 401.24,17.70 404.25,19.71 406.88,21.57 409.57,23.60 411.90,25.48 414.49,27.68 416.92,29.83 419.67,32.42 422.13,34.86 424.82,37.68 427.15,40.25 429.63,43.08 431.70,45.55 433.82,48.18 435.64,50.56 437.62,53.32 439.48,55.98 441.62,59.23 443.03,61.39 444.49,63.73 M 167.72,799.89 L 168.79,802.78 169.96,805.84 171.55,809.88 173.08,813.50 174.67,817.01 176.32,820.39 177.85,823.38 179.45,826.29 180.95,828.85 182.66,831.64 184.29,834.17 186.10,836.85 187.82,839.29 189.82,841.97 191.79,844.49 194.15,847.36 196.40,849.98 199.07,852.93 201.73,855.69 204.68,858.65 207.58,861.41 210.32,863.91 213.09,866.31 215.56,868.37 218.37,870.61 221.34,872.85 224.65,875.27 227.96,877.58 230.75,879.47 233.57,881.28 236.08,882.81 238.95,884.49 241.56,885.95 244.49,887.53 247.60,889.12 251.48,891.00 255.83,893.01 260.22,894.94 264.22,896.61 267.33,897.83 270.30,898.94 273.23,899.95 277.02,901.21 281.01,902.44 285.09,903.64 288.78,904.61 292.21,905.45 295.61,906.18 298.49,906.75 301.49,907.24 303.86,907.56 306.63,907.86 308.94,908.06 311.74,908.24 314.20,908.35 317.01,908.43 319.46,908.45 322.27,908.44 324.74,908.39 327.56,908.31 329.90,908.22 332.63,908.09 334.97,907.93 337.86,907.67 340.35,907.38 343.23,906.99 345.55,906.64 348.31,906.17 350.66,905.73 353.64,905.11 356.65,904.39 360.51,903.35 364.34,902.22 368.23,900.94 371.73,899.67 375.32,898.24 378.82,896.72 381.99,895.26 385.07,893.72 388.07,892.09 391.37,890.21 394.72,888.16 397.81,886.18 400.87,884.08 403.48,882.20 406.29,880.05 408.81,878.00 411.70,875.53 414.29,873.20 417.15,870.49 419.64,868.03 422.29,865.29 424.51,862.89 426.85,860.24 428.92,857.77 431.21,854.94 433.21,852.37 435.25,849.63 436.98,847.17 438.84,844.38 440.56,841.67 442.54,838.34 443.86,836.10 445.19,833.68 M 172.91,764.98 L 173.79,763.48 175.01,761.47 176.55,758.95 178.30,756.17 179.88,753.73 181.81,750.81 183.90,747.75 186.42,744.12 188.99,740.51 191.17,737.49 193.22,734.73 194.87,732.55 196.97,729.84 198.96,727.31 201.39,724.27 203.59,721.57 206.01,718.65 208.12,716.15 210.34,713.55 212.31,711.29 214.52,708.79 216.63,706.44 219.12,703.71 221.46,701.19 224.14,698.37 226.56,695.87 229.30,693.10 231.77,690.65 234.56,687.94 237.05,685.57 239.76,683.04 242.11,680.88 244.73,678.53 247.16,676.38 250.09,673.85 253.13,671.28 256.56,668.45 260.09,665.60 263.61,662.82 267.17,660.07 270.62,657.47 274.12,654.91 277.95,652.18 281.92,649.42 285.88,646.73 289.40,644.39 292.71,642.25 295.90,640.23 298.83,638.41 300.92,637.13 302.43,636.21 M 37.12,452.80 L 34.85,456.16 32.35,459.96 28.92,465.27 25.74,470.43 22.75,475.60 20.04,480.69 17.55,485.85 15.35,490.86 13.45,495.48 11.94,499.49 10.62,503.13 9.33,507.08 7.92,511.68 6.51,516.77 5.19,522.01 4.06,527.15 3.08,532.23 2.23,537.33 1.53,542.43 0.97,547.64 0.56,552.86 0.27,558.11 0.09,563.25 0.00,568.34 0.00,573.44 0.10,578.58 0.30,583.83 0.61,589.06 1.04,594.29 1.59,599.42 2.30,604.61 3.13,609.77 4.09,614.96 5.18,620.09 6.42,625.23 7.84,630.42 9.43,635.63 11.19,640.80 13.12,645.99 15.21,651.12 17.54,656.40 20.01,661.57 22.69,666.80 25.49,671.91 28.52,677.10 31.75,682.26 35.27,687.54 38.98,692.79 43.03,698.16 47.19,703.38 51.64,708.60 56.11,713.52 60.86,718.39 65.66,723.00 70.77,727.58 75.88,731.89 81.16,736.08 86.34,739.95 91.57,743.62 96.78,747.06 101.99,750.32 107.21,753.38 112.34,756.22 117.57,758.92 122.75,761.44 128.12,763.90 133.41,766.21 137.30,767.85 140.49,769.16 M 63.09,441.42 L 64.62,441.54 66.67,441.69 69.15,441.87 71.93,442.07 74.35,442.25 77.14,442.46 79.48,442.63 82.22,442.83 84.58,443.01 87.43,443.21 89.91,443.40 92.76,443.61 95.22,443.79 97.98,443.99 100.39,444.17 103.12,444.37 105.55,444.55 108.31,444.75 110.74,444.93 113.53,445.13 116.01,445.32 118.84,445.53 121.30,445.71 124.08,445.91 126.43,446.09 129.16,446.29 131.53,446.46 134.37,446.67 136.85,446.85 139.67,447.06 142.13,447.24 144.92,447.44 147.36,447.62 150.14,447.83 152.48,448.00 155.21,448.20 157.59,448.38 160.44,448.59 162.93,448.77 165.75,448.98 168.20,449.16 170.99,449.36 173.43,449.54 176.31,449.76 179.20,449.97 182.59,450.22 185.97,450.47 188.96,450.69 191.85,450.90 194.31,451.08 197.06,451.28 199.46,451.46 202.22,451.66 204.71,451.85 207.53,452.05 209.98,452.22 212.75,452.42 215.17,452.58 217.96,452.81 220.30,453.02 223.04,453.30 225.41,453.57 227.44,453.81 228.84,453.98 M 45.17,423.45 L 44.35,421.48 43.64,419.70 42.50,416.70 41.43,413.74 40.25,410.35 39.09,406.86 37.99,403.33 36.86,399.42 35.82,395.53 34.86,391.70 34.15,388.64 33.51,385.59 32.95,382.62 32.35,379.27 31.82,376.01 31.40,373.21 31.01,370.44 30.72,368.01 30.42,365.14 30.20,362.54 29.97,359.62 29.81,357.22 29.67,354.57 29.58,352.35 29.51,349.64 29.49,347.22 29.50,344.42 29.54,341.97 29.63,339.17 29.73,336.76 29.87,334.07 30.02,331.85 30.22,329.22 30.42,326.81 30.70,323.89 30.98,321.32 31.34,318.40 31.75,315.48 32.27,312.14 32.85,308.69 33.51,305.18 34.35,301.19 35.27,297.17 36.24,293.18 37.19,289.62 38.33,285.68 39.75,281.20 41.45,276.17 43.29,271.16 45.01,266.73 46.64,262.79 47.94,259.80 49.31,256.82 50.42,254.51 51.83,251.67 53.06,249.27 54.66,246.23 56.28,243.32 58.18,239.97 60.10,236.75 61.86,233.87 63.68,231.02 65.34,228.51 67.20,225.79 68.91,223.38 70.87,220.71 72.79,218.18 75.01,215.35 77.03,212.84 79.27,210.16 81.35,207.75 83.80,204.99 86.12,202.47 88.79,199.66 91.21,197.20 94.02,194.43 96.88,191.75 100.13,188.77 103.34,185.94 106.21,183.48 109.01,181.18 111.57,179.15 114.62,176.81 117.38,174.75 120.44,172.55 123.24,170.62 126.34,168.54 129.53,166.52 132.91,164.47 136.32,162.49 139.71,160.64 142.60,159.10 145.63,157.60 147.53,156.68 149.56,155.73 M 178.49,164.81 L 179.70,167.52 180.92,170.07 182.40,173.14 183.86,175.97 185.47,179.01 187.38,182.53 189.35,186.04 191.14,189.11 192.88,191.97 194.48,194.50 196.38,197.38 198.43,200.37 200.78,203.72 203.21,207.03 205.46,210.02 207.83,213.02 210.01,215.69 212.45,218.55 214.58,220.97 217.01,223.61 219.59,226.29 222.61,229.34 225.78,232.44 228.65,235.19 231.57,237.90 234.15,240.21 237.00,242.68 239.49,244.75 242.13,246.88 244.49,248.72 247.25,250.80 250.36,253.04 254.40,255.86 258.92,258.93 263.40,261.88 267.30,264.37 270.38,266.29 273.23,268.04 275.80,269.59 278.70,271.31 281.67,273.05 284.95,274.94 287.37,276.32 289.25,277.40 M 872.92,424.30 L 869.61,431.70 M 876.86,441.56 L 869.61,431.70 869.61,431.70 M 477.85,61.19 L 460.74,88.35 M 460.19,109.12 L 460.74,88.35 M 444.49,63.73 L 460.74,88.35 M 744.80,129.11 L 747.22,145.57 M 736.70,167.14 L 747.22,145.57 M 764.76,153.58 L 747.22,145.57 M 445.19,833.68 L 452.17,821.15 M 149.56,155.73 L 170.72,146.40 M 178.49,164.81 L 170.72,146.40 M 174.95,128.03 L 170.72,146.40 M 167.72,799.89 L 161.82,779.91 M 172.91,764.98 L 161.82,779.91 M 140.49,769.16 L 161.82,779.91 M 37.12,452.80 L 49.24,438.31 M 63.09,441.42 L 49.24,438.31 M 45.17,423.45 L 49.24,438.31"  stroke-width="45.0"/>
  </g>
  
  
  <g id="state-icon" stroke="#000000" stroke-width="45" fill="none" stroke-linecap="round" stroke-linejoin="round">
    <path d="M 833.39,665.38 L 835.02,667.04 837.02,669.07 839.82,671.91 842.67,674.80 845.51,677.69 848.35,680.58 851.20,683.47 854.04,686.35 856.83,689.19 859.58,691.98 862.27,694.71 865.00,697.49 867.78,700.32 870.62,703.20 873.46,706.09 876.31,708.97 879.15,711.86 881.99,714.75 884.83,717.64 887.68,720.53 890.52,723.41 893.36,726.30 896.20,729.19 899.05,732.08 901.89,734.97 904.68,737.80 907.43,740.60 910.12,743.33 912.86,746.11 915.64,748.93 918.47,751.81 921.31,754.70 924.18,757.59 926.23,759.65 928.00,761.40 M 833.43,870.24 L 835.09,868.60 837.01,866.70 839.77,863.96 842.58,861.19 845.45,858.35 848.33,855.50 851.21,852.65 854.09,849.80 856.97,846.95 859.85,844.10 862.73,841.25 865.60,838.42 868.40,835.65 871.16,832.91 873.89,830.22 876.69,827.45 879.53,824.64 882.42,821.78 885.30,818.93 888.18,816.08 891.06,813.23 893.94,810.38 896.82,807.53 899.70,804.68 902.58,801.83 905.46,798.99 908.34,796.14 911.23,793.29 914.11,790.44 916.99,787.59 919.87,784.74 922.75,781.89 925.68,778.97 927.79,776.88 929.65,775.02 M 928.00,761.40 L 935.66,768.99 M 929.65,775.02 L 935.66,768.99 935.66,768.99 M 636.67,552.08 L 635.54,552.76 634.21,553.57 632.09,554.87 629.98,556.18 627.96,557.45 626.35,558.49 624.80,559.52 623.43,560.44 621.94,561.46 620.60,562.38 619.10,563.41 617.67,564.42 616.06,565.58 614.61,566.64 613.11,567.76 611.78,568.76 610.27,569.91 608.60,571.21 606.52,572.85 604.40,574.57 602.33,576.28 600.65,577.69 598.96,579.13 597.29,580.59 595.46,582.22 593.66,583.86 592.08,585.32 590.50,586.80 589.13,588.10 587.59,589.59 586.23,590.93 584.73,592.44 583.41,593.79 582.01,595.25 580.80,596.52 579.48,597.93 578.26,599.24 576.86,600.78 575.59,602.20 574.25,603.74 573.10,605.07 571.85,606.53 570.71,607.88 569.44,609.41 568.32,610.78 567.12,612.29 566.03,613.69 564.82,615.26 563.73,616.66 562.56,618.20 561.50,619.63 560.34,621.22 559.32,622.63 558.27,624.10 557.33,625.41 556.30,626.86 555.36,628.21 554.32,629.76 553.24,631.40 552.10,633.16 550.97,634.92 550.06,636.38 549.08,637.94 548.07,639.61 546.77,641.77 545.47,643.98 544.24,646.10 543.29,647.76 542.37,649.44 541.43,651.17 540.43,653.06 539.45,654.93 538.67,656.46 537.85,658.08 537.18,659.43 536.42,660.99 535.83,662.24 535.11,663.78 534.51,665.11 533.78,666.72 533.19,668.04 532.51,669.57 531.94,670.90 531.29,672.45 530.62,674.09 529.75,676.28 528.77,678.79 527.71,681.59 526.68,684.42 525.68,687.27 524.72,690.13 523.79,693.00 522.92,695.80 522.17,698.30 521.56,700.41 521.11,702.00 520.68,703.58 520.26,705.18 519.79,707.06 519.33,708.90 518.94,710.46 518.58,712.02 518.28,713.31 517.93,714.88 517.65,716.19 517.31,717.80 516.99,719.42 516.61,721.32 516.26,723.19 515.96,724.77 515.69,726.34 515.47,727.64 515.22,729.21 515.01,730.52 514.78,732.08 514.59,733.38 514.36,734.95 514.18,736.27 513.98,737.83 513.82,739.17 513.65,740.70 513.51,742.01 513.34,743.52 513.21,744.82 513.05,746.37 512.94,747.70 512.81,749.27 512.72,750.60 512.61,752.16 512.53,753.47 512.43,754.99 512.35,756.31 512.27,757.83 512.21,759.18 512.16,760.69 512.13,762.04 512.09,763.56 512.06,764.91 512.03,766.42 512.01,767.77 512.00,769.29 512.01,770.64 512.03,772.15 512.05,773.50 512.08,775.02 512.10,776.37 512.14,777.89 512.19,779.23 512.25,780.78 512.34,782.42 512.44,784.25 512.56,786.15 512.67,787.75 512.79,789.35 512.89,790.68 513.03,792.25 513.18,793.88 513.37,795.70 513.57,797.60 513.75,799.20 513.94,800.84 514.14,802.45 514.38,804.29 514.64,806.18 514.86,807.79 515.10,809.42 515.35,811.02 515.65,812.84 515.98,814.75 516.33,816.63 516.74,818.82 517.17,820.99 517.61,823.22 518.04,825.19 518.54,827.38 519.14,829.84 519.77,832.36 520.35,834.68 520.87,836.66 521.47,838.81 522.18,841.23 523.00,843.94 523.78,846.48 524.49,848.72 525.06,850.47 525.59,852.04 526.07,853.41 526.63,854.94 527.25,856.63 527.96,858.53 528.69,860.45 529.34,862.13 529.95,863.68 530.49,865.04 531.08,866.47 531.64,867.80 532.30,869.29 533.02,870.93 533.84,872.77 534.72,874.71 535.60,876.63 536.52,878.57 537.47,880.49 538.42,882.39 539.38,884.29 540.33,886.14 541.19,887.79 542.08,889.46 542.99,891.12 544.02,892.94 545.05,894.75 545.98,896.37 546.91,897.94 547.75,899.36 548.67,900.89 549.53,902.30 550.48,903.82 551.37,905.22 552.38,906.76 553.49,908.43 554.90,910.54 556.57,913.00 558.44,915.67 560.23,918.17 561.90,920.44 563.41,922.46 564.92,924.44 566.38,926.31 567.67,927.93 568.94,929.50 570.26,931.09 571.77,932.90 573.34,934.76 574.75,936.40 576.19,938.03 577.47,939.45 578.95,941.06 580.45,942.68 582.12,944.47 583.80,946.23 585.31,947.77 586.78,949.24 588.03,950.48 589.41,951.83 590.69,953.07 592.18,954.50 593.57,955.81 595.15,957.26 596.55,958.54 598.09,959.90 599.42,961.07 600.87,962.33 602.22,963.49 603.73,964.77 605.09,965.91 606.58,967.13 607.97,968.23 609.53,969.46 610.92,970.55 612.38,971.68 613.68,972.69 615.20,973.84 616.87,975.05 618.79,976.43 620.75,977.82 622.72,979.19 624.90,980.68 627.35,982.31 629.85,983.93 632.16,985.39 633.87,986.45 635.41,987.39 636.61,988.12 638.12,989.02 639.69,989.93 641.53,990.98 643.41,992.02 645.28,993.04 647.16,994.06 649.05,995.06 651.04,996.09 653.25,997.19 655.53,998.29 657.66,999.32 659.37,1000.14 660.95,1000.89 662.63,1001.66 664.71,1002.60 666.91,1003.56 669.11,1004.48 671.18,1005.33 673.40,1006.23 675.62,1007.13 677.84,1008.02 679.92,1008.82 682.22,1009.64 684.76,1010.50 687.56,1011.43 690.35,1012.33 692.84,1013.14 694.97,1013.81 696.55,1014.29 698.15,1014.73 699.82,1015.17 702.03,1015.73 704.24,1016.29 706.39,1016.82 708.00,1017.22 709.61,1017.62 711.29,1018.01 713.51,1018.49 715.75,1018.94 717.90,1019.35 719.51,1019.64 721.08,1019.92 722.37,1020.15 723.93,1020.43 725.25,1020.67 726.80,1020.93 728.12,1021.15 729.64,1021.38 730.94,1021.56 732.47,1021.75 733.79,1021.91 735.36,1022.09 736.69,1022.23 738.24,1022.40 739.53,1022.54 741.06,1022.71 742.37,1022.86 743.94,1023.02 745.29,1023.14 746.83,1023.26 748.15,1023.35 749.66,1023.44 750.96,1023.50 752.53,1023.57 753.86,1023.63 755.42,1023.71 756.76,1023.77 758.29,1023.84 759.64,1023.90 761.16,1023.95 762.51,1023.98 764.02,1024.00 765.37,1024.00 766.89,1023.98 768.24,1023.96 769.75,1023.93 771.10,1023.90 772.62,1023.87 773.97,1023.84 775.54,1023.81 777.18,1023.75 779.04,1023.68 780.93,1023.58 782.53,1023.49 784.15,1023.37 785.74,1023.25 787.59,1023.10 789.44,1022.95 791.05,1022.81 792.67,1022.67 794.25,1022.52 796.13,1022.32 798.00,1022.10 799.69,1021.89 801.32,1021.66 802.95,1021.43 804.76,1021.17 806.65,1020.88 808.51,1020.60 810.43,1020.30 812.28,1019.99 813.91,1019.70 815.59,1019.39 817.24,1019.06 819.13,1018.68 821.02,1018.28 822.99,1017.86 825.16,1017.39 827.36,1016.90 829.54,1016.40 831.56,1015.89 833.79,1015.31 836.33,1014.61 839.15,1013.82 842.05,1012.99 844.94,1012.12 847.82,1011.22 850.69,1010.27 853.55,1009.30 856.40,1008.29 859.18,1007.29 861.71,1006.34 863.98,1005.46 865.73,1004.77 867.36,1004.10 868.67,1003.56 870.19,1002.91 871.55,1002.33 873.04,1001.69 874.37,1001.12 875.79,1000.50 877.12,999.90 878.62,999.20 880.24,998.43 882.07,997.54 883.99,996.59 885.89,995.63 887.79,994.66 889.64,993.70 891.30,992.83 892.92,991.95 894.37,991.16 895.95,990.29 897.38,989.48 898.97,988.56 900.62,987.57 902.42,986.50 904.23,985.41 905.77,984.47 907.33,983.50 908.70,982.62 910.23,981.63 911.61,980.72 913.20,979.65 914.90,978.48 916.85,977.13 918.78,975.76 920.46,974.56 921.99,973.44 923.31,972.45 924.81,971.32 926.22,970.23 927.79,969.00 929.18,967.90 930.68,966.69 932.05,965.56 933.57,964.29 934.93,963.15 936.40,961.89 937.75,960.71 939.31,959.32 940.74,958.04 942.32,956.58 943.72,955.27 945.27,953.79 946.63,952.46 948.16,950.95 949.51,949.61 951.03,948.09 952.37,946.73 953.86,945.20 955.19,943.82 956.67,942.27 957.97,940.88 959.44,939.30 960.73,937.88 962.13,936.33 963.31,934.98 964.58,933.52 965.72,932.18 967.07,930.57 968.46,928.87 970.00,926.95 971.49,925.07 972.76,923.44 973.92,921.91 974.92,920.58 975.98,919.15 976.94,917.81 978.03,916.28 979.21,914.58 980.54,912.63 981.87,910.65 983.01,908.93 984.05,907.33 984.94,905.93 985.92,904.37 986.96,902.66 988.21,900.57 989.50,898.39 990.72,896.28 991.67,894.62 992.54,893.05 993.35,891.54 994.29,889.75 995.23,887.96 996.10,886.30 996.95,884.61 997.79,882.91 998.71,881.01 999.63,879.06 1000.52,877.13 1001.40,875.18 1002.27,873.22 1003.14,871.22 1004.10,868.95 1005.12,866.45 1006.19,863.74 1007.16,861.22 1007.98,859.02 1008.62,857.29 1009.19,855.73 1009.67,854.35 1010.20,852.81 1010.76,851.12 1011.45,848.98 1012.21,846.53 1012.94,844.11 1013.58,841.97 1014.06,840.33 1014.50,838.75 1014.89,837.34 1015.32,835.73 1015.77,833.99 1016.32,831.81 1016.93,829.28 1017.51,826.76 1018.03,824.44 1018.46,822.46 1018.85,820.55 1019.22,818.62 1019.58,816.71 1019.97,814.56 1020.34,812.39 1020.70,810.25 1020.98,808.53 1021.23,806.89 1021.47,805.22 1021.71,803.40 1021.96,801.46 1022.18,799.65 1022.39,797.71 1022.59,795.87 1022.76,794.22 1022.92,792.66 1023.04,791.35 1023.17,789.80 1023.28,788.43 1023.39,786.87 1023.47,785.53 1023.56,783.96 1023.64,782.35 1023.72,780.54 1023.80,778.69 1023.86,777.09 1023.92,775.47 1023.95,774.10 1023.98,772.55 1024.00,771.20 1024.00,769.68 1023.99,768.33 1023.98,766.82 1023.97,765.47 1023.95,763.95 1023.92,762.60 1023.88,761.03 1023.82,759.41 1023.75,757.56 1023.65,755.69 1023.56,754.08 1023.46,752.52 1023.38,751.21 1023.26,749.62 1023.14,747.98 1022.98,746.09 1022.81,744.22 1022.66,742.60 1022.48,740.99 1022.30,739.40 1022.06,737.55 1021.82,735.68 1021.61,734.06 1021.39,732.47 1021.19,731.10 1020.95,729.49 1020.68,727.83 1020.38,725.99 1020.05,724.14 1019.77,722.61 1019.47,721.04 1019.21,719.75 1018.89,718.18 1018.61,716.83 1018.26,715.18 1017.88,713.45 1017.39,711.28 1016.86,709.09 1016.34,706.99 1015.91,705.33 1015.48,703.74 1015.10,702.33 1014.67,700.78 1014.28,699.37 1013.83,697.81 1013.31,696.10 1012.63,693.96 1011.82,691.46 1010.88,688.69 1009.90,685.85 1008.87,683.00 1007.83,680.23 1006.84,677.71 1005.96,675.53 1005.25,673.83 1004.57,672.21 1003.87,670.57 1003.06,668.70 1002.19,666.74 1001.31,664.80 1000.40,662.86 999.52,661.03 998.74,659.42 997.95,657.86 997.08,656.17 995.98,654.07 994.79,651.83 993.61,649.65 992.52,647.70 991.46,645.84 990.42,644.03 989.47,642.41 988.52,640.83 987.67,639.42 986.73,637.90 985.85,636.50 984.89,634.99 983.99,633.60 982.98,632.07 981.90,630.45 980.67,628.64 979.40,626.78 978.26,625.14 977.16,623.59 976.19,622.25 975.06,620.72 973.83,619.06 972.39,617.17 970.90,615.24 969.56,613.52 968.21,611.85 966.91,610.26 965.48,608.52 963.98,606.75 962.61,605.13 961.23,603.54 960.06,602.21 958.77,600.77 957.58,599.46 956.19,597.95 954.89,596.56 953.42,595.01 952.09,593.64 950.59,592.11 949.24,590.76 947.71,589.25 946.34,587.93 944.75,586.43 943.15,584.95 941.34,583.30 939.53,581.66 937.89,580.21 936.29,578.83 934.94,577.69 933.46,576.44 932.10,575.31 930.56,574.05 929.18,572.95 927.72,571.80 926.42,570.79 924.91,569.63 923.26,568.39 921.36,566.98 919.44,565.58 917.76,564.38 916.20,563.29 914.84,562.35 913.27,561.28 911.56,560.14 909.67,558.91 907.81,557.72 906.25,556.72 904.69,555.75 903.32,554.90 901.72,553.93 900.05,552.95 898.24,551.91 896.40,550.86 894.84,549.98 893.19,549.07 891.56,548.19 889.69,547.20 887.82,546.23 886.14,545.37 884.47,544.53 883.08,543.83 881.55,543.08 880.28,542.47 878.69,541.72 877.02,540.96 875.13,540.10 873.28,539.27 871.72,538.58 870.18,537.91 868.83,537.35 867.26,536.71 865.56,536.03 863.39,535.17 860.88,534.20 858.11,533.17 855.27,532.15 852.42,531.16 849.55,530.20 846.68,529.27 843.86,528.41 841.36,527.65 839.21,527.03 837.56,526.56 835.91,526.11 834.18,525.66 832.03,525.11 829.86,524.57 827.78,524.06 826.17,523.68 824.61,523.33 823.33,523.05 821.78,522.72 820.45,522.45 818.80,522.11 817.13,521.79 815.26,521.43 813.41,521.08 811.85,520.81 810.27,520.54 808.98,520.34 807.42,520.09 806.14,519.89 804.58,519.66 803.27,519.47 801.69,519.25 800.36,519.08 798.79,518.89 797.46,518.73 795.93,518.56 794.63,518.42 793.08,518.25 791.79,518.12 790.21,517.97 788.89,517.86 787.30,517.73 785.98,517.63 784.46,517.52 783.13,517.43 781.61,517.33 780.26,517.25 778.74,517.18 777.40,517.12 775.88,517.07 774.53,517.03 773.01,516.99 771.66,516.95 770.15,516.92 768.80,516.89 767.28,516.88 765.93,516.88 764.42,516.89 763.07,516.91 761.55,516.93 760.20,516.96 758.69,517.00 757.34,517.03 755.82,517.08 754.47,517.13 752.96,517.21 751.61,517.28 750.04,517.38 748.46,517.48 746.68,517.61 744.85,517.76 743.25,517.89 741.55,518.05 740.17,518.19 738.59,518.35 737.28,518.48 735.77,518.65 734.43,518.80 732.87,519.00 731.23,519.22 729.40,519.48 727.46,519.77 725.58,520.06 723.66,520.36 721.77,520.67 719.87,521.02 717.69,521.44 715.49,521.88 713.22,522.34 711.23,522.76 709.02,523.26 706.57,523.85 704.06,524.47 701.77,525.04 699.79,525.56 697.61,526.16 695.15,526.87 692.42,527.69 689.91,528.46 687.76,529.13 686.14,529.65 684.60,530.17 683.23,530.64 681.73,531.17 680.36,531.66 678.91,532.18 677.56,532.67 676.05,533.24 674.39,533.87 672.52,534.60 670.59,535.38 668.93,536.05 667.28,536.74 665.70,537.42 663.83,538.23 661.96,539.05 660.30,539.80 658.67,540.55 657.12,541.29 655.29,542.16 653.41,543.09 651.48,544.04 649.58,545.00 647.69,545.98 645.73,547.02 644.27,547.81 642.89,548.57 M 636.67,552.08 L 638.25,551.13 M 642.89,548.57 L 638.25,551.13 638.25,551.13 M 608.08,761.53 L 608.81,760.80 609.88,759.73 611.21,758.39 612.73,756.88 614.08,755.53 615.60,754.01 616.94,752.66 618.46,751.14 619.81,749.80 621.33,748.28 622.67,746.93 624.19,745.41 625.54,744.06 627.05,742.55 628.40,741.20 629.92,739.68 631.27,738.33 632.78,736.81 634.13,735.47 635.65,733.95 637.00,732.60 638.51,731.08 639.86,729.73 641.38,728.22 642.72,726.87 644.24,725.35 645.59,724.00 647.11,722.49 648.45,721.14 649.97,719.62 651.32,718.27 652.84,716.75 654.18,715.41 655.70,713.89 657.05,712.54 658.56,711.02 659.91,709.67 661.43,708.16 662.78,706.81 664.29,705.29 665.64,703.94 667.16,702.42 668.51,701.08 670.02,699.56 671.37,698.21 672.89,696.69 674.24,695.34 675.75,693.83 677.10,692.48 678.62,690.96 679.96,689.61 681.48,688.09 682.83,686.75 684.35,685.23 685.69,683.88 687.21,682.36 688.56,681.01 690.08,679.50 691.42,678.15 692.94,676.63 694.29,675.28 695.80,673.77 697.15,672.42 698.67,670.90 700.02,669.55 701.53,668.03 702.50,667.07 703.47,666.09 M 606.73,774.47 L 607.71,775.45 608.68,776.42 610.19,777.95 611.53,779.30 613.04,780.83 614.38,782.18 615.90,783.71 617.24,785.06 618.76,786.58 620.10,787.93 621.62,789.44 622.97,790.79 624.49,792.31 625.84,793.65 627.36,795.17 628.71,796.51 630.23,798.02 631.59,799.36 633.11,800.87 634.47,802.21 636.00,803.72 637.35,805.06 638.88,806.57 640.24,807.90 641.77,809.41 643.13,810.75 644.66,812.25 646.02,813.59 647.55,815.09 648.91,816.43 650.44,817.93 651.80,819.27 653.33,820.77 654.69,822.10 656.23,823.60 657.59,824.94 659.12,826.44 660.48,827.78 662.01,829.28 663.37,830.61 664.91,832.12 666.27,833.45 667.80,834.95 669.16,836.29 670.69,837.79 672.05,839.13 673.58,840.63 674.94,841.97 676.47,843.48 677.82,844.82 679.35,846.32 680.71,847.66 682.23,849.17 683.59,850.51 685.11,852.02 686.47,853.36 687.99,854.87 689.34,856.22 690.86,857.73 692.21,859.08 693.73,860.59 695.08,861.94 696.60,863.46 697.94,864.80 699.39,866.25 700.63,867.50 701.58,868.45 702.26,869.13 M 608.08,761.53 L 600.94,768.67 M 606.73,774.47 L 600.94,768.67 600.94,768.67 M 833.39,665.38 L 835.02,667.04 837.02,669.07 839.82,671.91 842.67,674.80 845.51,677.69 848.35,680.58 851.20,683.47 854.04,686.35 856.83,689.19 859.58,691.98 862.27,694.71 865.00,697.49 867.78,700.32 870.62,703.20 873.46,706.09 876.31,708.97 879.15,711.86 881.99,714.75 884.83,717.64 887.68,720.53 890.52,723.41 893.36,726.30 896.20,729.19 899.05,732.08 901.89,734.97 904.68,737.80 907.43,740.60 910.12,743.33 912.86,746.11 915.64,748.93 918.47,751.81 921.31,754.70 924.18,757.59 926.23,759.65 928.00,761.40 M 833.43,870.24 L 835.09,868.60 837.01,866.70 839.77,863.96 842.58,861.19 845.45,858.35 848.33,855.50 851.21,852.65 854.09,849.80 856.97,846.95 859.85,844.10 862.73,841.25 865.60,838.42 868.40,835.65 871.16,832.91 873.89,830.22 876.69,827.45 879.53,824.64 882.42,821.78 885.30,818.93 888.18,816.08 891.06,813.23 893.94,810.38 896.82,807.53 899.70,804.68 902.58,801.83 905.46,798.99 908.34,796.14 911.23,793.29 914.11,790.44 916.99,787.59 919.87,784.74 922.75,781.89 925.68,778.97 927.79,776.88 929.65,775.02 M 928.00,761.40 L 935.66,768.99 M 929.65,775.02 L 935.66,768.99 935.66,768.99 M 636.67,552.08 L 635.54,552.76 634.21,553.57 632.09,554.87 629.98,556.18 627.96,557.45 626.35,558.49 624.80,559.52 623.43,560.44 621.94,561.46 620.60,562.38 619.10,563.41 617.67,564.42 616.06,565.58 614.61,566.64 613.11,567.76 611.78,568.76 610.27,569.91 608.60,571.21 606.52,572.85 604.40,574.57 602.33,576.28 600.65,577.69 598.96,579.13 597.29,580.59 595.46,582.22 593.66,583.86 592.08,585.32 590.50,586.80 589.13,588.10 587.59,589.59 586.23,590.93 584.73,592.44 583.41,593.79 582.01,595.25 580.80,596.52 579.48,597.93 578.26,599.24 576.86,600.78 575.59,602.20 574.25,603.74 573.10,605.07 571.85,606.53 570.71,607.88 569.44,609.41 568.32,610.78 567.12,612.29 566.03,613.69 564.82,615.26 563.73,616.66 562.56,618.20 561.50,619.63 560.34,621.22 559.32,622.63 558.27,624.10 557.33,625.41 556.30,626.86 555.36,628.21 554.32,629.76 553.24,631.40 552.10,633.16 550.97,634.92 550.06,636.38 549.08,637.94 548.07,639.61 546.77,641.77 545.47,643.98 544.24,646.10 543.29,647.76 542.37,649.44 541.43,651.17 540.43,653.06 539.45,654.93 538.67,656.46 537.85,658.08 537.18,659.43 536.42,660.99 535.83,662.24 535.11,663.78 534.51,665.11 533.78,666.72 533.19,668.04 532.51,669.57 531.94,670.90 531.29,672.45 530.62,674.09 529.75,676.28 528.77,678.79 527.71,681.59 526.68,684.42 525.68,687.27 524.72,690.13 523.79,693.00 522.92,695.80 522.17,698.30 521.56,700.41 521.11,702.00 520.68,703.58 520.26,705.18 519.79,707.06 519.33,708.90 518.94,710.46 518.58,712.02 518.28,713.31 517.93,714.88 517.65,716.19 517.31,717.80 516.99,719.42 516.61,721.32 516.26,723.19 515.96,724.77 515.69,726.34 515.47,727.64 515.22,729.21 515.01,730.52 514.78,732.08 514.59,733.38 514.36,734.95 514.18,736.27 513.98,737.83 513.82,739.17 513.65,740.70 513.51,742.01 513.34,743.52 513.21,744.82 513.05,746.37 512.94,747.70 512.81,749.27 512.72,750.60 512.61,752.16 512.53,753.47 512.43,754.99 512.35,756.31 512.27,757.83 512.21,759.18 512.16,760.69 512.13,762.04 512.09,763.56 512.06,764.91 512.03,766.42 512.01,767.77 512.00,769.29 512.01,770.64 512.03,772.15 512.05,773.50 512.08,775.02 512.10,776.37 512.14,777.89 512.19,779.23 512.25,780.78 512.34,782.42 512.44,784.25 512.56,786.15 512.67,787.75 512.79,789.35 512.89,790.68 513.03,792.25 513.18,793.88 513.37,795.70 513.57,797.60 513.75,799.20 513.94,800.84 514.14,802.45 514.38,804.29 514.64,806.18 514.86,807.79 515.10,809.42 515.35,811.02 515.65,812.84 515.98,814.75 516.33,816.63 516.74,818.82 517.17,820.99 517.61,823.22 518.04,825.19 518.54,827.38 519.14,829.84 519.77,832.36 520.35,834.68 520.87,836.66 521.47,838.81 522.18,841.23 523.00,843.94 523.78,846.48 524.49,848.72 525.06,850.47 525.59,852.04 526.07,853.41 526.63,854.94 527.25,856.63 527.96,858.53 528.69,860.45 529.34,862.13 529.95,863.68 530.49,865.04 531.08,866.47 531.64,867.80 532.30,869.29 533.02,870.93 533.84,872.77 534.72,874.71 535.60,876.63 536.52,878.57 537.47,880.49 538.42,882.39 539.38,884.29 540.33,886.14 541.19,887.79 542.08,889.46 542.99,891.12 544.02,892.94 545.05,894.75 545.98,896.37 546.91,897.94 547.75,899.36 548.67,900.89 549.53,902.30 550.48,903.82 551.37,905.22 552.38,906.76 553.49,908.43 554.90,910.54 556.57,913.00 558.44,915.67 560.23,918.17 561.90,920.44 563.41,922.46 564.92,924.44 566.38,926.31 567.67,927.93 568.94,929.50 570.26,931.09 571.77,932.90 573.34,934.76 574.75,936.40 576.19,938.03 577.47,939.45 578.95,941.06 580.45,942.68 582.12,944.47 583.80,946.23 585.31,947.77 586.78,949.24 588.03,950.48 589.41,951.83 590.69,953.07 592.18,954.50 593.57,955.81 595.15,957.26 596.55,958.54 598.09,959.90 599.42,961.07 600.87,962.33 602.22,963.49 603.73,964.77 605.09,965.91 606.58,967.13 607.97,968.23 609.53,969.46 610.92,970.55 612.38,971.68 613.68,972.69 615.20,973.84 616.87,975.05 618.79,976.43 620.75,977.82 622.72,979.19 624.90,980.68 627.35,982.31 629.85,983.93 632.16,985.39 633.87,986.45 635.41,987.39 636.61,988.12 638.12,989.02 639.69,989.93 641.53,990.98 643.41,992.02 645.28,993.04 647.16,994.06 649.05,995.06 651.04,996.09 653.25,997.19 655.53,998.29 657.66,999.32 659.37,1000.14 660.95,1000.89 662.63,1001.66 664.71,1002.60 666.91,1003.56 669.11,1004.48 671.18,1005.33 673.40,1006.23 675.62,1007.13 677.84,1008.02 679.92,1008.82 682.22,1009.64 684.76,1010.50 687.56,1011.43 690.35,1012.33 692.84,1013.14 694.97,1013.81 696.55,1014.29 698.15,1014.73 699.82,1015.17 702.03,1015.73 704.24,1016.29 706.39,1016.82 708.00,1017.22 709.61,1017.62 711.29,1018.01 713.51,1018.49 715.75,1018.94 717.90,1019.35 719.51,1019.64 721.08,1019.92 722.37,1020.15 723.93,1020.43 725.25,1020.67 726.80,1020.93 728.12,1021.15 729.64,1021.38 730.94,1021.56 732.47,1021.75 733.79,1021.91 735.36,1022.09 736.69,1022.23 738.24,1022.40 739.53,1022.54 741.06,1022.71 742.37,1022.86 743.94,1023.02 745.29,1023.14 746.83,1023.26 748.15,1023.35 749.66,1023.44 750.96,1023.50 752.53,1023.57 753.86,1023.63 755.42,1023.71 756.76,1023.77 758.29,1023.84 759.64,1023.90 761.16,1023.95 762.51,1023.98 764.02,1024.00 765.37,1024.00 766.89,1023.98 768.24,1023.96 769.75,1023.93 771.10,1023.90 772.62,1023.87 773.97,1023.84 775.54,1023.81 777.18,1023.75 779.04,1023.68 780.93,1023.58 782.53,1023.49 784.15,1023.37 785.74,1023.25 787.59,1023.10 789.44,1022.95 791.05,1022.81 792.67,1022.67 794.25,1022.52 796.13,1022.32 798.00,1022.10 799.69,1021.89 801.32,1021.66 802.95,1021.43 804.76,1021.17 806.65,1020.88 808.51,1020.60 810.43,1020.30 812.28,1019.99 813.91,1019.70 815.59,1019.39 817.24,1019.06 819.13,1018.68 821.02,1018.28 822.99,1017.86 825.16,1017.39 827.36,1016.90 829.54,1016.40 831.56,1015.89 833.79,1015.31 836.33,1014.61 839.15,1013.82 842.05,1012.99 844.94,1012.12 847.82,1011.22 850.69,1010.27 853.55,1009.30 856.40,1008.29 859.18,1007.29 861.71,1006.34 863.98,1005.46 865.73,1004.77 867.36,1004.10 868.67,1003.56 870.19,1002.91 871.55,1002.33 873.04,1001.69 874.37,1001.12 875.79,1000.50 877.12,999.90 878.62,999.20 880.24,998.43 882.07,997.54 883.99,996.59 885.89,995.63 887.79,994.66 889.64,993.70 891.30,992.83 892.92,991.95 894.37,991.16 895.95,990.29 897.38,989.48 898.97,988.56 900.62,987.57 902.42,986.50 904.23,985.41 905.77,984.47 907.33,983.50 908.70,982.62 910.23,981.63 911.61,980.72 913.20,979.65 914.90,978.48 916.85,977.13 918.78,975.76 920.46,974.56 921.99,973.44 923.31,972.45 924.81,971.32 926.22,970.23 927.79,969.00 929.18,967.90 930.68,966.69 932.05,965.56 933.57,964.29 934.93,963.15 936.40,961.89 937.75,960.71 939.31,959.32 940.74,958.04 942.32,956.58 943.72,955.27 945.27,953.79 946.63,952.46 948.16,950.95 949.51,949.61 951.03,948.09 952.37,946.73 953.86,945.20 955.19,943.82 956.67,942.27 957.97,940.88 959.44,939.30 960.73,937.88 962.13,936.33 963.31,934.98 964.58,933.52 965.72,932.18 967.07,930.57 968.46,928.87 970.00,926.95 971.49,925.07 972.76,923.44 973.92,921.91 974.92,920.58 975.98,919.15 976.94,917.81 978.03,916.28 979.21,914.58 980.54,912.63 981.87,910.65 983.01,908.93 984.05,907.33 984.94,905.93 985.92,904.37 986.96,902.66 988.21,900.57 989.50,898.39 990.72,896.28 991.67,894.62 992.54,893.05 993.35,891.54 994.29,889.75 995.23,887.96 996.10,886.30 996.95,884.61 997.79,882.91 998.71,881.01 999.63,879.06 1000.52,877.13 1001.40,875.18 1002.27,873.22 1003.14,871.22 1004.10,868.95 1005.12,866.45 1006.19,863.74 1007.16,861.22 1007.98,859.02 1008.62,857.29 1009.19,855.73 1009.67,854.35 1010.20,852.81 1010.76,851.12 1011.45,848.98 1012.21,846.53 1012.94,844.11 1013.58,841.97 1014.06,840.33 1014.50,838.75 1014.89,837.34 1015.32,835.73 1015.77,833.99 1016.32,831.81 1016.93,829.28 1017.51,826.76 1018.03,824.44 1018.46,822.46 1018.85,820.55 1019.22,818.62 1019.58,816.71 1019.97,814.56 1020.34,812.39 1020.70,810.25 1020.98,808.53 1021.23,806.89 1021.47,805.22 1021.71,803.40 1021.96,801.46 1022.18,799.65 1022.39,797.71 1022.59,795.87 1022.76,794.22 1022.92,792.66 1023.04,791.35 1023.17,789.80 1023.28,788.43 1023.39,786.87 1023.47,785.53 1023.56,783.96 1023.64,782.35 1023.72,780.54 1023.80,778.69 1023.86,777.09 1023.92,775.47 1023.95,774.10 1023.98,772.55 1024.00,771.20 1024.00,769.68 1023.99,768.33 1023.98,766.82 1023.97,765.47 1023.95,763.95 1023.92,762.60 1023.88,761.03 1023.82,759.41 1023.75,757.56 1023.65,755.69 1023.56,754.08 1023.46,752.52 1023.38,751.21 1023.26,749.62 1023.14,747.98 1022.98,746.09 1022.81,744.22 1022.66,742.60 1022.48,740.99 1022.30,739.40 1022.06,737.55 1021.82,735.68 1021.61,734.06 1021.39,732.47 1021.19,731.10 1020.95,729.49 1020.68,727.83 1020.38,725.99 1020.05,724.14 1019.77,722.61 1019.47,721.04 1019.21,719.75 1018.89,718.18 1018.61,716.83 1018.26,715.18 1017.88,713.45 1017.39,711.28 1016.86,709.09 1016.34,706.99 1015.91,705.33 1015.48,703.74 1015.10,702.33 1014.67,700.78 1014.28,699.37 1013.83,697.81 1013.31,696.10 1012.63,693.96 1011.82,691.46 1010.88,688.69 1009.90,685.85 1008.87,683.00 1007.83,680.23 1006.84,677.71 1005.96,675.53 1005.25,673.83 1004.57,672.21 1003.87,670.57 1003.06,668.70 1002.19,666.74 1001.31,664.80 1000.40,662.86 999.52,661.03 998.74,659.42 997.95,657.86 997.08,656.17 995.98,654.07 994.79,651.83 993.61,649.65 992.52,647.70 991.46,645.84 990.42,644.03 989.47,642.41 988.52,640.83 987.67,639.42 986.73,637.90 985.85,636.50 984.89,634.99 983.99,633.60 982.98,632.07 981.90,630.45 980.67,628.64 979.40,626.78 978.26,625.14 977.16,623.59 976.19,622.25 975.06,620.72 973.83,619.06 972.39,617.17 970.90,615.24 969.56,613.52 968.21,611.85 966.91,610.26 965.48,608.52 963.98,606.75 962.61,605.13 961.23,603.54 960.06,602.21 958.77,600.77 957.58,599.46 956.19,597.95 954.89,596.56 953.42,595.01 952.09,593.64 950.59,592.11 949.24,590.76 947.71,589.25 946.34,587.93 944.75,586.43 943.15,584.95 941.34,583.30 939.53,581.66 937.89,580.21 936.29,578.83 934.94,577.69 933.46,576.44 932.10,575.31 930.56,574.05 929.18,572.95 927.72,571.80 926.42,570.79 924.91,569.63 923.26,568.39 921.36,566.98 919.44,565.58 917.76,564.38 916.20,563.29 914.84,562.35 913.27,561.28 911.56,560.14 909.67,558.91 907.81,557.72 906.25,556.72 904.69,555.75 903.32,554.90 901.72,553.93 900.05,552.95 898.24,551.91 896.40,550.86 894.84,549.98 893.19,549.07 891.56,548.19 889.69,547.20 887.82,546.23 886.14,545.37 884.47,544.53 883.08,543.83 881.55,543.08 880.28,542.47 878.69,541.72 877.02,540.96 875.13,540.10 873.28,539.27 871.72,538.58 870.18,537.91 868.83,537.35 867.26,536.71 865.56,536.03 863.39,535.17 860.88,534.20 858.11,533.17 855.27,532.15 852.42,531.16 849.55,530.20 846.68,529.27 843.86,528.41 841.36,527.65 839.21,527.03 837.56,526.56 835.91,526.11 834.18,525.66 832.03,525.11 829.86,524.57 827.78,524.06 826.17,523.68 824.61,523.33 823.33,523.05 821.78,522.72 820.45,522.45 818.80,522.11 817.13,521.79 815.26,521.43 813.41,521.08 811.85,520.81 810.27,520.54 808.98,520.34 807.42,520.09 806.14,519.89 804.58,519.66 803.27,519.47 801.69,519.25 800.36,519.08 798.79,518.89 797.46,518.73 795.93,518.56 794.63,518.42 793.08,518.25 791.79,518.12 790.21,517.97 788.89,517.86 787.30,517.73 785.98,517.63 784.46,517.52 783.13,517.43 781.61,517.33 780.26,517.25 778.74,517.18 777.40,517.12 775.88,517.07 774.53,517.03 773.01,516.99 771.66,516.95 770.15,516.92 768.80,516.89 767.28,516.88 765.93,516.88 764.42,516.89 763.07,516.91 761.55,516.93 760.20,516.96 758.69,517.00 757.34,517.03 755.82,517.08 754.47,517.13 752.96,517.21 751.61,517.28 750.04,517.38 748.46,517.48 746.68,517.61 744.85,517.76 743.25,517.89 741.55,518.05 740.17,518.19 738.59,518.35 737.28,518.48 735.77,518.65 734.43,518.80 732.87,519.00 731.23,519.22 729.40,519.48 727.46,519.77 725.58,520.06 723.66,520.36 721.77,520.67 719.87,521.02 717.69,521.44 715.49,521.88 713.22,522.34 711.23,522.76 709.02,523.26 706.57,523.85 704.06,524.47 701.77,525.04 699.79,525.56 697.61,526.16 695.15,526.87 692.42,527.69 689.91,528.46 687.76,529.13 686.14,529.65 684.60,530.17 683.23,530.64 681.73,531.17 680.36,531.66 678.91,532.18 677.56,532.67 676.05,533.24 674.39,533.87 672.52,534.60 670.59,535.38 668.93,536.05 667.28,536.74 665.70,537.42 663.83,538.23 661.96,539.05 660.30,539.80 658.67,540.55 657.12,541.29 655.29,542.16 653.41,543.09 651.48,544.04 649.58,545.00 647.69,545.98 645.73,547.02 644.27,547.81 642.89,548.57 M 636.67,552.08 L 638.25,551.13 M 642.89,548.57 L 638.25,551.13 638.25,551.13 M 608.08,761.53 L 608.81,760.80 609.88,759.73 611.21,758.39 612.73,756.88 614.08,755.53 615.60,754.01 616.94,752.66 618.46,751.14 619.81,749.80 621.33,748.28 622.67,746.93 624.19,745.41 625.54,744.06 627.05,742.55 628.40,741.20 629.92,739.68 631.27,738.33 632.78,736.81 634.13,735.47 635.65,733.95 637.00,732.60 638.51,731.08 639.86,729.73 641.38,728.22 642.72,726.87 644.24,725.35 645.59,724.00 647.11,722.49 648.45,721.14 649.97,719.62 651.32,718.27 652.84,716.75 654.18,715.41 655.70,713.89 657.05,712.54 658.56,711.02 659.91,709.67 661.43,708.16 662.78,706.81 664.29,705.29 665.64,703.94 667.16,702.42 668.51,701.08 670.02,699.56 671.37,698.21 672.89,696.69 674.24,695.34 675.75,693.83 677.10,692.48 678.62,690.96 679.96,689.61 681.48,688.09 682.83,686.75 684.35,685.23 685.69,683.88 687.21,682.36 688.56,681.01 690.08,679.50 691.42,678.15 692.94,676.63 694.29,675.28 695.80,673.77 697.15,672.42 698.67,670.90 700.02,669.55 701.53,668.03 702.50,667.07 703.47,666.09 M 606.73,774.47 L 607.71,775.45 608.68,776.42 610.19,777.95 611.53,779.30 613.04,780.83 614.38,782.18 615.90,783.71 617.24,785.06 618.76,786.58 620.10,787.93 621.62,789.44 622.97,790.79 624.49,792.31 625.84,793.65 627.36,795.17 628.71,796.51 630.23,798.02 631.59,799.36 633.11,800.87 634.47,802.21 636.00,803.72 637.35,805.06 638.88,806.57 640.24,807.90 641.77,809.41 643.13,810.75 644.66,812.25 646.02,813.59 647.55,815.09 648.91,816.43 650.44,817.93 651.80,819.27 653.33,820.77 654.69,822.10 656.23,823.60 657.59,824.94 659.12,826.44 660.48,827.78 662.01,829.28 663.37,830.61 664.91,832.12 666.27,833.45 667.80,834.95 669.16,836.29 670.69,837.79 672.05,839.13 673.58,840.63 674.94,841.97 676.47,843.48 677.82,844.82 679.35,846.32 680.71,847.66 682.23,849.17 683.59,850.51 685.11,852.02 686.47,853.36 687.99,854.87 689.34,856.22 690.86,857.73 692.21,859.08 693.73,860.59 695.08,861.94 696.60,863.46 697.94,864.80 699.39,866.25 700.63,867.50 701.58,868.45 702.26,869.13 M 608.08,761.53 L 600.94,768.67 M 606.73,774.47 L 600.94,768.67 600.94,768.67"  stroke-width="45.0"/>
  </g>
</svg>