<svg xmlns="http://www.w3.org/2000/svg" viewBox="-47.5 -47.5 1119.0 1119.0" width="1024" height="1024"><g id="skeleton-paths" stroke-width="45.0">
    <path id="path-0-0" d="M282.977 470.786L284.814 471.429L286.592 472.061L288.871 472.875L291.104 473.679L293.603 474.591L296.779 475.753L300.425 477.107L304.335 478.575L307.964 479.959L311.122 481.171L313.600 482.127L315.813 482.978L317.757 483.727L319.966 484.579L322.449 485.534L325.606 486.750L329.237 488.147L333.136 489.649L336.759 491.045L339.904 492.258L342.374 493.211L344.720 494.115L347.199 495.068L350.351 496.281L353.981 497.677L357.879 499.179L361.503 500.576L364.649 501.792L367.118 502.756L369.456 503.682L371.916 504.674L374.971 505.911L378.163 507.205L381.221 508.436L383.683 509.428L386.041 510.358L388.423 511.335L391.101 512.414L393.732 513.503L395.476 514.190L396.924 514.748" stroke="black" stroke-width="45" fill="none" stroke-linecap="round" stroke-linejoin="round"/>
    <path id="path-1-0" d="M425.321 528.259L428.229 529.550L430.418 530.502L433.342 531.778" stroke="black" stroke-width="45" fill="none" stroke-linecap="round" stroke-linejoin="round"/>
    <path id="path-2-0" d="M445.134 543.739L446.380 546.365L447.769 549.354L449.692 553.555L451.547 557.680L453.368 561.799L455.187 565.948L456.954 570.025L458.721 574.126L460.464 578.186L462.236 582.320L464.011 586.462L465.786 590.602L467.564 594.749L469.339 598.891L471.114 603.031L472.891 607.178L474.667 611.320L476.441 615.460L478.224 619.620L479.973 623.701L481.732 627.806L483.475 631.872L485.250 636.011L487.025 640.152L488.800 644.293L490.578 648.439L492.353 652.581L494.128 656.722L495.905 660.868L497.680 665.010L499.455 669.151L501.233 673.297L503.008 677.439L504.783 681.579L506.561 685.726L508.337 689.866L510.116 694.006L511.899 698.153L513.648 702.217L515.464 706.426L516.751 709.404L517.962 712.202" stroke="black" stroke-width="45" fill="none" stroke-linecap="round" stroke-linejoin="round"/>
    <path id="path-3-0" d="M531.349 743.393L531.993 744.872L532.842 746.824L533.922 749.306L534.902 751.556L535.834 753.697L536.676 755.630L537.640 757.843L538.622 760.098L539.783 762.766L540.956 765.461L542.003 767.864L543.030 770.221L544.014 772.482L545.182 775.163L546.356 777.860L547.403 780.264L548.429 782.620L549.413 784.879L550.580 787.561L551.755 790.259L552.802 792.664L553.828 795.019L554.811 797.275L555.979 799.958L557.154 802.658L558.202 805.063L559.227 807.417L560.209 809.672L561.377 812.355L562.587 815.133L563.859 818.054L565.238 821.222L566.614 824.381L567.928 827.399L568.983 829.822L569.971 832.091L570.819 834.037L571.772 836.225L572.587 838.098L573.542 840.292L574.391 842.241L575.370 844.489L576.218 846.436L577.171 848.623L577.986 850.495L578.941 852.689L579.790 854.639L580.784 856.921L581.847 859.361L583.159 862.375L584.529 865.522L585.897 868.663L587.180 871.610L588.554 874.764L589.926 877.915L591.296 881.062L592.580 884.009L593.953 887.163L595.325 890.313L596.696 893.461L597.979 896.408L599.352 899.561L600.724 902.712L602.095 905.860L603.378 908.808L604.751 911.960L606.123 915.110L607.494 918.260L608.778 921.207L610.153 924.366L611.527 927.521L612.841 930.538L613.898 932.966L614.900 935.267L615.931 937.634L617.100 940.318L618.270 943.006L619.297 945.363L620.299 947.665L621.329 950.030L622.498 952.715L623.668 955.402L624.696 957.761L625.699 960.066L626.759 962.500L628.072 965.515L629.444 968.666L630.815 971.814L632.067 974.689L632.981 976.788L633.767 978.593" stroke="black" stroke-width="45" fill="none" stroke-linecap="round" stroke-linejoin="round"/>
    <path id="path-4-0" d="M425.175 1012.317L426.953 1012.677L428.514 1012.958L431.106 1013.428L433.047 1013.749L435.334 1014.121L437.169 1014.407L439.465 1014.751L441.431 1015.034L443.684 1015.344L445.561 1015.595L447.712 1015.873L449.574 1016.106L451.779 1016.373L453.686 1016.597L455.948 1016.853L457.855 1017.059L460.063 1017.289L461.932 1017.477L464.143 1017.690L466.055 1017.868L468.352 1018.069L470.237 1018.227L472.441 1018.405L474.273 1018.547L476.480 1018.712L478.420 1018.847L480.634 1018.992L482.571 1019.111L484.753 1019.237L486.690 1019.339L488.872 1019.444L490.810 1019.531L493.037 1019.620L494.997 1019.689L497.241 1019.756L499.099 1019.805L501.258 1019.859L503.100 1019.904L505.313 1019.953L507.253 1019.985L509.512 1020L511.460 1019.990L513.658 1019.953L515.525 1019.910L517.689 1019.858L519.576 1019.815L521.753 1019.765L523.641 1019.720L525.864 1019.658L527.829 1019.595L530.062 1019.519L532 1019.447L534.181 1019.361L536.119 1019.279L538.300 1019.182L540.238 1019.089L542.457 1018.971L544.403 1018.853L546.622 1018.703L548.461 1018.573L550.613 1018.415L552.464 1018.275L554.707 1018.094L556.667 1017.926L558.941 1017.720L560.892 1017.533L563.088 1017.314L564.947 1017.122L567.089 1016.894L569.016 1016.684L571.256 1016.426L573.224 1016.190L575.489 1015.903L577.355 1015.662L579.599 1015.363L581.406 1015.117L583.671 1014.799L585.481 1014.536L587.722 1014.200L589.581 1013.911L591.962 1013.532L594.292 1013.147L596.982 1012.697L599.688 1012.222L602.387 1011.734L605.127 1011.220L607.839 1010.697L610.178 1010.239L612.538 1009.764L614.384 1009.385L616.541 1008.929L618.395 1008.528L620.730 1008.008L622.981 1007.497L625.624 1006.883L627.382 1006.470L629.080 1006.065" stroke="black" stroke-width="45" fill="none" stroke-linecap="round" stroke-linejoin="round"/>
    <path id="path-5-0" d="M262.152 483.752L262.308 485.320L262.462 486.797L262.707 489.079L262.906 491.036L263.127 493.300L263.352 495.665L263.614 498.340L263.884 501.048L264.105 503.343L264.320 505.592L264.499 507.504L264.722 509.694L264.931 511.640L265.190 513.870L265.476 516.237L265.850 519.278L266.241 522.457L266.627 525.604L266.925 528.033L267.216 530.373L267.514 532.709L267.860 535.385L268.215 538.088L268.521 540.381L268.835 542.703L269.155 545.043L269.521 547.712L269.899 550.477L270.279 553.206L270.668 555.956L271.069 558.688L271.416 561L271.782 563.332L272.156 565.649L272.662 568.706L273.195 571.868L273.752 575.106L274.255 577.982L274.811 581.099L275.371 584.202L275.932 587.274L276.389 589.745L276.829 592.089L277.287 594.499L277.872 597.554L278.487 600.729L279.111 603.922L279.681 606.791L280.316 609.948L280.959 613.108L281.619 616.318L282.218 619.192L282.884 622.344L283.557 625.497L284.248 628.701L284.868 631.542L285.472 634.278L286.086 637.033L286.698 639.756L287.420 642.927L288.242 646.495L289.168 650.466L290.038 654.157L290.814 657.410L291.514 660.309L292.188 663.075L292.877 665.882L293.549 668.592L294.338 671.743L295.235 675.290L296.246 679.243L297.181 682.865L297.993 685.980L298.621 688.370L299.252 690.754L299.918 693.241L300.774 696.420L301.762 700.048L302.749 703.650L303.669 706.971L304.457 709.790L305.341 712.923L306.340 716.435L307.493 720.456L308.696 724.606L309.890 728.677L310.959 732.290L311.879 735.375L312.586 737.735L313.267 739.996L313.877 742.002L314.553 744.201L315.175 746.207L315.875 748.449L316.647 750.900L317.623 753.981L318.771 757.576L320.055 761.565L321.391 765.680L322.744 769.806L324.108 773.928L325.488 778.044L326.884 782.156L328.299 786.261L329.723 790.348L331.127 794.339L332.411 797.965L333.584 801.252L334.673 804.277L335.878 807.599L337.192 811.193L338.503 814.769L339.675 817.942L340.598 820.431L341.433 822.666L342.167 824.625L342.958 826.725L343.698 828.685L344.496 830.789L345.242 832.748L346.036 834.828L346.779 836.772L347.594 838.896L348.349 840.854L349.219 843.102L350.111 845.392L351.174 848.115L352.280 850.940L353.449 853.908L354.748 857.187L356.191 860.809L357.771 864.760L359.354 868.695L360.801 872.279L362.118 875.523L363.333 878.502L364.675 881.775L366.161 885.381L367.753 889.229L369.234 892.791L370.580 896.009L371.791 898.886L372.986 901.716L374.187 904.555L375.416 907.455L376.792 910.700L378.280 914.201L379.765 917.692L381.140 920.919L382.403 923.881L383.792 927.132L385.324 930.715L386.962 934.543L388.480 938.089L389.853 941.295L391.083 944.163L392.294 946.986L393.511 949.819L394.753 952.708L396.113 955.870L397.471 959.027L398.828 962.182L400.102 965.139L401.508 968.368L403.048 971.862L404.606 975.335L406.101 978.658L407.035 980.722L407.893 982.665" stroke="black" stroke-width="45" fill="none" stroke-linecap="round" stroke-linejoin="round"/>
    <path id="path-6-0" d="M42.759 402.026L44.385 402.414L45.886 402.768L48.269 403.327L50.650 403.885L53.686 404.598L56.825 405.340L59.942 406.076L62.409 406.661L64.797 407.227L67.113 407.779L69.753 408.409L72.464 409.057L75.213 409.715L78.423 410.486L81.960 411.341L85.557 412.214L88.763 412.996L91.227 413.598L93.607 414.181L95.982 414.766L99.012 415.515L102.142 416.293L105.250 417.067L107.709 417.682L110.088 418.279L112.463 418.879L115.603 419.676L119.133 420.576L122.712 421.493L125.899 422.314L128.350 422.948L130.730 423.567L133.097 424.187L136.121 424.983L139.244 425.808L142.293 426.618L144.742 427.271L147.037 427.887L149.027 428.424L151.320 429.045L153.689 429.691L156.706 430.519L159.815 431.376L162.905 432.232L165.349 432.912L167.705 433.573L170.060 434.238L173.170 435.122L176.663 436.123L180.218 437.147L183.447 438.085L186.295 438.917L189.079 439.738L191.864 440.564L194.753 441.426L197.936 442.386L201.107 443.348L204.170 444.284L206.588 445.027L208.935 445.753L211.275 446.483L214.361 447.451L217.869 448.563L221.470 449.714L224.730 450.764L227.235 451.580L229.612 452.357L231.937 453.129L235.001 454.151L238.652 455.382L242.900 456.821L246.120 457.913L248.933 458.877" stroke="black" stroke-width="45" fill="none" stroke-linecap="round" stroke-linejoin="round"/>
    <path id="path-7-0" d="M14.986 412.972L14.490 415.549L13.979 418.313L13.221 422.399L12.505 426.451L11.807 430.609L11.162 434.729L10.559 438.859L9.999 442.943L9.474 447.059L8.993 451.136L8.541 455.256L8.127 459.351L7.744 463.429L7.384 467.554L7.046 471.684L6.736 475.825L6.471 479.879L6.255 483.943L6.086 488.016L5.959 492.163L5.871 496.355L5.822 500.539L5.806 504.632L5.813 508.609L5.839 512.585L5.879 516.680L5.953 520.866L6.064 525.020L6.227 529.125L6.422 533.191L6.648 537.335L6.891 541.498L7.159 545.667L7.451 549.756L7.781 553.819L8.149 557.871L8.563 562.011L9.006 566.134L9.479 570.242L9.971 574.255L10.506 578.325L11.072 582.399L11.677 586.518L12.317 590.631L12.991 594.754L13.711 598.942L14.457 603.082L15.230 607.212L16.033 611.302L16.870 615.403L17.750 619.531L18.663 623.650L19.609 627.763L20.590 631.868L21.594 635.938L22.634 640.013L23.718 644.121L24.852 648.276L26.031 652.459L27.252 656.643L28.502 660.796L29.773 664.896L31.053 668.920L32.355 672.916L33.695 676.914L35.105 681L36.573 685.135L38.118 689.374L39.684 693.561L41.274 697.708L42.861 701.736L44.496 705.785L46.178 709.847L47.940 714.009L49.710 718.092L51.521 722.172L53.337 726.160L55.256 730.276L57.203 734.358L59.244 738.546L61.276 742.619L63.382 746.745L65.508 750.814L67.743 754.998L70.028 759.184L72.370 763.382L74.711 767.479L77.127 771.602L79.589 775.698L82.092 779.776L84.637 783.827L87.268 787.929L90.059 792.187L92.894 796.424L95.758 800.614L98.599 804.680L101.466 808.696L104.429 812.760L107.459 816.832L110.672 821.061L113.901 825.228L117.276 829.494L120.595 833.607L124.054 837.804L127.455 841.850L130.997 845.979L134.478 849.959L138.095 854.007L141.726 857.973L145.554 862.048L149.499 866.141L153.567 870.264L157.606 874.272L161.623 878.173L165.523 881.886L169.501 885.593L173.494 889.232L177.612 892.903L181.770 896.527L185.958 900.100L190.184 903.631L194.352 907.047L198.493 910.372L202.586 913.593L206.719 916.778L210.788 919.853L214.840 922.852L218.841 925.751L222.879 928.619L227.020 931.494L231.160 934.310L235.361 937.106L239.426 939.758L243.550 942.394L247.666 944.962L251.809 947.492L255.923 949.941L259.990 952.309L264.084 954.643L268.202 956.942L272.333 959.201L276.488 961.425L280.656 963.606L284.772 965.714L288.935 967.796L293.018 969.794L297.149 971.769L301.225 973.669L305.326 975.534L309.450 977.364L313.586 979.155L317.734 980.909L321.898 982.627L325.998 984.274L330.094 985.865L334.196 987.403L338.312 988.898L342.449 990.362L346.497 991.758L350.583 993.119L354.670 994.435L358.819 995.727L362.977 996.983L367.147 998.204L371.303 999.384L375.422 1000.516L379.486 1001.599L382.366 1002.351L384.800 1002.974" stroke="black" stroke-width="45" fill="none" stroke-linecap="round" stroke-linejoin="round"/>
    <path id="path-8-0" d="M658.003 998.266L660.447 997.560L663.357 996.701L667.510 995.416L671.710 994.060L675.986 992.621L680.170 991.180L684.317 989.712L688.387 988.231L692.455 986.706L696.505 985.146L700.604 983.525L704.717 981.857L708.886 980.123L713.028 978.355L717.158 976.548L721.273 974.699L725.365 972.815L729.440 970.890L733.571 968.889L737.719 966.826L741.919 964.685L746.084 962.499L750.160 960.307L754.239 958.057L758.281 955.780L762.446 953.386L766.634 950.930L770.799 948.438L774.882 945.941L778.968 943.387L783.148 940.720L787.454 937.916L791.693 935.099L795.862 932.266L799.918 929.448L803.963 926.584L808.072 923.620L812.202 920.585L816.387 917.453L820.439 914.355L824.504 911.180L828.589 907.912L832.791 904.484L837.029 900.949L841.231 897.367L845.478 893.662L849.650 889.943L853.799 886.165L857.827 882.406L861.912 878.502L866.005 874.492L870.128 870.363L874.191 866.188L878.210 861.965L882.101 857.771L885.898 853.589L889.487 849.541L893.058 845.428L896.479 841.398L899.955 837.215L903.295 833.108L906.628 828.925L909.779 824.884L912.907 820.783L915.921 816.748L918.917 812.656L921.812 808.625L924.693 804.537L927.593 800.333L930.454 796.106L933.255 791.876L935.956 787.715L938.613 783.531L941.196 779.390L943.706 775.281L946.128 771.236L948.545 767.111L950.920 762.972L953.275 758.787L955.550 754.648L957.785 750.500L959.980 746.323L962.107 742.194L964.176 738.087L966.171 734.037L968.122 729.993L970.069 725.850L971.963 721.712L973.820 717.511L975.592 713.355L977.307 709.191L978.998 705.003L980.642 700.877L982.257 696.773L983.828 692.725L985.380 688.666L986.917 684.601L988.436 680.531L989.921 676.449L991.362 672.353L992.741 668.236L994.073 664.103L995.363 659.956L996.619 655.798L997.841 651.629L999.029 647.448L1000.183 643.262L1001.292 639.100L1002.357 634.969L1003.379 630.867L1004.369 626.766L1005.325 622.645L1006.243 618.550L1007.126 614.450L1007.977 610.358L1008.798 606.238L1009.593 602.084L1010.348 597.959L1011.075 593.813L1011.758 589.713L1012.411 585.569L1013.026 581.447L1013.605 577.312L1014.147 573.196L1014.648 569.085L1015.120 564.947L1015.553 560.838L1015.957 556.720L1016.320 552.631L1016.657 548.490L1016.957 544.369L1017.227 540.232L1017.458 536.130L1017.663 531.985L1017.832 527.854L1017.969 523.713L1018.071 519.596L1018.143 515.477L1018.185 511.358L1018.194 507.239L1018.170 503.120L1018.116 499L1018.034 494.881L1017.916 490.736L1017.768 486.601L1017.588 482.456L1017.378 478.364L1017.128 474.258L1016.839 470.139L1016.515 466.001L1016.156 461.853L1015.763 457.731L1015.337 453.606L1014.875 449.487L1014.380 445.375L1013.843 441.261L1013.272 437.155L1012.666 433.054L1012.025 428.956L1011.344 424.838L1010.628 420.735L1009.874 416.604L1009.085 412.491L1008.255 408.355L1007.381 404.228L1006.475 400.097L1005.524 395.931L1004.531 391.758L1003.496 387.607L1002.434 383.506L1001.338 379.424L1000.200 375.304L999.011 371.155L997.764 367.006L996.475 362.910L995.143 358.876L993.789 354.875L992.413 350.872L990.979 346.772L989.498 342.620L987.951 338.382L986.407 334.231L984.766 329.919L983.588 326.862L982.462 323.983" stroke="black" stroke-width="45" fill="none" stroke-linecap="round" stroke-linejoin="round"/>
    <path id="path-9-0" d="M547.348 721.481L548.472 720.674L549.950 719.608L551.872 718.222L554.105 716.611L556.502 714.876L559.282 712.865L562.021 710.876L564.427 709.129L566.624 707.529L568.540 706.134L570.767 704.509L573.155 702.763L575.928 700.733L578.654 698.735L581.051 696.975L583.226 695.376L585.126 693.977L587.182 692.462L589.094 691.050L591.169 689.518L593.079 688.103L595.150 686.565L597.056 685.144L599.119 683.594L601.016 682.159L603.070 680.596L604.962 679.151L607.095 677.519L609.124 675.962L611.391 674.218L613.408 672.660L615.603 670.960L617.617 669.398L619.863 667.652L621.859 666.094L623.946 664.461L625.808 663L627.918 661.341L629.932 659.754L632.179 657.978L634.176 656.394L636.348 654.667L638.341 653.079L640.562 651.304L642.536 649.722L644.599 648.063L646.441 646.577L648.530 644.889L650.523 643.274L652.746 641.467L654.721 639.856L656.878 638.091L658.866 636.461L661.171 634.565L663.277 632.828L665.539 630.955L667.471 629.352L669.635 627.551L671.897 625.660L674.531 623.450L677.235 621.173L679.661 619.125L681.959 617.178L683.892 615.532L686.004 613.728L687.949 612.064L690.259 610.079L692.627 608.037L695.290 605.732L697.939 603.430L700.323 601.352L702.589 599.368L704.496 597.692L706.578 595.856L708.496 594.160L710.774 592.138L713.111 590.056L715.734 587.708L718.357 585.353L720.723 583.221L723.073 581.094L725.110 579.240L727.389 577.157L729.409 575.301L731.675 573.205L733.682 571.337L735.920 569.248L737.891 567.403L740.010 565.414L741.841 563.689L743.856 561.781L745.729 560.002L747.914 557.922L749.915 556.011L752.153 553.865L754.128 551.964L756.347 549.821L758.316 547.915L760.528 545.764L762.488 543.849L764.691 541.689L766.646 539.768L768.842 537.601L770.788 535.672L772.974 533.496L774.914 531.560L777.093 529.376L779.025 527.433L781.194 525.240L783.118 523.288L785.279 521.087L787.195 519.127L789.344 516.913L791.245 514.938L793.379 512.710L795.272 510.727L797.400 508.493L799.289 506.506L801.423 504.259L803.324 502.255L805.396 500.070L807.168 498.196L809.070 496.176L810.795 494.340L812.788 492.216L814.638 490.244L816.732 488.007L818.604 486.004L820.709 483.747L822.579 481.740L824.681 479.480L826.547 477.470L828.648 475.198L830.516 473.174L832.546 470.970L834.285 469.078L836.170 467.023L837.894 465.142L839.823 463.035L841.545 461.152L843.406 459.116L845.103 457.253L847.059 455.092L848.864 453.074L850.905 450.768L852.726 448.691L854.702 446.424L856.389 444.480L858.213 442.368L859.874 440.435L861.729 438.267L863.380 436.326L865.174 434.209L866.817 432.261L868.652 430.076L870.298 428.108L872.122 425.915L874.024 423.615L876.165 421.012L878.378 418.310L880.341 415.902L882.271 413.523L883.898 411.513L885.600 409.402L887.092 407.540L888.766 405.437L890.269 403.543L891.992 401.364L893.450 399.518L895.182 397.316L896.666 395.419L898.388 393.209L899.939 391.210L901.685 388.953L903.245 386.918L904.968 384.645L906.761 382.245L908.793 379.518L910.832 376.763L912.595 374.384L914.228 372.171L915.637 370.264L917.256 368.074L919.018 365.682L921.032 362.952L923.060 360.192L924.821 357.797L926.473 355.534L927.841 353.651L929.325 351.597L930.621 349.794L932.231 347.542L933.964 345.117L935.994 342.274L937.989 339.484L939.719 337.065L941.323 334.823L942.705 332.889L944.198 330.800L945.567 328.879L947.107 326.718L948.581 324.651L950.236 322.331L951.318 320.814L952.322 319.403" stroke="black" stroke-width="45" fill="none" stroke-linecap="round" stroke-linejoin="round"/>
    <path id="path-10-0" d="M141.636 195.801L142.964 196.087L144.865 196.485L147.522 197.038L150.939 197.747L154.689 198.531L158.393 199.307L161.688 200.005L164.435 200.589L167.159 201.174L169.823 201.746L172.211 202.261L174.605 202.780L176.883 203.273L179.526 203.848L182.194 204.428L184.581 204.950L186.975 205.475L189.250 205.975L191.893 206.558L194.557 207.146L196.944 207.675L199.336 208.206L201.610 208.714L204.251 209.304L206.914 209.901L209.299 210.437L211.662 210.968L213.588 211.405L215.840 211.915L217.680 212.335L219.926 212.844L222.191 213.361L224.872 213.972L227.627 214.606L229.931 215.138L232.266 215.676L234.529 216.200L237.206 216.818L239.961 217.462L242.265 218.003L244.604 218.552L246.852 219.080L249.519 219.706L252.233 220.345L254.543 220.894L256.859 221.446L259.165 222.019L262.276 222.799L265.920 223.736L270.020 224.800L274.110 225.875L277.786 226.851L280.973 227.703L283.422 228.363L285.783 229.004L288.143 229.651L291.260 230.512L294.890 231.522L298.972 232.667L303.079 233.828L306.729 234.868L309.956 235.796L312.757 236.609L315.931 237.541L319.533 238.605L323.575 239.808L327.721 241.053L331.853 242.306L336.034 243.586L340.199 244.869L344.368 246.167L348.504 247.466L352.522 248.740L356.138 249.896L359.224 250.890L361.643 251.676L363.855 252.398L365.832 253.046L367.968 253.747L369.951 254.401L372.132 255.123L374.116 255.781L376.357 256.531L378.599 257.285L381.208 258.171L383.980 259.115L386.926 260.119L390.259 261.260L393.928 262.523L397.834 263.876L401.418 265.125L404.481 266.202L406.873 267.047L409.062 267.825L411.017 268.523L413.115 269.274L415.074 269.978L417.296 270.781L419.801 271.690L422.979 272.848L426.645 274.191L430.637 275.663L434.616 277.142L438.240 278.497L441.523 279.732L444.529 280.872L447.823 282.130L451.452 283.526L455.347 285.034L458.965 286.444L462.104 287.676L464.567 288.648L466.902 289.576L469.370 290.564L472.499 291.825L476.025 293.255L479.543 294.689L482.792 296.022L485.691 297.222L488.533 298.407L491.370 299.598L494.255 300.818L497.480 302.193L501.037 303.722L504.866 305.379L508.430 306.932L511.521 308.288L513.946 309.359L516.238 310.380L518.587 311.436L521.249 312.638L524.046 313.912L526.825 315.186L529.617 316.477L532.406 317.773L535.179 319.066L537.964 320.369L540.748 321.677L543.515 322.981L546.295 324.296L549.072 325.613L551.903 326.958L555.071 328.469L558.480 330.109L561.884 331.760L565.107 333.344L568.145 334.840L571.323 336.421L573.666 337.579L575.555 338.532" stroke="black" stroke-width="45" fill="none" stroke-linecap="round" stroke-linejoin="round"/>
    <path id="path-11-0" d="M421.975 498.982L423.622 497.647L425.193 496.372L427.682 494.355L430.105 492.396L432.822 490.197L435.447 488.075L437.750 486.208L439.869 484.491L441.715 482.991L443.795 481.300L445.781 479.685L448.003 477.880L449.982 476.275L452.143 474.519L454.125 472.907L456.476 470.982L458.894 468.988L461.604 466.740L464.304 464.491L466.729 462.470L469.042 460.538L470.992 458.910L473.126 457.130L475.092 455.491L477.430 453.541L479.830 451.537L482.536 449.280L485.231 447.031L487.661 445.005L489.970 443.077L491.917 441.452L494.032 439.686L495.989 438.053L498.179 436.226L500.136 434.593L502.266 432.816L504.223 431.183L506.413 429.356L508.370 427.723L510.498 425.943L512.449 424.304L514.626 422.461L516.563 420.804L518.678 418.976L520.623 417.276L522.874 415.298L524.920 413.490L527.111 411.546L528.991 409.874L531.050 408.041L532.954 406.345L535.083 404.444L536.984 402.743L539.063 400.880L540.979 399.158L543.201 397.158L545.230 395.329L547.411 393.360L549.284 391.666L551.339 389.801L553.242 388.069L555.460 386.044L557.498 384.182L559.771 382.106L561.772 380.278L563.930 378.306L565.792 376.601L567.833 374.722L569.723 372.974L571.925 370.931L573.948 369.054L575.568 367.551L576.703 366.499" stroke="black" stroke-width="45" fill="none" stroke-linecap="round" stroke-linejoin="round"/>
    <path id="path-12-0" d="M23.706 374.946L24.367 372.568L25.196 369.645L26.341 365.667L27.421 362.016L28.374 358.867L29.150 356.377L29.888 354.050L30.656 351.695L31.640 348.717L32.830 345.214L34.049 341.682L35.180 338.479L36.043 336.084L36.867 333.844L37.588 331.909L38.444 329.647L39.333 327.341L40.391 324.644L41.477 321.918L42.456 319.490L43.439 317.098L44.441 314.713L45.778 311.579L47.306 308.072L48.858 304.556L50.274 301.411L51.346 299.070L52.418 296.768L53.500 294.494L54.945 291.498L56.474 288.375L58.047 285.192L59.306 282.672L60.514 280.285L61.487 278.392L62.676 276.113L63.654 274.263L64.858 272.012L66.002 269.900L67.437 267.263L68.892 264.617L70.278 262.128L71.635 259.746L72.822 257.697L74.157 255.416L75.558 253.045L77.364 250.019L79.260 246.882L81.119 243.850L82.620 241.443L84.022 239.228L85.295 237.235L86.710 235.031L87.981 233.079L89.369 230.963L90.604 229.112L92.064 226.939L93.407 224.968L94.907 222.776L96.252 220.824L97.808 218.591L99.526 216.167L101.503 213.416L103.512 210.655L105.252 208.285L106.940 206.011L108.462 203.985L109.711 202.332L110.644 201.107" stroke="black" stroke-width="45" fill="none" stroke-linecap="round" stroke-linejoin="round"/>
    <path id="path-13-0" d="M823.040 112.021L825.370 113.908L828.192 116.209L832.224 119.527L836.458 123.052L840.723 126.656L844.982 130.324L849.104 133.987L853.252 137.804L857.397 141.730L861.507 145.687L865.533 149.610L869.452 153.473L873.347 157.368L877.206 161.298L881.019 165.268L884.863 169.370L888.637 173.496L892.384 177.693L895.938 181.766L899.401 185.825L902.745 189.833L906.040 193.867L909.364 198.030L912.618 202.192L915.864 206.430L918.937 210.528L921.926 214.597L924.871 218.695L927.808 222.868L930.775 227.167L933.633 231.391L936.376 235.525L938.985 239.540L941.517 243.515L944.056 247.576L946.595 251.719L949.142 255.948L951.610 260.137L954.006 264.291L956.276 268.331L958.503 272.426L960.625 276.467L962.147 279.437L963.376 281.885" stroke="black" stroke-width="45" fill="none" stroke-linecap="round" stroke-linejoin="round"/>
    <path id="path-14-0" d="M605.537 338.401L606.628 337.305L608.178 335.747L610.110 333.803L612.283 331.614L614.212 329.668L616.383 327.476L618.310 325.527L620.475 323.330L622.392 321.371L624.537 319.154L626.430 317.172L628.552 314.931L630.441 312.924L632.616 310.611L634.804 308.283L637.223 305.715L639.626 303.166L641.751 300.918L643.888 298.655L645.754 296.677L647.880 294.418L649.777 292.401L651.845 290.200L653.616 288.317L655.519 286.297L657.245 284.470L659.240 282.360L661.092 280.399L663.190 278.172L665.064 276.170L667.163 273.907L669.016 271.884L671.104 269.590L672.961 267.541L674.985 265.309L676.714 263.396L678.570 261.333L680.251 259.453L682.204 257.265L684.022 255.229L686.014 252.994L687.723 251.062L689.549 248.972L691.200 247.064L693.114 244.841L694.892 242.770L696.836 240.499L698.518 238.527L700.373 236.341L702.295 234.061L704.474 231.465L706.763 228.724L709.027 225.998L711.299 223.249L713.525 220.542L715.506 218.123L717.430 215.764L719.052 213.768L720.865 211.527L722.759 209.172L725.122 206.217L727.541 203.177L730.019 200.049L732.290 197.167L734.537 194.304L736.668 191.575L738.497 189.225L740.184 187.047L741.619 185.183L743.215 183.102L744.740 181.107L746.561 178.716L748.523 176.132L750.954 172.916L753.609 169.384L756.230 165.876L758.560 162.743L760.361 160.310L761.994 158.100L763.400 156.192L765.013 154L766.774 151.605L768.778 148.874L770.807 146.110L772.557 143.722L774.193 141.490L775.598 139.567L777.113 137.495L778.506 135.586L780.108 133.387L781.897 130.931L784.148 127.837L786.478 124.633L788.721 121.546L790.496 119.101L791.671 117.483L792.484 116.360" stroke="black" stroke-width="45" fill="none" stroke-linecap="round" stroke-linejoin="round"/>
    <path id="path-15-0" d="M138.161 167.613L139.086 166.631L140.396 165.248L142.123 163.429L144.136 161.325L146.017 159.385L148.161 157.199L150.089 155.251L152.259 153.059L154.188 151.113L156.366 148.927L158.308 146.994L160.506 144.830L162.467 142.915L164.682 140.767L166.656 138.866L168.877 136.761L170.850 134.921L172.991 132.960L174.854 131.273L176.904 129.434L178.808 127.737L180.947 125.846L182.866 124.168L184.985 122.345L186.941 120.691L189.280 118.735L191.686 116.745L194.411 114.506L197.139 112.296L199.613 110.316L201.955 108.478L203.922 106.953L205.963 105.380L207.810 103.962L209.839 102.419L211.740 100.992L213.828 99.450L215.756 98.044L218.006 96.418L220.462 94.658L223.645 92.405L227.273 89.876L231.205 87.186L234.749 84.797L237.794 82.784L240.095 81.286L242.322 79.866L244.325 78.609L246.566 77.220L248.580 75.985L250.821 74.622L253.165 73.215L255.745 71.680L258.363 70.150L260.605 68.855L262.955 67.523L265.430 66.140L268.596 64.393L271.833 62.627L274.987 60.936L277.435 59.645L279.848 58.395L282.187 57.200L285.141 55.705L288.158 54.202L291.262 52.681L294.110 51.313L296.903 49.994L299.682 48.704L302.507 47.414L305.677 45.997L309.136 44.481L312.641 42.967L315.904 41.584L318.876 40.351L322.102 39.044L325.674 37.627L329.541 36.121L333.195 34.728L336.409 33.527L338.911 32.613L341.212 31.791L343.437 31.009L346.054 30.096L348.767 29.164L351.205 28.342L353.539 27.576L355.830 26.844L358.465 26.012L361.249 25.146L364.066 24.289L367.259 23.342L370.878 22.301L374.827 21.197L378.432 20.216L381.493 19.409L383.749 18.827L386.070 18.246L388.381 17.682L391.142 17.019L393.803 16.396L396.063 15.877L398.293 15.380L400.155 14.973L402.464 14.479L404.443 14.064L406.858 13.572L409.309 13.090L412.427 12.495L415.560 11.911L418.554 11.370L420.853 10.966L423.041 10.596L424.911 10.288L427.126 9.935L429.019 9.641L431.275 9.301L433.150 9.025L435.401 8.704L437.276 8.446L439.523 8.143L441.405 7.897L443.614 7.616L445.496 7.388L447.723 7.131L449.624 6.922L451.863 6.680L453.752 6.481L455.947 6.256L457.850 6.074L460.038 5.874L461.976 5.705L464.169 5.522L466.055 5.374L468.110 5.223L469.839 5.102L471.788 4.973L473.699 4.851L475.758 4.726L477.876 4.605L479.859 4.503L482.007 4.406L483.944 4.330L486.126 4.257L488.063 4.204L490.245 4.157L492.183 4.124L494.364 4.092L496.302 4.067L498.483 4.044L500.421 4.027L502.602 4.013L504.540 4.005L506.721 4L508.659 4L510.840 4.006L512.778 4.017L514.959 4.035L516.897 4.057L519.078 4.088L521.016 4.122L523.197 4.167L525.135 4.213L527.316 4.273L529.254 4.333L531.435 4.410L533.373 4.485L535.554 4.579L537.492 4.670L539.682 4.785L541.589 4.895L543.828 5.036L546.106 5.189L548.792 5.379L551.487 5.582L553.869 5.774L556.160 5.975L558.069 6.154L560.307 6.374L562.582 6.615L565.263 6.909L567.969 7.218L570.321 7.489L572.656 7.768L574.948 8.054L577.608 8.397L580.379 8.770L583.122 9.156L585.884 9.560L588.638 9.982L591.320 10.411L594.006 10.857L596.664 11.315L599.014 11.727L601.383 12.154L603.248 12.499L605.434 12.912L607.301 13.275L609.660 13.743L611.984 14.219L614.631 14.774L617.269 15.340L619.595 15.847L622.037 16.389L624.351 16.925L626.987 17.547L629.606 18.185L631.919 18.754L634.336 19.357L636.736 19.975L639.902 20.807L643.429 21.773L646.958 22.755L650.108 23.653L652.496 24.344L654.882 25.045L657.239 25.762L660.266 26.699L663.394 27.688L666.505 28.683L669.024 29.503L671.298 30.259L673.281 30.934L675.406 31.672L677.381 32.368L679.500 33.119L681.474 33.821L683.569 34.574L685.523 35.289L687.731 36.121L690.222 37.075L693.376 38.302L697.004 39.733L700.861 41.285L704.428 42.751L707.614 44.086L710.069 45.130L712.391 46.130L714.259 46.949L716.583 47.983L719.040 49.099L722.143 50.525L725.257 51.974L728.328 53.420L730.742 54.573L733.015 55.680L734.841 56.584L737.081 57.702L739.053 58.693L741.444 59.906L743.730 61.090L746.430 62.507L749.155 63.960L751.920 65.449L754.626 66.926L757.287 68.398L759.604 69.694L761.949 71.027L764.246 72.353L766.988 73.954L769.848 75.645L772.658 77.332L775.359 78.976L778.040 80.635L780.827 82.379L783.761 84.246L786.624 86.101L788.539 87.358L790.068 88.375" stroke="black" stroke-width="45" fill="none" stroke-linecap="round" stroke-linejoin="round"/>
    <path id="path-connection-1" d="M282.977 470.786L256.629 461.552" stroke="black" stroke-width="45" fill="none" stroke-linecap="round" stroke-linejoin="round"/>
    <path id="path-connection-2" d="M262.152 483.752L256.629 461.552" stroke="black" stroke-width="45" fill="none" stroke-linecap="round" stroke-linejoin="round"/>
    <path id="path-connection-3" d="M248.933 458.877L256.629 461.552" stroke="black" stroke-width="45" fill="none" stroke-linecap="round" stroke-linejoin="round"/>
    <path id="path-connection-4" d="M396.924 514.748L440.567 534.113" stroke="black" stroke-width="45" fill="none" stroke-linecap="round" stroke-linejoin="round"/>
    <path id="path-connection-5" d="M433.342 531.778L440.567 534.113" stroke="black" stroke-width="45" fill="none" stroke-linecap="round" stroke-linejoin="round"/>
    <path id="path-connection-6" d="M445.134 543.739L440.567 534.113" stroke="black" stroke-width="45" fill="none" stroke-linecap="round" stroke-linejoin="round"/>
    <path id="path-connection-7" d="M425.321 528.259L400.358 516.499" stroke="black" stroke-width="45" fill="none" stroke-linecap="round" stroke-linejoin="round"/>
    <path id="path-connection-8" d="M421.975 498.982L400.358 516.499" stroke="black" stroke-width="45" fill="none" stroke-linecap="round" stroke-linejoin="round"/>
    <path id="path-connection-9" d="M547.348 721.481L527.952 735.407" stroke="black" stroke-width="45" fill="none" stroke-linecap="round" stroke-linejoin="round"/>
    <path id="path-connection-10" d="M517.962 712.202L527.952 735.407" stroke="black" stroke-width="45" fill="none" stroke-linecap="round" stroke-linejoin="round"/>
    <path id="path-connection-11" d="M531.349 743.393L527.952 735.407" stroke="black" stroke-width="45" fill="none" stroke-linecap="round" stroke-linejoin="round"/>
    <path id="path-connection-12" d="M658.003 998.266L642.751 1002.703" stroke="black" stroke-width="45" fill="none" stroke-linecap="round" stroke-linejoin="round"/>
    <path id="path-connection-13" d="M633.767 978.593L642.751 1002.703" stroke="black" stroke-width="45" fill="none" stroke-linecap="round" stroke-linejoin="round"/>
    <path id="path-connection-14" d="M629.080 1006.065L642.751 1002.703" stroke="black" stroke-width="45" fill="none" stroke-linecap="round" stroke-linejoin="round"/>
    <path id="path-connection-15" d="M425.175 1012.317L420.662 1011.592" stroke="black" stroke-width="45" fill="none" stroke-linecap="round" stroke-linejoin="round"/>
    <path id="path-connection-16" d="M407.893 982.665L420.662 1011.592" stroke="black" stroke-width="45" fill="none" stroke-linecap="round" stroke-linejoin="round"/>
    <path id="path-connection-17" d="M384.800 1002.974L420.662 1011.592" stroke="black" stroke-width="45" fill="none" stroke-linecap="round" stroke-linejoin="round"/>
    <path id="path-connection-18" d="M23.706 374.946L18.470 394.540" stroke="black" stroke-width="45" fill="none" stroke-linecap="round" stroke-linejoin="round"/>
    <path id="path-connection-19" d="M42.759 402.026L18.470 394.540" stroke="black" stroke-width="45" fill="none" stroke-linecap="round" stroke-linejoin="round"/>
    <path id="path-connection-20" d="M14.986 412.972L18.470 394.540" stroke="black" stroke-width="45" fill="none" stroke-linecap="round" stroke-linejoin="round"/>
    <path id="path-connection-21" d="M982.462 323.983L971.773 298.177" stroke="black" stroke-width="45" fill="none" stroke-linecap="round" stroke-linejoin="round"/>
    <path id="path-connection-22" d="M952.322 319.403L971.773 298.177" stroke="black" stroke-width="45" fill="none" stroke-linecap="round" stroke-linejoin="round"/>
    <path id="path-connection-23" d="M963.376 281.885L971.773 298.177" stroke="black" stroke-width="45" fill="none" stroke-linecap="round" stroke-linejoin="round"/>
    <path id="path-connection-24" d="M141.636 195.801L118.031 190.717" stroke="black" stroke-width="45" fill="none" stroke-linecap="round" stroke-linejoin="round"/>
    <path id="path-connection-25" d="M110.644 201.107L118.031 190.717" stroke="black" stroke-width="45" fill="none" stroke-linecap="round" stroke-linejoin="round"/>
    <path id="path-connection-26" d="M138.161 167.613L118.031 190.717" stroke="black" stroke-width="45" fill="none" stroke-linecap="round" stroke-linejoin="round"/>
    <path id="path-connection-27" d="M575.555 338.532L592.981 351.120" stroke="black" stroke-width="45" fill="none" stroke-linecap="round" stroke-linejoin="round"/>
    <path id="path-connection-28" d="M576.703 366.499L592.981 351.120" stroke="black" stroke-width="45" fill="none" stroke-linecap="round" stroke-linejoin="round"/>
    <path id="path-connection-29" d="M605.537 338.401L592.981 351.120" stroke="black" stroke-width="45" fill="none" stroke-linecap="round" stroke-linejoin="round"/>
    <path id="path-connection-30" d="M823.040 112.021L807.371 99.759" stroke="black" stroke-width="45" fill="none" stroke-linecap="round" stroke-linejoin="round"/>
    <path id="path-connection-31" d="M792.484 116.360L807.371 99.759" stroke="black" stroke-width="45" fill="none" stroke-linecap="round" stroke-linejoin="round"/>
    <path id="path-connection-32" d="M790.068 88.375L807.371 99.759" stroke="black" stroke-width="45" fill="none" stroke-linecap="round" stroke-linejoin="round"/>
  </g>
</svg>