<svg xmlns="http://www.w3.org/2000/svg" viewBox="-47.5 -47.5 1119.0 1119.0" width="1024" height="1024"><g id="skeleton-paths" stroke-width="45.0">
    <path id="path-0-0" d="M441.430 603.485L442.634 603.475L444.345 603.461L446.479 603.443L448.880 603.424L451.014 603.406L453.453 603.390L455.598 603.378L458.139 603.366L460.667 603.350L463.608 603.328L466.500 603.303L469.076 603.283L471.558 603.266L473.692 603.253L476.093 603.240L478.227 603.228L480.629 603.216L482.763 603.204L485.164 603.192L487.298 603.180L489.700 603.168L491.834 603.158L494.236 603.148L496.369 603.139L498.771 603.129L500.905 603.121L503.307 603.111L505.440 603.102L507.842 603.093L509.976 603.085L512.378 603.077L514.511 603.071L516.913 603.064L519.047 603.058L521.449 603.051L523.582 603.044L525.984 603.038L528.118 603.032L530.520 603.027L532.653 603.022L535.055 603.017L537.189 603.013L539.591 603.009L541.724 603.005L544.126 603L546.260 602.996L548.662 602.993L550.796 602.990L553.197 602.988L555.331 602.985L557.733 602.983L559.867 602.980L562.268 602.978L564.402 602.976L566.804 602.974L568.938 602.973L571.339 602.972L573.473 602.971L575.875 602.971L578.009 602.970L580.410 602.969L582.544 602.969L584.946 602.968L587.080 602.969L589.481 602.969L591.615 602.970L594.017 602.970L596.151 602.971L598.552 602.971L600.686 602.972L603.088 602.973L605.222 602.974L607.624 602.976L609.757 602.977L612.159 602.979L614.293 602.981L616.695 602.982L618.828 602.984L621.230 602.986L623.364 602.988L625.766 602.990L627.899 602.992L630.301 602.995L632.435 602.997L634.837 603L636.970 603.002L639.372 603.005L641.506 603.007L643.908 603.010L646.041 603.013L648.443 603.016L650.577 603.019L652.979 603.022L655.113 603.025L657.514 603.028L659.648 603.030L662.050 603.034L664.184 603.037L666.585 603.040L668.719 603.043L671.121 603.046L673.255 603.049L675.656 603.052L677.790 603.055L680.192 603.058L682.326 603.061L684.727 603.064L686.861 603.067L689.263 603.070L691.397 603.073L693.798 603.076L695.932 603.079L698.334 603.081L700.468 603.084L702.869 603.087L705.003 603.089L707.405 603.092L709.539 603.094L711.941 603.097L714.074 603.099L716.476 603.101L718.610 603.103L721.012 603.105L723.145 603.107L725.547 603.109L727.681 603.111L730.083 603.113L732.216 603.114L734.618 603.116L736.752 603.117L739.154 603.118L741.287 603.119L743.689 603.120L745.823 603.120L748.225 603.121L750.358 603.122L752.760 603.123L754.894 603.123L757.296 603.122L759.429 603.122L761.831 603.121L763.965 603.121L766.367 603.120L768.501 603.120L770.902 603.119L773.036 603.118L775.438 603.116L777.572 603.114L779.973 603.112L782.107 603.110L783.818 603.108L785.022 603.107" stroke="#ffffff" stroke-width="45" fill="none" stroke-linecap="round" stroke-linejoin="round"/>
  </g>
<g id="skeleton-paths" stroke-width="45.0">
    <path id="path-0-0" d="M310.886 836.053L307.887 838.057L304.451 840L299.653 842.356L295.012 844.022L290.391 845.124L285.884 845.740L281.368 845.916L276.929 845.683L272.420 845.016L267.947 843.903L263.358 842.235L258.807 839.985L254.205 837.092L249.941 833.720L246.052 829.904L242.728 825.759L239.924 821.342L237.704 816.766L236.105 812.202L235.086 807.751L234.581 803.408L234.515 799.162L234.840 794.813L235.566 790.481L236.722 786.069L238.381 781.653L240.580 777.163L243.392 772.667L246.752 768.370L250.656 764.388L254.903 760.963L259.345 758.143L263.796 756L268.026 754.470L271.775 753.450L274.957 752.819L277.747 752.474L280.855 752.343L284.491 752.506L288.781 753.036L293.332 754.083L298.089 755.688L302.839 757.919L307.546 760.828L311.986 764.357L316.103 768.452L319.664 772.872L322.634 777.496L324.952 782.190L326.688 786.845L327.882 791.472L328.562 796.038L328.748 800.645L328.427 805.281L327.588 809.958L326.187 814.642L324.189 819.313L322.507 822.677L320.829 825.498" stroke="#ffffff" stroke-width="45" fill="none" stroke-linecap="round" stroke-linejoin="round"/>
    <path id="path-extension-1" d="M310.886 836.053L316.965 831.992" stroke="#ffffff" stroke-width="45" fill="none" stroke-linecap="round" stroke-linejoin="round"/>
    <path id="path-extension-2" d="M320.829 825.498L316.965 831.992" stroke="#ffffff" stroke-width="45" fill="none" stroke-linecap="round" stroke-linejoin="round"/>
    <path id="path-connection-1" d="M316.965 831.992L316.965 831.992" stroke="#ffffff" stroke-width="45" fill="none" stroke-linecap="round" stroke-linejoin="round"/>
  </g>
<g id="skeleton-paths" stroke-width="45.0">
    <path id="path-0-0" d="M441.430 797.188L442.634 797.188L444.345 797.187L446.479 797.185L448.880 797.184L451.014 797.182L453.416 797.181L455.550 797.179L457.951 797.178L460.085 797.177L462.487 797.175L464.621 797.174L467.022 797.172L469.156 797.171L471.558 797.169L473.692 797.168L476.093 797.166L478.227 797.165L480.629 797.163L482.763 797.162L485.164 797.161L487.298 797.159L489.700 797.158L491.834 797.156L494.236 797.155L496.369 797.153L498.771 797.152L500.905 797.150L503.307 797.149L505.440 797.148L507.842 797.146L509.976 797.145L512.378 797.143L514.511 797.142L516.913 797.140L519.047 797.139L521.449 797.137L523.582 797.136L525.984 797.134L528.118 797.133L530.520 797.132L532.653 797.130L535.055 797.129L537.189 797.127L539.591 797.126L541.724 797.124L544.126 797.123L546.260 797.121L548.662 797.120L550.796 797.119L553.197 797.117L555.331 797.116L557.733 797.114L559.867 797.113L562.268 797.111L564.402 797.110L566.804 797.108L568.938 797.107L571.339 797.105L573.473 797.104L575.875 797.103L578.009 797.101L580.410 797.100L582.544 797.098L584.946 797.097L587.080 797.095L589.481 797.094L591.615 797.093L594.017 797.091L596.151 797.090L598.552 797.088L600.686 797.087L603.179 797.085L605.740 797.084L608.686 797.082L611.637 797.081L614.228 797.079L616.709 797.077L618.810 797.076L621.208 797.074L623.345 797.072L625.766 797.071L627.899 797.069L630.301 797.068L632.435 797.066L634.837 797.065L636.970 797.064L639.372 797.062L641.506 797.061L643.908 797.059L646.041 797.058L648.443 797.056L650.577 797.055L652.979 797.053L655.113 797.052L657.514 797.050L659.648 797.049L662.050 797.048L664.184 797.046L666.585 797.045L668.719 797.043L671.121 797.042L673.255 797.040L675.656 797.039L677.790 797.037L680.192 797.036L682.326 797.035L684.727 797.033L686.861 797.032L689.263 797.030L691.397 797.029L693.798 797.027L695.932 797.026L698.334 797.024L700.468 797.023L702.869 797.021L705.003 797.020L707.405 797.019L709.539 797.017L711.941 797.016L714.074 797.014L716.476 797.013L718.610 797.011L721.012 797.010L723.145 797.008L725.547 797.007L727.681 797.006L730.083 797.004L732.216 797.003L734.618 797.001L736.752 797L739.154 796.998L741.287 796.997L743.689 796.995L745.823 796.994L748.225 796.992L750.358 796.991L752.760 796.990L754.894 796.988L757.296 796.987L759.429 796.985L761.831 796.984L763.965 796.982L766.367 796.981L768.501 796.980L770.902 796.978L773.036 796.977L775.438 796.975L777.572 796.974L779.973 796.972L782.107 796.971L783.818 796.970L785.022 796.969" stroke="#ffffff" stroke-width="45" fill="none" stroke-linecap="round" stroke-linejoin="round"/>
  </g>
<g id="skeleton-paths" stroke-width="45.0">
    <path id="path-0-0" d="M441.692 409.838L444.437 409.828L447.679 409.809L452.215 409.781L456.750 409.750L461.286 409.721L465.821 409.693L470.357 409.666L474.893 409.641L479.428 409.617L483.964 409.595L488.499 409.573L493.035 409.554L497.570 409.535L502.106 409.518L506.641 409.501L511.177 409.486L515.712 409.472L520.248 409.459L524.783 409.447L529.319 409.437L533.854 409.427L538.390 409.418L542.925 409.410L547.461 409.403L551.996 409.396L556.532 409.391L561.067 409.386L565.603 409.382L570.138 409.379L574.674 409.377L579.210 409.375L583.745 409.374L588.281 409.373L592.816 409.373L597.352 409.374L601.887 409.375L606.423 409.376L610.958 409.378L615.494 409.381L620.029 409.383L624.565 409.387L629.100 409.390L633.636 409.394L638.171 409.397L642.707 409.402L647.242 409.406L651.778 409.410L656.313 409.415L660.849 409.419L665.384 409.424L669.920 409.429L674.455 409.434L678.991 409.438L683.527 409.443L688.062 409.447L692.598 409.452L697.133 409.456L701.669 409.460L706.204 409.463L710.740 409.467L715.275 409.470L719.811 409.473L724.346 409.475L728.882 409.477L733.417 409.479L737.953 409.480L742.488 409.481L747.024 409.481L751.559 409.481L756.095 409.479L760.630 409.478L765.166 409.476L769.701 409.473L774.237 409.469L778.772 409.464L782.015 409.461L784.760 409.458" stroke="#ffffff" stroke-width="45" fill="none" stroke-linecap="round" stroke-linejoin="round"/>
  </g>
<g id="skeleton-paths" stroke-width="45.0">
    <path id="path-0-0" d="M307.766 644.898L304.874 646.564L301.431 648.237L296.617 650.245L291.925 651.650L287.345 652.496L282.866 652.856L278.393 652.765L273.909 652.248L269.401 651.235L264.836 649.714L260.193 647.601L255.625 644.940L251.291 641.742L247.311 637.964L243.765 633.737L240.723 629.173L238.346 624.662L236.632 620.235L235.498 615.881L234.837 611.455L234.600 607.041L234.789 602.635L235.399 598.286L236.412 593.929L237.867 589.569L239.875 585.133L242.483 580.673L245.702 576.255L249.371 572.242L253.426 568.713L257.738 565.819L262.198 563.497L266.640 561.749L270.934 560.522L274.731 559.731L277.951 559.312L280.747 559.178L283.763 559.324L287.475 559.772L291.723 560.641L296.377 561.994L300.988 563.900L305.699 566.465L310.299 569.745L314.737 573.704L318.687 578.151L321.910 582.715L324.381 587.370L326.165 591.884L327.465 596.505L328.298 601.028L328.672 605.628L328.533 610.175L327.872 614.833L326.680 619.456L324.927 624.180L322.516 628.842L320.520 632.236L318.471 635.109" stroke="#ffffff" stroke-width="45" fill="none" stroke-linecap="round" stroke-linejoin="round"/>
    <path id="path-extension-1" d="M307.766 644.898L314.085 641.258" stroke="#ffffff" stroke-width="45" fill="none" stroke-linecap="round" stroke-linejoin="round"/>
    <path id="path-extension-2" d="M318.471 635.109L314.085 641.258" stroke="#ffffff" stroke-width="45" fill="none" stroke-linecap="round" stroke-linejoin="round"/>
    <path id="path-connection-1" d="M314.085 641.258L314.085 641.258" stroke="#ffffff" stroke-width="45" fill="none" stroke-linecap="round" stroke-linejoin="round"/>
  </g>
<g id="skeleton-paths" stroke-width="45.0">
    <path id="path-0-0" d="M302.917 455.444L299.971 456.725L296.546 457.921L291.904 459.239L287.356 460.002L282.872 460.272L278.359 460.156L273.835 459.598L269.312 458.601L264.790 457.085L260.198 454.976L255.586 452.249L250.989 448.811L246.780 444.870L243.035 440.439L240.043 435.892L237.695 431.239L236.036 426.701L234.908 422.203L234.294 417.844L234.118 413.525L234.371 409.396L234.886 405.603L235.627 402.253L236.560 399.104L237.916 395.624L239.904 391.620L242.579 387.271L245.895 382.925L249.601 379.020L253.589 375.622L257.819 372.857L262.141 370.658L266.467 369.009L270.226 367.877L273.453 367.131L276.237 366.681L279.381 366.419L283.042 366.420L287.274 366.771L291.656 367.583L296.231 368.897L300.876 370.843L305.595 373.447L310.174 376.722L314.350 380.456L318.069 384.585L321.201 388.951L323.809 393.509L325.823 398.116L327.283 402.749L328.219 407.379L328.669 411.990L328.633 416.597L328.083 421.193L326.984 425.876L325.278 430.601L322.863 435.461L319.722 440.295L317.144 443.814L314.688 446.699" stroke="#ffffff" stroke-width="45" fill="none" stroke-linecap="round" stroke-linejoin="round"/>
    <path id="path-extension-1" d="M302.917 455.444L309.783 452.459" stroke="#ffffff" stroke-width="45" fill="none" stroke-linecap="round" stroke-linejoin="round"/>
    <path id="path-extension-2" d="M314.688 446.699L309.783 452.459" stroke="#ffffff" stroke-width="45" fill="none" stroke-linecap="round" stroke-linejoin="round"/>
    <path id="path-connection-1" d="M309.783 452.459L309.783 452.459" stroke="#ffffff" stroke-width="45" fill="none" stroke-linecap="round" stroke-linejoin="round"/>
  </g>
<g id="skeleton-paths" stroke-width="45.0">
    <path id="path-0-0" d="M677.511 12.725L680.215 14.244L683.441 16.246L687.948 19.309L692.377 22.753L696.787 26.605L701.078 30.675L705.355 34.920L709.595 39.211L713.847 43.517L718.220 47.921L722.668 52.380L727.206 56.917L731.742 61.452L736.279 65.986L740.815 70.521L745.351 75.056L749.888 79.590L754.424 84.125L758.961 88.660L763.497 93.194L768.033 97.729L772.570 102.264L777.106 106.798L781.640 111.331L786.081 115.770L790.367 120.055L794.495 124.181L798.623 128.307L802.910 132.592L807.351 137.031L811.885 141.564L816.421 146.099L820.958 150.633L825.494 155.168L830.030 159.703L834.567 164.237L839.103 168.772L843.640 173.307L848.176 177.841L852.712 182.376L857.249 186.911L861.785 191.445L866.321 195.980L870.858 200.515L875.394 205.049L879.931 209.584L884.467 214.119L889.003 218.654L893.540 223.188L896.783 226.430L899.528 229.175" stroke="#ffffff" stroke-width="45" fill="none" stroke-linecap="round" stroke-linejoin="round"/>
    <path id="path-1-0" d="M652.357 31.112L652.357 33.857L652.358 37.099L652.359 41.635L652.360 46.170L652.360 50.706L652.361 55.241L652.362 59.777L652.363 64.312L652.364 68.848L652.365 73.383L652.366 77.919L652.367 82.454L652.368 86.990L652.369 91.482L652.370 95.976L652.371 100.457L652.372 105.026L652.373 109.603L652.373 114.191L652.374 118.739L652.375 123.274L652.376 127.810L652.377 132.345L652.378 136.881L652.379 141.416L652.379 145.952L652.380 150.487L652.381 155.023L652.382 159.558L652.383 164.094L652.384 168.629L652.398 173.165L652.451 177.700L652.604 182.207L652.913 186.693L653.464 191.159L654.298 195.664L655.457 200.180L656.959 204.741L658.778 209.252L660.944 213.774L663.485 218.279L666.438 222.810L669.889 227.380L673.657 231.752L677.754 235.914L681.955 239.637L686.345 243.036L690.790 246.032L695.371 248.705L699.938 251.006L704.590 252.987L709.173 254.606L713.736 255.908L718.239 256.898L722.736 257.611L727.292 258.057L731.858 258.278L736.432 258.347L740.976 258.357L745.512 258.357L750.047 258.364L754.583 258.373L759.119 258.383L763.654 258.392L768.190 258.401L772.725 258.410L777.261 258.420L781.796 258.429L786.332 258.438L790.867 258.447L795.403 258.457L799.938 258.466L804.474 258.475L809.009 258.484L813.545 258.493L818.080 258.503L822.616 258.512L827.151 258.521L831.687 258.530L836.222 258.540L840.758 258.549L845.293 258.558L849.829 258.567L854.364 258.576L858.900 258.586L863.436 258.595L867.971 258.604L872.507 258.613L877.042 258.623L881.595 258.632L886.239 258.642L891.179 258.654L894.835 258.663L898.212 258.672" stroke="#ffffff" stroke-width="45" fill="none" stroke-linecap="round" stroke-linejoin="round"/>
    <path id="path-2-0" d="M642.236 4.207L640.142 4.122L637.644 4.065L634.491 4.013L631.868 4L629.411 4L627.277 4L624.876 4.001L622.742 4.001L620.340 4.002L618.206 4.003L615.805 4.003L613.671 4.004L611.269 4.004L609.135 4.005L606.734 4.005L604.600 4.006L602.198 4.006L600.064 4.007L597.663 4.007L595.529 4.008L593.127 4.008L590.993 4.009L588.592 4.009L586.458 4.010L584.056 4.010L581.922 4.011L579.520 4.011L577.387 4.012L574.985 4.012L572.851 4.013L570.449 4.013L568.316 4.014L565.914 4.014L563.780 4.015L561.378 4.015L559.245 4.016L556.843 4.016L554.709 4.017L552.307 4.017L550.174 4.018L547.772 4.018L545.638 4.019L543.236 4.019L541.103 4.020L538.701 4.020L536.567 4.021L534.165 4.021L532.032 4.022L529.630 4.022L527.496 4.023L525.094 4.023L522.960 4.024L520.559 4.024L518.425 4.025L516.023 4.025L513.889 4.026L511.488 4.026L509.354 4.027L506.952 4.027L504.818 4.028L502.417 4.028L500.283 4.029L497.881 4.029L495.747 4.030L493.346 4.030L491.212 4.031L488.810 4.031L486.676 4.032L484.275 4.032L482.141 4.033L479.739 4.033L477.605 4.034L475.204 4.034L473.070 4.035L470.668 4.035L468.534 4.036L466.132 4.036L463.999 4.037L461.597 4.037L459.463 4.038L457.061 4.038L454.928 4.039L452.526 4.039L450.392 4.040L447.990 4.040L445.857 4.041L443.455 4.042L441.321 4.042L438.919 4.043L436.786 4.043L434.384 4.044L432.250 4.044L429.848 4.045L427.715 4.045L425.313 4.046L423.179 4.046L420.777 4.047L418.643 4.047L416.242 4.048L414.108 4.048L411.706 4.049L409.572 4.049L407.171 4.050L405.037 4.050L402.635 4.051L400.501 4.051L398.100 4.052L395.966 4.052L393.564 4.053L391.430 4.053L389.029 4.054L386.895 4.054L384.493 4.055L382.359 4.055L379.958 4.056L377.824 4.056L375.422 4.057L373.288 4.057L370.887 4.058L368.753 4.058L366.351 4.059L364.217 4.059L361.815 4.060L359.682 4.060L357.280 4.061L355.146 4.061L352.744 4.062L350.611 4.062L348.209 4.063L346.075 4.063L343.673 4.064L341.540 4.064L339.138 4.065L337.004 4.065L334.602 4.066L332.469 4.066L330.067 4.067L327.933 4.067L325.531 4.068L323.398 4.068L320.996 4.069L318.862 4.069L316.460 4.070L314.327 4.070L311.925 4.071L309.791 4.071L307.389 4.072L305.255 4.072L302.854 4.073L300.720 4.073L298.318 4.074L296.184 4.074L293.783 4.075L291.649 4.075L289.247 4.076L287.113 4.076L284.712 4.077L282.578 4.077L280.176 4.078L278.042 4.078L275.641 4.079L273.507 4.079L271.105 4.080L268.971 4.080L266.570 4.081L264.436 4.081L262.034 4.082L259.900 4.082L257.498 4.083L255.365 4.083L252.963 4.084L250.829 4.085L248.427 4.085L246.294 4.086L243.892 4.086L241.758 4.087L239.356 4.087L237.223 4.088L234.821 4.088L232.687 4.089L230.285 4.089L228.152 4.090L225.750 4.090L223.616 4.091L221.214 4.091L219.081 4.092L216.679 4.092L214.545 4.093L212.143 4.093L210.010 4.094L207.608 4.094L205.474 4.095L203.072 4.095L200.938 4.096L198.537 4.096L196.403 4.097L194.001 4.097L191.867 4.098L189.466 4.098L187.332 4.099L184.930 4.099L182.796 4.100L180.395 4.100L178.261 4.101L175.859 4.112L173.725 4.137L171.324 4.215L169.190 4.334L166.709 4.550L164.186 4.861L161.366 5.277L158.539 5.799L156.096 6.332L153.627 6.961L151.530 7.572L149.131 8.312L146.983 9.059L144.519 10.007L141.923 11.142L139.041 12.506L136.142 14.001L133.589 15.417L131.125 16.912L128.959 18.328L126.651 19.942L124.580 21.489L122.329 23.295L120.232 25.083L117.876 27.233L115.758 29.292L113.537 31.602L111.675 33.670L109.718 35.996L107.984 38.205L106.125 40.717L104.542 42.998L102.916 45.518L101.362 48.196L99.572 51.576L97.724 55.465L95.917 59.755L94.338 64.078L93.112 67.959L92.213 71.310L91.647 73.805L91.203 76.269L90.899 78.339L90.590 80.801L90.384 82.863L90.191 85.237L90.081 87.310L90 89.703L89.968 91.836L89.952 94.238L89.950 96.372L89.951 98.774L89.952 100.907L89.953 103.309L89.954 105.443L89.955 107.845L89.956 109.978L89.957 112.380L89.958 114.514L89.959 116.916L89.960 119.049L89.962 121.451L89.962 123.585L89.964 125.987L89.965 128.121L89.966 130.522L89.967 132.656L89.968 135.058L89.969 137.192L89.970 139.593L89.971 141.727L89.972 144.129L89.973 146.263L89.974 148.664L89.975 150.798L89.976 153.200L89.977 155.334L89.978 157.735L89.979 159.869L89.980 162.271L89.981 164.405L89.983 166.806L89.984 168.940L89.985 171.342L89.986 173.476L89.987 175.877L89.988 178.011L89.989 180.413L89.990 182.547L89.991 184.949L89.992 187.082L89.993 189.484L89.994 191.618L89.995 194.020L89.996 196.153L89.997 198.555L89.998 200.689L90 203.091L90 205.224L90.002 207.626L90.003 209.760L90.004 212.162L90.005 214.295L90.006 216.697L90.007 218.831L90.008 221.233L90.009 223.366L90.010 225.768L90.011 227.902L90.012 230.304L90.013 232.438L90.014 234.839L90.015 236.973L90.016 239.375L90.017 241.509L90.018 243.910L90.019 246.044L90.021 248.446L90.022 250.580L90.023 252.981L90.024 255.115L90.025 257.517L90.026 259.651L90.027 262.052L90.028 264.186L90.029 266.588L90.030 268.722L90.031 271.123L90.032 273.257L90.033 275.659L90.034 277.793L90.035 280.194L90.036 282.328L90.037 284.730L90.038 286.864L90.039 289.266L90.040 291.399L90.042 293.801L90.043 295.935L90.044 298.337L90.045 300.470L90.046 302.872L90.047 305.006L90.048 307.408L90.049 309.541L90.050 311.943L90.051 314.077L90.052 316.479L90.053 318.612L90.054 321.014L90.055 323.148L90.056 325.550L90.057 327.683L90.058 330.085L90.059 332.219L90.061 334.621L90.062 336.754L90.063 339.156L90.064 341.290L90.065 343.692L90.066 345.826L90.067 348.227L90.068 350.361L90.069 352.763L90.070 354.897L90.071 357.298L90.072 359.432L90.073 361.834L90.074 363.968L90.075 366.369L90.076 368.503L90.077 370.905L90.078 373.039L90.080 375.440L90.081 377.574L90.082 379.976L90.083 382.110L90.084 384.511L90.085 386.645L90.086 389.047L90.087 391.181L90.088 393.582L90.089 395.716L90.090 398.118L90.091 400.252L90.092 402.654L90.093 404.787L90.094 407.189L90.095 409.323L90.096 411.725L90.097 413.858L90.099 416.260L90.100 418.394L90.101 420.796L90.102 422.929L90.103 425.331L90.104 427.465L90.105 429.867L90.106 432L90.107 434.402L90.108 436.536L90.109 438.938L90.110 441.071L90.111 443.473L90.112 445.607L90.113 448.009L90.114 450.143L90.115 452.544L90.116 454.678L90.117 457.080L90.118 459.214L90.120 461.615L90.121 463.749L90.122 466.151L90.123 468.285L90.124 470.686L90.125 472.820L90.126 475.222L90.127 477.356L90.128 479.757L90.129 481.891L90.130 484.293L90.131 486.427L90.132 488.828L90.133 490.962L90.134 493.364L90.135 495.498L90.136 497.899L90.137 500.033L90.139 502.435L90.140 504.569L90.141 506.971L90.142 509.104L90.143 511.506L90.144 513.640L90.145 516.042L90.146 518.175L90.147 520.577L90.148 522.711L90.149 525.113L90.150 527.246L90.151 529.648L90.152 531.782L90.153 534.184L90.154 536.317L90.155 538.719L90.156 540.853L90.158 543.255L90.159 545.388L90.160 547.790L90.161 549.924L90.162 552.326L90.163 554.460L90.164 556.861L90.165 558.995L90.166 561.397L90.167 563.531L90.168 565.932L90.169 568.066L90.170 570.468L90.171 572.602L90.172 575.003L90.173 577.137L90.174 579.539L90.175 581.673L90.177 584.074L90.177 586.208L90.179 588.610L90.180 590.744L90.181 593.145L90.182 595.279L90.183 597.681L90.184 599.815L90.185 602.216L90.186 604.350L90.187 606.752L90.188 608.886L90.189 611.288L90.190 613.421L90.191 615.823L90.192 617.957L90.193 620.359L90.194 622.492L90.195 624.894L90.196 627.028L90.198 629.430L90.199 631.563L90.200 633.965L90.201 636.099L90.202 638.501L90.203 640.634L90.204 643.036L90.205 645.170L90.206 647.572L90.207 649.705L90.208 652.107L90.209 654.241L90.210 656.643L90.211 658.776L90.212 661.178L90.213 663.312L90.214 665.714L90.215 667.848L90.217 670.249L90.218 672.383L90.219 674.785L90.220 676.919L90.221 679.320L90.222 681.454L90.223 683.856L90.224 685.990L90.225 688.391L90.226 690.525L90.227 692.927L90.228 695.061L90.229 697.462L90.230 699.596L90.231 701.998L90.232 704.132L90.233 706.533L90.234 708.667L90.236 711.069L90.237 713.203L90.238 715.604L90.239 717.738L90.240 720.140L90.241 722.274L90.242 724.676L90.243 726.809L90.244 729.211L90.245 731.345L90.246 733.747L90.247 735.880L90.248 738.282L90.249 740.416L90.250 742.818L90.251 744.951L90.252 747.353L90.253 749.487L90.254 751.889L90.255 754.022L90.257 756.424L90.258 758.558L90.259 760.960L90.260 763.093L90.261 765.495L90.262 767.629L90.263 770.031L90.264 772.165L90.265 774.566L90.266 776.700L90.267 779.102L90.268 781.236L90.269 783.637L90.270 785.771L90.271 788.173L90.272 790.307L90.273 792.708L90.274 794.842L90.276 797.244L90.277 799.378L90.278 801.779L90.279 803.913L90.280 806.315L90.281 808.449L90.282 810.850L90.283 812.984L90.284 815.386L90.285 817.520L90.286 819.921L90.287 822.055L90.288 824.457L90.289 826.591L90.290 828.993L90.291 831.126L90.292 833.528L90.293 835.662L90.295 838.064L90.296 840.197L90.297 842.599L90.298 844.733L90.299 847.135L90.300 849.268L90.301 851.670L90.302 853.804L90.303 856.206L90.304 858.339L90.305 860.741L90.306 862.875L90.307 865.277L90.308 867.410L90.309 869.812L90.310 871.946L90.311 874.348L90.312 876.481L90.314 878.883L90.315 881.017L90.316 883.419L90.317 885.553L90.318 887.954L90.319 890.088L90.320 892.490L90.321 894.624L90.322 897.025L90.323 899.159L90.324 901.561L90.325 903.695L90.326 906.096L90.327 908.230L90.328 910.632L90.329 912.766L90.330 915.167L90.331 917.301L90.332 919.703L90.333 921.837L90.335 924.238L90.336 926.372L90.339 928.774L90.344 930.908L90.374 933.348L90.460 935.905L90.610 938.761L90.858 941.809L91.224 944.813L91.762 948.087L92.426 951.322L93.186 954.477L93.914 957.159L94.770 959.817L95.731 962.440L96.937 965.424L98.254 968.342L99.537 971.007L100.895 973.524L102.188 975.757L103.796 978.294L105.653 980.976L107.876 983.982L110.291 986.999L112.531 989.624L114.891 992.146L117.026 994.260L119.412 996.484L121.525 998.330L123.890 1000.263L126.111 1001.950L128.718 1003.803L131.341 1005.528L134.208 1007.311L137.130 1008.979L140.105 1010.537L143.163 1011.998L146.175 1013.291L148.795 1014.345L151.273 1015.233L153.346 1015.933L155.810 1016.675L158.411 1017.367L161.295 1018.045L164.177 1018.620L166.571 1019.030L169.091 1019.361L171.171 1019.566L173.696 1019.765L175.800 1019.884L178.258 1019.979L180.373 1020L182.796 1019.973L184.930 1019.919L187.332 1019.864L189.466 1019.831L191.867 1019.814L194.001 1019.809L196.403 1019.809L198.537 1019.808L200.938 1019.808L203.072 1019.808L205.474 1019.807L207.608 1019.807L210.010 1019.807L212.143 1019.807L214.545 1019.806L216.679 1019.806L219.081 1019.806L221.214 1019.805L223.616 1019.805L225.750 1019.805L228.152 1019.804L230.285 1019.804L232.687 1019.804L234.821 1019.803L237.223 1019.803L239.356 1019.803L241.758 1019.803L243.892 1019.802L246.294 1019.802L248.427 1019.802L250.829 1019.801L252.963 1019.801L255.365 1019.801L257.498 1019.800L259.900 1019.800L262.034 1019.800L264.436 1019.799L266.570 1019.799L268.971 1019.799L271.105 1019.799L273.507 1019.798L275.641 1019.798L278.042 1019.798L280.176 1019.797L282.578 1019.797L284.712 1019.797L287.113 1019.796L289.247 1019.796L291.649 1019.796L293.783 1019.795L296.184 1019.795L298.318 1019.795L300.720 1019.794L302.854 1019.794L305.255 1019.794L307.389 1019.794L309.791 1019.793L311.925 1019.793L314.327 1019.793L316.460 1019.792L318.862 1019.792L320.996 1019.792L323.398 1019.791L325.531 1019.791L327.933 1019.791L330.067 1019.790L332.469 1019.790L334.602 1019.790L337.004 1019.790L339.138 1019.789L341.540 1019.789L343.673 1019.789L346.075 1019.788L348.209 1019.788L350.611 1019.788L352.744 1019.787L355.146 1019.787L357.280 1019.787L359.682 1019.786L361.815 1019.786L364.217 1019.786L366.351 1019.786L368.753 1019.785L370.887 1019.785L373.288 1019.785L375.422 1019.784L377.824 1019.784L379.958 1019.784L382.359 1019.783L384.493 1019.783L386.895 1019.783L389.029 1019.782L391.430 1019.782L393.564 1019.782L395.966 1019.782L398.100 1019.781L400.501 1019.781L402.635 1019.781L405.037 1019.780L407.171 1019.780L409.572 1019.780L411.706 1019.779L414.108 1019.779L416.242 1019.779L418.643 1019.778L420.777 1019.778L423.179 1019.778L425.313 1019.777L427.715 1019.777L429.848 1019.777L432.250 1019.777L434.384 1019.776L436.786 1019.776L438.919 1019.776L441.321 1019.775L443.455 1019.775L445.857 1019.775L447.990 1019.774L450.392 1019.774L452.526 1019.774L454.928 1019.773L457.061 1019.773L459.463 1019.773L461.597 1019.773L463.999 1019.772L466.132 1019.772L468.534 1019.772L470.668 1019.771L473.070 1019.771L475.204 1019.771L477.605 1019.770L479.739 1019.770L482.141 1019.770L484.275 1019.769L486.676 1019.769L488.810 1019.769L491.212 1019.769L493.346 1019.768L495.747 1019.768L497.881 1019.768L500.283 1019.767L502.417 1019.767L504.818 1019.767L506.952 1019.766L509.416 1019.766L512.030 1019.766L514.971 1019.765L518.007 1019.765L520.533 1019.765L523.021 1019.764L525.094 1019.764L527.496 1019.764L529.630 1019.763L532.032 1019.763L534.165 1019.763L536.567 1019.762L538.701 1019.762L541.103 1019.762L543.236 1019.761L545.638 1019.761L547.772 1019.761L550.174 1019.760L552.307 1019.760L554.709 1019.760L556.843 1019.760L559.245 1019.759L561.378 1019.759L563.780 1019.759L565.914 1019.758L568.316 1019.758L570.449 1019.758L572.851 1019.757L574.985 1019.757L577.387 1019.757L579.520 1019.756L581.922 1019.756L584.056 1019.756L586.458 1019.756L588.592 1019.755L590.993 1019.755L593.127 1019.755L595.529 1019.754L597.663 1019.754L600.064 1019.754L602.198 1019.753L604.600 1019.753L606.734 1019.753L609.135 1019.752L611.269 1019.752L613.671 1019.752L615.805 1019.752L618.206 1019.751L620.340 1019.751L622.742 1019.751L624.876 1019.750L627.277 1019.750L629.411 1019.750L631.813 1019.749L633.947 1019.749L636.348 1019.749L638.482 1019.748L640.884 1019.748L643.018 1019.748L645.420 1019.747L647.553 1019.747L649.955 1019.747L652.089 1019.747L654.491 1019.746L656.624 1019.746L659.026 1019.746L661.160 1019.745L663.562 1019.745L665.695 1019.745L668.097 1019.744L670.231 1019.744L672.633 1019.744L674.766 1019.743L677.168 1019.743L679.302 1019.743L681.704 1019.743L683.837 1019.742L686.239 1019.742L688.373 1019.742L690.775 1019.741L692.909 1019.741L695.310 1019.741L697.444 1019.740L699.846 1019.740L701.980 1019.740L704.381 1019.739L706.515 1019.739L708.917 1019.739L711.051 1019.739L713.452 1019.738L715.586 1019.738L717.988 1019.738L720.122 1019.737L722.523 1019.737L724.657 1019.737L727.059 1019.736L729.193 1019.736L731.594 1019.736L733.728 1019.735L736.130 1019.735L738.264 1019.735L740.665 1019.734L742.799 1019.734L745.201 1019.734L747.335 1019.734L749.737 1019.733L751.870 1019.733L754.272 1019.733L756.406 1019.732L758.808 1019.732L760.941 1019.732L763.343 1019.731L765.477 1019.731L767.879 1019.731L770.012 1019.730L772.414 1019.730L774.548 1019.730L776.950 1019.730L779.083 1019.729L781.485 1019.729L783.619 1019.729L786.021 1019.728L788.154 1019.728L790.556 1019.728L792.690 1019.727L795.092 1019.727L797.225 1019.727L799.627 1019.726L801.761 1019.726L804.163 1019.726L806.297 1019.726L808.698 1019.725L810.832 1019.725L813.234 1019.725L815.368 1019.724L817.769 1019.724L819.903 1019.724L822.305 1019.723L824.439 1019.723L826.840 1019.723L828.974 1019.722L831.376 1019.722L833.510 1019.722L835.911 1019.721L838.045 1019.721L840.447 1019.721L842.581 1019.721L844.982 1019.714L847.116 1019.689L849.600 1019.606L852.172 1019.428L855.049 1019.163L857.967 1018.797L860.494 1018.416L863.146 1017.904L865.857 1017.254L869.344 1016.277L873.214 1015.003L877.094 1013.565L880.579 1012.092L883.365 1010.783L885.959 1009.425L888.239 1008.140L890.824 1006.537L893.536 1004.702L896.610 1002.474L899.691 1000.067L902.396 997.810L904.975 995.457L907.145 993.316L909.545 990.757L911.786 988.143L914.124 985.259L916.315 982.326L918.369 979.372L920.391 976.241L922.192 973.213L923.719 970.483L925.029 967.862L926.091 965.597L927.196 963.019L928.224 960.359L929.435 956.807L930.625 952.810L931.684 948.818L932.452 945.300L932.928 942.653L933.283 940.074L933.532 937.905L933.759 935.443L933.906 933.309L934.008 930.908L934.049 928.774L934.050 926.372L934.017 924.238L933.945 921.837L933.866 919.703L933.787 917.301L933.747 915.167L933.729 912.766L933.729 910.632L933.729 908.230L933.729 906.096L933.729 903.695L933.729 901.561L933.729 899.159L933.729 897.025L933.729 894.624L933.729 892.490L933.729 890.088L933.729 887.954L933.729 885.553L933.729 883.419L933.729 881.017L933.729 878.883L933.729 876.481L933.729 874.348L933.729 871.946L933.729 869.812L933.729 867.410L933.729 865.277L933.730 862.875L933.730 860.741L933.730 858.339L933.730 856.206L933.730 853.804L933.730 851.670L933.730 849.268L933.730 847.135L933.730 844.733L933.730 842.599L933.730 840.197L933.730 838.064L933.730 835.662L933.730 833.528L933.730 831.126L933.730 828.993L933.730 826.591L933.730 824.457L933.730 822.055L933.730 819.921L933.730 817.520L933.730 815.386L933.730 812.984L933.730 810.850L933.730 808.449L933.730 806.315L933.730 803.913L933.730 801.779L933.730 799.378L933.730 797.244L933.730 794.842L933.730 792.708L933.730 790.307L933.730 788.173L933.730 785.771L933.730 783.637L933.730 781.236L933.730 779.102L933.730 776.700L933.730 774.566L933.730 772.165L933.731 770.031L933.731 767.629L933.731 765.495L933.731 763.093L933.731 760.960L933.731 758.558L933.731 756.424L933.731 754.022L933.731 751.889L933.731 749.487L933.731 747.353L933.731 744.951L933.731 742.818L933.731 740.416L933.731 738.282L933.731 735.880L933.731 733.747L933.731 731.345L933.731 729.211L933.731 726.809L933.731 724.676L933.731 722.274L933.731 720.140L933.731 717.738L933.731 715.604L933.731 713.203L933.731 711.069L933.731 708.667L933.731 706.533L933.731 704.132L933.731 701.998L933.731 699.596L933.731 697.462L933.731 695.061L933.731 692.927L933.731 690.525L933.731 688.391L933.731 685.990L933.731 683.856L933.731 681.454L933.732 679.320L933.732 676.919L933.732 674.785L933.732 672.383L933.732 670.249L933.732 667.848L933.732 665.714L933.732 663.312L933.732 661.178L933.732 658.776L933.732 656.643L933.732 654.241L933.732 652.107L933.732 649.705L933.732 647.572L933.732 645.170L933.732 643.036L933.732 640.634L933.732 638.501L933.732 636.099L933.732 633.965L933.732 631.563L933.732 629.430L933.732 627.028L933.732 624.894L933.732 622.492L933.732 620.359L933.732 617.957L933.732 615.823L933.732 613.421L933.732 611.288L933.732 608.886L933.732 606.752L933.732 604.350L933.732 602.216L933.732 599.815L933.732 597.681L933.732 595.279L933.732 593.145L933.732 590.744L933.733 588.610L933.733 586.208L933.733 584.074L933.733 581.673L933.733 579.539L933.733 577.137L933.733 575.003L933.733 572.602L933.733 570.468L933.733 568.066L933.733 565.932L933.733 563.531L933.733 561.397L933.733 558.995L933.733 556.861L933.733 554.460L933.733 552.326L933.733 549.924L933.733 547.790L933.733 545.388L933.733 543.255L933.733 540.853L933.733 538.719L933.733 536.317L933.733 534.184L933.733 531.782L933.733 529.648L933.733 527.246L933.733 525.113L933.733 522.711L933.733 520.577L933.733 518.175L933.733 516.042L933.733 513.640L933.733 511.506L933.733 509.104L933.733 506.971L933.733 504.569L933.733 502.435L933.733 500.033L933.733 497.899L933.734 495.498L933.734 493.364L933.734 490.962L933.734 488.828L933.734 486.427L933.734 484.293L933.734 481.891L933.734 479.757L933.734 477.356L933.734 475.222L933.734 472.820L933.734 470.686L933.734 468.285L933.734 466.151L933.734 463.749L933.734 461.615L933.734 459.214L933.734 457.080L933.734 454.678L933.734 452.544L933.734 450.143L933.734 448.009L933.734 445.607L933.734 443.473L933.734 441.071L933.734 438.938L933.734 436.536L933.734 434.402L933.734 432L933.734 429.867L933.734 427.465L933.734 425.331L933.734 422.929L933.734 420.796L933.734 418.394L933.734 416.260L933.734 413.858L933.734 411.725L933.734 409.323L933.734 407.189L933.735 404.787L933.735 402.654L933.735 400.252L933.735 398.118L933.735 395.716L933.735 393.582L933.735 391.181L933.735 389.047L933.735 386.645L933.735 384.511L933.735 382.110L933.735 379.976L933.735 377.574L933.735 375.440L933.735 373.039L933.735 370.905L933.735 368.503L933.735 366.369L933.735 363.968L933.735 361.834L933.735 359.432L933.735 357.298L933.735 354.897L933.735 352.763L933.735 350.361L933.735 348.227L933.735 345.826L933.735 343.692L933.735 341.290L933.735 339.156L933.735 336.754L933.735 334.621L933.735 332.219L933.735 330.085L933.735 327.683L933.735 325.550L933.735 323.148L933.735 321.014L933.735 318.612L933.735 316.479L933.736 313.999L933.739 311.422L933.747 308.536L933.756 305.508L933.762 302.569L933.761 299.488L933.746 296.523L933.718 293.914L933.648 291.437L933.548 289.371L933.351 286.849L933.019 284.154L932.414 280.605L931.447 276.438L930.594 273.147L929.675 270.139" stroke="#ffffff" stroke-width="45" fill="none" stroke-linecap="round" stroke-linejoin="round"/>
    <path id="path-extension-1" d="M677.511 12.725L663.914 5.087" stroke="#ffffff" stroke-width="45" fill="none" stroke-linecap="round" stroke-linejoin="round"/>
    <path id="path-extension-2" d="M899.528 229.175L924.904 254.540" stroke="#ffffff" stroke-width="45" fill="none" stroke-linecap="round" stroke-linejoin="round"/>
    <path id="path-extension-3" d="M652.357 31.112L652.351 4.617" stroke="#ffffff" stroke-width="45" fill="none" stroke-linecap="round" stroke-linejoin="round"/>
    <path id="path-extension-4" d="M898.212 258.672L926.190 258.747" stroke="#ffffff" stroke-width="45" fill="none" stroke-linecap="round" stroke-linejoin="round"/>
    <path id="path-extension-5" d="M642.236 4.207L652.351 4.617" stroke="#ffffff" stroke-width="45" fill="none" stroke-linecap="round" stroke-linejoin="round"/>
    <path id="path-extension-6" d="M929.675 270.139L926.190 258.747" stroke="#ffffff" stroke-width="45" fill="none" stroke-linecap="round" stroke-linejoin="round"/>
    <path id="path-connection-1" d="M652.351 4.617L652.351 4.617" stroke="#ffffff" stroke-width="45" fill="none" stroke-linecap="round" stroke-linejoin="round"/>
    <path id="path-connection-2" d="M926.190 258.747L926.190 258.747" stroke="#ffffff" stroke-width="45" fill="none" stroke-linecap="round" stroke-linejoin="round"/>
  </g>
</svg>
