<svg xmlns="http://www.w3.org/2000/svg" viewBox="-47.5 -47.5 1119.0 1119.0" width="1024" height="1024">
  <g id="skeleton-paths" stroke-width="45.0">
    <path id="path-0-0" d="M279.623 873.380L282.921 873.384L286.828 873.387L292.293 873.392L297.765 873.397L303.237 873.402L308.709 873.407L314.181 873.412L319.652 873.417L325.124 873.422L330.596 873.426L336.068 873.431L341.539 873.436L347.011 873.441L352.483 873.446L357.955 873.451L363.426 873.456L368.898 873.460L374.370 873.465L379.842 873.470L385.314 873.475L390.785 873.480L396.257 873.485L401.729 873.490L407.201 873.494L412.672 873.499L418.144 873.504L423.616 873.509L429.088 873.514L434.559 873.519L440.031 873.524L445.503 873.528L450.975 873.533L456.447 873.538L461.918 873.543L467.390 873.548L472.862 873.553L478.334 873.558L483.805 873.562L489.277 873.567L494.749 873.572L500.221 873.577L505.692 873.582L511.164 873.587L516.636 873.592L522.108 873.597L527.579 873.601L533.051 873.606L538.523 873.611L543.995 873.616L549.467 873.621L554.938 873.626L560.410 873.631L565.882 873.635L571.354 873.640L576.825 873.645L582.297 873.650L587.769 873.655L593.241 873.660L598.712 873.665L604.184 873.669L609.656 873.674L615.128 873.679L620.600 873.684L626.071 873.689L631.543 873.694L637.015 873.699L642.487 873.703L647.958 873.708L653.430 873.713L658.902 873.718L664.374 873.723L669.845 873.728L675.317 873.733L680.789 873.737L686.261 873.742L691.732 873.747L697.204 873.752L702.676 873.757L708.148 873.762L713.620 873.767L719.091 873.771L724.563 873.767L730.035 873.730L735.494 873.617L740.972 873.384L746.441 873.004L751.963 872.470L757.444 871.786L762.969 870.942L768.471 869.937L774.047 868.754L779.620 867.395L785.157 865.857L790.578 864.155L795.965 862.267L801.329 860.208L806.870 857.906L812.454 855.367L818.207 852.531L823.921 849.444L829.626 846.137L835.210 842.614L840.794 838.816L846.322 834.744L851.935 830.302L857.445 825.598L863.027 820.467L868.374 815.174L873.562 809.642L878.320 804.174L882.834 798.607L886.970 793.114L890.863 787.588L894.462 782.050L897.879 776.402L901.073 770.692L904.015 765.034L906.681 759.464L909.102 753.969L911.355 748.388L913.414 742.824L915.286 737.226L916.939 731.708L918.394 726.174L919.661 720.711L920.757 715.221L921.683 709.745L922.445 704.196L923.032 698.651L923.447 693.124L923.705 687.631L923.840 682.159L923.892 676.688L923.905 671.216L923.904 665.744L923.903 660.272L923.901 654.801L923.900 649.329L923.899 643.857L923.897 638.385L923.896 632.913L923.895 627.442L923.893 621.970L923.892 616.498L923.891 611.026L923.890 605.555L923.888 600.083L923.887 594.611L923.886 589.139L923.884 583.668L923.883 578.196L923.882 572.724L923.880 567.252L923.879 561.780L923.878 556.309L923.876 550.837L923.875 545.365L923.874 539.893L923.872 534.422L923.871 528.950L923.870 523.478L923.868 518.006L923.867 512.535L923.866 507.063L923.865 501.591L923.863 496.119L923.862 490.647L923.861 485.176L923.859 479.704L923.858 474.232L923.857 468.760L923.855 463.289L923.854 457.817L923.853 452.345L923.851 446.873L923.850 441.402L923.849 435.930L923.847 430.458L923.846 424.986L923.845 419.515L923.843 414.043L923.842 408.571L923.841 403.099L923.840 397.627L923.838 392.156L923.837 386.684L923.836 381.212L923.834 375.740L923.833 370.269L923.832 364.797L923.830 359.325L923.829 353.853L923.828 348.382L923.826 342.910L923.825 337.438L923.824 331.966L923.822 326.494L923.821 321.023L923.820 315.551L923.819 310.079L923.817 304.607L923.816 299.136L923.815 293.664L923.813 288.192L923.812 282.720L923.810 277.249L923.808 273.337L923.805 270.025" stroke="#ffffff" stroke-width="45" fill="none" stroke-linecap="round" stroke-linejoin="round"/>
    <path id="path-1-0" d="M258.994 834.267L260.846 832.402L262.687 830.547L265.574 827.639L268.139 825.055L271.026 822.147L273.591 819.564L276.478 816.656L279.043 814.072L281.930 811.164L284.494 808.580L287.381 805.672L289.946 803.089L292.833 800.180L295.398 797.597L298.290 794.683L300.873 792.081L303.775 789.157L306.246 786.666L308.935 783.958L311.189 781.688L313.863 778.996L316.308 776.534L319.184 773.637L321.749 771.054L324.635 768.145L327.200 765.562L330.085 762.652L332.645 760.063L335.521 757.143L338.072 754.546L340.941 751.620L343.489 749.020L346.357 746.093L348.905 743.493L351.774 740.566L354.322 737.966L356.365 735.881L357.803 734.413" stroke="#ffffff" stroke-width="45" fill="none" stroke-linecap="round" stroke-linejoin="round"/>
    <path id="path-2-0" d="M254.556 912.745L256.001 914.205L258.055 916.279L260.616 918.866L263.494 921.775L266.038 924.349L268.794 927.143L271.158 929.544L273.745 932.175L276.120 934.593L278.884 937.408L281.423 939.994L284.183 942.805L286.554 945.218L289.138 947.849L291.505 950.255L294.261 953.058L296.803 955.643L299.672 958.563L302.224 961.159L305.096 964.082L307.648 966.679L310.520 969.601L313.072 972.198L315.944 975.121L318.496 977.717L321.368 980.640L323.920 983.237L326.792 986.160L329.344 988.756L332.216 991.679L334.768 994.276L337.641 997.199L340.192 999.795L343.062 1002.721L345.607 1005.324L348.465 1008.261L351.001 1010.873L353.854 1013.815L356.389 1016.429L358.421 1018.525L359.852 1020" stroke="#ffffff" stroke-width="45" fill="none" stroke-linecap="round" stroke-linejoin="round"/>
    <path id="path-extension-1" d="M279.623 873.380L220.226 873.319" stroke="#ffffff" stroke-width="45" fill="none" stroke-linecap="round" stroke-linejoin="round"/>
    <path id="path-extension-2" d="M258.994 834.267L220.226 873.319" stroke="#ffffff" stroke-width="45" fill="none" stroke-linecap="round" stroke-linejoin="round"/>
    <path id="path-extension-3" d="M254.556 912.745L217.869 875.693" stroke="#ffffff" stroke-width="45" fill="none" stroke-linecap="round" stroke-linejoin="round"/>
    <path id="path-connection-1" d="M220.226 873.319L220.226 873.319" stroke="#ffffff" stroke-width="45" fill="none" stroke-linecap="round" stroke-linejoin="round"/>
  </g>
  <g id="skeleton-paths" stroke-width="45.0">
    <path id="path-0-0" d="M665.518 4L667.092 5.708L668.817 7.488L671.582 10.307L674.156 12.871L677.058 15.761L679.636 18.331L682.537 21.225L685.114 23.796L688.015 26.690L690.592 29.262L693.493 32.156L696.070 34.727L698.971 37.621L701.548 40.193L704.449 43.087L707.027 45.658L709.927 48.552L712.505 51.124L715.406 54.018L717.983 56.589L720.884 59.483L723.461 62.054L726.362 64.949L728.939 67.520L731.840 70.414L734.417 72.985L737.318 75.880L739.895 78.451L742.796 81.345L745.373 83.916L748.274 86.810L750.851 89.382L753.752 92.276L756.329 94.847L759.230 97.741L761.807 100.313L764.708 103.207L767.285 105.778L770.186 108.672L772.036 110.518L773.897 112.375" stroke="#ffffff" stroke-width="45" fill="none" stroke-linecap="round" stroke-linejoin="round"/>
    <path id="path-1-0" d="M100.125 760.832L100.125 759.379L100.125 757.315L100.124 754.741L100.124 751.844L100.124 749.269L100.124 746.372L100.124 743.798L100.124 740.900L100.123 738.326L100.123 735.428L100.123 732.854L100.123 729.956L100.123 727.382L100.122 724.485L100.122 721.910L100.122 719.013L100.122 716.439L100.122 713.541L100.122 710.967L100.121 708.069L100.121 705.495L100.121 702.598L100.121 700.023L100.121 697.126L100.121 694.552L100.120 691.654L100.120 689.080L100.120 686.182L100.120 683.608L100.120 680.711L100.120 678.136L100.119 675.239L100.119 672.665L100.119 669.767L100.119 667.193L100.119 664.295L100.118 661.721L100.118 658.824L100.118 656.249L100.118 653.352L100.118 650.778L100.118 647.880L100.117 645.306L100.117 642.408L100.117 639.834L100.117 636.936L100.117 634.362L100.117 631.465L100.116 628.890L100.116 625.993L100.116 623.419L100.116 620.521L100.116 617.947L100.116 615.049L100.115 612.475L100.115 609.578L100.115 607.003L100.115 604.106L100.115 601.532L100.114 598.634L100.114 596.060L100.114 593.162L100.114 590.588L100.114 587.691L100.114 585.116L100.113 582.219L100.113 579.645L100.113 576.747L100.113 574.173L100.113 571.275L100.113 568.701L100.112 565.803L100.112 563.229L100.112 560.332L100.112 557.757L100.112 554.860L100.112 552.286L100.111 549.388L100.111 546.814L100.111 543.916L100.111 541.342L100.111 538.445L100.110 535.870L100.110 532.973L100.110 530.399L100.110 527.501L100.110 524.927L100.110 522.029L100.109 519.455L100.109 516.558L100.109 513.983L100.109 511.086L100.109 508.512L100.109 505.614L100.108 503.040L100.108 500.142L100.108 497.568L100.108 494.670L100.108 492.096L100.107 489.199L100.107 486.624L100.107 483.727L100.107 481.153L100.107 478.255L100.107 475.681L100.106 472.783L100.106 470.209L100.106 467.312L100.106 464.737L100.106 461.840L100.106 459.266L100.105 456.368L100.105 453.794L100.105 450.896L100.105 448.322L100.105 445.425L100.105 442.850L100.104 439.953L100.104 437.379L100.104 434.481L100.104 431.907L100.104 429.009L100.103 426.435L100.103 423.538L100.103 420.963L100.103 418.066L100.103 415.492L100.103 412.594L100.102 410.020L100.102 407.122L100.102 404.548L100.102 401.650L100.102 399.076L100.102 396.179L100.101 393.604L100.101 390.707L100.101 388.133L100.101 385.235L100.101 382.661L100.101 379.763L100.100 377.189L100.100 374.292L100.100 371.717L100.100 368.820L100.100 366.246L100.099 363.348L100.099 360.774L100.099 357.876L100.099 355.302L100.099 352.405L100.099 349.830L100.098 346.933L100.098 344.359L100.097 341.461L100.095 338.887L100.099 335.989L100.121 333.415L100.188 330.517L100.299 327.943L100.479 325.032L100.682 322.466L100.946 319.611L101.212 317.117L101.553 314.254L101.894 311.690L102.336 308.680L102.754 306.098L103.274 303.121L103.745 300.645L104.339 297.727L104.890 295.197L105.585 292.202L106.210 289.674L107.015 286.658L107.753 284.126L108.662 281.213L109.442 278.898L110.405 276.155L111.301 273.679L112.477 270.569L113.501 267.995L114.713 265.108L115.745 262.788L117.079 259.897L118.345 257.290L119.836 254.331L121.090 251.946L122.656 249.090L124.399 246.081L126.604 242.393L128.846 238.817L130.895 235.660L132.875 232.771L134.685 230.232L136.836 227.343L139.232 224.271L142.045 220.783L145.026 217.237L147.750 214.106L150.558 211.031L153.058 208.396L155.927 205.481L158.510 202.958L161.353 200.281L163.836 198.027L166.603 195.597L169.188 193.407L172.122 191.010L174.754 188.945L177.647 186.769L180.665 184.625L184.121 182.251L187.726 179.889L190.938 177.864L194.068 176.009L196.640 174.556L199.542 173L202.490 171.504L205.965 169.801L209.652 168.080L212.690 166.695L215.809 165.366L218.240 164.396L221.317 163.230L223.952 162.289L226.948 161.256L229.603 160.397L232.574 159.471L235.643 158.583L238.880 157.668L242.339 156.779L245.770 155.969L249.398 155.192L253.029 154.491L256.164 153.929L259.348 153.437L261.811 153.115L264.698 152.771L267.105 152.523L270.013 152.250L272.576 152.073L275.503 151.928L278.077 151.847L280.975 151.773L283.549 151.722L286.447 151.680L289.021 151.656L291.918 151.637L294.493 151.625L297.390 151.611L299.964 151.599L302.862 151.585L305.436 151.572L308.334 151.559L310.908 151.546L313.805 151.532L316.380 151.520L319.277 151.506L321.851 151.494L324.749 151.480L327.323 151.468L330.221 151.454L332.795 151.442L335.692 151.429L338.267 151.420L341.164 151.414L343.738 151.412L346.636 151.413L349.210 151.414L352.108 151.416L354.682 151.418L357.580 151.419L360.154 151.421L363.051 151.422L365.626 151.424L368.523 151.426L371.097 151.427L373.995 151.429L376.569 151.430L379.467 151.432L382.041 151.434L384.938 151.435L387.513 151.437L390.410 151.439L392.984 151.440L395.882 151.442L398.456 151.443L401.354 151.445L403.928 151.447L406.825 151.448L409.400 151.450L412.297 151.452L414.871 151.453L417.769 151.455L420.343 151.456L423.241 151.458L425.815 151.459L428.713 151.461L431.287 151.463L434.184 151.464L436.759 151.466L439.656 151.468L442.230 151.469L445.128 151.471L447.702 151.472L450.600 151.474L453.174 151.476L456.071 151.477L458.646 151.479L461.543 151.481L464.117 151.482L467.015 151.484L469.589 151.485L472.487 151.487L475.061 151.489L477.958 151.490L480.533 151.492L483.430 151.493L486.004 151.495L488.902 151.497L491.476 151.498L494.374 151.500L496.948 151.501L499.845 151.503L502.420 151.505L505.317 151.506L507.891 151.508L510.789 151.510L513.363 151.511L516.261 151.513L518.835 151.514L521.733 151.516L524.307 151.518L527.204 151.519L529.779 151.521L532.676 151.522L535.250 151.524L538.148 151.526L540.722 151.527L543.620 151.529L546.194 151.530L549.091 151.532L551.666 151.534L554.563 151.535L557.137 151.537L560.035 151.539L562.609 151.540L565.507 151.542L568.081 151.543L570.978 151.545L573.553 151.547L576.450 151.548L579.024 151.550L581.922 151.552L584.496 151.553L587.394 151.555L589.968 151.556L592.866 151.558L595.440 151.559L598.337 151.560L600.912 151.560L603.809 151.558L606.383 151.555L609.281 151.551L611.855 151.547L614.753 151.543L617.327 151.540L620.224 151.536L622.799 151.532L625.696 151.528L628.270 151.525L631.168 151.521L633.742 151.517L636.640 151.513L639.214 151.510L642.111 151.506L644.686 151.502L647.583 151.498L650.157 151.495L653.055 151.491L655.629 151.487L658.527 151.483L661.101 151.480L663.999 151.476L666.573 151.472L669.470 151.468L672.045 151.465L674.942 151.461L677.516 151.457L680.414 151.453L682.988 151.450L685.886 151.446L688.460 151.442L691.357 151.438L693.932 151.435L696.829 151.431L699.403 151.427L702.301 151.423L704.875 151.420L707.773 151.416L710.347 151.412L713.244 151.408L715.819 151.405L718.716 151.401L721.290 151.397L724.188 151.393L726.762 151.390L729.660 151.386L732.234 151.382L735.131 151.378L737.706 151.375L740.603 151.371L743.177 151.367L746.113 151.364L748.711 151.361L751.648 151.359L754.181 151.356L756.226 151.354L757.636 151.350" stroke="#ffffff" stroke-width="45" fill="none" stroke-linecap="round" stroke-linejoin="round"/>
    <path id="path-2-0" d="M669.784 297.953L671.066 296.656L672.854 294.850L675.188 292.502L677.801 289.881L680.145 287.535L682.743 284.931L685.150 282.518L687.953 279.706L690.530 277.123L693.425 274.220L695.997 271.643L698.892 268.741L701.468 266.158L704.270 263.348L706.675 260.936L709.280 258.325L711.649 255.953L714.407 253.191L716.957 250.639L719.847 247.748L722.422 245.174L725.321 242.279L727.898 239.707L730.798 236.812L733.375 234.240L736.275 231.345L738.852 228.774L741.752 225.879L744.329 223.307L747.229 220.412L749.806 217.840L752.706 214.945L755.282 212.374L758.183 209.479L760.759 206.907L763.660 204.012L766.236 201.440L769.137 198.546L771.713 195.974L773.779 193.912L775.233 192.460" stroke="#ffffff" stroke-width="45" fill="none" stroke-linecap="round" stroke-linejoin="round"/>
    <path id="path-extension-1" d="M773.897 112.375L812.835 151.222" stroke="#ffffff" stroke-width="45" fill="none" stroke-linecap="round" stroke-linejoin="round"/>
    <path id="path-extension-2" d="M757.636 151.350L812.835 151.222" stroke="#ffffff" stroke-width="45" fill="none" stroke-linecap="round" stroke-linejoin="round"/>
    <path id="path-extension-3" d="M775.233 192.460L814.692 153.076" stroke="#ffffff" stroke-width="45" fill="none" stroke-linecap="round" stroke-linejoin="round"/>
    <path id="path-connection-1" d="M812.835 151.222L812.835 151.222" stroke="#ffffff" stroke-width="45" fill="none" stroke-linecap="round" stroke-linejoin="round"/>
  </g>
</svg>
