<svg xmlns="http://www.w3.org/2000/svg" width="1024" height="1024" viewBox="-47.5 -47.5 1119.0 1119.0">
  
  
  <g id="main-icon-clipped" stroke="#000000" stroke-width="45" fill="none" stroke-linecap="round" stroke-linejoin="round">
    <path d="M 394.23,433.43 L 395.97,433.55 397.74,433.64 400.25,433.80 402.38,433.90 404.55,434.05 406.44,434.19 408.53,434.40 410.34,434.60 412.46,434.87 414.61,435.14 417.09,435.46 419.64,435.80 422.17,436.16 424.72,436.53 427.27,436.92 429.79,437.33 432.32,437.78 434.84,438.26 437.34,438.79 439.85,439.35 442.35,439.96 444.88,440.60 447.82,441.39 451.15,442.34 454.89,443.47 458.71,444.68 462.49,445.96 466.19,447.28 469.54,448.54 472.46,449.69 474.71,450.61 476.86,451.50 478.96,452.41 481.45,453.50 484.02,454.66 486.62,455.85 489.19,457.07 491.74,458.30 494.27,459.54 496.80,460.81 499.25,462.06 501.88,463.50 503.80,464.59 505.83,465.83 M 238.20,481.72 L 236.63,482.92 235.16,484.06 232.82,485.91 230.54,487.75 228.03,489.83 225.56,491.92 223.40,493.79 221.24,495.71 219.37,497.41 217.34,499.30 215.61,500.93 213.79,502.70 212.16,504.30 210.38,506.10 208.78,507.74 207.02,509.57 205.40,511.30 203.52,513.35 201.83,515.23 199.95,517.38 198.41,519.18 196.71,521.22 195.34,522.88 193.69,524.94 192.32,526.70 190.78,528.69 189.54,530.32 188.06,532.33 186.49,534.51 184.64,537.13 182.83,539.74 181.30,542.01 179.91,544.12 178.86,545.76 177.69,547.60 176.72,549.18 175.49,551.23 174.39,553.09 173.14,555.24 172.12,557.04 170.96,559.11 169.94,561.00 168.79,563.16 167.87,564.91 166.90,566.82 166.10,568.43 165.11,570.45 164.06,572.68 162.75,575.52 161.27,578.81 159.73,582.35 158.34,585.66 157.16,588.57 156.29,590.80 155.46,593.04 154.64,595.33 153.66,598.16 152.72,600.97 151.86,603.63 151.19,605.79 150.56,607.91 150.02,609.79 149.43,611.92 148.88,614.02 148.27,616.38 147.68,618.80 147.17,620.94 146.69,623.07 146.32,624.78 145.90,626.77 145.55,628.49 145.15,630.58 144.83,632.32 144.47,634.34 144.18,636.07 143.83,638.26 143.51,640.44 143.15,642.92 142.84,645.29 142.58,647.34 142.34,649.35 142.15,651.08 141.94,653.09 141.77,654.87 141.60,656.88 141.47,658.69 141.35,660.77 141.27,662.66 141.20,664.78 141.15,666.54 141.11,668.47 141.08,670.10 141.06,672.07 141.06,673.83 141.07,675.87 141.09,677.65 141.12,679.66 141.15,681.40 141.19,683.41 141.23,685.16 141.28,687.23 141.33,689.00 141.42,691.05 141.52,692.82 141.67,694.85 141.81,696.64 141.99,698.67 142.15,700.43 142.34,702.40 142.51,704.02 142.74,705.97 142.94,707.70 143.21,709.81 143.44,711.54 143.72,713.56 143.98,715.30 144.31,717.45 144.61,719.29 144.98,721.43 145.30,723.16 145.69,725.22 146.03,726.93 146.46,729.01 146.82,730.71 147.29,732.77 147.74,734.66 148.30,736.93 148.90,739.25 149.62,741.94 150.51,745.06 151.55,748.61 152.72,752.40 153.97,756.21 155.27,759.98 156.61,763.67 157.87,767.00 159.01,769.90 159.93,772.15 160.79,774.17 161.55,775.94 162.42,777.92 163.40,780.07 164.52,782.48 165.72,784.99 166.78,787.16 167.90,789.37 169.00,791.49 170.32,793.97 171.67,796.45 172.89,798.65 174.13,800.81 175.34,802.85 176.77,805.24 178.30,807.70 179.90,810.24 181.56,812.78 183.20,815.24 184.72,817.47 186.25,819.66 187.61,821.57 189.07,823.57 190.38,825.32 191.91,827.31 193.60,829.46 195.55,831.89 197.60,834.39 199.45,836.59 201.27,838.71 202.83,840.48 204.54,842.38 206.13,844.10 207.98,846.07 209.71,847.87 211.72,849.91 213.78,851.93 216.10,854.19 218.46,856.41 220.59,858.38 222.67,860.25 224.43,861.80 226.37,863.46 228.17,864.97 230.20,866.65 232.02,868.12 234.03,869.71 235.89,871.15 237.98,872.73 239.86,874.13 241.83,875.56 243.60,876.83 245.54,878.19 247.34,879.42 249.32,880.74 251.13,881.94 253.18,883.25 255.28,884.57 257.64,886.01 260.01,887.44 262.17,888.71 264.29,889.93 266.19,890.99 268.33,892.15 270.58,893.35 273.31,894.76 276.14,896.18 278.98,897.58 281.66,898.84 284.55,900.16 287.44,901.44 290.36,902.68 293.10,903.81 296.04,904.97 299.00,906.10 301.85,907.16 304.16,907.99 306.26,908.72 308.09,909.33 310.15,910.00 312.24,910.65 314.57,911.36 316.92,912.05 319.00,912.65 321.11,913.22 322.95,913.70 325.07,914.24 327.26,914.76 329.66,915.32 332.10,915.86 334.20,916.31 336.34,916.75 338.11,917.09 340.16,917.48 341.90,917.79 343.99,918.14 345.70,918.43 347.72,918.74 349.43,919.00 351.52,919.29 353.31,919.52 355.33,919.77 357.05,919.97 359.14,920.20 360.97,920.39 363.06,920.58 364.79,920.73 366.78,920.89 368.51,921.01 370.50,921.14 372.23,921.24 374.27,921.34 376.08,921.41 378.13,921.49 379.92,921.54 381.93,921.58 383.72,921.60 385.73,921.60 387.51,921.59 389.52,921.57 391.31,921.54 393.32,921.48 395.11,921.42 397.16,921.33 398.96,921.25 401.00,921.13 402.72,921.03 404.71,920.88 406.44,920.75 408.48,920.56 410.24,920.39 412.35,920.16 414.07,919.96 416.10,919.71 417.79,919.49 419.88,919.19 421.69,918.92 423.84,918.57 425.93,918.21 428.37,917.77 430.84,917.30 433.05,916.86 435.19,916.41 436.88,916.04 438.81,915.59 440.49,915.18 442.56,914.66 444.41,914.19 446.49,913.63 448.26,913.15 M 625.54,656.76 L 625.46,655.62 625.29,653.56 625.12,651.76 624.91,649.70 624.72,648.00 624.48,645.97 624.26,644.25 623.97,642.15 623.71,640.40 623.40,638.30 623.05,636.16 622.64,633.73 622.21,631.27 621.82,629.16 621.39,626.95 620.93,624.74 620.40,622.28 619.84,619.85 619.35,617.75 618.80,615.56 618.23,613.38 617.58,610.95 616.91,608.54 616.31,606.47 615.68,604.37 615.12,602.55 614.48,600.54 613.89,598.72 613.23,596.77 612.59,594.96 611.85,592.90 610.99,590.60 609.87,587.70 608.57,584.44 607.23,581.20 605.95,578.23 604.77,575.59 603.59,573.02 602.36,570.46 601.04,567.81 599.51,564.83 597.70,561.46 595.74,557.91 593.85,554.59 592.18,551.76 590.82,549.50 589.53,547.44 588.36,545.60 586.98,543.48 585.43,541.15 583.39,538.19 581.06,534.89 578.69,531.62 576.54,528.74 574.84,526.52 573.22,524.45 571.74,522.62 570.07,520.59 568.57,518.79 566.91,516.84 565.37,515.06 563.51,512.97 561.55,510.84 559.34,508.46 557.10,506.12 555.09,504.04 553.05,502.00 551.25,500.24 549.28,498.36 547.57,496.75 545.68,495.03 543.92,493.47 541.84,491.68 539.91,490.05 537.72,488.23 535.78,486.64 533.67,484.93 531.84,483.48 529.82,481.90 528.49,480.89 527.10,479.83 M 264.57,464.34 L 266.04,463.54 267.48,462.77 269.57,461.67 271.38,460.74 273.37,459.75 275.49,458.70 277.93,457.52 280.50,456.31 283.07,455.12 285.65,453.96 288.25,452.83 290.90,451.71 293.87,450.49 297.18,449.20 300.83,447.82 304.59,446.47 308.36,445.19 312.05,444.01 315.39,442.99 318.30,442.14 320.59,441.51 322.78,440.93 324.88,440.41 327.26,439.84 329.71,439.27 332.32,438.71 335.26,438.14 338.21,437.60 341.16,437.10 343.70,436.71 346.21,436.35 348.65,436.03 350.82,435.75 353.03,435.48 355.13,435.23 357.58,434.94 360.02,434.66 362.18,434.41 364.50,434.17 366.92,433.96 370.01,433.73 372.33,433.59 374.27,433.47 M 220.73,142.07 L 222.62,142.07 224.50,142.06 226.74,142.05 228.80,142.04 230.59,142.03 232.60,142.02 234.38,142.01 236.39,142.00 238.18,141.99 240.19,141.98 241.98,141.97 243.99,141.96 245.77,141.95 247.78,141.94 249.57,141.93 251.58,141.92 253.44,141.91 255.52,141.90 257.64,141.88 260.06,141.87 262.55,141.86 265.08,141.85 267.21,141.84 269.30,141.83 271.08,141.82 273.09,141.81 274.88,141.80 276.89,141.79 278.68,141.78 280.69,141.77 282.47,141.76 284.49,141.75 286.27,141.74 288.28,141.73 290.07,141.72 292.08,141.71 293.86,141.70 295.87,141.69 297.66,141.68 299.67,141.68 301.46,141.67 303.47,141.67 305.25,141.67 307.26,141.67 309.05,141.66 311.06,141.66 312.85,141.66 314.86,141.65 316.64,141.65 318.65,141.65 320.44,141.65 322.45,141.64 324.24,141.64 326.25,141.64 328.03,141.63 330.04,141.63 331.83,141.63 333.84,141.63 335.63,141.62 337.64,141.62 339.42,141.62 341.43,141.61 343.22,141.61 345.23,141.61 347.02,141.61 349.03,141.60 350.81,141.60 352.82,141.60 354.61,141.59 356.62,141.59 358.41,141.59 360.42,141.59 362.20,141.58 364.21,141.58 366.00,141.58 368.01,141.57 369.80,141.57 371.81,141.57 373.59,141.57 375.60,141.56 377.39,141.56 379.40,141.56 381.19,141.56 383.20,141.55 384.98,141.55 386.99,141.55 388.78,141.54 390.79,141.54 392.58,141.54 394.59,141.54 396.37,141.53 398.38,141.53 400.17,141.53 402.18,141.52 403.97,141.52 405.98,141.52 407.76,141.52 409.77,141.51 411.56,141.51 413.57,141.51 415.35,141.50 417.37,141.50 419.15,141.50 421.16,141.50 422.95,141.49 424.96,141.49 426.75,141.49 428.76,141.48 430.54,141.48 432.55,141.48 434.34,141.48 436.35,141.47 438.13,141.47 440.15,141.47 441.93,141.46 443.94,141.46 445.73,141.46 447.74,141.46 449.52,141.45 451.54,141.45 453.32,141.45 455.33,141.44 457.12,141.44 459.13,141.44 460.91,141.44 462.93,141.43 464.71,141.43 466.72,141.43 468.51,141.43 470.52,141.42 472.30,141.42 474.31,141.42 476.10,141.41 478.11,141.41 479.90,141.41 481.91,141.41 483.69,141.40 485.70,141.40 487.49,141.40 489.50,141.39 491.29,141.39 493.30,141.39 495.08,141.39 497.09,141.39 498.88,141.39 500.89,141.39 502.68,141.39 504.69,141.40 506.47,141.40 508.48,141.41 510.27,141.41 512.28,141.42 514.07,141.42 516.08,141.43 517.86,141.43 519.87,141.43 521.66,141.44 523.67,141.44 525.46,141.45 527.47,141.45 529.25,141.46 531.26,141.46 533.05,141.47 535.10,141.47 536.89,141.47 539.01,141.47 540.32,141.47 541.77,141.46 M 398.30,395.23 L 399.99,392.77 402.01,389.86 404.75,385.92 407.43,382.07 410.02,378.30 412.59,374.53 415.15,370.75 417.70,366.97 420.25,363.18 422.80,359.40 425.35,355.62 427.90,351.83 430.46,348.05 433.01,344.27 435.57,340.49 438.13,336.74 440.73,332.92 443.36,329.06 446.06,325.07 448.71,321.14 451.32,317.26 453.87,313.46 456.44,309.69 459.01,305.92 461.60,302.16 464.19,298.42 466.84,294.62 469.52,290.78 472.29,286.84 475.00,282.97 477.69,279.15 480.31,275.40 482.93,271.66 485.54,267.92 488.14,264.17 490.74,260.42 493.33,256.66 495.91,252.90 498.49,249.13 501.07,245.37 503.64,241.60 506.22,237.83 508.80,234.07 511.38,230.31 513.97,226.55 516.56,222.79 519.14,219.06 521.77,215.26 524.43,211.42 527.17,207.46 529.86,203.56 532.53,199.71 535.14,195.97 537.79,192.17 540.47,188.33 543.23,184.39 545.94,180.51 548.61,176.68 550.49,173.99 552.07,171.73 M 212.37,170.08 L 213.58,171.98 214.88,173.96 216.43,176.29 217.86,178.39 219.10,180.19 220.45,182.15 221.69,183.95 223.03,185.91 224.27,187.71 225.62,189.66 226.86,191.47 228.21,193.42 229.46,195.22 230.82,197.17 232.07,198.96 233.43,200.90 234.68,202.68 236.12,204.74 237.73,207.04 239.80,209.98 242.14,213.28 244.48,216.57 246.57,219.49 248.20,221.76 249.68,223.82 250.95,225.60 252.34,227.54 253.61,229.32 255.00,231.25 256.27,233.03 257.65,234.95 258.92,236.72 260.38,238.76 262.01,241.03 264.07,243.90 266.20,246.87 268.26,249.74 269.88,252.01 271.37,254.07 272.64,255.86 274.03,257.79 275.30,259.57 276.68,261.51 277.94,263.30 279.31,265.24 280.56,267.03 281.91,268.97 283.16,270.75 284.60,272.81 286.21,275.11 288.26,278.05 290.59,281.37 292.89,284.67 294.95,287.62 296.55,289.91 298.01,291.99 299.27,293.79 300.63,295.74 301.89,297.53 303.25,299.48 304.50,301.27 305.86,303.22 307.12,305.02 308.47,306.95 309.71,308.73 311.15,310.79 312.76,313.09 314.82,316.03 317.14,319.35 319.45,322.65 321.51,325.60 323.11,327.89 324.56,329.97 325.82,331.77 327.19,333.72 328.44,335.51 329.80,337.46 331.06,339.25 332.43,341.19 333.69,342.99 335.04,344.92 336.29,346.70 337.73,348.75 339.34,351.04 341.36,353.93 343.46,356.92 345.49,359.81 347.09,362.10 348.56,364.18 349.81,365.97 351.18,367.92 352.44,369.71 353.79,371.65 355.05,373.43 356.48,375.49 358.06,377.73 359.85,380.29 361.66,382.87 363.22,385.10 364.73,387.25 366.08,389.18 367.60,391.33 368.95,393.26 369.97,394.73 370.70,395.76 M 684.24,15.14 L 685.41,16.56 686.56,17.95 688.37,20.15 689.97,22.10 691.72,24.20 693.22,26.01 694.87,27.97 696.38,29.77 698.17,31.91 700.03,34.13 702.11,36.62 704.23,39.14 706.34,41.66 708.46,44.19 710.58,46.72 712.69,49.23 714.81,51.77 716.90,54.25 718.76,56.47 720.55,58.61 722.06,60.41 723.70,62.37 725.21,64.17 726.90,66.18 728.40,67.98 730.05,69.94 731.56,71.74 733.25,73.76 734.75,75.56 736.40,77.52 737.91,79.32 739.59,81.33 741.10,83.13 742.75,85.09 744.26,86.89 745.95,88.91 747.45,90.71 749.10,92.67 750.61,94.47 752.30,96.48 753.80,98.28 755.57,100.39 756.74,101.79 758.09,103.41 M 523.58,456.22 L 524.66,454.72 525.97,452.89 528.09,449.95 530.23,446.98 532.29,444.11 533.92,441.84 535.40,439.78 536.68,438.00 538.06,436.08 539.34,434.30 540.73,432.37 542.01,430.59 543.40,428.67 544.68,426.89 546.07,424.98 547.35,423.21 548.82,421.18 550.42,418.96 552.25,416.42 554.10,413.87 555.70,411.65 557.18,409.60 558.47,407.82 559.85,405.90 561.13,404.13 562.61,402.09 564.25,399.82 566.31,396.96 568.45,394.00 570.52,391.14 572.15,388.88 573.64,386.82 574.92,385.04 576.31,383.13 577.59,381.36 579.06,379.32 580.70,377.05 582.77,374.19 584.91,371.23 586.97,368.37 588.61,366.10 590.10,364.04 591.38,362.27 592.77,360.34 594.05,358.56 595.43,356.63 596.69,354.84 598.06,352.90 599.31,351.10 600.66,349.17 601.91,347.38 603.35,345.32 604.96,343.02 607.02,340.07 609.37,336.70 611.91,333.07 614.25,329.71 616.31,326.76 617.91,324.47 619.36,322.39 620.62,320.59 621.98,318.64 623.23,316.85 624.59,314.90 625.85,313.11 627.21,311.16 628.46,309.36 629.82,307.42 631.07,305.62 632.42,303.69 633.67,301.90 635.10,299.85 636.71,297.55 638.77,294.60 641.09,291.28 643.39,287.98 645.45,285.03 647.05,282.74 648.51,280.65 649.76,278.86 651.12,276.91 652.38,275.11 653.74,273.16 654.99,271.37 656.35,269.42 657.60,267.63 658.96,265.68 660.22,263.89 661.57,261.95 662.81,260.17 664.25,258.11 665.86,255.81 667.92,252.86 670.27,249.49 672.81,245.85 675.15,242.50 677.21,239.55 678.80,237.26 680.26,235.17 681.51,233.37 682.87,231.42 684.12,229.62 685.48,227.67 686.73,225.88 688.09,223.93 689.34,222.13 690.69,220.20 691.93,218.41 693.36,216.35 694.97,214.05 697.02,211.10 699.34,207.78 701.64,204.47 703.69,201.52 705.29,199.23 706.74,197.14 707.99,195.34 709.35,193.39 710.60,191.59 711.96,189.65 713.21,187.85 714.57,185.90 715.82,184.10 717.16,182.16 718.40,180.37 719.83,178.31 721.42,176.00 723.46,173.04 725.77,169.71 728.06,166.40 730.10,163.44 731.69,161.14 733.13,159.05 734.38,157.25 735.73,155.29 736.98,153.49 738.33,151.54 739.57,149.74 740.92,147.79 742.17,145.98 743.51,144.04 744.75,142.25 746.18,140.18 747.77,137.87 749.81,134.92 752.12,131.59 754.41,128.27 756.45,125.31 758.05,123.01 759.10,121.49 759.83,120.45 M 578.41,133.44 L 579.19,132.35 580.30,130.80 581.56,128.99 583.13,126.71 584.68,124.44 586.46,121.81 588.11,119.37 589.55,117.25 590.91,115.24 592.12,113.45 593.43,111.49 594.65,109.69 596.05,107.62 597.63,105.29 599.64,102.31 601.96,98.89 604.48,95.16 607.04,91.38 609.59,87.61 612.10,83.89 614.39,80.50 616.40,77.52 617.95,75.20 619.37,73.09 620.60,71.27 621.93,69.30 623.15,67.48 624.48,65.51 625.70,63.70 627.03,61.73 628.25,59.92 629.58,57.95 630.80,56.13 632.13,54.16 633.35,52.35 634.68,50.38 635.91,48.57 637.23,46.60 638.46,44.78 639.79,42.82 641.01,41.00 642.34,39.03 643.56,37.22 644.88,35.26 646.10,33.45 647.51,31.37 648.46,29.95 649.49,28.42 M 115.38,27.08 L 116.56,28.83 117.85,30.74 119.38,33.00 120.80,35.11 122.03,36.93 123.36,38.90 124.58,40.72 125.90,42.69 127.13,44.51 128.45,46.48 129.67,48.29 131.00,50.26 132.22,52.08 133.55,54.05 134.77,55.86 136.09,57.83 137.32,59.65 138.64,61.62 139.86,63.43 141.19,65.40 142.41,67.22 143.74,69.19 144.96,71.00 146.28,72.98 147.51,74.79 148.83,76.76 150.05,78.58 151.38,80.55 152.60,82.36 153.94,84.33 155.17,86.13 156.51,88.10 157.74,89.90 159.08,91.86 160.32,93.67 161.66,95.63 162.90,97.43 164.24,99.39 165.48,101.20 166.82,103.16 168.05,104.96 169.39,106.92 170.63,108.73 171.96,110.67 173.19,112.47 174.60,114.54 176.19,116.85 178.18,119.74 180.25,122.75 182.33,125.78 184.23,128.53 186.11,131.26 187.46,133.22 188.51,134.75 M 8.86,126.39 L 10.34,128.73 12.16,131.42 14.78,135.25 17.49,139.08 20.28,143.00 23.02,146.85 25.73,150.65 28.37,154.37 31.02,158.09 33.66,161.80 36.34,165.58 39.06,169.41 41.85,173.33 44.59,177.18 47.30,180.99 49.94,184.71 52.59,188.43 55.23,192.14 57.91,195.92 60.63,199.74 63.41,203.67 66.15,207.52 68.85,211.33 71.49,215.05 74.17,218.83 76.89,222.66 79.68,226.59 82.41,230.44 85.11,234.24 87.75,237.97 90.38,241.70 93.01,245.43 95.64,249.16 98.26,252.89 100.88,256.63 103.49,260.38 106.10,264.12 108.69,267.85 111.34,271.66 114.02,275.50 116.77,279.45 119.48,283.32 122.16,287.15 124.79,290.90 127.41,294.63 130.03,298.37 132.65,302.11 135.27,305.84 137.89,309.58 140.51,313.32 143.12,317.03 145.79,320.81 148.49,324.63 151.28,328.55 154.03,332.41 156.73,336.21 159.43,339.99 162.14,343.81 164.93,347.73 167.68,351.59 170.37,355.39 173.06,359.18 175.77,363.01 178.55,366.94 181.28,370.80 183.97,374.60 186.66,378.40 189.34,382.17 192.05,385.98 194.70,389.70 197.39,393.45 200.15,397.28 202.88,401.10 205.64,404.97 208.35,408.81 211.12,412.75 213.81,416.62 216.47,420.45 219.01,424.16 221.49,427.84 223.90,431.45 226.33,435.11 228.79,438.83 231.29,442.61 233.86,446.47 236.46,450.38 238.38,453.27 239.99,455.69 M 10.44,99.79 L 12.26,97.60 14.41,95.02 17.53,91.26 20.63,87.53 23.84,83.67 26.95,79.93 30.16,76.07 33.27,72.33 36.48,68.47 39.59,64.73 42.80,60.87 45.91,57.13 49.12,53.27 52.23,49.53 55.43,45.67 58.55,41.93 61.75,38.07 64.87,34.33 68.06,30.49 71.23,26.67 73.56,23.87 75.56,21.46 M 123.32,0.47 L 125.47,0.47 127.86,0.46 130.78,0.46 133.08,0.46 135.15,0.46 136.94,0.45 138.95,0.45 140.73,0.45 142.75,0.44 144.53,0.44 146.54,0.44 148.33,0.44 150.34,0.43 152.12,0.43 154.13,0.43 155.92,0.42 157.93,0.42 159.72,0.42 161.73,0.41 163.51,0.41 165.53,0.41 167.31,0.40 169.32,0.40 171.11,0.40 173.12,0.39 174.90,0.39 176.91,0.39 178.70,0.39 180.71,0.38 182.50,0.38 184.51,0.38 186.29,0.37 188.30,0.37 190.09,0.37 192.10,0.36 193.89,0.36 195.90,0.36 197.68,0.35 199.69,0.35 201.48,0.35 203.49,0.34 205.28,0.34 207.29,0.34 209.07,0.34 211.08,0.33 212.87,0.33 214.88,0.33 216.67,0.32 218.68,0.32 220.46,0.32 222.47,0.32 224.26,0.32 226.27,0.32 228.06,0.32 230.07,0.32 231.85,0.32 233.86,0.32 235.65,0.32 237.66,0.32 239.45,0.32 241.46,0.32 243.24,0.32 245.25,0.32 247.04,0.32 249.05,0.32 250.84,0.32 252.85,0.32 254.63,0.32 256.64,0.32 258.43,0.32 260.44,0.32 262.23,0.32 264.24,0.32 266.02,0.32 268.03,0.32 269.82,0.32 271.83,0.32 273.62,0.32 275.63,0.32 277.41,0.32 279.42,0.32 281.21,0.32 283.22,0.32 285.01,0.32 287.02,0.32 288.80,0.32 290.81,0.32 292.60,0.32 294.61,0.32 296.40,0.32 298.41,0.32 300.19,0.32 302.20,0.32 303.99,0.32 306.00,0.32 307.79,0.32 309.80,0.32 311.58,0.32 313.59,0.32 315.38,0.32 317.39,0.32 319.17,0.32 321.18,0.32 322.97,0.32 324.98,0.32 326.77,0.32 328.78,0.32 330.57,0.32 332.58,0.32 334.36,0.32 336.37,0.32 338.16,0.32 340.17,0.32 341.95,0.32 343.96,0.32 345.75,0.32 347.76,0.32 349.55,0.32 351.56,0.32 353.34,0.32 355.35,0.32 357.14,0.32 359.15,0.32 360.94,0.32 362.95,0.32 364.73,0.32 366.74,0.32 368.53,0.32 370.54,0.32 372.33,0.32 374.34,0.32 376.12,0.32 378.13,0.32 379.92,0.32 381.93,0.32 383.72,0.32 385.73,0.32 387.51,0.32 389.52,0.32 391.31,0.32 393.32,0.32 395.11,0.32 397.12,0.32 398.90,0.32 400.91,0.32 402.70,0.32 404.71,0.32 406.50,0.32 408.51,0.32 410.29,0.32 412.30,0.32 414.09,0.32 416.10,0.32 417.89,0.32 419.90,0.32 421.68,0.32 423.69,0.32 425.48,0.32 427.49,0.32 429.28,0.32 431.29,0.32 433.07,0.32 435.08,0.32 436.87,0.32 438.88,0.32 440.67,0.32 442.68,0.32 444.46,0.32 446.47,0.32 448.26,0.32 450.27,0.32 452.06,0.32 454.07,0.32 455.85,0.32 457.86,0.32 459.65,0.32 461.66,0.32 463.45,0.32 465.46,0.32 467.24,0.32 469.25,0.32 471.04,0.32 473.05,0.32 474.84,0.32 476.85,0.32 478.63,0.32 480.64,0.32 482.43,0.32 484.44,0.32 486.22,0.32 488.24,0.32 490.02,0.32 492.03,0.32 493.82,0.32 495.83,0.32 497.62,0.32 499.63,0.32 501.41,0.32 503.42,0.32 505.21,0.32 507.22,0.32 509.00,0.32 511.02,0.32 512.80,0.32 514.81,0.32 516.60,0.32 518.61,0.32 520.39,0.32 522.40,0.32 524.19,0.32 526.20,0.32 527.99,0.32 530.00,0.32 531.78,0.32 533.80,0.32 535.58,0.32 537.59,0.32 539.38,0.32 541.39,0.32 543.17,0.32 545.18,0.32 546.97,0.32 548.98,0.32 550.77,0.32 552.78,0.32 554.56,0.32 556.57,0.32 558.36,0.32 560.37,0.32 562.16,0.32 564.17,0.32 565.95,0.32 567.96,0.32 569.75,0.32 571.76,0.32 573.55,0.32 575.56,0.32 577.34,0.32 579.35,0.32 581.14,0.32 583.15,0.32 584.94,0.32 586.95,0.32 588.73,0.32 590.74,0.32 592.53,0.32 594.54,0.32 596.33,0.32 598.34,0.32 600.12,0.32 602.13,0.32 603.92,0.32 605.93,0.32 607.72,0.32 609.73,0.32 611.51,0.32 613.52,0.32 615.31,0.32 617.32,0.32 619.11,0.32 621.12,0.33 622.90,0.35 624.93,0.37 626.70,0.41 628.76,0.45 630.53,0.50 632.65,0.58 634.40,0.67 636.65,0.77 638.00,0.81 639.69,0.85 M 758.09,103.41 L 765.50,112.30 M 759.83,120.45 L 765.50,112.30 M 8.86,126.39 L 0.00,112.34 M 10.44,99.79 L 0.00,112.34 M 765.50,112.30 L 765.50,112.30 M 0.00,112.34 L 0.00,112.34 M 394.23,433.43 L 384.83,432.83 M 374.27,433.47 L 384.83,432.83 M 398.30,395.23 L 384.83,432.83 M 370.70,395.76 L 384.83,432.83 M 505.83,465.83 L 515.73,471.53 M 527.10,479.83 L 515.73,471.53 M 523.58,456.22 L 515.73,471.53 M 238.20,481.72 L 251.10,471.80 M 264.57,464.34 L 251.10,471.80 M 239.99,455.69 L 251.10,471.80 M 188.51,134.75 L 194.06,142.16 M 220.73,142.07 L 194.06,142.16 M 212.37,170.08 L 194.06,142.16 M 578.41,133.44 L 573.09,141.17 M 541.77,141.46 L 573.09,141.17 M 552.07,171.73 L 573.09,141.17 M 649.49,28.42 L 669.88,0.97 M 639.69,0.85 L 669.88,0.97 M 684.24,15.14 L 669.88,0.97 M 115.38,27.08 L 95.58,0.00 M 75.56,21.46 L 95.58,0.00 M 123.32,0.47 L 95.58,0.00 M 396.59,552.61 L 397.14,553.76 397.88,555.31 398.83,557.29 399.89,559.51 400.97,561.77 402.16,564.26 403.38,566.82 404.63,569.43 405.99,572.28 407.36,575.13 408.72,577.99 409.97,580.60 411.19,583.16 412.42,585.72 413.66,588.33 415.03,591.18 416.39,594.04 417.75,596.89 419.04,599.58 420.33,602.29 421.63,605.01 422.79,607.44 423.59,609.11 424.13,610.25 M 432.50,618.55 L 434.27,618.89 435.82,619.17 438.28,619.61 440.18,619.94 442.35,620.33 444.17,620.65 446.34,620.99 448.19,621.27 450.33,621.60 452.46,621.92 454.92,622.29 457.46,622.67 459.98,623.06 462.53,623.44 465.08,623.83 467.61,624.21 470.16,624.60 472.62,624.97 474.66,625.28 476.67,625.58 478.39,625.85 480.50,626.17 482.35,626.45 484.49,626.77 486.62,627.09 489.06,627.46 491.60,627.84 494.18,628.23 497.16,628.67 500.29,629.14 502.73,629.50 504.53,629.77 M 458.21,703.12 L 459.68,701.58 461.06,700.23 463.19,698.15 465.02,696.41 467.07,694.45 468.89,692.70 470.94,690.73 472.77,688.98 474.82,687.01 476.64,685.27 478.69,683.30 480.49,681.57 482.45,679.69 484.14,678.07 485.98,676.30 487.69,674.67 489.67,672.77 491.49,671.02 493.55,669.04 495.37,667.29 497.41,665.32 499.23,663.56 501.27,661.58 503.08,659.82 504.54,658.41 505.56,657.42 M 456.89,714.99 L 457.25,716.64 457.64,718.46 457.98,720.08 M 383.56,759.56 L 385.89,760.26 388.68,761.52 392.54,763.34 396.40,765.42 400.22,767.50 403.96,769.54 407.73,771.60 411.48,773.64 415.30,775.73 419.11,777.81 422.92,779.89 426.74,781.97 430.54,784.05 434.28,786.09 438.05,788.15 441.79,790.19 444.54,791.70 446.84,792.96 M 319.30,792.15 L 321.51,790.96 324.22,789.50 327.98,787.46 331.81,785.39 335.63,783.33 339.44,781.27 343.27,779.20 347.08,777.14 350.83,775.12 354.61,773.07 358.37,771.04 362.19,768.97 366.01,766.92 368.71,765.46 371.03,764.23 M 295.57,776.05 L 295.84,774.80 296.21,773.17 296.75,770.74 297.33,768.15 297.81,766.00 298.29,763.85 298.76,761.75 299.39,758.94 300.05,755.98 300.71,753.04 301.22,750.79 301.70,748.65 302.17,746.53 302.72,744.06 303.29,741.54 303.77,739.41 304.24,737.28 304.72,735.16 305.27,732.69 305.85,730.11 306.33,727.97 306.81,725.81 307.28,723.71 307.91,720.90 308.41,718.67 308.90,716.54 M 260.49,656.53 L 261.81,657.79 263.12,659.04 265.18,661.01 267.00,662.75 269.06,664.72 270.87,666.45 272.95,668.43 275.01,670.40 277.35,672.63 279.70,674.88 281.83,676.91 283.94,678.92 285.77,680.66 287.86,682.64 289.94,684.61 292.29,686.84 294.65,689.07 296.77,691.09 298.89,693.10 300.74,694.86 302.77,696.79 304.04,698.01 305.24,699.17 M 267.79,628.86 L 269.57,628.62 271.43,628.38 273.59,628.09 275.72,627.80 277.57,627.55 279.69,627.27 281.41,627.03 283.35,626.77 284.97,626.55 286.99,626.28 288.73,626.05 290.82,625.77 292.59,625.53 294.70,625.25 296.55,625.00 298.67,624.71 300.39,624.48 302.33,624.22 303.95,624.00 305.97,623.73 307.71,623.49 309.82,623.21 311.55,622.97 313.63,622.69 315.36,622.46 317.43,622.19 319.20,621.96 321.25,621.70 323.12,621.46 325.26,621.17 327.20,620.90 328.72,620.69 329.74,620.54 M 341.59,613.72 L 342.34,612.17 343.06,610.66 344.14,608.41 345.11,606.40 346.19,604.16 347.14,602.18 348.14,600.08 348.96,598.39 349.93,596.35 350.77,594.60 351.79,592.47 352.60,590.79 353.60,588.69 354.44,586.95 355.46,584.82 356.27,583.13 357.27,581.04 358.11,579.30 359.13,577.16 359.96,575.42 360.96,573.33 361.83,571.53 362.84,569.41 363.84,567.34 364.96,564.99 366.09,562.63 367.12,560.47 368.17,558.27 369.12,556.29 370.21,553.99 370.95,552.46 371.70,550.87 M 396.59,552.61 L 383.71,525.66 M 424.13,610.25 L 427.65,617.60 M 432.50,618.55 L 427.65,617.60 M 504.53,629.77 L 530.13,633.59 M 458.21,703.12 L 455.04,706.42 M 505.56,657.42 L 530.13,633.59 M 456.89,714.99 L 455.04,706.42 M 383.56,759.56 L 381.13,758.84 M 446.84,792.96 L 448.49,793.86 M 319.30,792.15 L 288.45,808.82 M 371.03,764.23 L 381.13,758.84 M 295.57,776.05 L 288.45,808.82 M 308.90,716.54 L 311.48,705.17 M 260.49,656.53 L 236.01,633.13 M 305.24,699.17 L 311.48,705.17 M 267.79,628.86 L 236.01,633.13 M 329.74,620.54 L 338.96,619.17 M 341.59,613.72 L 338.96,619.17 M 371.70,550.87 L 383.71,525.66 383.71,525.66 M 427.65,617.60 L 427.65,617.60 M 530.13,633.59 L 530.13,633.59 M 455.04,706.42 L 455.04,706.42 M 381.13,758.84 L 381.13,758.84 M 288.45,808.82 L 288.45,808.82 M 311.48,705.17 L 311.48,705.17 M 236.01,633.13 L 236.01,633.13 M 338.96,619.17 L 338.96,619.17 M 394.23,433.43 L 395.97,433.55 397.74,433.64 400.25,433.80 402.38,433.90 404.55,434.05 406.44,434.19 408.53,434.40 410.34,434.60 412.46,434.87 414.61,435.14 417.09,435.46 419.64,435.80 422.17,436.16 424.72,436.53 427.27,436.92 429.79,437.33 432.32,437.78 434.84,438.26 437.34,438.79 439.85,439.35 442.35,439.96 444.88,440.60 447.82,441.39 451.15,442.34 454.89,443.47 458.71,444.68 462.49,445.96 466.19,447.28 469.54,448.54 472.46,449.69 474.71,450.61 476.86,451.50 478.96,452.41 481.45,453.50 484.02,454.66 486.62,455.85 489.19,457.07 491.74,458.30 494.27,459.54 496.80,460.81 499.25,462.06 501.88,463.50 503.80,464.59 505.83,465.83 M 238.20,481.72 L 236.63,482.92 235.16,484.06 232.82,485.91 230.54,487.75 228.03,489.83 225.56,491.92 223.40,493.79 221.24,495.71 219.37,497.41 217.34,499.30 215.61,500.93 213.79,502.70 212.16,504.30 210.38,506.10 208.78,507.74 207.02,509.57 205.40,511.30 203.52,513.35 201.83,515.23 199.95,517.38 198.41,519.18 196.71,521.22 195.34,522.88 193.69,524.94 192.32,526.70 190.78,528.69 189.54,530.32 188.06,532.33 186.49,534.51 184.64,537.13 182.83,539.74 181.30,542.01 179.91,544.12 178.86,545.76 177.69,547.60 176.72,549.18 175.49,551.23 174.39,553.09 173.14,555.24 172.12,557.04 170.96,559.11 169.94,561.00 168.79,563.16 167.87,564.91 166.90,566.82 166.10,568.43 165.11,570.45 164.06,572.68 162.75,575.52 161.27,578.81 159.73,582.35 158.34,585.66 157.16,588.57 156.29,590.80 155.46,593.04 154.64,595.33 153.66,598.16 152.72,600.97 151.86,603.63 151.19,605.79 150.56,607.91 150.02,609.79 149.43,611.92 148.88,614.02 148.27,616.38 147.68,618.80 147.17,620.94 146.69,623.07 146.32,624.78 145.90,626.77 145.55,628.49 145.15,630.58 144.83,632.32 144.47,634.34 144.18,636.07 143.83,638.26 143.51,640.44 143.15,642.92 142.84,645.29 142.58,647.34 142.34,649.35 142.15,651.08 141.94,653.09 141.77,654.87 141.60,656.88 141.47,658.69 141.35,660.77 141.27,662.66 141.20,664.78 141.15,666.54 141.11,668.47 141.08,670.10 141.06,672.07 141.06,673.83 141.07,675.87 141.09,677.65 141.12,679.66 141.15,681.40 141.19,683.41 141.23,685.16 141.28,687.23 141.33,689.00 141.42,691.05 141.52,692.82 141.67,694.85 141.81,696.64 141.99,698.67 142.15,700.43 142.34,702.40 142.51,704.02 142.74,705.97 142.94,707.70 143.21,709.81 143.44,711.54 143.72,713.56 143.98,715.30 144.31,717.45 144.61,719.29 144.98,721.43 145.30,723.16 145.69,725.22 146.03,726.93 146.46,729.01 146.82,730.71 147.29,732.77 147.74,734.66 148.30,736.93 148.90,739.25 149.62,741.94 150.51,745.06 151.55,748.61 152.72,752.40 153.97,756.21 155.27,759.98 156.61,763.67 157.87,767.00 159.01,769.90 159.93,772.15 160.79,774.17 161.55,775.94 162.42,777.92 163.40,780.07 164.52,782.48 165.72,784.99 166.78,787.16 167.90,789.37 169.00,791.49 170.32,793.97 171.67,796.45 172.89,798.65 174.13,800.81 175.34,802.85 176.77,805.24 178.30,807.70 179.90,810.24 181.56,812.78 183.20,815.24 184.72,817.47 186.25,819.66 187.61,821.57 189.07,823.57 190.38,825.32 191.91,827.31 193.60,829.46 195.55,831.89 197.60,834.39 199.45,836.59 201.27,838.71 202.83,840.48 204.54,842.38 206.13,844.10 207.98,846.07 209.71,847.87 211.72,849.91 213.78,851.93 216.10,854.19 218.46,856.41 220.59,858.38 222.67,860.25 224.43,861.80 226.37,863.46 228.17,864.97 230.20,866.65 232.02,868.12 234.03,869.71 235.89,871.15 237.98,872.73 239.86,874.13 241.83,875.56 243.60,876.83 245.54,878.19 247.34,879.42 249.32,880.74 251.13,881.94 253.18,883.25 255.28,884.57 257.64,886.01 260.01,887.44 262.17,888.71 264.29,889.93 266.19,890.99 268.33,892.15 270.58,893.35 273.31,894.76 276.14,896.18 278.98,897.58 281.66,898.84 284.55,900.16 287.44,901.44 290.36,902.68 293.10,903.81 296.04,904.97 299.00,906.10 301.85,907.16 304.16,907.99 306.26,908.72 308.09,909.33 310.15,910.00 312.24,910.65 314.57,911.36 316.92,912.05 319.00,912.65 321.11,913.22 322.95,913.70 325.07,914.24 327.26,914.76 329.66,915.32 332.10,915.86 334.20,916.31 336.34,916.75 338.11,917.09 340.16,917.48 341.90,917.79 343.99,918.14 345.70,918.43 347.72,918.74 349.43,919.00 351.52,919.29 353.31,919.52 355.33,919.77 357.05,919.97 359.14,920.20 360.97,920.39 363.06,920.58 364.79,920.73 366.78,920.89 368.51,921.01 370.50,921.14 372.23,921.24 374.27,921.34 376.08,921.41 378.13,921.49 379.92,921.54 381.93,921.58 383.72,921.60 385.73,921.60 387.51,921.59 389.52,921.57 391.31,921.54 393.32,921.48 395.11,921.42 397.16,921.33 398.96,921.25 401.00,921.13 402.72,921.03 404.71,920.88 406.44,920.75 408.48,920.56 410.24,920.39 412.35,920.16 414.07,919.96 416.10,919.71 417.79,919.49 419.88,919.19 421.69,918.92 423.84,918.57 425.93,918.21 428.37,917.77 430.84,917.30 433.05,916.86 435.19,916.41 436.88,916.04 438.81,915.59 440.49,915.18 442.56,914.66 444.41,914.19 446.49,913.63 448.26,913.15 M 625.54,656.76 L 625.46,655.62 625.29,653.56 625.12,651.76 624.91,649.70 624.72,648.00 624.48,645.97 624.26,644.25 623.97,642.15 623.71,640.40 623.40,638.30 623.05,636.16 622.64,633.73 622.21,631.27 621.82,629.16 621.39,626.95 620.93,624.74 620.40,622.28 619.84,619.85 619.35,617.75 618.80,615.56 618.23,613.38 617.58,610.95 616.91,608.54 616.31,606.47 615.68,604.37 615.12,602.55 614.48,600.54 613.89,598.72 613.23,596.77 612.59,594.96 611.85,592.90 610.99,590.60 609.87,587.70 608.57,584.44 607.23,581.20 605.95,578.23 604.77,575.59 603.59,573.02 602.36,570.46 601.04,567.81 599.51,564.83 597.70,561.46 595.74,557.91 593.85,554.59 592.18,551.76 590.82,549.50 589.53,547.44 588.36,545.60 586.98,543.48 585.43,541.15 583.39,538.19 581.06,534.89 578.69,531.62 576.54,528.74 574.84,526.52 573.22,524.45 571.74,522.62 570.07,520.59 568.57,518.79 566.91,516.84 565.37,515.06 563.51,512.97 561.55,510.84 559.34,508.46 557.10,506.12 555.09,504.04 553.05,502.00 551.25,500.24 549.28,498.36 547.57,496.75 545.68,495.03 543.92,493.47 541.84,491.68 539.91,490.05 537.72,488.23 535.78,486.64 533.67,484.93 531.84,483.48 529.82,481.90 528.49,480.89 527.10,479.83 M 264.57,464.34 L 266.04,463.54 267.48,462.77 269.57,461.67 271.38,460.74 273.37,459.75 275.49,458.70 277.93,457.52 280.50,456.31 283.07,455.12 285.65,453.96 288.25,452.83 290.90,451.71 293.87,450.49 297.18,449.20 300.83,447.82 304.59,446.47 308.36,445.19 312.05,444.01 315.39,442.99 318.30,442.14 320.59,441.51 322.78,440.93 324.88,440.41 327.26,439.84 329.71,439.27 332.32,438.71 335.26,438.14 338.21,437.60 341.16,437.10 343.70,436.71 346.21,436.35 348.65,436.03 350.82,435.75 353.03,435.48 355.13,435.23 357.58,434.94 360.02,434.66 362.18,434.41 364.50,434.17 366.92,433.96 370.01,433.73 372.33,433.59 374.27,433.47 M 220.73,142.07 L 222.62,142.07 224.50,142.06 226.74,142.05 228.80,142.04 230.59,142.03 232.60,142.02 234.38,142.01 236.39,142.00 238.18,141.99 240.19,141.98 241.98,141.97 243.99,141.96 245.77,141.95 247.78,141.94 249.57,141.93 251.58,141.92 253.44,141.91 255.52,141.90 257.64,141.88 260.06,141.87 262.55,141.86 265.08,141.85 267.21,141.84 269.30,141.83 271.08,141.82 273.09,141.81 274.88,141.80 276.89,141.79 278.68,141.78 280.69,141.77 282.47,141.76 284.49,141.75 286.27,141.74 288.28,141.73 290.07,141.72 292.08,141.71 293.86,141.70 295.87,141.69 297.66,141.68 299.67,141.68 301.46,141.67 303.47,141.67 305.25,141.67 307.26,141.67 309.05,141.66 311.06,141.66 312.85,141.66 314.86,141.65 316.64,141.65 318.65,141.65 320.44,141.65 322.45,141.64 324.24,141.64 326.25,141.64 328.03,141.63 330.04,141.63 331.83,141.63 333.84,141.63 335.63,141.62 337.64,141.62 339.42,141.62 341.43,141.61 343.22,141.61 345.23,141.61 347.02,141.61 349.03,141.60 350.81,141.60 352.82,141.60 354.61,141.59 356.62,141.59 358.41,141.59 360.42,141.59 362.20,141.58 364.21,141.58 366.00,141.58 368.01,141.57 369.80,141.57 371.81,141.57 373.59,141.57 375.60,141.56 377.39,141.56 379.40,141.56 381.19,141.56 383.20,141.55 384.98,141.55 386.99,141.55 388.78,141.54 390.79,141.54 392.58,141.54 394.59,141.54 396.37,141.53 398.38,141.53 400.17,141.53 402.18,141.52 403.97,141.52 405.98,141.52 407.76,141.52 409.77,141.51 411.56,141.51 413.57,141.51 415.35,141.50 417.37,141.50 419.15,141.50 421.16,141.50 422.95,141.49 424.96,141.49 426.75,141.49 428.76,141.48 430.54,141.48 432.55,141.48 434.34,141.48 436.35,141.47 438.13,141.47 440.15,141.47 441.93,141.46 443.94,141.46 445.73,141.46 447.74,141.46 449.52,141.45 451.54,141.45 453.32,141.45 455.33,141.44 457.12,141.44 459.13,141.44 460.91,141.44 462.93,141.43 464.71,141.43 466.72,141.43 468.51,141.43 470.52,141.42 472.30,141.42 474.31,141.42 476.10,141.41 478.11,141.41 479.90,141.41 481.91,141.41 483.69,141.40 485.70,141.40 487.49,141.40 489.50,141.39 491.29,141.39 493.30,141.39 495.08,141.39 497.09,141.39 498.88,141.39 500.89,141.39 502.68,141.39 504.69,141.40 506.47,141.40 508.48,141.41 510.27,141.41 512.28,141.42 514.07,141.42 516.08,141.43 517.86,141.43 519.87,141.43 521.66,141.44 523.67,141.44 525.46,141.45 527.47,141.45 529.25,141.46 531.26,141.46 533.05,141.47 535.10,141.47 536.89,141.47 539.01,141.47 540.32,141.47 541.77,141.46 M 398.30,395.23 L 399.99,392.77 402.01,389.86 404.75,385.92 407.43,382.07 410.02,378.30 412.59,374.53 415.15,370.75 417.70,366.97 420.25,363.18 422.80,359.40 425.35,355.62 427.90,351.83 430.46,348.05 433.01,344.27 435.57,340.49 438.13,336.74 440.73,332.92 443.36,329.06 446.06,325.07 448.71,321.14 451.32,317.26 453.87,313.46 456.44,309.69 459.01,305.92 461.60,302.16 464.19,298.42 466.84,294.62 469.52,290.78 472.29,286.84 475.00,282.97 477.69,279.15 480.31,275.40 482.93,271.66 485.54,267.92 488.14,264.17 490.74,260.42 493.33,256.66 495.91,252.90 498.49,249.13 501.07,245.37 503.64,241.60 506.22,237.83 508.80,234.07 511.38,230.31 513.97,226.55 516.56,222.79 519.14,219.06 521.77,215.26 524.43,211.42 527.17,207.46 529.86,203.56 532.53,199.71 535.14,195.97 537.79,192.17 540.47,188.33 543.23,184.39 545.94,180.51 548.61,176.68 550.49,173.99 552.07,171.73 M 212.37,170.08 L 213.58,171.98 214.88,173.96 216.43,176.29 217.86,178.39 219.10,180.19 220.45,182.15 221.69,183.95 223.03,185.91 224.27,187.71 225.62,189.66 226.86,191.47 228.21,193.42 229.46,195.22 230.82,197.17 232.07,198.96 233.43,200.90 234.68,202.68 236.12,204.74 237.73,207.04 239.80,209.98 242.14,213.28 244.48,216.57 246.57,219.49 248.20,221.76 249.68,223.82 250.95,225.60 252.34,227.54 253.61,229.32 255.00,231.25 256.27,233.03 257.65,234.95 258.92,236.72 260.38,238.76 262.01,241.03 264.07,243.90 266.20,246.87 268.26,249.74 269.88,252.01 271.37,254.07 272.64,255.86 274.03,257.79 275.30,259.57 276.68,261.51 277.94,263.30 279.31,265.24 280.56,267.03 281.91,268.97 283.16,270.75 284.60,272.81 286.21,275.11 288.26,278.05 290.59,281.37 292.89,284.67 294.95,287.62 296.55,289.91 298.01,291.99 299.27,293.79 300.63,295.74 301.89,297.53 303.25,299.48 304.50,301.27 305.86,303.22 307.12,305.02 308.47,306.95 309.71,308.73 311.15,310.79 312.76,313.09 314.82,316.03 317.14,319.35 319.45,322.65 321.51,325.60 323.11,327.89 324.56,329.97 325.82,331.77 327.19,333.72 328.44,335.51 329.80,337.46 331.06,339.25 332.43,341.19 333.69,342.99 335.04,344.92 336.29,346.70 337.73,348.75 339.34,351.04 341.36,353.93 343.46,356.92 345.49,359.81 347.09,362.10 348.56,364.18 349.81,365.97 351.18,367.92 352.44,369.71 353.79,371.65 355.05,373.43 356.48,375.49 358.06,377.73 359.85,380.29 361.66,382.87 363.22,385.10 364.73,387.25 366.08,389.18 367.60,391.33 368.95,393.26 369.97,394.73 370.70,395.76 M 684.24,15.14 L 685.41,16.56 686.56,17.95 688.37,20.15 689.97,22.10 691.72,24.20 693.22,26.01 694.87,27.97 696.38,29.77 698.17,31.91 700.03,34.13 702.11,36.62 704.23,39.14 706.34,41.66 708.46,44.19 710.58,46.72 712.69,49.23 714.81,51.77 716.90,54.25 718.76,56.47 720.55,58.61 722.06,60.41 723.70,62.37 725.21,64.17 726.90,66.18 728.40,67.98 730.05,69.94 731.56,71.74 733.25,73.76 734.75,75.56 736.40,77.52 737.91,79.32 739.59,81.33 741.10,83.13 742.75,85.09 744.26,86.89 745.95,88.91 747.45,90.71 749.10,92.67 750.61,94.47 752.30,96.48 753.80,98.28 755.57,100.39 756.74,101.79 758.09,103.41 M 523.58,456.22 L 524.66,454.72 525.97,452.89 528.09,449.95 530.23,446.98 532.29,444.11 533.92,441.84 535.40,439.78 536.68,438.00 538.06,436.08 539.34,434.30 540.73,432.37 542.01,430.59 543.40,428.67 544.68,426.89 546.07,424.98 547.35,423.21 548.82,421.18 550.42,418.96 552.25,416.42 554.10,413.87 555.70,411.65 557.18,409.60 558.47,407.82 559.85,405.90 561.13,404.13 562.61,402.09 564.25,399.82 566.31,396.96 568.45,394.00 570.52,391.14 572.15,388.88 573.64,386.82 574.92,385.04 576.31,383.13 577.59,381.36 579.06,379.32 580.70,377.05 582.77,374.19 584.91,371.23 586.97,368.37 588.61,366.10 590.10,364.04 591.38,362.27 592.77,360.34 594.05,358.56 595.43,356.63 596.69,354.84 598.06,352.90 599.31,351.10 600.66,349.17 601.91,347.38 603.35,345.32 604.96,343.02 607.02,340.07 609.37,336.70 611.91,333.07 614.25,329.71 616.31,326.76 617.91,324.47 619.36,322.39 620.62,320.59 621.98,318.64 623.23,316.85 624.59,314.90 625.85,313.11 627.21,311.16 628.46,309.36 629.82,307.42 631.07,305.62 632.42,303.69 633.67,301.90 635.10,299.85 636.71,297.55 638.77,294.60 641.09,291.28 643.39,287.98 645.45,285.03 647.05,282.74 648.51,280.65 649.76,278.86 651.12,276.91 652.38,275.11 653.74,273.16 654.99,271.37 656.35,269.42 657.60,267.63 658.96,265.68 660.22,263.89 661.57,261.95 662.81,260.17 664.25,258.11 665.86,255.81 667.92,252.86 670.27,249.49 672.81,245.85 675.15,242.50 677.21,239.55 678.80,237.26 680.26,235.17 681.51,233.37 682.87,231.42 684.12,229.62 685.48,227.67 686.73,225.88 688.09,223.93 689.34,222.13 690.69,220.20 691.93,218.41 693.36,216.35 694.97,214.05 697.02,211.10 699.34,207.78 701.64,204.47 703.69,201.52 705.29,199.23 706.74,197.14 707.99,195.34 709.35,193.39 710.60,191.59 711.96,189.65 713.21,187.85 714.57,185.90 715.82,184.10 717.16,182.16 718.40,180.37 719.83,178.31 721.42,176.00 723.46,173.04 725.77,169.71 728.06,166.40 730.10,163.44 731.69,161.14 733.13,159.05 734.38,157.25 735.73,155.29 736.98,153.49 738.33,151.54 739.57,149.74 740.92,147.79 742.17,145.98 743.51,144.04 744.75,142.25 746.18,140.18 747.77,137.87 749.81,134.92 752.12,131.59 754.41,128.27 756.45,125.31 758.05,123.01 759.10,121.49 759.83,120.45 M 578.41,133.44 L 579.19,132.35 580.30,130.80 581.56,128.99 583.13,126.71 584.68,124.44 586.46,121.81 588.11,119.37 589.55,117.25 590.91,115.24 592.12,113.45 593.43,111.49 594.65,109.69 596.05,107.62 597.63,105.29 599.64,102.31 601.96,98.89 604.48,95.16 607.04,91.38 609.59,87.61 612.10,83.89 614.39,80.50 616.40,77.52 617.95,75.20 619.37,73.09 620.60,71.27 621.93,69.30 623.15,67.48 624.48,65.51 625.70,63.70 627.03,61.73 628.25,59.92 629.58,57.95 630.80,56.13 632.13,54.16 633.35,52.35 634.68,50.38 635.91,48.57 637.23,46.60 638.46,44.78 639.79,42.82 641.01,41.00 642.34,39.03 643.56,37.22 644.88,35.26 646.10,33.45 647.51,31.37 648.46,29.95 649.49,28.42 M 115.38,27.08 L 116.56,28.83 117.85,30.74 119.38,33.00 120.80,35.11 122.03,36.93 123.36,38.90 124.58,40.72 125.90,42.69 127.13,44.51 128.45,46.48 129.67,48.29 131.00,50.26 132.22,52.08 133.55,54.05 134.77,55.86 136.09,57.83 137.32,59.65 138.64,61.62 139.86,63.43 141.19,65.40 142.41,67.22 143.74,69.19 144.96,71.00 146.28,72.98 147.51,74.79 148.83,76.76 150.05,78.58 151.38,80.55 152.60,82.36 153.94,84.33 155.17,86.13 156.51,88.10 157.74,89.90 159.08,91.86 160.32,93.67 161.66,95.63 162.90,97.43 164.24,99.39 165.48,101.20 166.82,103.16 168.05,104.96 169.39,106.92 170.63,108.73 171.96,110.67 173.19,112.47 174.60,114.54 176.19,116.85 178.18,119.74 180.25,122.75 182.33,125.78 184.23,128.53 186.11,131.26 187.46,133.22 188.51,134.75 M 8.86,126.39 L 10.34,128.73 12.16,131.42 14.78,135.25 17.49,139.08 20.28,143.00 23.02,146.85 25.73,150.65 28.37,154.37 31.02,158.09 33.66,161.80 36.34,165.58 39.06,169.41 41.85,173.33 44.59,177.18 47.30,180.99 49.94,184.71 52.59,188.43 55.23,192.14 57.91,195.92 60.63,199.74 63.41,203.67 66.15,207.52 68.85,211.33 71.49,215.05 74.17,218.83 76.89,222.66 79.68,226.59 82.41,230.44 85.11,234.24 87.75,237.97 90.38,241.70 93.01,245.43 95.64,249.16 98.26,252.89 100.88,256.63 103.49,260.38 106.10,264.12 108.69,267.85 111.34,271.66 114.02,275.50 116.77,279.45 119.48,283.32 122.16,287.15 124.79,290.90 127.41,294.63 130.03,298.37 132.65,302.11 135.27,305.84 137.89,309.58 140.51,313.32 143.12,317.03 145.79,320.81 148.49,324.63 151.28,328.55 154.03,332.41 156.73,336.21 159.43,339.99 162.14,343.81 164.93,347.73 167.68,351.59 170.37,355.39 173.06,359.18 175.77,363.01 178.55,366.94 181.28,370.80 183.97,374.60 186.66,378.40 189.34,382.17 192.05,385.98 194.70,389.70 197.39,393.45 200.15,397.28 202.88,401.10 205.64,404.97 208.35,408.81 211.12,412.75 213.81,416.62 216.47,420.45 219.01,424.16 221.49,427.84 223.90,431.45 226.33,435.11 228.79,438.83 231.29,442.61 233.86,446.47 236.46,450.38 238.38,453.27 239.99,455.69 M 10.44,99.79 L 12.26,97.60 14.41,95.02 17.53,91.26 20.63,87.53 23.84,83.67 26.95,79.93 30.16,76.07 33.27,72.33 36.48,68.47 39.59,64.73 42.80,60.87 45.91,57.13 49.12,53.27 52.23,49.53 55.43,45.67 58.55,41.93 61.75,38.07 64.87,34.33 68.06,30.49 71.23,26.67 73.56,23.87 75.56,21.46 M 123.32,0.47 L 125.47,0.47 127.86,0.46 130.78,0.46 133.08,0.46 135.15,0.46 136.94,0.45 138.95,0.45 140.73,0.45 142.75,0.44 144.53,0.44 146.54,0.44 148.33,0.44 150.34,0.43 152.12,0.43 154.13,0.43 155.92,0.42 157.93,0.42 159.72,0.42 161.73,0.41 163.51,0.41 165.53,0.41 167.31,0.40 169.32,0.40 171.11,0.40 173.12,0.39 174.90,0.39 176.91,0.39 178.70,0.39 180.71,0.38 182.50,0.38 184.51,0.38 186.29,0.37 188.30,0.37 190.09,0.37 192.10,0.36 193.89,0.36 195.90,0.36 197.68,0.35 199.69,0.35 201.48,0.35 203.49,0.34 205.28,0.34 207.29,0.34 209.07,0.34 211.08,0.33 212.87,0.33 214.88,0.33 216.67,0.32 218.68,0.32 220.46,0.32 222.47,0.32 224.26,0.32 226.27,0.32 228.06,0.32 230.07,0.32 231.85,0.32 233.86,0.32 235.65,0.32 237.66,0.32 239.45,0.32 241.46,0.32 243.24,0.32 245.25,0.32 247.04,0.32 249.05,0.32 250.84,0.32 252.85,0.32 254.63,0.32 256.64,0.32 258.43,0.32 260.44,0.32 262.23,0.32 264.24,0.32 266.02,0.32 268.03,0.32 269.82,0.32 271.83,0.32 273.62,0.32 275.63,0.32 277.41,0.32 279.42,0.32 281.21,0.32 283.22,0.32 285.01,0.32 287.02,0.32 288.80,0.32 290.81,0.32 292.60,0.32 294.61,0.32 296.40,0.32 298.41,0.32 300.19,0.32 302.20,0.32 303.99,0.32 306.00,0.32 307.79,0.32 309.80,0.32 311.58,0.32 313.59,0.32 315.38,0.32 317.39,0.32 319.17,0.32 321.18,0.32 322.97,0.32 324.98,0.32 326.77,0.32 328.78,0.32 330.57,0.32 332.58,0.32 334.36,0.32 336.37,0.32 338.16,0.32 340.17,0.32 341.95,0.32 343.96,0.32 345.75,0.32 347.76,0.32 349.55,0.32 351.56,0.32 353.34,0.32 355.35,0.32 357.14,0.32 359.15,0.32 360.94,0.32 362.95,0.32 364.73,0.32 366.74,0.32 368.53,0.32 370.54,0.32 372.33,0.32 374.34,0.32 376.12,0.32 378.13,0.32 379.92,0.32 381.93,0.32 383.72,0.32 385.73,0.32 387.51,0.32 389.52,0.32 391.31,0.32 393.32,0.32 395.11,0.32 397.12,0.32 398.90,0.32 400.91,0.32 402.70,0.32 404.71,0.32 406.50,0.32 408.51,0.32 410.29,0.32 412.30,0.32 414.09,0.32 416.10,0.32 417.89,0.32 419.90,0.32 421.68,0.32 423.69,0.32 425.48,0.32 427.49,0.32 429.28,0.32 431.29,0.32 433.07,0.32 435.08,0.32 436.87,0.32 438.88,0.32 440.67,0.32 442.68,0.32 444.46,0.32 446.47,0.32 448.26,0.32 450.27,0.32 452.06,0.32 454.07,0.32 455.85,0.32 457.86,0.32 459.65,0.32 461.66,0.32 463.45,0.32 465.46,0.32 467.24,0.32 469.25,0.32 471.04,0.32 473.05,0.32 474.84,0.32 476.85,0.32 478.63,0.32 480.64,0.32 482.43,0.32 484.44,0.32 486.22,0.32 488.24,0.32 490.02,0.32 492.03,0.32 493.82,0.32 495.83,0.32 497.62,0.32 499.63,0.32 501.41,0.32 503.42,0.32 505.21,0.32 507.22,0.32 509.00,0.32 511.02,0.32 512.80,0.32 514.81,0.32 516.60,0.32 518.61,0.32 520.39,0.32 522.40,0.32 524.19,0.32 526.20,0.32 527.99,0.32 530.00,0.32 531.78,0.32 533.80,0.32 535.58,0.32 537.59,0.32 539.38,0.32 541.39,0.32 543.17,0.32 545.18,0.32 546.97,0.32 548.98,0.32 550.77,0.32 552.78,0.32 554.56,0.32 556.57,0.32 558.36,0.32 560.37,0.32 562.16,0.32 564.17,0.32 565.95,0.32 567.96,0.32 569.75,0.32 571.76,0.32 573.55,0.32 575.56,0.32 577.34,0.32 579.35,0.32 581.14,0.32 583.15,0.32 584.94,0.32 586.95,0.32 588.73,0.32 590.74,0.32 592.53,0.32 594.54,0.32 596.33,0.32 598.34,0.32 600.12,0.32 602.13,0.32 603.92,0.32 605.93,0.32 607.72,0.32 609.73,0.32 611.51,0.32 613.52,0.32 615.31,0.32 617.32,0.32 619.11,0.32 621.12,0.33 622.90,0.35 624.93,0.37 626.70,0.41 628.76,0.45 630.53,0.50 632.65,0.58 634.40,0.67 636.65,0.77 638.00,0.81 639.69,0.85 M 758.09,103.41 L 765.50,112.30 M 759.83,120.45 L 765.50,112.30 M 8.86,126.39 L 0.00,112.34 M 10.44,99.79 L 0.00,112.34 M 765.50,112.30 L 765.50,112.30 M 0.00,112.34 L 0.00,112.34 M 394.23,433.43 L 384.83,432.83 M 374.27,433.47 L 384.83,432.83 M 398.30,395.23 L 384.83,432.83 M 370.70,395.76 L 384.83,432.83 M 505.83,465.83 L 515.73,471.53 M 527.10,479.83 L 515.73,471.53 M 523.58,456.22 L 515.73,471.53 M 238.20,481.72 L 251.10,471.80 M 264.57,464.34 L 251.10,471.80 M 239.99,455.69 L 251.10,471.80 M 188.51,134.75 L 194.06,142.16 M 220.73,142.07 L 194.06,142.16 M 212.37,170.08 L 194.06,142.16 M 578.41,133.44 L 573.09,141.17 M 541.77,141.46 L 573.09,141.17 M 552.07,171.73 L 573.09,141.17 M 649.49,28.42 L 669.88,0.97 M 639.69,0.85 L 669.88,0.97 M 684.24,15.14 L 669.88,0.97 M 115.38,27.08 L 95.58,0.00 M 75.56,21.46 L 95.58,0.00 M 123.32,0.47 L 95.58,0.00 M 396.59,552.61 L 397.14,553.76 397.88,555.31 398.83,557.29 399.89,559.51 400.97,561.77 402.16,564.26 403.38,566.82 404.63,569.43 405.99,572.28 407.36,575.13 408.72,577.99 409.97,580.60 411.19,583.16 412.42,585.72 413.66,588.33 415.03,591.18 416.39,594.04 417.75,596.89 419.04,599.58 420.33,602.29 421.63,605.01 422.79,607.44 423.59,609.11 424.13,610.25 M 432.50,618.55 L 434.27,618.89 435.82,619.17 438.28,619.61 440.18,619.94 442.35,620.33 444.17,620.65 446.34,620.99 448.19,621.27 450.33,621.60 452.46,621.92 454.92,622.29 457.46,622.67 459.98,623.06 462.53,623.44 465.08,623.83 467.61,624.21 470.16,624.60 472.62,624.97 474.66,625.28 476.67,625.58 478.39,625.85 480.50,626.17 482.35,626.45 484.49,626.77 486.62,627.09 489.06,627.46 491.60,627.84 494.18,628.23 497.16,628.67 500.29,629.14 502.73,629.50 504.53,629.77 M 458.21,703.12 L 459.68,701.58 461.06,700.23 463.19,698.15 465.02,696.41 467.07,694.45 468.89,692.70 470.94,690.73 472.77,688.98 474.82,687.01 476.64,685.27 478.69,683.30 480.49,681.57 482.45,679.69 484.14,678.07 485.98,676.30 487.69,674.67 489.67,672.77 491.49,671.02 493.55,669.04 495.37,667.29 497.41,665.32 499.23,663.56 501.27,661.58 503.08,659.82 504.54,658.41 505.56,657.42 M 456.89,714.99 L 457.25,716.64 457.64,718.46 457.98,720.08 M 383.56,759.56 L 385.89,760.26 388.68,761.52 392.54,763.34 396.40,765.42 400.22,767.50 403.96,769.54 407.73,771.60 411.48,773.64 415.30,775.73 419.11,777.81 422.92,779.89 426.74,781.97 430.54,784.05 434.28,786.09 438.05,788.15 441.79,790.19 444.54,791.70 446.84,792.96 M 319.30,792.15 L 321.51,790.96 324.22,789.50 327.98,787.46 331.81,785.39 335.63,783.33 339.44,781.27 343.27,779.20 347.08,777.14 350.83,775.12 354.61,773.07 358.37,771.04 362.19,768.97 366.01,766.92 368.71,765.46 371.03,764.23 M 295.57,776.05 L 295.84,774.80 296.21,773.17 296.75,770.74 297.33,768.15 297.81,766.00 298.29,763.85 298.76,761.75 299.39,758.94 300.05,755.98 300.71,753.04 301.22,750.79 301.70,748.65 302.17,746.53 302.72,744.06 303.29,741.54 303.77,739.41 304.24,737.28 304.72,735.16 305.27,732.69 305.85,730.11 306.33,727.97 306.81,725.81 307.28,723.71 307.91,720.90 308.41,718.67 308.90,716.54 M 260.49,656.53 L 261.81,657.79 263.12,659.04 265.18,661.01 267.00,662.75 269.06,664.72 270.87,666.45 272.95,668.43 275.01,670.40 277.35,672.63 279.70,674.88 281.83,676.91 283.94,678.92 285.77,680.66 287.86,682.64 289.94,684.61 292.29,686.84 294.65,689.07 296.77,691.09 298.89,693.10 300.74,694.86 302.77,696.79 304.04,698.01 305.24,699.17 M 267.79,628.86 L 269.57,628.62 271.43,628.38 273.59,628.09 275.72,627.80 277.57,627.55 279.69,627.27 281.41,627.03 283.35,626.77 284.97,626.55 286.99,626.28 288.73,626.05 290.82,625.77 292.59,625.53 294.70,625.25 296.55,625.00 298.67,624.71 300.39,624.48 302.33,624.22 303.95,624.00 305.97,623.73 307.71,623.49 309.82,623.21 311.55,622.97 313.63,622.69 315.36,622.46 317.43,622.19 319.20,621.96 321.25,621.70 323.12,621.46 325.26,621.17 327.20,620.90 328.72,620.69 329.74,620.54 M 341.59,613.72 L 342.34,612.17 343.06,610.66 344.14,608.41 345.11,606.40 346.19,604.16 347.14,602.18 348.14,600.08 348.96,598.39 349.93,596.35 350.77,594.60 351.79,592.47 352.60,590.79 353.60,588.69 354.44,586.95 355.46,584.82 356.27,583.13 357.27,581.04 358.11,579.30 359.13,577.16 359.96,575.42 360.96,573.33 361.83,571.53 362.84,569.41 363.84,567.34 364.96,564.99 366.09,562.63 367.12,560.47 368.17,558.27 369.12,556.29 370.21,553.99 370.95,552.46 371.70,550.87 M 396.59,552.61 L 383.71,525.66 M 424.13,610.25 L 427.65,617.60 M 432.50,618.55 L 427.65,617.60 M 504.53,629.77 L 530.13,633.59 M 458.21,703.12 L 455.04,706.42 M 505.56,657.42 L 530.13,633.59 M 456.89,714.99 L 455.04,706.42 M 383.56,759.56 L 381.13,758.84 M 446.84,792.96 L 448.49,793.86 M 319.30,792.15 L 288.45,808.82 M 371.03,764.23 L 381.13,758.84 M 295.57,776.05 L 288.45,808.82 M 308.90,716.54 L 311.48,705.17 M 260.49,656.53 L 236.01,633.13 M 305.24,699.17 L 311.48,705.17 M 267.79,628.86 L 236.01,633.13 M 329.74,620.54 L 338.96,619.17 M 341.59,613.72 L 338.96,619.17 M 371.70,550.87 L 383.71,525.66 383.71,525.66 M 427.65,617.60 L 427.65,617.60 M 530.13,633.59 L 530.13,633.59 M 455.04,706.42 L 455.04,706.42 M 381.13,758.84 L 381.13,758.84 M 288.45,808.82 L 288.45,808.82 M 311.48,705.17 L 311.48,705.17 M 236.01,633.13 L 236.01,633.13 M 338.96,619.17 L 338.96,619.17"  stroke-width="45.0"/>
  </g>
  
  
  <g id="state-icon" stroke="#000000" stroke-width="45" fill="none" stroke-linecap="round" stroke-linejoin="round">
    <path d="M 529.81,738.53 L 531.26,738.41 532.96,738.35 535.35,738.29 537.74,738.29 540.13,738.29 542.52,738.28 544.90,738.28 547.29,738.28 549.68,738.28 552.07,738.28 554.46,738.28 556.85,738.28 559.23,738.27 561.62,738.27 564.01,738.27 566.40,738.27 568.79,738.27 571.18,738.27 573.56,738.27 575.95,738.26 578.34,738.26 580.73,738.26 583.12,738.26 585.51,738.26 587.91,738.26 590.31,738.26 592.72,738.25 595.09,738.25 597.46,738.25 599.83,738.25 602.22,738.25 604.61,738.25 607.00,738.25 609.39,738.24 611.78,738.24 614.16,738.24 616.55,738.24 618.94,738.24 621.33,738.24 623.72,738.24 626.11,738.23 628.49,738.23 630.88,738.23 633.27,738.23 635.66,738.23 638.03,738.23 640.41,738.23 642.09,738.23 643.54,738.23 M 655.19,751.07 L 655.19,751.89 655.19,752.69 655.19,753.96 655.19,755.08 655.19,756.35 655.19,757.47 655.19,758.73 655.19,759.86 655.19,761.12 655.19,762.25 655.19,763.51 655.19,764.63 655.19,765.90 655.19,767.02 655.19,768.29 655.19,769.41 655.19,770.68 655.19,771.80 655.19,773.06 655.19,774.19 655.19,775.45 655.19,776.58 655.19,777.84 655.19,778.96 655.19,780.23 655.19,781.35 655.19,782.62 655.19,783.74 655.19,785.00 655.19,786.13 655.19,787.39 655.19,788.52 655.19,789.78 655.19,790.90 655.19,792.17 655.19,793.29 655.19,794.56 655.19,795.68 655.19,796.95 655.19,798.07 655.19,799.33 655.19,800.46 655.19,801.72 655.19,802.85 655.19,804.11 655.19,805.23 655.19,806.50 655.19,807.62 655.19,808.89 655.20,810.01 655.20,811.28 655.20,812.40 655.20,813.66 655.20,814.79 655.20,816.05 655.20,817.18 655.20,818.44 655.20,819.56 655.20,820.83 655.20,821.95 655.20,823.22 655.20,824.34 655.20,825.61 655.20,826.73 655.20,827.99 655.20,829.12 655.20,830.38 655.20,831.51 655.20,832.77 655.20,833.89 655.20,835.16 655.20,836.28 655.20,837.55 655.20,838.67 655.20,839.93 655.20,841.06 655.20,842.32 655.20,843.45 655.20,844.71 655.20,845.84 655.20,847.10 655.20,848.22 655.20,849.49 655.20,850.61 655.20,851.88 655.20,853.00 655.20,854.26 655.20,855.39 655.20,856.65 655.20,857.78 655.20,859.04 655.20,860.17 655.20,861.43 655.20,862.55 655.20,863.82 655.20,864.94 655.20,866.21 655.20,867.33 655.20,868.59 655.20,869.72 655.20,870.98 655.20,872.11 655.20,873.37 655.20,874.49 655.20,875.76 655.20,876.88 655.20,878.15 655.20,879.27 655.20,880.54 655.20,881.66 655.20,882.92 655.20,884.05 655.20,885.31 655.20,886.44 655.20,887.70 655.20,888.82 655.20,890.09 655.20,891.21 655.20,892.48 655.20,893.60 655.20,894.87 655.20,895.99 655.20,897.25 655.20,898.38 655.20,899.64 655.20,900.77 655.20,902.03 655.20,903.15 655.20,904.42 655.20,905.54 655.20,906.81 655.20,907.93 655.20,909.20 655.20,910.32 655.20,911.58 655.20,912.71 655.20,913.97 655.20,915.10 655.20,916.36 655.20,917.48 655.20,918.75 655.20,919.87 655.20,921.14 655.20,922.26 655.20,923.53 655.20,924.65 655.20,925.91 655.20,927.04 655.20,928.30 655.20,929.43 655.20,930.69 655.20,931.81 655.20,933.08 655.20,934.20 655.20,935.47 655.20,936.59 655.20,937.85 655.20,938.98 655.20,940.24 655.20,941.37 655.20,942.63 655.20,943.75 655.20,945.02 655.20,946.14 655.20,947.41 655.20,948.53 655.20,949.80 655.20,950.92 655.20,952.18 655.20,953.31 655.20,954.57 655.20,955.70 655.20,956.96 655.20,958.08 655.20,959.35 655.20,960.47 655.20,961.74 655.20,962.86 655.20,964.13 655.20,965.25 655.20,966.51 655.21,967.64 655.21,968.90 655.21,970.03 655.21,971.29 655.21,972.41 655.21,973.68 655.21,974.80 655.21,976.07 655.21,977.19 655.21,978.46 655.21,979.58 655.21,980.84 655.21,981.97 655.21,983.23 655.21,984.36 655.21,985.62 655.21,986.74 655.21,988.01 655.21,989.13 655.21,990.42 655.21,991.55 655.21,992.87 655.21,994.24 655.21,995.43 655.21,996.55 M 515.09,1011.99 L 516.01,1013.55 517.30,1015.27 519.29,1017.57 521.54,1019.52 523.95,1021.11 526.44,1022.29 528.92,1023.11 531.37,1023.60 533.76,1023.86 536.15,1023.96 538.54,1023.99 540.92,1023.99 543.31,1023.99 545.70,1023.99 548.09,1023.99 550.48,1023.99 552.87,1023.99 555.25,1023.99 557.64,1023.99 560.03,1023.99 562.42,1023.99 564.81,1023.99 567.19,1023.99 569.58,1023.99 571.97,1023.99 574.36,1023.99 576.75,1023.99 579.14,1023.99 581.52,1023.99 583.91,1023.99 586.30,1023.99 588.69,1023.99 591.08,1023.99 593.47,1023.99 595.85,1023.99 598.24,1023.99 600.63,1023.99 603.02,1023.99 605.41,1023.99 607.80,1023.99 610.18,1023.99 612.57,1023.99 614.96,1023.99 617.35,1023.99 619.74,1023.99 622.13,1023.99 624.51,1023.99 626.90,1023.96 629.29,1023.88 631.67,1023.69 634.08,1023.41 636.50,1023.05 638.95,1022.60 641.46,1022.00 644.00,1021.16 645.86,1020.44 647.40,1019.69 M 512.75,1003.94 L 512.64,1002.51 512.57,1000.85 512.50,998.50 512.48,996.13 512.48,993.74 512.48,991.36 512.48,988.97 512.48,986.58 512.48,984.19 512.48,981.80 512.48,979.42 512.48,977.03 512.48,974.64 512.48,972.25 512.49,969.86 512.49,967.47 512.49,965.09 512.49,962.70 512.49,960.31 512.49,957.92 512.49,955.53 512.49,953.14 512.49,950.76 512.49,948.37 512.49,945.98 512.49,943.59 512.49,941.20 512.49,938.81 512.49,936.43 512.49,934.04 512.49,931.65 512.49,929.26 512.49,926.87 512.49,924.48 512.49,922.10 512.49,919.71 512.49,917.32 512.49,914.93 512.49,912.54 512.49,910.16 512.49,907.77 512.49,905.38 512.49,902.99 512.49,900.60 512.49,898.21 512.49,895.83 512.49,893.44 512.49,891.05 512.49,888.66 512.49,886.27 512.49,883.88 512.49,881.50 512.49,879.11 512.49,876.72 512.49,874.33 512.49,871.94 512.49,869.55 512.49,867.17 512.49,864.78 512.49,862.39 512.49,860.00 512.49,857.61 512.49,855.22 512.49,852.84 512.49,850.45 512.49,848.06 512.49,845.67 512.49,843.28 512.49,840.89 512.49,838.51 512.49,836.12 512.49,833.73 512.49,831.34 512.49,828.95 512.49,826.57 512.49,824.18 512.49,821.79 512.49,819.40 512.49,817.01 512.49,814.62 512.49,812.24 512.49,809.85 512.49,807.46 512.49,805.07 512.49,802.68 512.49,800.29 512.49,797.91 512.49,795.52 512.49,793.13 512.49,790.74 512.49,788.35 512.49,785.96 512.49,783.58 512.49,781.19 512.49,778.80 512.49,776.41 512.49,774.02 512.49,771.63 512.49,769.25 512.50,766.86 512.49,764.47 512.51,762.11 512.56,759.75 512.75,757.50 513.08,755.19 513.62,752.94 514.37,750.49 515.49,748.08 517.01,745.70 518.97,743.56 520.51,742.14 521.95,741.11 M 663.86,733.93 L 665.35,732.82 667.07,731.52 669.48,729.68 671.88,727.83 674.26,725.96 676.70,724.01 679.19,721.99 681.69,719.93 684.12,717.90 686.45,715.91 688.80,713.87 691.22,711.72 693.70,709.48 696.21,707.20 698.69,704.90 701.15,702.59 703.59,700.25 706.00,697.88 708.37,695.48 710.72,693.05 713.05,690.60 715.36,688.14 717.67,685.65 719.91,683.19 722.09,680.72 724.15,678.34 726.20,675.92 728.16,673.57 730.16,671.13 732.09,668.73 734.02,666.29 735.86,663.92 737.63,661.59 739.37,659.25 741.10,656.87 742.87,654.39 744.56,651.98 746.22,649.56 747.77,647.24 749.32,644.86 750.81,642.54 752.29,640.16 753.75,637.78 755.20,635.33 756.65,632.83 758.06,630.34 759.41,627.91 760.69,625.53 761.90,623.22 763.11,620.86 764.28,618.50 765.44,616.09 766.55,613.70 767.62,611.35 768.69,608.92 769.73,606.50 770.77,604.02 771.76,601.60 772.70,599.20 773.61,596.84 774.48,594.47 775.33,592.10 776.15,589.72 776.94,587.33 777.71,584.93 778.45,582.53 779.18,580.10 779.87,577.67 780.54,575.25 781.17,572.89 781.79,570.52 782.38,568.12 782.95,565.71 783.49,563.29 784.00,560.90 784.48,558.48 784.95,556.09 785.41,553.70 785.86,551.33 786.32,548.95 786.79,546.53 787.24,544.13 787.71,541.72 788.16,539.35 788.62,536.96 789.08,534.69 789.49,532.63 789.90,530.85 790.31,529.16 790.89,527.24 791.72,525.04 792.88,522.65 794.36,520.33 796.17,518.22 798.26,516.36 800.56,514.85 802.88,513.70 804.95,512.96 806.66,512.52 808.14,512.28 809.77,512.12 811.73,512.01 813.97,512.00 816.33,512.10 818.67,512.32 821.04,512.64 823.40,513.06 825.78,513.57 828.16,514.20 830.57,514.95 832.98,515.82 835.44,516.82 837.87,517.95 840.36,519.24 842.85,520.69 845.36,522.32 847.87,524.16 850.29,526.20 852.61,528.44 854.75,530.77 856.72,533.18 858.52,535.61 860.21,538.13 861.76,540.62 863.18,543.10 864.44,545.48 865.62,547.91 866.70,550.31 867.70,552.74 868.59,555.09 869.38,557.42 870.10,559.78 870.75,562.18 871.33,564.60 871.84,567.03 872.29,569.42 872.66,571.81 872.98,574.20 873.24,576.58 873.44,578.98 873.56,581.37 873.62,583.76 873.62,586.14 873.59,588.54 873.53,590.93 873.44,593.34 873.30,595.74 873.10,598.14 872.85,600.53 872.56,602.91 872.23,605.30 871.87,607.70 871.48,610.08 871.07,612.48 870.63,614.85 870.17,617.25 869.69,619.64 869.18,622.06 868.65,624.47 868.10,626.86 867.53,629.24 866.95,631.62 866.35,633.99 865.73,636.36 865.09,638.75 864.43,641.13 863.77,643.50 863.09,645.85 862.39,648.22 861.68,650.61 860.95,653.02 860.20,655.42 859.45,657.82 858.68,660.22 857.91,662.62 857.13,665.01 856.34,667.40 855.55,669.79 854.75,672.18 853.93,674.61 853.10,677.04 852.28,679.47 851.49,681.82 850.69,684.16 849.89,686.49 849.08,688.86 848.27,691.25 847.47,693.63 846.69,696.02 846.15,697.72 845.69,699.16 M 671.56,1011.02 L 672.96,1011.76 674.69,1012.63 677.05,1013.82 679.49,1014.98 681.89,1016.08 684.32,1017.13 686.70,1018.08 689.10,1018.95 691.47,1019.72 693.85,1020.41 696.23,1021.04 698.60,1021.61 700.99,1022.12 703.37,1022.55 705.75,1022.93 708.12,1023.25 710.51,1023.51 712.89,1023.71 715.29,1023.85 717.69,1023.94 720.09,1023.98 722.46,1024.00 724.84,1024.00 727.21,1024.00 729.60,1024.00 731.99,1024.00 734.37,1024.00 736.76,1024.00 739.15,1024.00 741.54,1024.00 743.93,1024.00 746.32,1024.00 748.70,1024.00 751.09,1024.00 753.48,1024.00 755.87,1024.00 758.26,1024.00 760.65,1024.00 763.03,1024.00 765.42,1024.00 767.81,1024.00 770.20,1024.00 772.59,1024.00 774.97,1024.00 777.36,1024.00 779.75,1024.00 782.14,1024.00 784.53,1023.99 786.92,1023.99 789.30,1023.99 791.69,1023.99 794.08,1023.99 796.47,1023.99 798.86,1023.99 801.25,1023.99 803.63,1023.99 806.02,1023.99 808.41,1023.99 810.80,1023.99 813.19,1023.99 815.56,1023.99 817.94,1023.99 820.31,1023.99 822.71,1023.99 825.11,1023.99 827.52,1023.99 829.91,1023.99 832.29,1023.99 834.68,1023.99 837.07,1023.99 839.46,1023.99 841.85,1023.99 844.23,1023.99 846.62,1023.99 849.01,1023.99 851.40,1023.99 853.79,1023.99 856.18,1023.99 858.56,1023.99 860.95,1023.99 863.34,1023.99 865.73,1023.99 868.12,1023.99 870.51,1023.99 872.89,1023.99 875.28,1023.99 877.67,1023.99 880.06,1023.99 882.45,1023.99 884.84,1023.99 887.22,1023.99 889.61,1023.99 892.00,1023.99 894.39,1023.99 896.78,1023.99 899.17,1023.99 901.55,1023.99 903.94,1023.99 906.33,1023.99 908.72,1023.99 911.11,1023.98 913.49,1023.99 915.88,1023.99 918.27,1023.98 920.66,1023.97 923.05,1023.91 925.42,1023.80 927.80,1023.63 930.17,1023.40 932.57,1023.14 934.96,1022.85 937.38,1022.51 939.77,1022.11 942.20,1021.63 944.63,1021.05 947.05,1020.38 949.45,1019.62 951.83,1018.78 954.21,1017.82 956.61,1016.74 959.04,1015.54 961.48,1014.18 963.90,1012.70 966.40,1011.00 968.82,1009.18 971.20,1007.20 973.42,1005.11 975.54,1002.92 977.57,1000.56 979.44,998.17 981.19,995.69 982.71,993.32 984.10,990.93 985.34,988.55 986.49,986.09 987.55,983.59 988.51,981.13 989.36,978.70 990.12,976.30 990.82,973.88 991.45,971.47 992.02,969.07 992.53,966.69 993.00,964.30 993.45,961.93 993.87,959.54 994.28,957.16 994.68,954.76 995.08,952.38 995.48,949.98 995.88,947.61 996.29,945.21 996.69,942.83 997.10,940.44 997.50,938.06 997.90,935.66 998.30,933.28 998.70,930.88 999.10,928.51 999.50,926.11 999.90,923.73 1000.30,921.33 1000.70,918.95 1001.10,916.56 1001.50,914.18 1001.90,911.78 1002.30,909.40 1002.70,907.00 1003.10,904.63 1003.50,902.23 1003.90,899.85 1004.30,897.45 1004.69,895.07 1005.10,892.68 1005.49,890.30 1005.89,887.90 1006.29,885.52 1006.69,883.12 1007.09,880.75 1007.49,878.35 1007.89,875.97 1008.29,873.57 1008.69,871.19 1009.09,868.79 1009.49,866.42 1009.89,864.02 1010.29,861.64 1010.69,859.24 1011.09,856.87 1011.49,854.47 1011.88,852.09 1012.29,849.69 1012.68,847.31 1013.09,844.91 1013.48,842.54 1013.88,840.14 1014.28,837.76 1014.68,835.36 1015.08,832.99 1015.48,830.59 1015.88,828.21 1016.28,825.81 1016.68,823.43 1017.08,821.03 1017.48,818.66 1017.88,816.26 1018.28,813.88 1018.68,811.48 1019.08,809.11 1019.48,806.71 1019.87,804.33 1020.27,801.93 1020.67,799.54 1021.07,797.13 1021.46,794.73 1021.83,792.34 1022.19,789.97 1022.54,787.58 1022.88,785.19 1023.19,782.79 1023.46,780.41 1023.68,778.01 1023.85,775.64 1023.96,773.23 1024.00,770.85 1023.95,768.45 1023.83,766.07 1023.64,763.68 1023.38,761.29 1023.03,758.91 1022.59,756.54 1022.03,754.14 1021.36,751.73 1020.53,749.25 1019.59,746.85 1018.50,744.47 1017.30,742.13 1015.89,739.70 1014.29,737.23 1012.51,734.79 1010.54,732.39 1008.40,730.07 1006.08,727.84 1003.69,725.81 1001.21,723.95 998.74,722.31 996.26,720.86 993.83,719.62 991.45,718.54 989.08,717.60 986.70,716.80 984.28,716.10 981.84,715.52 979.43,715.04 977.05,714.66 974.68,714.35 972.31,714.12 969.93,713.96 967.58,713.85 965.22,713.78 962.85,713.75 960.46,713.74 958.08,713.73 955.69,713.73 953.30,713.73 950.91,713.73 948.52,713.73 946.13,713.73 943.75,713.73 941.36,713.73 938.97,713.73 936.58,713.73 934.19,713.73 931.80,713.73 929.42,713.73 927.03,713.73 924.64,713.73 922.25,713.74 919.86,713.74 917.48,713.74 915.09,713.74 912.70,713.74 910.31,713.74 907.92,713.74 905.53,713.74 903.15,713.74 900.76,713.74 898.37,713.74 895.98,713.74 893.59,713.74 891.20,713.74 888.82,713.74 886.43,713.74 884.04,713.74 881.65,713.74 879.26,713.74 876.87,713.74 874.49,713.74 872.10,713.74 869.71,713.74 867.32,713.74 864.93,713.74 862.52,713.74 860.05,713.73 858.25,713.72 856.66,713.70 M 529.81,738.53 L 525.01,738.90 M 655.21,996.55 L 655.21,1002.40 M 515.09,1011.99 L 513.11,1008.67 M 647.40,1019.69 L 655.21,1015.90 M 512.75,1003.94 L 513.11,1008.67 M 521.95,741.11 L 525.01,738.90 M 845.69,699.16 L 841.16,713.50 M 671.56,1011.02 L 655.21,1002.40 M 856.66,713.70 L 841.16,713.50 M 525.01,738.90 L 525.01,738.90 M 655.21,1002.40 L 655.21,1002.40 M 513.11,1008.67 L 513.11,1008.67 M 841.16,713.50 L 841.16,713.50 M 643.54,738.23 L 656.17,738.95 M 655.19,751.07 L 656.17,738.95 M 663.86,733.93 L 656.17,738.95 M 529.81,738.53 L 531.26,738.41 532.96,738.35 535.35,738.29 537.74,738.29 540.13,738.29 542.52,738.28 544.90,738.28 547.29,738.28 549.68,738.28 552.07,738.28 554.46,738.28 556.85,738.28 559.23,738.27 561.62,738.27 564.01,738.27 566.40,738.27 568.79,738.27 571.18,738.27 573.56,738.27 575.95,738.26 578.34,738.26 580.73,738.26 583.12,738.26 585.51,738.26 587.91,738.26 590.31,738.26 592.72,738.25 595.09,738.25 597.46,738.25 599.83,738.25 602.22,738.25 604.61,738.25 607.00,738.25 609.39,738.24 611.78,738.24 614.16,738.24 616.55,738.24 618.94,738.24 621.33,738.24 623.72,738.24 626.11,738.23 628.49,738.23 630.88,738.23 633.27,738.23 635.66,738.23 638.03,738.23 640.41,738.23 642.09,738.23 643.54,738.23 M 655.19,751.07 L 655.19,751.89 655.19,752.69 655.19,753.96 655.19,755.08 655.19,756.35 655.19,757.47 655.19,758.73 655.19,759.86 655.19,761.12 655.19,762.25 655.19,763.51 655.19,764.63 655.19,765.90 655.19,767.02 655.19,768.29 655.19,769.41 655.19,770.68 655.19,771.80 655.19,773.06 655.19,774.19 655.19,775.45 655.19,776.58 655.19,777.84 655.19,778.96 655.19,780.23 655.19,781.35 655.19,782.62 655.19,783.74 655.19,785.00 655.19,786.13 655.19,787.39 655.19,788.52 655.19,789.78 655.19,790.90 655.19,792.17 655.19,793.29 655.19,794.56 655.19,795.68 655.19,796.95 655.19,798.07 655.19,799.33 655.19,800.46 655.19,801.72 655.19,802.85 655.19,804.11 655.19,805.23 655.19,806.50 655.19,807.62 655.19,808.89 655.20,810.01 655.20,811.28 655.20,812.40 655.20,813.66 655.20,814.79 655.20,816.05 655.20,817.18 655.20,818.44 655.20,819.56 655.20,820.83 655.20,821.95 655.20,823.22 655.20,824.34 655.20,825.61 655.20,826.73 655.20,827.99 655.20,829.12 655.20,830.38 655.20,831.51 655.20,832.77 655.20,833.89 655.20,835.16 655.20,836.28 655.20,837.55 655.20,838.67 655.20,839.93 655.20,841.06 655.20,842.32 655.20,843.45 655.20,844.71 655.20,845.84 655.20,847.10 655.20,848.22 655.20,849.49 655.20,850.61 655.20,851.88 655.20,853.00 655.20,854.26 655.20,855.39 655.20,856.65 655.20,857.78 655.20,859.04 655.20,860.17 655.20,861.43 655.20,862.55 655.20,863.82 655.20,864.94 655.20,866.21 655.20,867.33 655.20,868.59 655.20,869.72 655.20,870.98 655.20,872.11 655.20,873.37 655.20,874.49 655.20,875.76 655.20,876.88 655.20,878.15 655.20,879.27 655.20,880.54 655.20,881.66 655.20,882.92 655.20,884.05 655.20,885.31 655.20,886.44 655.20,887.70 655.20,888.82 655.20,890.09 655.20,891.21 655.20,892.48 655.20,893.60 655.20,894.87 655.20,895.99 655.20,897.25 655.20,898.38 655.20,899.64 655.20,900.77 655.20,902.03 655.20,903.15 655.20,904.42 655.20,905.54 655.20,906.81 655.20,907.93 655.20,909.20 655.20,910.32 655.20,911.58 655.20,912.71 655.20,913.97 655.20,915.10 655.20,916.36 655.20,917.48 655.20,918.75 655.20,919.87 655.20,921.14 655.20,922.26 655.20,923.53 655.20,924.65 655.20,925.91 655.20,927.04 655.20,928.30 655.20,929.43 655.20,930.69 655.20,931.81 655.20,933.08 655.20,934.20 655.20,935.47 655.20,936.59 655.20,937.85 655.20,938.98 655.20,940.24 655.20,941.37 655.20,942.63 655.20,943.75 655.20,945.02 655.20,946.14 655.20,947.41 655.20,948.53 655.20,949.80 655.20,950.92 655.20,952.18 655.20,953.31 655.20,954.57 655.20,955.70 655.20,956.96 655.20,958.08 655.20,959.35 655.20,960.47 655.20,961.74 655.20,962.86 655.20,964.13 655.20,965.25 655.20,966.51 655.21,967.64 655.21,968.90 655.21,970.03 655.21,971.29 655.21,972.41 655.21,973.68 655.21,974.80 655.21,976.07 655.21,977.19 655.21,978.46 655.21,979.58 655.21,980.84 655.21,981.97 655.21,983.23 655.21,984.36 655.21,985.62 655.21,986.74 655.21,988.01 655.21,989.13 655.21,990.42 655.21,991.55 655.21,992.87 655.21,994.24 655.21,995.43 655.21,996.55 M 515.09,1011.99 L 516.01,1013.55 517.30,1015.27 519.29,1017.57 521.54,1019.52 523.95,1021.11 526.44,1022.29 528.92,1023.11 531.37,1023.60 533.76,1023.86 536.15,1023.96 538.54,1023.99 540.92,1023.99 543.31,1023.99 545.70,1023.99 548.09,1023.99 550.48,1023.99 552.87,1023.99 555.25,1023.99 557.64,1023.99 560.03,1023.99 562.42,1023.99 564.81,1023.99 567.19,1023.99 569.58,1023.99 571.97,1023.99 574.36,1023.99 576.75,1023.99 579.14,1023.99 581.52,1023.99 583.91,1023.99 586.30,1023.99 588.69,1023.99 591.08,1023.99 593.47,1023.99 595.85,1023.99 598.24,1023.99 600.63,1023.99 603.02,1023.99 605.41,1023.99 607.80,1023.99 610.18,1023.99 612.57,1023.99 614.96,1023.99 617.35,1023.99 619.74,1023.99 622.13,1023.99 624.51,1023.99 626.90,1023.96 629.29,1023.88 631.67,1023.69 634.08,1023.41 636.50,1023.05 638.95,1022.60 641.46,1022.00 644.00,1021.16 645.86,1020.44 647.40,1019.69 M 512.75,1003.94 L 512.64,1002.51 512.57,1000.85 512.50,998.50 512.48,996.13 512.48,993.74 512.48,991.36 512.48,988.97 512.48,986.58 512.48,984.19 512.48,981.80 512.48,979.42 512.48,977.03 512.48,974.64 512.48,972.25 512.49,969.86 512.49,967.47 512.49,965.09 512.49,962.70 512.49,960.31 512.49,957.92 512.49,955.53 512.49,953.14 512.49,950.76 512.49,948.37 512.49,945.98 512.49,943.59 512.49,941.20 512.49,938.81 512.49,936.43 512.49,934.04 512.49,931.65 512.49,929.26 512.49,926.87 512.49,924.48 512.49,922.10 512.49,919.71 512.49,917.32 512.49,914.93 512.49,912.54 512.49,910.16 512.49,907.77 512.49,905.38 512.49,902.99 512.49,900.60 512.49,898.21 512.49,895.83 512.49,893.44 512.49,891.05 512.49,888.66 512.49,886.27 512.49,883.88 512.49,881.50 512.49,879.11 512.49,876.72 512.49,874.33 512.49,871.94 512.49,869.55 512.49,867.17 512.49,864.78 512.49,862.39 512.49,860.00 512.49,857.61 512.49,855.22 512.49,852.84 512.49,850.45 512.49,848.06 512.49,845.67 512.49,843.28 512.49,840.89 512.49,838.51 512.49,836.12 512.49,833.73 512.49,831.34 512.49,828.95 512.49,826.57 512.49,824.18 512.49,821.79 512.49,819.40 512.49,817.01 512.49,814.62 512.49,812.24 512.49,809.85 512.49,807.46 512.49,805.07 512.49,802.68 512.49,800.29 512.49,797.91 512.49,795.52 512.49,793.13 512.49,790.74 512.49,788.35 512.49,785.96 512.49,783.58 512.49,781.19 512.49,778.80 512.49,776.41 512.49,774.02 512.49,771.63 512.49,769.25 512.50,766.86 512.49,764.47 512.51,762.11 512.56,759.75 512.75,757.50 513.08,755.19 513.62,752.94 514.37,750.49 515.49,748.08 517.01,745.70 518.97,743.56 520.51,742.14 521.95,741.11 M 663.86,733.93 L 665.35,732.82 667.07,731.52 669.48,729.68 671.88,727.83 674.26,725.96 676.70,724.01 679.19,721.99 681.69,719.93 684.12,717.90 686.45,715.91 688.80,713.87 691.22,711.72 693.70,709.48 696.21,707.20 698.69,704.90 701.15,702.59 703.59,700.25 706.00,697.88 708.37,695.48 710.72,693.05 713.05,690.60 715.36,688.14 717.67,685.65 719.91,683.19 722.09,680.72 724.15,678.34 726.20,675.92 728.16,673.57 730.16,671.13 732.09,668.73 734.02,666.29 735.86,663.92 737.63,661.59 739.37,659.25 741.10,656.87 742.87,654.39 744.56,651.98 746.22,649.56 747.77,647.24 749.32,644.86 750.81,642.54 752.29,640.16 753.75,637.78 755.20,635.33 756.65,632.83 758.06,630.34 759.41,627.91 760.69,625.53 761.90,623.22 763.11,620.86 764.28,618.50 765.44,616.09 766.55,613.70 767.62,611.35 768.69,608.92 769.73,606.50 770.77,604.02 771.76,601.60 772.70,599.20 773.61,596.84 774.48,594.47 775.33,592.10 776.15,589.72 776.94,587.33 777.71,584.93 778.45,582.53 779.18,580.10 779.87,577.67 780.54,575.25 781.17,572.89 781.79,570.52 782.38,568.12 782.95,565.71 783.49,563.29 784.00,560.90 784.48,558.48 784.95,556.09 785.41,553.70 785.86,551.33 786.32,548.95 786.79,546.53 787.24,544.13 787.71,541.72 788.16,539.35 788.62,536.96 789.08,534.69 789.49,532.63 789.90,530.85 790.31,529.16 790.89,527.24 791.72,525.04 792.88,522.65 794.36,520.33 796.17,518.22 798.26,516.36 800.56,514.85 802.88,513.70 804.95,512.96 806.66,512.52 808.14,512.28 809.77,512.12 811.73,512.01 813.97,512.00 816.33,512.10 818.67,512.32 821.04,512.64 823.40,513.06 825.78,513.57 828.16,514.20 830.57,514.95 832.98,515.82 835.44,516.82 837.87,517.95 840.36,519.24 842.85,520.69 845.36,522.32 847.87,524.16 850.29,526.20 852.61,528.44 854.75,530.77 856.72,533.18 858.52,535.61 860.21,538.13 861.76,540.62 863.18,543.10 864.44,545.48 865.62,547.91 866.70,550.31 867.70,552.74 868.59,555.09 869.38,557.42 870.10,559.78 870.75,562.18 871.33,564.60 871.84,567.03 872.29,569.42 872.66,571.81 872.98,574.20 873.24,576.58 873.44,578.98 873.56,581.37 873.62,583.76 873.62,586.14 873.59,588.54 873.53,590.93 873.44,593.34 873.30,595.74 873.10,598.14 872.85,600.53 872.56,602.91 872.23,605.30 871.87,607.70 871.48,610.08 871.07,612.48 870.63,614.85 870.17,617.25 869.69,619.64 869.18,622.06 868.65,624.47 868.10,626.86 867.53,629.24 866.95,631.62 866.35,633.99 865.73,636.36 865.09,638.75 864.43,641.13 863.77,643.50 863.09,645.85 862.39,648.22 861.68,650.61 860.95,653.02 860.20,655.42 859.45,657.82 858.68,660.22 857.91,662.62 857.13,665.01 856.34,667.40 855.55,669.79 854.75,672.18 853.93,674.61 853.10,677.04 852.28,679.47 851.49,681.82 850.69,684.16 849.89,686.49 849.08,688.86 848.27,691.25 847.47,693.63 846.69,696.02 846.15,697.72 845.69,699.16 M 671.56,1011.02 L 672.96,1011.76 674.69,1012.63 677.05,1013.82 679.49,1014.98 681.89,1016.08 684.32,1017.13 686.70,1018.08 689.10,1018.95 691.47,1019.72 693.85,1020.41 696.23,1021.04 698.60,1021.61 700.99,1022.12 703.37,1022.55 705.75,1022.93 708.12,1023.25 710.51,1023.51 712.89,1023.71 715.29,1023.85 717.69,1023.94 720.09,1023.98 722.46,1024.00 724.84,1024.00 727.21,1024.00 729.60,1024.00 731.99,1024.00 734.37,1024.00 736.76,1024.00 739.15,1024.00 741.54,1024.00 743.93,1024.00 746.32,1024.00 748.70,1024.00 751.09,1024.00 753.48,1024.00 755.87,1024.00 758.26,1024.00 760.65,1024.00 763.03,1024.00 765.42,1024.00 767.81,1024.00 770.20,1024.00 772.59,1024.00 774.97,1024.00 777.36,1024.00 779.75,1024.00 782.14,1024.00 784.53,1023.99 786.92,1023.99 789.30,1023.99 791.69,1023.99 794.08,1023.99 796.47,1023.99 798.86,1023.99 801.25,1023.99 803.63,1023.99 806.02,1023.99 808.41,1023.99 810.80,1023.99 813.19,1023.99 815.56,1023.99 817.94,1023.99 820.31,1023.99 822.71,1023.99 825.11,1023.99 827.52,1023.99 829.91,1023.99 832.29,1023.99 834.68,1023.99 837.07,1023.99 839.46,1023.99 841.85,1023.99 844.23,1023.99 846.62,1023.99 849.01,1023.99 851.40,1023.99 853.79,1023.99 856.18,1023.99 858.56,1023.99 860.95,1023.99 863.34,1023.99 865.73,1023.99 868.12,1023.99 870.51,1023.99 872.89,1023.99 875.28,1023.99 877.67,1023.99 880.06,1023.99 882.45,1023.99 884.84,1023.99 887.22,1023.99 889.61,1023.99 892.00,1023.99 894.39,1023.99 896.78,1023.99 899.17,1023.99 901.55,1023.99 903.94,1023.99 906.33,1023.99 908.72,1023.99 911.11,1023.98 913.49,1023.99 915.88,1023.99 918.27,1023.98 920.66,1023.97 923.05,1023.91 925.42,1023.80 927.80,1023.63 930.17,1023.40 932.57,1023.14 934.96,1022.85 937.38,1022.51 939.77,1022.11 942.20,1021.63 944.63,1021.05 947.05,1020.38 949.45,1019.62 951.83,1018.78 954.21,1017.82 956.61,1016.74 959.04,1015.54 961.48,1014.18 963.90,1012.70 966.40,1011.00 968.82,1009.18 971.20,1007.20 973.42,1005.11 975.54,1002.92 977.57,1000.56 979.44,998.17 981.19,995.69 982.71,993.32 984.10,990.93 985.34,988.55 986.49,986.09 987.55,983.59 988.51,981.13 989.36,978.70 990.12,976.30 990.82,973.88 991.45,971.47 992.02,969.07 992.53,966.69 993.00,964.30 993.45,961.93 993.87,959.54 994.28,957.16 994.68,954.76 995.08,952.38 995.48,949.98 995.88,947.61 996.29,945.21 996.69,942.83 997.10,940.44 997.50,938.06 997.90,935.66 998.30,933.28 998.70,930.88 999.10,928.51 999.50,926.11 999.90,923.73 1000.30,921.33 1000.70,918.95 1001.10,916.56 1001.50,914.18 1001.90,911.78 1002.30,909.40 1002.70,907.00 1003.10,904.63 1003.50,902.23 1003.90,899.85 1004.30,897.45 1004.69,895.07 1005.10,892.68 1005.49,890.30 1005.89,887.90 1006.29,885.52 1006.69,883.12 1007.09,880.75 1007.49,878.35 1007.89,875.97 1008.29,873.57 1008.69,871.19 1009.09,868.79 1009.49,866.42 1009.89,864.02 1010.29,861.64 1010.69,859.24 1011.09,856.87 1011.49,854.47 1011.88,852.09 1012.29,849.69 1012.68,847.31 1013.09,844.91 1013.48,842.54 1013.88,840.14 1014.28,837.76 1014.68,835.36 1015.08,832.99 1015.48,830.59 1015.88,828.21 1016.28,825.81 1016.68,823.43 1017.08,821.03 1017.48,818.66 1017.88,816.26 1018.28,813.88 1018.68,811.48 1019.08,809.11 1019.48,806.71 1019.87,804.33 1020.27,801.93 1020.67,799.54 1021.07,797.13 1021.46,794.73 1021.83,792.34 1022.19,789.97 1022.54,787.58 1022.88,785.19 1023.19,782.79 1023.46,780.41 1023.68,778.01 1023.85,775.64 1023.96,773.23 1024.00,770.85 1023.95,768.45 1023.83,766.07 1023.64,763.68 1023.38,761.29 1023.03,758.91 1022.59,756.54 1022.03,754.14 1021.36,751.73 1020.53,749.25 1019.59,746.85 1018.50,744.47 1017.30,742.13 1015.89,739.70 1014.29,737.23 1012.51,734.79 1010.54,732.39 1008.40,730.07 1006.08,727.84 1003.69,725.81 1001.21,723.95 998.74,722.31 996.26,720.86 993.83,719.62 991.45,718.54 989.08,717.60 986.70,716.80 984.28,716.10 981.84,715.52 979.43,715.04 977.05,714.66 974.68,714.35 972.31,714.12 969.93,713.96 967.58,713.85 965.22,713.78 962.85,713.75 960.46,713.74 958.08,713.73 955.69,713.73 953.30,713.73 950.91,713.73 948.52,713.73 946.13,713.73 943.75,713.73 941.36,713.73 938.97,713.73 936.58,713.73 934.19,713.73 931.80,713.73 929.42,713.73 927.03,713.73 924.64,713.73 922.25,713.74 919.86,713.74 917.48,713.74 915.09,713.74 912.70,713.74 910.31,713.74 907.92,713.74 905.53,713.74 903.15,713.74 900.76,713.74 898.37,713.74 895.98,713.74 893.59,713.74 891.20,713.74 888.82,713.74 886.43,713.74 884.04,713.74 881.65,713.74 879.26,713.74 876.87,713.74 874.49,713.74 872.10,713.74 869.71,713.74 867.32,713.74 864.93,713.74 862.52,713.74 860.05,713.73 858.25,713.72 856.66,713.70 M 529.81,738.53 L 525.01,738.90 M 655.21,996.55 L 655.21,1002.40 M 515.09,1011.99 L 513.11,1008.67 M 647.40,1019.69 L 655.21,1015.90 M 512.75,1003.94 L 513.11,1008.67 M 521.95,741.11 L 525.01,738.90 M 845.69,699.16 L 841.16,713.50 M 671.56,1011.02 L 655.21,1002.40 M 856.66,713.70 L 841.16,713.50 M 525.01,738.90 L 525.01,738.90 M 655.21,1002.40 L 655.21,1002.40 M 513.11,1008.67 L 513.11,1008.67 M 841.16,713.50 L 841.16,713.50 M 643.54,738.23 L 656.17,738.95 M 655.19,751.07 L 656.17,738.95 M 663.86,733.93 L 656.17,738.95"  stroke-width="45.0"/>
  </g>
</svg>