<svg height="360" width="940" xmlns="http://www.w3.org/2000/svg" xmlns:xlink="http://www.w3.org/1999/xlink"><defs><path id="a" d="m197 0v-115h-134v115h-33v-248h33v105h134v-105h34v248z"/><path id="b" d="m100-194c62-1 85 37 85 99 1 63-27 99-86 99s-83-39-84-99c0-66 28-99 85-99zm-1 174c44 1 53-31 53-75 0-43-8-75-51-75s-53 32-53 75 10 74 51 75"/><path id="c" d="m143 0-64-87-23 19v68h-32v-261h32v163l83-92h37l-77 82 82 108z"/><path id="d" d="m30-248c87 1 191-15 191 75 0 78-77 80-158 76v97h-33zm33 125c57 0 124 11 124-50 0-59-68-47-124-48z"/><path id="e" d="m114-163c-78-16-53 91-57 163h-32l-1-190h30c1 12-1 29 2 39 6-27 23-49 58-41z"/><path id="f" d="m100-194c63 0 86 42 84 106h-135c0 40 14 67 53 68 26 1 43-12 49-29l28 8c-11 28-37 45-77 45-58 0-88-37-87-100 1-61 26-98 85-98zm52 81c6-60-76-77-97-28-3 7-6 17-6 28z"/><path id="g" d="m135-143c-3-34-86-38-87 0 15 53 115 12 119 90s-150 74-157 8l28-5c4 36 97 45 98 0-10-56-113-15-118-90-4-57 82-63 122-42 12 7 21 19 24 35"/><path id="h" d="m117-194c89-4 53 116 60 194h-32v-121c0-31-8-49-39-48-72 2-44 102-49 169h-32l-1-190h30c1 10-1 24 2 32 11-22 29-35 61-36"/><path id="i" d="m59-47c-2 24 18 29 38 22v24c-33 10-70 5-70-39v-127h-22v-23h24l9-43h21v43h35v23h-35z"/><path id="j" d="m141-36c-15 21-31 41-68 40-36-1-58-21-58-57-1-64 63-63 125-63 3-35-9-54-41-54-24 1-41 7-42 31l-33-3c5-37 33-52 76-52 45 0 72 20 72 64v82c-1 20 7 32 28 27v20c-31 9-61-2-59-35zm-93-17c0 20 12 33 32 33 41-3 63-29 60-74-43 2-92-5-92 41"/><path id="k" d="m24-231v-30h32v30zm0 231v-190h32v190z"/><path id="l" d="m24 0v-261h32v261z"/><path id="m" d="m210-169c-67 3-38 105-44 169h-31v-121c0-29-5-50-35-48-66 4-38 104-44 169h-31l-1-190h30c1 10-1 24 2 32 10-44 99-50 107 0 11-21 27-35 58-36 85-2 47 119 55 194h-31v-121c0-29-5-49-35-48"/><path id="n" d="m115-194c55 1 70 41 70 98s-16 98-70 100c-31 0-49-13-60-34l1 105h-32l-1-265h31l2 30c10-21 28-34 59-34zm-8 174c40 0 45-34 45-75s-6-73-45-74c-42 0-51 32-51 76 0 43 10 73 51 73"/><g id="o"><path d="m212-179c-10-28-35-45-73-45-59 0-87 40-87 99 0 60 29 101 89 101 43 0 62-24 78-52l27 14c-18 38-51 66-107 66-80 0-117-50-121-129-6-104 99-153 187-111 19 9 31 26 39 46" transform="scale(.05)"/><use transform="matrix(.05 0 0 .05 12.95 0)" xlink:href="#b"/><use transform="matrix(.05 0 0 .05 22.95 0)" xlink:href="#m"/><use transform="matrix(.05 0 0 .05 37.9 0)" xlink:href="#n"/><use transform="matrix(.05 0 0 .05 47.9 0)" xlink:href="#b"/><use transform="matrix(.05 0 0 .05 57.9 0)" xlink:href="#h"/><use transform="matrix(.05 0 0 .05 67.9 0)" xlink:href="#f"/><use transform="matrix(.05 0 0 .05 77.9 0)" xlink:href="#h"/><use transform="matrix(.05 0 0 .05 87.9 0)" xlink:href="#i"/></g><path id="p" d="m177-190c-10 125 41 293-110 261-23-6-38-20-44-43l32-5c15 47 100 32 89-28v-30c-11 21-29 36-61 36-54 0-68-41-68-96 0-56 16-97 71-98 29-1 48 16 59 35 1-10 0-23 2-32zm-83 168c36 0 50-32 50-73 0-42-14-75-50-75-39 0-46 34-46 75s6 73 46 73"/><path id="q" d="m85-194c31 0 48 13 60 33l-1-100h32l1 261h-30c-2-10 0-23-3-31-10 23-28 35-59 35-53 0-69-39-70-98 0-66 23-100 70-100zm9 24c-40 0-46 34-46 75 0 40 6 74 45 74 42 0 51-32 51-76 0-42-9-74-50-73"/><path id="r" d="m30 0v-248h33v221h125v27z"/><path id="s" d="m96-169c-40 0-48 33-48 73s9 75 48 75c24 0 41-14 43-38l32 2c-6 37-31 61-74 61-59 0-76-41-82-99-10-93 101-131 147-64 4 7 5 14 7 22l-32 3c-4-21-16-35-41-35"/></defs><g transform="translate(-140 -140)"><path d="m360 160h200v320h-200z" fill="#c1e4f7" fill-opacity=".5" stroke="#000" stroke-width="2"/><path d="m380 400h160v60h-160z" fill="#99d5ca" stroke="#000" stroke-width="2"/><g transform="translate(439.025 435.025)"><use transform="scale(.05)" xlink:href="#a"/><use transform="matrix(.05 0 0 .05 12.95 0)" xlink:href="#b"/><use transform="matrix(.05 0 0 .05 22.95 0)" xlink:href="#b"/><use transform="matrix(.05 0 0 .05 32.95 0)" xlink:href="#c"/></g><path d="m900 220h160v200h-160z" fill="#ffc374" stroke="#000" stroke-width="2"/><g transform="translate(922.575 310.65)"><use transform="scale(.05)" xlink:href="#d"/><use transform="matrix(.05 0 0 .05 12 0)" xlink:href="#e"/><use transform="matrix(.05 0 0 .05 17.95 0)" xlink:href="#f"/><use transform="matrix(.05 0 0 .05 27.95 0)" xlink:href="#g"/><use transform="matrix(.05 0 0 .05 36.95 0)" xlink:href="#f"/><use transform="matrix(.05 0 0 .05 46.95 0)" xlink:href="#h"/><use transform="matrix(.05 0 0 .05 56.95 0)" xlink:href="#i"/><use transform="matrix(.05 0 0 .05 61.95 0)" xlink:href="#j"/><use transform="matrix(.05 0 0 .05 71.95 0)" xlink:href="#i"/><use transform="matrix(.05 0 0 .05 76.95 0)" xlink:href="#k"/><use transform="matrix(.05 0 0 .05 80.9 0)" xlink:href="#b"/><use transform="matrix(.05 0 0 .05 90.9 0)" xlink:href="#h"/><use transform="matrix(.05 0 0 .05 100.9 0)" xlink:href="#j"/><use transform="matrix(.05 0 0 .05 110.9 0)" xlink:href="#l"/></g><use transform="translate(933.55 332.25)" xlink:href="#o"/><path d="m412 180h96l32 60-32 60h-96l-32-60z" fill="#c7e8ac" stroke="#000" stroke-width="2"/><g transform="translate(408.13 233.775)"><use transform="scale(.05)" xlink:href="#a"/><use transform="matrix(.05 0 0 .05 12.95 0)" xlink:href="#k"/><use transform="matrix(.05 0 0 .05 16.9 0)" xlink:href="#p"/><path d="m106-169c-72 0-44 102-49 169h-32v-261h32l-1 103c12-21 28-36 61-36 89 0 53 116 60 194h-32v-121c2-32-8-49-39-48" transform="matrix(.05 0 0 .05 26.9 0)"/><use transform="matrix(.05 0 0 .05 36.9 0)" xlink:href="#f"/><use transform="matrix(.05 0 0 .05 46.9 0)" xlink:href="#e"/></g><g transform="translate(465.98 233.775)"><path d="m140-251c81 0 123 46 123 126 0 79-44 129-123 129-81 0-123-49-123-129s42-126 123-126zm0 227c63 0 89-41 89-101s-29-99-89-99c-61 0-89 39-89 99s28 100 89 101" transform="scale(.05)"/><use transform="matrix(.05 0 0 .05 14 0)" xlink:href="#e"/><use transform="matrix(.05 0 0 .05 19.95 0)" xlink:href="#q"/><use transform="matrix(.05 0 0 .05 29.95 0)" xlink:href="#f"/><use transform="matrix(.05 0 0 .05 39.95 0)" xlink:href="#e"/></g><use transform="translate(413.555 255.375)" xlink:href="#o"/><path d="m562 240h307.34" fill="none" stroke="#000" stroke-width="2"/><path d="m562.03 241h-1.03v-2h1.03z"/><g stroke="#000" stroke-width="2"><path d="m884.6 240-14.26 4.64v-9.28z"/><path d="m340.5 240h-39.5" fill="none"/><path d="m355.76 240-14.26 4.64v-9.28z"/><path d="m301.03 240h-1.03" fill="none"/></g><path d="m160 210h100v60h-100z" fill="none"/><g transform="translate(173.15 245.025)"><use transform="scale(.05)" xlink:href="#d"/><use transform="matrix(.05 0 0 .05 12 0)" xlink:href="#e"/><use transform="matrix(.05 0 0 .05 17.95 0)" xlink:href="#b"/><use transform="matrix(.05 0 0 .05 27.95 0)" xlink:href="#n"/><use transform="matrix(.05 0 0 .05 37.95 0)" xlink:href="#f"/><use transform="matrix(.05 0 0 .05 47.95 0)" xlink:href="#e"/><use transform="matrix(.05 0 0 .05 53.9 0)" xlink:href="#i"/><use transform="matrix(.05 0 0 .05 58.9 0)" xlink:href="#k"/><use transform="matrix(.05 0 0 .05 62.85 0)" xlink:href="#f"/><use transform="matrix(.05 0 0 .05 72.85 0)" xlink:href="#g"/></g><path d="m712 400c15.46 0 28 13.43 28 30s-12.54 30-28 30h-84c-15.46 0-28-13.43-28-30s12.54-30 28-30z" fill="#5abaa7" stroke="#000" stroke-width="2"/><g transform="translate(625.05 435.025)"><use transform="scale(.05)" xlink:href="#a"/><use transform="matrix(.05 0 0 .05 12.95 0)" xlink:href="#b"/><use transform="matrix(.05 0 0 .05 22.95 0)" xlink:href="#b"/><use transform="matrix(.05 0 0 .05 32.95 0)" xlink:href="#c"/></g><g transform="translate(672 435.025)"><use transform="scale(.05)" xlink:href="#r"/><use transform="matrix(.05 0 0 .05 10 0)" xlink:href="#b"/><use transform="matrix(.05 0 0 .05 20 0)" xlink:href="#p"/><use transform="matrix(.05 0 0 .05 30 0)" xlink:href="#k"/><use transform="matrix(.05 0 0 .05 33.95 0)" xlink:href="#s"/></g><path d="m542 430h38.5" fill="none" stroke="#000" stroke-width="2"/><path d="m542.03 431h-1.03v-2h1.03z"/><path d="m595.76 430-14.26 4.64v-9.28z" stroke="#000" stroke-width="2"/><path d="m380 320h160v60h-160z" fill="#99d2f2" stroke="#000" stroke-width="2"/><g transform="translate(415.025 355.025)"><use transform="scale(.05)" xlink:href="#r"/><use transform="matrix(.05 0 0 .05 10 0)" xlink:href="#b"/><use transform="matrix(.05 0 0 .05 20 0)" xlink:href="#s"/><use transform="matrix(.05 0 0 .05 29 0)" xlink:href="#j"/><use transform="matrix(.05 0 0 .05 39 0)" xlink:href="#l"/></g><g transform="translate(462.975 355.025)"><path d="m185-189c-5-48-123-54-124 2 14 75 158 14 163 119 3 78-121 87-175 55-17-10-28-26-33-46l33-7c5 56 141 63 141-1 0-78-155-14-162-118-5-82 145-84 179-34 5 7 8 16 11 25" transform="scale(.05)"/><use transform="matrix(.05 0 0 .05 12 0)" xlink:href="#i"/><use transform="matrix(.05 0 0 .05 17 0)" xlink:href="#j"/><use transform="matrix(.05 0 0 .05 27 0)" xlink:href="#i"/><use transform="matrix(.05 0 0 .05 32 0)" xlink:href="#f"/></g><path d="m742 430h28v-128h-190.5" fill="none" stroke="#000" stroke-width="2"/><path d="m742.03 431h-1.1l.07-.98-.03-1.02h1.06z"/><path d="m564.24 302 14.26-4.64v9.28z" stroke="#000" stroke-width="2"/><path d="m280 200h20v80h-20z" fill="none"/><path d="m280 280c2.76 0 5-2.24 5-5v-30c0-2.76 2.24-5 5-5-2.76 0-5-2.24-5-5v-30c0-2.76-2.24-5-5-5" fill="none" stroke="#000" stroke-width="2"/><path d="m897.76 206.7h112.24l-17.76 66.6h-112.24z" fill="#ffdf71" stroke="#000" stroke-width="2"/><g transform="translate(902.03 233.225)"><path d="m205 0-28-72h-113l-28 72h-35l101-248h38l99 248zm-38-99-47-123c-12 45-31 82-46 123z" transform="scale(.05)"/><path d="m84 4c-89 4-54-116-61-194h32v120c0 31 7 50 39 49 72-2 45-101 50-169h31l1 190h-30c-1-10 1-25-2-33-11 22-28 36-60 37" transform="matrix(.05 0 0 .05 12 0)"/><use transform="matrix(.05 0 0 .05 22 0)" xlink:href="#p"/><use transform="matrix(.05 0 0 .05 32 0)" xlink:href="#m"/><use transform="matrix(.05 0 0 .05 46.95 0)" xlink:href="#f"/><use transform="matrix(.05 0 0 .05 56.95 0)" xlink:href="#h"/><use transform="matrix(.05 0 0 .05 66.95 0)" xlink:href="#i"/><use transform="matrix(.05 0 0 .05 71.95 0)" xlink:href="#f"/><use transform="matrix(.05 0 0 .05 81.95 0)" xlink:href="#q"/></g><g transform="translate(918.53 254.825)"><use transform="scale(.05)" xlink:href="#d"/><use transform="matrix(.05 0 0 .05 12 0)" xlink:href="#e"/><use transform="matrix(.05 0 0 .05 17.95 0)" xlink:href="#b"/><use transform="matrix(.05 0 0 .05 27.95 0)" xlink:href="#n"/><use transform="matrix(.05 0 0 .05 37.95 0)" xlink:href="#g"/></g></g></svg>