<svg viewBox="0 0 1000 1000" xmlns="http://www.w3.org/2000/svg" fill-rule="evenodd" clip-rule="evenodd"><path d="M499.953 38.8c-261.09 0-472.83 211.71-472.83 472.916 0 208.895 135.48 386.148 323.387 448.677 23.66 4.325 32.28-10.276 32.28-22.788 0-11.234-.405-40.96-.638-80.44-131.532 28.594-159.284-63.37-159.284-63.37-21.51-54.634-52.514-69.178-52.514-69.178-42.934-29.35 3.25-28.74 3.25-28.74 47.464 3.34 72.43 48.712 72.43 48.712C288.213 816.87 356.72 796 383.66 783.894c4.297-30.568 16.52-51.41 30.017-63.226-105-11.932-215.397-52.515-215.397-233.716 0-51.614 18.434-93.823 48.682-126.887-4.877-11.96-21.104-60.033 4.645-125.145 0 0 39.683-12.715 130.022 48.48 37.708-10.48 78.175-15.735 118.38-15.91 40.177.175 80.614 5.43 118.38 15.91 90.282-61.195 129.907-48.48 129.907-48.48 25.807 65.113 9.58 113.185 4.732 125.145 30.306 33.064 48.594 75.273 48.594 126.887 0 181.665-110.573 221.64-215.89 233.338 16.952 14.602 32.076 43.457 32.076 87.58 0 63.227-.58 114.23-.58 129.733 0 12.628 8.534 27.346 32.512 22.73 187.762-62.645 323.125-239.782 323.125-448.62C972.867 250.51 761.127 38.8 499.95 38.8z" fill="#181717"/></svg>