<svg viewBox="0 0 1000 1000" xmlns="http://www.w3.org/2000/svg" fill-rule="evenodd" clip-rule="evenodd"><path d="M499.953 38.8c-261.09 0-472.829 211.711-472.829 472.916 0 208.895 135.48 386.148 323.386 448.677 23.659 4.325 32.281-10.276 32.281-22.788 0-11.234-.406-40.96-.639-80.44-131.532 28.594-159.284-63.371-159.284-63.371-21.511-54.633-52.514-69.177-52.514-69.177-42.934-29.349 3.251-28.739 3.251-28.739 47.463 3.338 72.428 48.711 72.428 48.711 42.18 72.283 110.689 51.411 137.628 39.306 4.296-30.568 16.518-51.411 30.016-63.226-104.999-11.931-215.397-52.514-215.397-233.715 0-51.614 18.434-93.823 48.682-126.887-4.877-11.96-21.104-60.033 4.645-125.145 0 0 39.683-12.715 130.022 48.479 37.709-10.48 78.176-15.734 118.381-15.908 40.177.174 80.614 5.428 118.381 15.908 90.281-61.194 129.906-48.479 129.906-48.479 25.807 65.113 9.58 113.185 4.732 125.145 30.307 33.064 48.595 75.273 48.595 126.887 0 181.665-110.573 221.639-215.891 233.338 16.953 14.602 32.077 43.457 32.077 87.581 0 63.226-.581 114.23-.581 129.732 0 12.628 8.535 27.346 32.513 22.73 187.762-62.645 323.125-239.782 323.125-448.619 0-261.206-211.74-472.916-472.916-472.916z" fill="#181717"/></svg>
