<svg viewBox="0 0 1000 1000" xmlns="http://www.w3.org/2000/svg" fill-rule="evenodd" clip-rule="evenodd"><path d="M969.562 208.743c-34.554 15.324-71.687 25.684-110.662 30.34 39.782-23.844 70.327-61.603 84.717-106.596-37.226 22.08-78.46 38.116-122.348 46.755-35.15-37.446-85.223-60.846-140.638-60.846-106.41 0-192.68 86.27-192.68 192.668 0 15.104 1.708 29.806 4.992 43.91-160.13-8.034-302.1-84.74-397.13-201.31-16.585 28.456-26.086 61.554-26.086 96.863 0 66.844 34.014 125.818 85.713 160.372-31.58-1-61.292-9.67-87.268-24.102-.014.807-.017 1.61-.017 2.422 0 93.353 66.414 171.23 154.556 188.924-16.168 4.404-33.19 6.757-50.76 6.757-12.414 0-24.485-1.205-36.25-3.455 24.52 76.548 95.674 132.252 179.985 133.808-65.944 51.674-149.02 82.477-239.29 82.477-15.55 0-30.89-.91-45.958-2.69 85.266 54.666 186.54 86.56 295.347 86.56 354.397 0 548.192-293.588 548.192-548.194 0-8.35-.185-16.66-.556-24.925 37.64-27.164 70.31-61.1 96.142-99.737z" fill="#6CADDE"/></svg>