<svg viewBox="0 0 1000 1000" xmlns="http://www.w3.org/2000/svg" fill-rule="evenodd" clip-rule="evenodd"><path d="M969.562 208.743c-34.554 15.324-71.687 25.684-110.662 30.339 39.782-23.843 70.327-61.602 84.717-106.595-37.226 22.081-78.461 38.116-122.348 46.755-35.148-37.446-85.222-60.846-140.637-60.846-106.409 0-192.679 86.269-192.679 192.668 0 15.104 1.707 29.806 4.991 43.911-160.131-8.035-302.101-84.741-397.13-201.311-16.585 28.456-26.086 61.554-26.086 96.863 0 66.844 34.014 125.818 85.713 160.372-31.582-1-61.293-9.67-87.269-24.101-.014.807-.017 1.611-.017 2.422 0 93.353 66.414 171.23 154.556 188.924-16.169 4.404-33.19 6.757-50.761 6.757-12.414 0-24.485-1.206-36.251-3.456 24.52 76.548 95.675 132.252 179.986 133.808-65.944 51.674-149.019 82.477-239.29 82.477-15.551 0-30.889-.91-45.958-2.69 85.266 54.666 186.54 86.561 295.347 86.561 354.397 0 548.192-293.589 548.192-548.195 0-8.351-.185-16.66-.556-24.925 37.639-27.165 70.31-61.1 96.142-99.738z" fill="#6CADDE"/></svg>
