<svg clip-rule="evenodd" fill-rule="evenodd" stroke-linejoin="round" stroke-miterlimit="1.414" viewBox="0 0 277 277" xmlns="http://www.w3.org/2000/svg"><path d="m0 0h419.5v297.6h-419.5z" fill="none"/><g fill-rule="nonzero"><path d="m0 0h295.9v277h-295.9z" fill="#103184"/><path d="m162 150h17.2l113.2-150h-17.3z" fill="#ff1821"/><path d="m215.7 258.8c-.9-6.4-1.8-9.4-3-13.1l-9.4-29.7h-41.5l-7.5 9.8 6.7 20.2c1.4 4.2 2.7 7.5 5.3 12.9h-23.5l-3.9-12.9-9.4 12.9h-18.9l-4.1-12.9-9.9 12.9h-17.8-1.2c.4-.4.9-.8 1.2-1.2 4.8-4.2 7.8-8.1 10.5-11.6l12.1-15.8-4.8-14.3h-41.3l-32.3 42.8h-20c7.6-6.6 9.6-8.6 12.4-12.4l61.3-80.9c.9-1.2 1.6-2.3 2.3-3.4 1.2-1.9 2.2-4.1 2.7-6.7h19.9c0 4.5.6 6.8 1.6 10.2l13.9 43.7 7.2-9.4-11.4-34.7c-.9-2.6-1.9-5.8-4-9.8h24.1c.6 3.9 1.2 6.9 2.4 10.4l4.3 13.7 10.4-13.8c2.4-3.2 5.5-6.8 7.1-10.2h21c-4.1 3.3-6.8 6.7-9.4 10l-23.3 31 4.1 12.9 33.3-43.7c.9-1.2 1.8-2.4 2.7-3.7 1.2-1.9 2.3-3.9 3-6.5h19.7c.2 3.4.6 6.5 1.7 9.6l25.3 80.9c1.2 4.3 2 6.9 5.3 13h-24.8zm-151-55.6h28.2l-8.6-26.1zm57.5 22.1 4.5 14.3 7.3-9.4-5-14zm49.8-22.1h27.4l-8.6-26.1z" fill="#fefefe"/></g></svg>