<svg id="Ebene_1" xmlns="http://www.w3.org/2000/svg" xmlns:xlink="http://www.w3.org/1999/xlink" viewBox="0 0 1400 370"><style>.st0{fill:#fff}.st1{fill-rule:evenodd;clip-rule:evenodd}.st2{clip-path:url(#SVGID_2_)}</style><path class="st0" d="M758.8 210.4c-12.4 7.9-51.8 29.4-112 29.4-53.1 0-78.3-24.3-85.9-33.5-33.6 19.9-77.3 34.7-116.2 34.7-44.5 0-65.7-13.6-74.5-22.1l-4.1 11.9H105C73.6 230.8-11.1 213 1.2 119.7 12.4 35.3 88 11.3 139.5 7.1h167.9c27.9-1.6 58.6 2.2 80.2 21.3 4.2 3.7 7.4 7.2 9.4 9.5 6.8-3.4 24.1-11.9 46.9-22 55.6-24.5 133.3-12 158.4 25.6 13-10.5 51-35.1 95.4-35.1H941s6.6.1 14.6 1.1c17 2.1 26.6 6 38.2 18.5l1.6 1.8c13.4-14.3 31.8-22.2 51.7-20.7h221.7c31.1-1.5 65.4 13 78.8 43.1 13.1 29.3 7.9 60.2-15.1 81.4 3.1 7.8 3.8 16.5 1.8 24.6-2.5 10.2-23.8 74.7-23.8 74.7H808.2c-18.8.9-36.9-2.4-48.3-18.8l-1.1-1.7z"/><path class="st1" d="M441.3 152.7c15.3 13 44.6 8.9 65.4-9.2 20.8-18.1 25.2-43.4 9.9-56.4-15.3-13-44.6-8.9-65.4 9.2-20.8 18.1-25.2 43.3-9.9 56.4M394.8 193c-34.3-29.1-24.3-85.6 22.2-126.1s112-49.7 146.3-20.6c34.3 29.1 24.3 85.6-22.2 126.1s-112 49.7-146.3 20.6"/><path class="st1" d="M649.6 152.7c15.3 13 44.6 8.9 65.4-9.2 20.8-18.1 25.3-43.4 9.9-56.4-15.3-13-44.6-8.9-65.4 9.2-20.8 18.1-25.3 43.3-9.9 56.4M603 193c-34.3-29.1-24.3-85.6 22.2-126.1s112-49.7 146.3-20.6c34.2 29.1 24.3 85.6-22.2 126.1S637.3 222.1 603 193"/><path d="M1122.1 199.4l50.4-162.3h91.8s56.3-5.5 60.9 41.9c3.1 31.8-31.8 46.4-31.8 46.4s14.7 12.6 10.6 26.9c-4.1 14.1-14.7 47.1-14.7 47.1H1231s11.7-36.9 12.9-41.6c2.7-10.7-6.7-12-6.7-12h-34l-16.6 53.5h-64.5zm92.3-90.3h35.1s12.9-1.4 15.2-14.4c2.5-13.9-9.9-15.1-9.9-15.1h-31.2l-9.2 29.5zm-246.7 90.3s30.2-98.7 33.7-110c12.2-39.8 27.8-52.3 63.1-52.3h95.9l-13.3 42.7h-75.5s-9.9-1-13 10.4c-3.1 11.3 6.9 10.4 6.9 10.4h46.7l-11.5 37.7h-47.2s-8.4-1-11.4 9.5c-3.4 11.8 8 11.8 8 11.8h72.1l-12.4 39.8H967.7zm-151.5 0s-20.3.6-26.1-12c-10.5-22.8 9.2-36.8 9.2-36.8l94.2-71H801c-2.2-14.8-9.1-28.2-21.1-38.4-1.5-1.3-3.1-2.5-4.8-3.7H950s13.9 1 20.3 12.9c11.6 21.8-9.9 36.2-9.9 36.2L866 159.9h100.6l-12.1 39.6H816.2zM198 80s-30-.3-53.3 2.9c-19.1 2.7-44.8 15.1-49.3 39.3-5.8 31.5 23.7 33 37.6 34.1 6.7.5 41 0 41 0l-13.5 43.2s-42.7.1-53.1-.1c-18.9-.3-44.4-6.3-56.3-18.4-10.9-11.1-25.1-32.7-13.7-70.3 16.9-56.1 73.4-67.8 100-71.4 22.3-3 73.9-2.1 73.9-2.1L198 80zM265.3 109.1h35s12.9-1.4 15.2-14.4c2.5-13.9-9.9-15.1-9.9-15.1h-31.2l-9.1 29.5zm-92.6 90.3l50.7-162.3H315s56.4-5.5 61 41.9c3.1 31.8-32.5 46.4-32.5 46.4s15.4 12.6 11.3 26.9c-4.1 14.1-14.8 47.1-14.8 47.1h-58.3s11.7-36.9 12.9-41.6c2.7-10.7-6.7-12-6.7-12h-34l-16.6 53.5h-64.6z"/><path d="M758.8 210.4c-12.4 7.9-51.8 29.4-112 29.4-53.1 0-78.3-24.3-85.9-33.5-33.6 19.9-77.3 34.7-116.2 34.7-44.5 0-65.7-13.6-74.5-22.1l-4.1 11.9H105C73.6 230.8-11.1 213 1.2 119.7 12.4 35.3 88 11.3 139.5 7.1h167.9c27.9-1.6 58.6 2.2 80.2 21.2 4.2 3.7 7.4 7.2 9.4 9.5 6.8-3.4 24.1-11.9 47-22C499.5-8.6 577.2 3.9 602.3 41.5c13-10.5 51-35.1 95.4-35.1H941s6.5.1 14.6 1.1c17 2.1 26.6 6 38.2 18.5l1.6 1.8c13.4-14.3 31.8-22.2 51.7-20.7h221.7c31.1-1.5 65.4 13 78.8 43.1 13.1 29.3 7.9 60.2-15.1 81.4 3.1 7.8 3.8 16.5 1.8 24.7-2.5 10.3-23.8 74.7-23.8 74.7H808.2c-18.8.9-36.9-2.4-48.3-18.8l-1.1-1.8zM697.7 15c-27.3 0-77.5 16.2-97.2 41.2-27-51.6-110-51.4-153.2-32.3-29.5 13-52.9 25-52.9 25s-3.1-4.3-4.8-6.2c-18.9-21.7-39.9-25.9-67.7-26.9-8.6-.3-14.3 0-14.3 0H139.8C89.3 19.9 20.1 43 9.8 121-1.3 205.3 74.1 222.2 105 222.2h254.8l7.6-22s5 8.3 5.4 8.7c14 19.2 52 23.5 71.9 23.5 39.9 0 85.1-16.2 118.6-37.8 0 0 3.6 5.6 6.3 8.5 19.3 20.7 49.9 28.1 77.2 28.1 39.3 0 83.5-9.9 115.5-34 0 0 2.3 5.8 2.6 6.5 8.3 16.5 26.3 19.5 43.2 18.6h496.1c4.1-12.4 19.5-59.3 21.7-68.1 2.3-9.3.3-16.8-4.3-24.9 0 0 3.5-2.7 4.4-3.4 20.9-18.4 25.4-46.1 13.8-72.1-11.8-26.5-43.2-39.5-70.6-38h-222.3s-3.5-.3-8.7.3c-21.5 2.3-30.1 9.9-43.1 25.8 0 0-4.8-7-7.5-9.9-13-14.1-27.8-16.6-46.5-16.8H697.7z"/><defs><path id="SVGID_1_" d="M374.9 271.4h950.6v97.5H374.9z"/></defs><clipPath id="SVGID_2_"><use xlink:href="#SVGID_1_" overflow="visible"/></clipPath><path class="st2" d="M1325.5 293.4c-2.5-.7-4.8-1.1-6.9-1.1-2.9 0-5.3.7-7.2 2-1.9 1.3-3.5 3.1-4.8 5.6h-.4l-1.6-6.5h-6v53h8.5v-37.1c.4-2.5 1.5-4.6 3.3-6.3 1.8-1.7 4.2-2.5 7.2-2.5 1.9 0 3.9.3 6 1l1.9-8.1zm-51.6 9.4c2 2.2 3.1 5.9 3.1 11.3h-26.3c.5-5.3 2-9.1 4.5-11.2 2.5-2.2 5.8-3.3 10-3.3 3.8 0 6.7 1 8.7 3.2m6.4 33.2c-1.2 1.1-3 2.1-5.4 3-2.4.9-4.8 1.3-7.2 1.3-3.1 0-5.7-.4-7.9-1.3-2.1-.9-3.9-2.2-5.2-3.8-1.4-1.7-2.3-3.7-3-6.1-.6-2.4-1-5.2-1-8.3h34c.4-2.8.6-5.4.6-7.7 0-4.5-.6-8-1.8-10.7-1.2-2.7-2.7-4.8-4.7-6.3-1.9-1.5-4.1-2.5-6.5-3-2.4-.5-4.8-.8-7.2-.8-7.5 0-13.3 2.4-17.3 7.1-4 4.8-6 11.6-6 20.7 0 4.2.5 8.1 1.4 11.5.9 3.4 2.3 6.3 4.2 8.7 1.9 2.4 4.4 4.3 7.3 5.6 3 1.3 6.5 2 10.5 2 3.6 0 7-.5 10.2-1.5 3.2-1 5.9-2.3 8-4l-3-6.4zm-79.4 2.7c-1.7-1-3.1-2.4-4.1-4.1-1.1-1.8-1.8-3.9-2.3-6.4-.5-2.5-.7-5.2-.7-8.2 0-6.9 1.4-12 4.1-15.3 2.8-3.3 6.5-4.9 11.3-4.9 4.4 0 8 .7 10.8 2V329c-.8 3.8-2.3 6.6-4.3 8.4-2.1 1.8-4.9 2.7-8.5 2.7-2.5.1-4.6-.4-6.3-1.4m27.6-43.1c-2.3-.8-4.8-1.6-7.7-2.2-2.9-.6-6.3-1-10.3-1-8.4 0-14.8 2.3-19.1 7.1-4.3 4.7-6.5 11.6-6.5 20.6 0 9.4 1.7 16.3 5 20.8 3.4 4.4 8.6 6.7 15.8 6.7 3.5 0 6.4-.6 8.6-1.7 2.2-1.1 4-2.7 5.4-4.7h.4v5.1c0 2.7-.2 5-.6 6.9-.4 1.9-1.2 3.5-2.3 4.8-1.1 1.2-2.6 2.1-4.5 2.7-1.9.5-4.3.8-7.3.8-3.2 0-5.8-.3-7.7-.9-2-.6-3.8-1.2-5.4-1.8l-2.2 7.2c1.8.8 4 1.5 6.6 2.1 2.6.5 6 .8 10.2.8 7.1 0 12.5-1.6 16.2-4.9 3.6-3.3 5.5-8.3 5.5-15.2v-53.2zm-56.1 50.8v-32c0-4.4-.4-8-1.1-10.9-.7-2.9-1.8-5.1-3.3-6.8-1.5-1.7-3.3-2.9-5.5-3.6-2.2-.7-4.7-1-7.6-1-4 0-7.4.7-10.2 2.2-2.9 1.4-5.1 3.3-6.8 5.6h-.4l-1.6-6.5h-5.9v53h8.5v-36.2c1-3.1 2.7-5.6 5.1-7.6 2.4-2 5.5-3 9.3-3 4.2 0 7.2 1.4 8.8 4.2 1.6 2.8 2.4 6.9 2.4 12.5v30.2h8.3zm-70.4-65.5c1 1 2.2 1.5 3.8 1.5 1.6 0 2.9-.5 3.9-1.5s1.4-2.2 1.4-3.7c0-1.6-.5-2.9-1.4-3.9-.9-1-2.2-1.5-3.9-1.5-1.6 0-2.8.5-3.8 1.5-.9 1-1.4 2.3-1.4 3.9 0 1.5.5 2.7 1.4 3.7m-20.3 0c1 1 2.2 1.5 3.8 1.5 1.6 0 2.8-.5 3.8-1.5s1.4-2.2 1.4-3.7c0-1.6-.5-2.9-1.4-3.9-1-1-2.2-1.5-3.8-1.5-1.5 0-2.8.5-3.8 1.5s-1.4 2.3-1.4 3.9c-.1 1.5.4 2.7 1.4 3.7m3 56.6c-1.8-1.6-2.7-3.6-2.7-6.1 0-1.8.5-3.2 1.4-4.4 1-1.2 2.2-2.1 3.8-2.8 1.6-.7 3.4-1.1 5.5-1.4 2.1-.2 4.2-.4 6.4-.4 1 0 2 0 3 .1 1 0 2 .1 3 .2v8.8c-.4.9-.9 1.9-1.7 2.9-.7 1-1.7 1.9-2.8 2.7-1.1.8-2.5 1.5-4 2s-3.3.8-5.3.8c-2.6-.1-4.8-.8-6.6-2.4m-5.6-33.7c1-.6 2.1-1.1 3.4-1.6 1.3-.5 2.7-.9 4.1-1.2 1.4-.3 2.9-.6 4.2-.8 1.4-.2 2.7-.3 3.9-.3 4.1 0 6.9.8 8.5 2.3 1.5 1.6 2.3 4.3 2.3 8.2 0 1.7-.1 3.6-.3 5.7-1-.1-2-.2-2.9-.2h-2.9c-3.9 0-7.4.3-10.7.8-3.2.5-6 1.4-8.3 2.7-2.3 1.2-4.1 2.9-5.3 5-1.3 2.1-1.9 4.7-1.9 7.8 0 2.3.4 4.4 1.2 6.3.8 1.8 1.9 3.4 3.4 4.7 1.4 1.3 3.1 2.3 5 3 1.9.7 4 1.1 6.3 1.1s4.3-.3 6-.7c1.8-.5 3.3-1.1 4.7-1.8 1.3-.7 2.5-1.6 3.4-2.6 1-1 1.8-1.9 2.4-2.9h.5l2.2 7.4h6.3c-.6-2-1-4.1-1.2-6.5-.2-2.3-.3-4.8-.3-7.4 0-3.6.1-7.4.3-11.4.2-4 .3-8.2.3-12.4 0-1.9-.2-3.8-.6-5.7-.4-1.9-1.2-3.7-2.3-5.3-1.2-1.6-2.9-2.9-5.1-3.9-2.2-1-5.2-1.5-8.9-1.5-3.9 0-7.6.4-11.2 1.2-3.6.8-6.7 2-9.4 3.6l2.9 6.4zm-17.3 42.6v-32c0-4.4-.3-8-1-10.9-.7-2.9-1.7-5.1-3.2-6.8-1.4-1.7-3.3-2.9-5.5-3.6-2.2-.7-4.8-1-7.8-1-3.8 0-7 .7-9.6 2-2.6 1.3-4.8 3.1-6.6 5.2h-.4v-27.1h-8.5v74.2h8.5v-35.3c.8-3.4 2.5-6.2 5.2-8.3 2.7-2.1 5.7-3.2 9-3.2 2.3 0 4.2.4 5.7 1.1 1.4.7 2.6 1.7 3.4 3.1.9 1.4 1.4 3.1 1.8 5.2.3 2.1.5 4.5.5 7.3v30.2h8.5zm-58 0v-32c0-4.4-.4-8-1.1-10.9-.7-2.9-1.8-5.1-3.3-6.8-1.4-1.7-3.3-2.9-5.5-3.6-2.2-.7-4.7-1-7.6-1-4 0-7.4.7-10.2 2.2-2.9 1.4-5.1 3.3-6.8 5.6h-.4l-1.6-6.5h-5.9v53h8.5v-36.2c1-3.1 2.7-5.6 5.1-7.6 2.4-2 5.5-3 9.3-3 4.2 0 7.1 1.4 8.7 4.2 1.6 2.8 2.4 6.9 2.4 12.5v30.2h8.4zm-87.7-8.9c-1.8-1.6-2.7-3.6-2.7-6.1 0-1.8.5-3.2 1.4-4.4 1-1.2 2.2-2.1 3.8-2.8 1.6-.7 3.4-1.1 5.5-1.4 2.1-.2 4.2-.4 6.4-.4 1 0 2 0 3 .1 1 0 2 .1 3 .2v8.8c-.3.9-.9 1.9-1.6 2.9-.7 1-1.7 1.9-2.8 2.7-1.1.8-2.5 1.5-4 2-1.6.5-3.3.8-5.3.8-2.7-.1-4.9-.8-6.7-2.4m-5.6-33.7c1-.6 2.1-1.1 3.5-1.6 1.3-.5 2.7-.9 4.1-1.2 1.4-.3 2.9-.6 4.2-.8 1.4-.2 2.7-.3 3.9-.3 4.1 0 6.9.8 8.5 2.3 1.5 1.6 2.3 4.3 2.3 8.2 0 1.7-.1 3.6-.3 5.7-1-.1-1.9-.2-2.9-.2h-2.9c-3.9 0-7.4.3-10.7.8-3.2.5-6 1.4-8.3 2.7-2.3 1.2-4.1 2.9-5.4 5-1.3 2.1-1.9 4.7-1.9 7.8 0 2.3.4 4.4 1.2 6.3.8 1.8 1.9 3.4 3.3 4.7 1.4 1.3 3.1 2.3 5 3 1.9.7 4 1.1 6.3 1.1s4.3-.3 6-.7c1.8-.5 3.3-1.1 4.7-1.8 1.3-.7 2.5-1.6 3.5-2.6s1.7-1.9 2.4-2.9h.5l2.2 7.4h6.3c-.6-2-1-4.1-1.2-6.5-.2-2.3-.3-4.8-.3-7.4 0-3.6.1-7.4.3-11.4.2-4 .3-8.2.3-12.4 0-1.9-.2-3.8-.6-5.7-.4-1.9-1.2-3.7-2.3-5.3-1.2-1.6-2.9-2.9-5.1-3.9-2.2-1-5.2-1.5-8.9-1.5-3.9 0-7.6.4-11.2 1.2-3.6.8-6.7 2-9.4 3.6l2.9 6.4zm-45.9 34.9c-1.7-1-3.1-2.4-4.2-4.2-1.1-1.8-1.8-3.9-2.3-6.4-.5-2.5-.7-5.2-.7-8.1 0-7.1 1.4-12.2 4.1-15.4 2.8-3.2 6.6-4.8 11.4-4.8 2.7 0 4.8.2 6.5.6 1.6.4 3.1 1.1 4.4 2.1v26.3c-.8 3.8-2.2 6.7-4.4 8.5-2.1 1.9-5 2.8-8.6 2.8-2.3.2-4.4-.3-6.2-1.4m27.8-66.5h-8.5v22.1c-1.8-.7-3.4-1.1-4.9-1.4-1.5-.3-3.6-.4-6.2-.4-7.5 0-13.4 2.3-17.6 7.1-4.3 4.7-6.4 11.6-6.4 20.6 0 9.5 1.7 16.4 5.1 20.9 3.4 4.5 8.7 6.7 15.7 6.7 3.6 0 6.7-.8 9.4-2.4 2.7-1.6 4.7-3.7 6.1-6.2h.4l2.1 7.5h5.7c-.6-2.8-.9-5.7-1-8.6-.1-2.9-.1-6.2-.1-9.8v-56.1zm-85.9 65.3c-1.8-1.6-2.7-3.6-2.7-6.1 0-1.8.5-3.2 1.4-4.4.9-1.2 2.2-2.1 3.8-2.8 1.6-.7 3.4-1.1 5.5-1.4 2.1-.2 4.2-.4 6.4-.4 1 0 2 0 3 .1 1 0 2 .1 3 .2v8.8c-.3.9-.9 1.9-1.6 2.9-.7 1-1.7 1.9-2.8 2.7-1.1.8-2.5 1.5-4 2-1.6.5-3.3.8-5.3.8-2.7-.1-4.9-.8-6.7-2.4m-5.6-33.7c1-.6 2.1-1.1 3.5-1.6 1.3-.5 2.7-.9 4.1-1.2 1.5-.3 2.9-.6 4.2-.8 1.4-.2 2.7-.3 3.9-.3 4.1 0 6.9.8 8.5 2.3 1.6 1.6 2.3 4.3 2.3 8.2 0 1.7-.1 3.6-.3 5.7-1-.1-2-.2-2.9-.2h-2.9c-3.9 0-7.4.3-10.7.8-3.2.5-6 1.4-8.3 2.7-2.3 1.2-4.1 2.9-5.4 5-1.3 2.1-1.9 4.7-1.9 7.8 0 2.3.4 4.4 1.2 6.3.8 1.8 1.9 3.4 3.3 4.7 1.4 1.3 3.1 2.3 5 3 1.9.7 4 1.1 6.3 1.1s4.3-.3 6-.7c1.8-.5 3.3-1.1 4.7-1.8 1.3-.7 2.5-1.6 3.4-2.6 1-1 1.8-1.9 2.4-2.9h.5l2.2 7.4h6.3c-.6-2-1-4.1-1.2-6.5-.2-2.3-.3-4.8-.3-7.4 0-3.6.1-7.4.3-11.4.2-4 .3-8.2.3-12.4 0-1.9-.2-3.8-.6-5.7-.4-1.9-1.2-3.7-2.3-5.3-1.2-1.6-2.9-2.9-5.1-3.9-2.2-1-5.2-1.5-8.9-1.5-3.9 0-7.6.4-11.2 1.2-3.6.8-6.7 2-9.4 3.6l3 6.4zm-11-10.4c-2.6-.7-4.8-1.1-6.9-1.1-2.9 0-5.3.7-7.2 2-1.9 1.3-3.5 3.1-4.8 5.6h-.4l-1.6-6.5h-6v53h8.5v-37.1c.4-2.5 1.5-4.6 3.3-6.3 1.8-1.7 4.2-2.5 7.2-2.5 1.9 0 3.9.3 6 1l1.9-8.1zm-36.1 0c-2.5-.7-4.8-1.1-6.9-1.1-2.9 0-5.3.7-7.2 2-1.9 1.3-3.5 3.1-4.8 5.6h-.4l-1.6-6.5H727v53h8.5v-37.1c.4-2.5 1.5-4.6 3.3-6.3 1.8-1.7 4.2-2.5 7.2-2.5 1.9 0 3.9.3 6 1l1.8-8.1zm-42.3 53v-32c0-4.4-.3-8-1-10.9-.7-2.9-1.7-5.1-3.2-6.8-1.4-1.7-3.3-2.9-5.5-3.6-2.2-.7-4.8-1-7.7-1-3.8 0-7 .7-9.6 2-2.6 1.3-4.8 3.1-6.6 5.2h-.4v-27.1H669v74.2h8.5v-35.3c.8-3.4 2.5-6.2 5.2-8.3 2.7-2.1 5.7-3.2 9-3.2 2.3 0 4.2.4 5.7 1.1 1.4.7 2.6 1.7 3.5 3.1.8 1.4 1.4 3.1 1.7 5.2.3 2.1.5 4.5.5 7.3v30.2h8.4zm-87.7-8.9c-1.8-1.6-2.7-3.6-2.7-6.1 0-1.8.5-3.2 1.4-4.4 1-1.2 2.2-2.1 3.8-2.8 1.6-.7 3.4-1.1 5.5-1.4 2.1-.2 4.2-.4 6.4-.4 1 0 2 0 3 .1 1 0 2 .1 3 .2v8.8c-.3.9-.9 1.9-1.6 2.9-.7 1-1.7 1.9-2.8 2.7-1.1.8-2.5 1.5-4 2-1.6.5-3.3.8-5.3.8-2.7-.1-4.9-.8-6.7-2.4m-5.6-33.7c1-.6 2.1-1.1 3.5-1.6 1.3-.5 2.7-.9 4.1-1.2 1.4-.3 2.9-.6 4.2-.8 1.4-.2 2.7-.3 3.9-.3 4.1 0 6.9.8 8.5 2.3 1.6 1.6 2.3 4.3 2.3 8.2 0 1.7-.1 3.6-.3 5.7-1-.1-2-.2-2.9-.2h-2.9c-3.9 0-7.4.3-10.7.8-3.2.5-6 1.4-8.3 2.7-2.3 1.2-4.1 2.9-5.4 5-1.3 2.1-1.9 4.7-1.9 7.8 0 2.3.4 4.4 1.2 6.3.8 1.8 1.9 3.4 3.3 4.7 1.4 1.3 3.1 2.3 5 3 1.9.7 4 1.1 6.3 1.1s4.3-.3 6-.7c1.8-.5 3.3-1.1 4.7-1.8 1.3-.7 2.5-1.6 3.4-2.6 1-1 1.8-1.9 2.4-2.9h.5l2.2 7.4h6.3c-.6-2-1-4.1-1.2-6.5-.2-2.3-.3-4.8-.3-7.4 0-3.6.1-7.4.3-11.4.2-4 .3-8.2.3-12.4 0-1.9-.2-3.8-.6-5.7-.4-1.9-1.2-3.7-2.3-5.3-1.2-1.6-2.9-2.9-5.1-3.9-2.2-1-5.2-1.5-8.9-1.5-3.9 0-7.6.4-11.2 1.2-3.6.8-6.7 2-9.4 3.6l3 6.4zm-55.8 42.6h8.8v-33.2h29.5v-7.8h-29.5V280h31.6v-7.8h-40.4v74.2zm-38.4-53c-2.5-.7-4.8-1.1-6.9-1.1-2.9 0-5.3.7-7.2 2-1.9 1.3-3.5 3.1-4.8 5.6h-.4l-1.6-6.5h-5.9v53h8.5v-37.1c.4-2.5 1.5-4.6 3.3-6.3 1.8-1.7 4.2-2.5 7.2-2.5 1.9 0 3.9.3 6 1l1.8-8.1zm-51.5 9.4c2 2.2 3.1 5.9 3.1 11.3h-26.3c.5-5.3 2-9.1 4.5-11.2 2.5-2.2 5.9-3.3 10-3.3 3.8 0 6.7 1 8.7 3.2m6.4 33.2c-1.2 1.1-3 2.1-5.4 3-2.4.9-4.8 1.3-7.2 1.3-3.1 0-5.7-.4-7.9-1.3s-3.9-2.2-5.2-3.8c-1.3-1.7-2.3-3.7-3-6.1-.6-2.4-1-5.2-1-8.3h34c.4-2.8.6-5.4.6-7.7 0-4.5-.6-8-1.8-10.7-1.2-2.7-2.8-4.8-4.7-6.3-1.9-1.5-4.1-2.5-6.5-3-2.4-.5-4.8-.8-7.2-.8-7.5 0-13.3 2.4-17.3 7.1-4 4.8-6 11.6-6 20.7 0 4.2.5 8.1 1.4 11.5.9 3.4 2.3 6.3 4.2 8.7 1.9 2.4 4.3 4.3 7.3 5.6 3 1.3 6.5 2 10.5 2 3.6 0 7-.5 10.2-1.5 3.2-1 5.9-2.3 8-4l-3-6.4zm-71.8-54.1c3.2 1.8 5.8 4.1 7.7 6.9 1.9 2.8 3.3 6 4 9.5.8 3.5 1.2 7 1.2 10.5 0 3.9-.4 7.8-1.3 11.5-.8 3.7-2.3 7-4.3 9.9-2 2.9-4.7 5.1-8.1 6.8-3.4 1.7-7.5 2.5-12.5 2.5-.3 0-1 0-2-.1-1 0-2-.1-3.1-.1s-2.1-.1-3.1-.1-1.7-.1-2-.2v-59.4c.5-.1 1.2-.1 2.1-.2.9-.1 1.9-.1 2.9-.2 1.1-.1 2.1-.1 3.2-.1h3c5 .1 9 1 12.3 2.8m-32.2 64.6c.7.1 1.9.3 3.5.3 1.6.1 3.4.2 5.3.3 1.9.1 3.8.2 5.6.2h4.4c6.4 0 11.9-1.1 16.4-3.2 4.5-2.2 8.2-5 11-8.6 2.8-3.6 4.9-7.7 6.2-12.3 1.3-4.6 1.9-9.5 1.9-14.5 0-5.5-.7-10.6-2.1-15.2-1.4-4.6-3.5-8.5-6.3-11.8-2.8-3.3-6.4-5.9-10.8-7.7-4.3-1.8-9.5-2.7-15.4-2.7h-4.8c-1.7 0-3.5.1-5.3.1-1.8 0-3.6.1-5.2.2-1.7.1-3.2.3-4.5.5v74.4z"/><path d="M1382.5 21.8c3.7-.4 6.6-2.4 6.6-6.8 0-4.9-2.9-7.2-8.4-7.2h-9.5v24.5h3.7V22.1h4l6.8 10.3h3.7l-6.9-10.6zm-7.4-3.1v-7.4h5.1c2.6 0 5.3.4 5.3 3.6 0 3.7-3 3.8-6.4 3.8h-4z"/><g><path d="M1379.9 40.2c-11.1 0-20.1-9-20.1-20.1s9-20.1 20.1-20.1 20.1 9 20.1 20.1-9 20.1-20.1 20.1zm0-38.2c-10 0-18.1 8.1-18.1 18.1s8.1 18.1 18.1 18.1c10 0 18.1-8.1 18.1-18.1S1389.9 2 1379.9 2z"/></g></svg>