<svg xmlns="http://www.w3.org/2000/svg" viewBox="0 0 150 21.8"><path fill="#5C525A" d="M131.5 10.8c-.1 3-.1 6.4-.1 8.3 0 1.6.4 1.9 1 1.9 1 0 2.2-1.4 2.6-3 .2 0 .7 0 .5.6-.6 1.9-2.1 3.2-4 3.2-1.7 0-3.7-.5-3.7-3.9 0-2.2.1-6.5.1-9.3h-7.1l-.1 2.3c-.1 3-.1 6.4-.1 8.3 0 1.6.4 1.9 1 1.9 1 0 2.2-1.4 2.6-3 .2 0 .7 0 .5.6-.6 1.9-2.1 3.2-4 3.2-1.7 0-3.7-.5-3.7-3.9 0-2.2.1-6.5.1-9.3h-1.9v-.9h1.9V3.7h3.6l-.1 4.1h7.2V3.7h3.6l-.1 4.1h3.9v.7h-3.9l.2 2.3zm-44 2c0-1.3 1.8-4.2 3.8-4.2 1.6 0 1.9 1.1 1.9 3.1 0 3.1-.1 5.7-.2 8.8l-1.3.2v.6h6.7v-.6l-1.9-.2c.1-3.2.2-5.5.2-8.7 0-3.1-1.7-4.3-4.5-4.3-1.9 0-3.8 1-4.8 2.9h-.3l.1-2.8-5.5.4v.6l2.3.1v11.9l-1.8.2v.6h7.5v-.6l-2.1-.2v-7.8zM72.9 8.2c-2.6 0-3.4 2.5-3.4 6.4 0 3.7.8 6.4 3.4 6.4s3.4-2.8 3.4-6.4c0-3.9-.7-6.4-3.4-6.4m0 13.5c-4.6 0-7.3-3.1-7.3-7.1s2.7-7.1 7.3-7.1 7.3 3.1 7.3 7.1-2.7 7.1-7.3 7.1M62 2.9c0-1.1-.9-2.1-2.1-2.1-1.2 0-2.1 1-2.1 2.1.1 1.2 1 2.1 2.2 2.1 1.1 0 2-.9 2-2.1m1.7 18.5v-.6l-1.8-.2V7.7l-6 .4v.6l2.4.1v11.9l-1.8.2v.6h7.2zm-23.3-20L38 1.3V.7l6-.7v6.2c0 1.1 0 3.1-.2 4.3h.2c1-1.9 2.8-2.9 4.8-2.9 2.8 0 4.5 1.2 4.5 4.3 0 3.2-.1 5.5-.2 8.7l1.9.2v.6h-6.7v-.6l1.3-.2c.1-3.1.2-5.7.2-8.8 0-2.1-.4-3.1-1.9-3.1-2 0-3.8 2.9-3.8 4.2v7.8l2.1.2v.6h-7.5v-.6l1.8-.2V1.4zM31.6 21c-1.3 0-2.8-.6-3-3.4-1.3 0-2.1.8-2.1 1.8 0 1.8 2.6 2.3 4.9 2.3 3.3 0 5.6-1.5 5.6-4 0-4.8-7-3.2-7-6.9 0-1.5.6-2.6 2.3-2.6 1.3 0 1.8 1 1.8 2.1 0 .4-.1.9-.2 1.3.3.2.7.3 1 .3.9 0 1.8-.7 1.8-1.8 0-1.6-1.8-2.6-4-2.6-3.9 0-5.6 1.7-5.6 4.1 0 4.3 7 3.5 7 6.7-.1 2.1-1.3 2.7-2.5 2.7M5.5 7v.8h4.2v.7H5.5v12l3.1.2v.6H.1v-.6l1.8-.2v-12H0v-.7h1.9v-.4c0-5 2.3-7.4 6.4-7.4 2.3 0 4.3.7 4.3 2.6 0 1.2-.9 1.9-1.9 1.9-.4 0-.7-.1-1-.3 0-.3.1-.7.1-1.2C9.8 1.9 9.4.7 8.2.7 5.7.8 5.5 4.3 5.5 7m14.1 10.3c-.1 2-1.6 3.3-2.8 3.3-1.2 0-1.8-.9-1.8-2.2 0-2.8 2.2-3.5 4.6-3.5v2.4zm5.7 4.1v-.6l-2.3-.2v-8.3c0-3-1.1-4.8-5.7-4.8-1.7 0-5 .7-5 3.3 0 1.2.8 1.7 1.6 1.7.4 0 .9-.1 1.3-.4-.1-.4-.1-.8-.1-1.1 0-1.8.9-2.8 2.4-2.8 1.7 0 2.2 1.6 2.2 3.7v2.3c-5 0-8.1 1.4-8.1 4.5 0 2.1 1.8 3.1 3.7 3.1 2 0 3.7-.6 4.5-2.5l.3 2.5 5.2-.4zm82.1-13.1c-1.8 0-2.7 1.8-3 4.3h5.3c0-.3.1-.6.1-.9 0-2-.7-3.4-2.4-3.4m5.8 5.3h-8.8v1c0 4 .9 6.3 3.3 6.3 1.9 0 3.7-.9 4.7-2.5.3.1.6.2.6.6 0 .7-1.6 2.7-5.8 2.7-4 0-6.7-2.8-6.7-7.1s2.9-7.1 7-7.1c3.9 0 5.8 1.8 5.8 4.8 0 .4-.1.8-.1 1.3m33.3-1.9c0 .3 0 .7-.1.9h-5.3c.3-2.5 1.2-4.3 3-4.3s2.4 1.4 2.4 3.4m3.5.6c0-3-1.9-4.8-5.8-4.8-4.1 0-7 2.8-7 7.1 0 4.2 2.7 7.1 6.7 7.1 4.2 0 5.8-2 5.8-2.7 0-.4-.3-.5-.6-.6-1 1.6-2.9 2.5-4.7 2.5-2.4 0-3.3-2.3-3.3-6.3v-1h8.8c0-.5.1-.9.1-1.3"/></svg>