<svg xmlns="http://www.w3.org/2000/svg" width="425" height="60"><style>.st0{fill:#429398;} .st1{fill:#FFFFFF;} .st2{fill:#FAFFFF;}</style><path d="M91.9 11.3c-.4-3.5-2.4-5.2-6.8-5.2-3.9 0-6 1.4-6 4.1 0 1.9 1.6 3.3 5.3 4.1 4.3 1 7.4 1.8 10 3 3.1 1.3 5.3 3.4 5.3 8.8 0 6.5-5.8 10.2-12.8 10.2-9.8 0-14.8-3.9-15-11.3h6.8c.1 3.4 3.2 5.6 7.3 5.6 4.4 0 6.8-1.8 6.8-4.5 0-2.2-.9-3.6-5.3-4.5-10.4-2.2-14.9-4-14.9-11.3 0-5.6 4.1-10 12.5-10 8.2 0 13.3 4.4 13.5 11.1h-6.7zm29.6 23.9V20h-13.2v15.2h-7.1V1.3h7.1V14h13.2V1.3h7.1v33.9h-7.1zm32.9 0l-2.1-7h-12.5l-2.4 7h-7.5L142 1.3h8.2l11.9 33.9h-7.7zM146 8.9l-4.4 13.5h8.6L146 8.9zm37.1 26.3v-8.7c0-3.3-1.2-4.5-5.3-4.5h-7.5v13.3h-6.9v-34h17.2c6.3 0 10.4 4.2 10.4 9.8 0 3.6-1.8 6.7-5 7.9 3 1 4.1 2.7 4.1 6.6v9.6h-7zm-12.8-28v9h8.9c3.8 0 5.2-1.9 5.2-4.5 0-2.7-1.4-4.5-4.9-4.5h-9.2zm22.3 28V1.3h24.9v5.9h-18v7.2h16.6v6h-16.6v8.7h18.8v6h-25.7zm44.8 0c-.2-.6-.4-1.5-.4-2.2-1.6 1.7-4.2 2.9-7.6 2.9-5.7 0-8.4-2.8-8.4-6.9 0-7.2 4.8-8.1 11.5-9 3.3-.5 4.2-1.1 4.2-2.9 0-1.6-1.6-2.6-4.2-2.6-3 0-4.2 1.5-4.5 3.7h-6.2c.1-5.2 3-8.8 11-8.8s10.7 3.6 10.7 9.9v15.9h-6.1zm-.5-12.3c-.7.7-1.8 1-4.3 1.5-3.8.7-5 1.8-5 3.9 0 1.9 1.1 2.8 3.2 2.8 3.4 0 6-2.5 6-5.5l.1-2.7zm40 .6c-1.4 7.7-6.7 12.8-14.6 12.8-8.9 0-15.7-6.1-15.7-17.7 0-11.5 6.1-18.5 15.8-18.5 8.5 0 13.8 5.4 14.5 12.2h-7.1c-1-3.8-4-6.1-7.3-6.1-5.9 0-8.6 4.5-8.6 11.9 0 7.5 2.8 11.9 8.3 11.9 4.2 0 6.7-2.4 7.7-6.6h7zm22.4 11.7l-2.1-7h-12.5l-2.4 7h-7.5l12.1-33.9h8.2L307 35.2h-7.7zm-8.4-26.3l-4.4 13.5h8.6l-4.2-13.5zm43.7 26.3V12l-6.3 23.2h-7L315 12.1v23.1h-6.6V1.3h10.4l6.1 24.8L331 1.3h10.2v33.9h-6.6zm9 0V1.3h14.9c6.6 0 10.9 4.8 10.9 11s-4.2 10.6-10.9 10.6h-7.9v12.3h-7zm13.8-18.1c4.1 0 5.8-2.1 5.8-5 0-2.8-1.7-4.9-5.8-4.9h-6.7v9.9h6.7zm13.1 18.1V1.3h24.9v5.9h-18v7.2H394v6h-16.6v8.7h18.8v6h-25.7zm46.6 0v-8.7c0-3.3-1.2-4.5-5.3-4.5h-7.5v13.3h-6.9v-34h17.2c6.3 0 10.4 4.2 10.4 9.8 0 3.6-1.8 6.7-5 7.9 3 1 4.1 2.7 4.1 6.6v9.6h-7zm-12.8-28v9h8.9c3.8 0 5.2-1.9 5.2-4.5 0-2.7-1.4-4.5-4.9-4.5h-9.2z"/><path class="st0" d="M379.4 49.4v-2.7h2.8v2.7h-2.8zM391.5 45.8c-.3 2.3-2.1 3.8-4.5 3.8-2.7 0-4.5-1.8-4.5-5.3s1.8-5.1 4.6-5.1c2.6 0 4.3 1.5 4.5 3.8H389c-.1-1-.9-1.6-1.9-1.6-1.1 0-2 .7-2 2.8 0 2.1.9 3.2 1.9 3.2s1.8-.6 1.9-1.6h2.6zM392 44.5c0-3.1 1.9-5.2 5.1-5.2 3.1 0 5 2 5 5.2 0 3.1-1.9 5.2-5 5.2-3.2-.1-5.1-2.2-5.1-5.2zm7.4 0c0-2-.8-3-2.4-3-1.6 0-2.4 1-2.4 3s.8 3 2.4 3c1.6 0 2.4-1 2.4-3zM402.4 49.4v-2.7h2.8v2.7h-2.8zM412.5 49.4v-6c0-1.5-.4-1.9-1.7-1.9-1.4 0-2 .8-2 2.3v5.6h-2.6v-9.8h2.5V41c.6-1.1 1.6-1.7 3.2-1.7 1.9 0 3.3 1.1 3.3 3.3v6.8h-2.7zM415.8 49.4v-2l5-5.8h-4.7v-2.1h8v2.1l-5 5.6h5.2v2.1h-8.5zM80.3 59.5v-7.6c0-1.9-.6-2.5-2.2-2.5-1.7 0-2.6 1-2.6 2.9v7.2h-3.3V46.9h3.2v1.8c.8-1.4 2.1-2.2 4.1-2.2 2.4 0 4.2 1.5 4.2 4.2v8.7h-3.4zM88 54c.1 1.9 1.2 3.1 2.8 3.1 1.1 0 2-.5 2.3-1.4h3.4c-.8 2.6-2.8 4.1-5.5 4.1-4.2 0-6.3-2.3-6.3-6.9 0-3.9 2.2-6.4 6.1-6.4 3.9 0 5.9 2.5 5.9 7.5H88zm5.3-2.1c-.1-1.9-1.3-2.8-2.6-2.8s-2.4 1-2.6 2.8h5.2zM107.4 59.5l-2-7.3-2 7.3H100l-3.6-12.6h3.5L102 55l1.7-8.1h3.4l2 8.1 1.9-8.1h3.4l-3.6 12.6h-3.4zM121.1 59.5v-2.6l6.4-7.4h-6v-2.6h10.3v2.7l-6.4 7.2h6.6v2.7h-10.9zM135.8 54c.1 1.9 1.2 3.1 2.8 3.1 1.1 0 2-.5 2.3-1.4h3.4c-.8 2.6-2.8 4.1-5.5 4.1-4.2 0-6.3-2.3-6.3-6.9 0-3.9 2.2-6.4 6.1-6.4 3.9 0 5.9 2.5 5.9 7.5h-8.7zm5.3-2.1c-.1-1.9-1.3-2.8-2.6-2.8s-2.4 1-2.6 2.8h5.2zM153.5 59.5c-.1-.3-.2-.7-.2-1.1-.8.9-2.1 1.5-3.8 1.5-2.9 0-4.2-1.4-4.2-3.5 0-3.6 2.4-4.1 5.8-4.5 1.7-.2 2.1-.6 2.1-1.4 0-.8-.8-1.3-2.1-1.3-1.5 0-2.1.7-2.3 1.9h-3.1c.1-2.6 1.5-4.4 5.5-4.4s5.4 1.8 5.4 5v8h-3.1zm-.3-6.2c-.3.3-.9.5-2.2.7-1.9.4-2.5.9-2.5 2 0 .9.6 1.4 1.6 1.4 1.7 0 3-1.3 3-2.7l.1-1.4zM157.9 59.5V42.2h3.3v17.2h-3.3zM170.4 59.5c-.1-.3-.2-.7-.2-1.1-.8.9-2.1 1.5-3.8 1.5-2.9 0-4.2-1.4-4.2-3.5 0-3.6 2.4-4.1 5.8-4.5 1.7-.2 2.1-.6 2.1-1.4 0-.8-.8-1.3-2.1-1.3-1.5 0-2.1.7-2.3 1.9h-3.1c.1-2.6 1.5-4.4 5.5-4.4s5.4 1.8 5.4 5v8h-3.1zm-.2-6.2c-.3.3-.9.5-2.2.7-1.9.4-2.5.9-2.5 2 0 .9.6 1.4 1.6 1.4 1.7 0 3-1.3 3-2.7l.1-1.4zM183 59.5v-7.6c0-1.9-.6-2.5-2.2-2.5-1.7 0-2.6 1-2.6 2.9v7.2h-3.3V46.9h3.2v1.8c.8-1.4 2.1-2.2 4.1-2.2 2.4 0 4.2 1.5 4.2 4.2v8.7H183zM196.4 59.5V58c-.8 1.3-2 1.9-3.5 1.9-3.2 0-5.5-2.5-5.5-6.8 0-3.8 1.9-6.5 5.2-6.5 1.6 0 2.8.6 3.7 2v-6.3h3.3v17.2h-3.2zm0-6c0-2.7-.9-4.1-2.8-4.1s-2.9 1.3-2.9 3.9c0 2.3 1.2 3.8 2.8 3.8 1.7 0 2.9-1.5 2.9-3.6zM47.3 59.6H3.4c-1.9 0-3.4-1.5-3.4-3.4V12.3C0 5.6 5.4.3 12 .3h43.9c1.9 0 3.4 1.5 3.4 3.4v43.9c.1 6.6-5.3 12-12 12z"/><path class="st1" d="M56 34.3c0 1.9-1.6 3.5-3.5 3.5-1.8 0-3.3-1.4-3.5-3.2v11.1c0 1.9-1.6 3.5-3.5 3.5H10.3V13.7c0-1.7 1.4-3.1 3.1-3.1h11.8c-1.7-.2-3.1-1.7-3.1-3.5s1.4-3.3 3.2-3.5H13.2c-5.4 0-9.8 4.4-9.8 9.8v40.2c0 1.3 1.1 2.4 2.4 2.4h40.4c5.5 0 9.9-4.4 9.9-9.9L56 34.3z"/><path class="st2" d="M56 7.5V6.1c0-1.3-1.1-2.4-2.4-2.4H29.8c-1.9 0-3.5 1.6-3.5 3.5s1.6 3.5 3.5 3.5h13.5L28.7 25.3c-1.6 1.6-1.6 4.1 0 5.7 1.6 1.6 4.1 1.6 5.7 0L49 16.4v13.7c0 1.9 1.6 3.5 3.5 3.5S56 32 56 30.1V7.5z"/></svg>