<svg viewBox="0 0 1046 1046" xmlns="http://www.w3.org/2000/svg" xmlns:xlink="http://www.w3.org/1999/xlink"><linearGradient id="a" x1="85%" x2="15%" y1="85%" y2="15%"><stop offset="0" stop-color="#f1ea08"/><stop offset=".333" stop-color="#e6772e"/><stop offset=".667" stop-color="#f11b5b"/><stop offset="1" stop-color="#ec4e89"/></linearGradient><path d="m744.856 592.811h-148.166v-144.833h-148.167v-144.833h296.333zm-296.333 0h148.167v144.833h-296.333v-289.666h148.166zm78.321-588.368c1.506.438 3.038.797 4.519 1.313.087.03 10.905 4.321 10.986 4.353 104.132 41.321 208.536 84.47 311.873 128.909 7.243 3.115 14.483 6.237 21.72 9.367 5.385 2.328 12.16 5.34 16.168 11.237 1.882 2.769 3.317 6.548 4.612 9.543 48.886 113.053 95.771 226.32 140.455 339.088 1.202 3.034 2.859 6.72 3.487 10.009.59 3.096.59 6.275 0 9.37-.628 3.289-2.285 6.976-3.487 10.009-43.706 110.301-89.05 219.898-135.767 328.232-1.561 3.62-3.124 7.239-4.688 10.856-2.329 5.386-5.341 12.161-11.237 16.169-2.77 1.882-6.548 3.317-9.543 4.612-112.415 48.61-225.965 95.63-339.089 140.455-3.033 1.202-6.72 2.859-10.009 3.487-3.095.59-6.274.59-9.369 0-3.29-.628-6.976-2.285-10.01-3.487-107.731-42.688-215.74-87.322-322.801-133.427-5.431-2.339-10.86-4.681-16.287-7.028-5.385-2.329-12.161-5.341-16.168-11.237-2.805-4.128-4.583-9.471-6.957-14.971-47.66-110.369-94.109-222.616-138.11-333.661-2.162-5.455-4.823-12.375-3.487-19.379.935-4.901 3.457-9.937 5.666-15.505 44.507-112.159 90.868-223.957 138.276-333.592 2.329-5.385 5.34-12.161 11.237-16.168 2.769-1.882 6.548-3.317 9.543-4.612 112.534-48.662 224.565-95.076 339.088-140.455 3.034-1.202 6.72-2.86 10.01-3.487 3.075-.587 6.24-.296 9.369 0zm-6.432 52.141c-109.525 43.493-218.173 88.489-326.786 135.358l-1.726.746c-47.039 108.859-92.457 218.599-136.104 328.511l-.693 1.748c43.664 110.115 89.196 219.95 136.052 328.533l.745 1.726c109.064 47.129 219.033 92.629 328.512 136.105l1.747.693c110.211-43.702 219.95-89.197 328.534-136.052l1.725-.746c46.943-108.634 92.19-217.926 136.105-328.511l.693-1.748c-43.718-110.252-89.197-219.95-136.052-328.533l-.746-1.726c-108.853-47.038-218.599-92.457-328.511-136.104l-1.748-.693c-.582.231-1.165.462-1.747.693z" fill="url(#a)"/></svg>